<?xml version="1.0" encoding="UTF-8"?><svg id="uuid-704484e0-9f3b-47b0-a673-e090411e52c2" xmlns="http://www.w3.org/2000/svg" xmlns:xlink="http://www.w3.org/1999/xlink" viewBox="0 0 890.08 641.22"><defs><style>.uuid-47cf5a8d-c9f8-4197-99ee-1f9029a17855{letter-spacing:.05em;}.uuid-31b14b72-ee6b-49d4-bd2c-600351470ac6{letter-spacing:.09em;}.uuid-6a3fd6a0-7f45-4f9a-8134-6e88c8fd81d0{font-family:AktivGrotesk-Medium, 'Aktiv Grotesk';font-size:26.39px;}.uuid-6a3fd6a0-7f45-4f9a-8134-6e88c8fd81d0,.uuid-a29610b4-d8f9-49c5-85a9-64df3f7ead6a,.uuid-869f5ca4-ddb2-460c-bba8-1c0fc48c26d2,.uuid-041901fd-c014-45fa-b7da-ae7b7357b2b4,.uuid-1f669d0e-5f2c-4620-929a-166d2108732e,.uuid-789c3892-ee1b-4f42-8f7a-399e220b790e{fill:#fff;}.uuid-e47e008f-01ee-4f3a-ab9b-997e235f52d5{filter:url(#uuid-7d9d26ea-1e3d-4f72-a17e-2a5bcdc28044);}.uuid-e47e008f-01ee-4f3a-ab9b-997e235f52d5,.uuid-5bdaff39-ae38-4291-89ef-5628826a6e89{fill:#139ae1;}.uuid-ca6f707e-c7a1-4a3e-b1bd-f7284dae0746{fill:#ffec00;}.uuid-260a1f03-1a2a-4543-80c7-a240bfa32846{fill:#e5e5e5;}.uuid-6305ead2-8286-484e-b9d9-93ba15ad57c9{fill:#333;}.uuid-cbddbecd-4e0f-44ed-9a75-3878caedbf62{fill:#a80fef;}.uuid-b7a6de0b-ef29-43b7-867e-818933a4e65f{letter-spacing:-.02em;}.uuid-869f5ca4-ddb2-460c-bba8-1c0fc48c26d2{stroke:#d1d1d1;stroke-miterlimit:10;}.uuid-041901fd-c014-45fa-b7da-ae7b7357b2b4{filter:url(#uuid-04758a9e-ed8b-48e1-b5a7-73a22842cf2b);}.uuid-118a3b42-b3aa-4def-a65d-d7c5f69ec079{letter-spacing:.07em;}.uuid-1f669d0e-5f2c-4620-929a-166d2108732e{font-family:AktivGrotesk-Bold, 'Aktiv Grotesk';font-size:65.14px;}.uuid-789c3892-ee1b-4f42-8f7a-399e220b790e{opacity:.6;}</style><filter id="uuid-7d9d26ea-1e3d-4f72-a17e-2a5bcdc28044" filterUnits="userSpaceOnUse"><feOffset dx="0" dy="0"/><feGaussianBlur result="uuid-8f2dc1a7-9905-4801-9d1f-ae876b5208ae" stdDeviation="5.16"/><feFlood flood-color="#000" flood-opacity=".08"/><feComposite in2="uuid-8f2dc1a7-9905-4801-9d1f-ae876b5208ae" operator="in"/><feComposite in="SourceGraphic"/></filter><filter id="uuid-04758a9e-ed8b-48e1-b5a7-73a22842cf2b" filterUnits="userSpaceOnUse"><feOffset dx="0" dy="0"/><feGaussianBlur result="uuid-6a7c8e1b-8c2c-4ebc-8964-fb3590570feb" stdDeviation="7.85"/><feFlood flood-color="#000" flood-opacity=".08"/><feComposite in2="uuid-6a7c8e1b-8c2c-4ebc-8964-fb3590570feb" operator="in"/><feComposite in="SourceGraphic"/></filter></defs><g><rect class="uuid-a29610b4-d8f9-49c5-85a9-64df3f7ead6a" x="147.64" width="675" height="412" rx="15.79" ry="15.79"/><rect class="uuid-869f5ca4-ddb2-460c-bba8-1c0fc48c26d2" x="176.64" y="58" width="61.25" height="32.15"/><rect class="uuid-869f5ca4-ddb2-460c-bba8-1c0fc48c26d2" x="238.39" y="58" width="61.25" height="32.15"/><rect class="uuid-869f5ca4-ddb2-460c-bba8-1c0fc48c26d2" x="300.14" y="58" width="61.25" height="32.15"/><rect class="uuid-869f5ca4-ddb2-460c-bba8-1c0fc48c26d2" x="361.89" y="58" width="61.25" height="32.15"/><rect class="uuid-869f5ca4-ddb2-460c-bba8-1c0fc48c26d2" x="423.64" y="58" width="61.25" height="32.15"/><rect class="uuid-869f5ca4-ddb2-460c-bba8-1c0fc48c26d2" x="485.39" y="58" width="61.25" height="32.15"/><rect class="uuid-869f5ca4-ddb2-460c-bba8-1c0fc48c26d2" x="547.14" y="58" width="61.25" height="32.15"/><rect class="uuid-869f5ca4-ddb2-460c-bba8-1c0fc48c26d2" x="608.89" y="58" width="61.25" height="32.15"/><rect class="uuid-869f5ca4-ddb2-460c-bba8-1c0fc48c26d2" x="670.64" y="58" width="61.25" height="32.15"/><rect class="uuid-869f5ca4-ddb2-460c-bba8-1c0fc48c26d2" x="732.39" y="58" width="61.25" height="32.15"/><rect class="uuid-869f5ca4-ddb2-460c-bba8-1c0fc48c26d2" x="176.64" y="90.65" width="61.25" height="32.15"/><rect class="uuid-869f5ca4-ddb2-460c-bba8-1c0fc48c26d2" x="238.39" y="90.65" width="61.25" height="32.15"/><rect class="uuid-869f5ca4-ddb2-460c-bba8-1c0fc48c26d2" x="300.14" y="90.65" width="61.25" height="32.15"/><rect class="uuid-869f5ca4-ddb2-460c-bba8-1c0fc48c26d2" x="361.89" y="90.65" width="61.25" height="32.15"/><rect class="uuid-869f5ca4-ddb2-460c-bba8-1c0fc48c26d2" x="423.64" y="90.65" width="61.25" height="32.15"/><rect class="uuid-869f5ca4-ddb2-460c-bba8-1c0fc48c26d2" x="485.39" y="90.65" width="61.25" height="32.15"/><rect class="uuid-869f5ca4-ddb2-460c-bba8-1c0fc48c26d2" x="547.14" y="90.65" width="61.25" height="32.15"/><rect class="uuid-869f5ca4-ddb2-460c-bba8-1c0fc48c26d2" x="608.89" y="90.65" width="61.25" height="32.15"/><rect class="uuid-869f5ca4-ddb2-460c-bba8-1c0fc48c26d2" x="670.64" y="90.65" width="61.25" height="32.15"/><rect class="uuid-869f5ca4-ddb2-460c-bba8-1c0fc48c26d2" x="732.39" y="90.65" width="61.25" height="32.15"/><rect class="uuid-869f5ca4-ddb2-460c-bba8-1c0fc48c26d2" x="176.64" y="123.3" width="61.25" height="32.15"/><rect class="uuid-869f5ca4-ddb2-460c-bba8-1c0fc48c26d2" x="238.39" y="123.3" width="61.25" height="32.15"/><rect class="uuid-869f5ca4-ddb2-460c-bba8-1c0fc48c26d2" x="300.14" y="123.3" width="61.25" height="32.15"/><rect class="uuid-869f5ca4-ddb2-460c-bba8-1c0fc48c26d2" x="361.89" y="123.3" width="61.25" height="32.15"/><rect class="uuid-869f5ca4-ddb2-460c-bba8-1c0fc48c26d2" x="423.64" y="123.3" width="61.25" height="32.15"/><rect class="uuid-869f5ca4-ddb2-460c-bba8-1c0fc48c26d2" x="485.39" y="123.3" width="61.25" height="32.15"/><rect class="uuid-869f5ca4-ddb2-460c-bba8-1c0fc48c26d2" x="547.14" y="123.3" width="61.25" height="32.15"/><rect class="uuid-869f5ca4-ddb2-460c-bba8-1c0fc48c26d2" x="608.89" y="123.3" width="61.25" height="32.15"/><rect class="uuid-869f5ca4-ddb2-460c-bba8-1c0fc48c26d2" x="670.64" y="123.3" width="61.25" height="32.15"/><rect class="uuid-869f5ca4-ddb2-460c-bba8-1c0fc48c26d2" x="732.39" y="123.3" width="61.25" height="32.15"/><rect class="uuid-869f5ca4-ddb2-460c-bba8-1c0fc48c26d2" x="176.64" y="155.95" width="61.25" height="32.15"/><rect class="uuid-869f5ca4-ddb2-460c-bba8-1c0fc48c26d2" x="238.39" y="155.95" width="61.25" height="32.15"/><rect class="uuid-869f5ca4-ddb2-460c-bba8-1c0fc48c26d2" x="300.14" y="155.95" width="61.25" height="32.15"/><rect class="uuid-869f5ca4-ddb2-460c-bba8-1c0fc48c26d2" x="361.89" y="155.95" width="61.25" height="32.15"/><rect class="uuid-869f5ca4-ddb2-460c-bba8-1c0fc48c26d2" x="423.64" y="155.95" width="61.25" height="32.15"/><rect class="uuid-869f5ca4-ddb2-460c-bba8-1c0fc48c26d2" x="485.39" y="155.95" width="61.25" height="32.15"/><rect class="uuid-869f5ca4-ddb2-460c-bba8-1c0fc48c26d2" x="547.14" y="155.95" width="61.25" height="32.15"/><rect class="uuid-869f5ca4-ddb2-460c-bba8-1c0fc48c26d2" x="608.89" y="155.95" width="61.25" height="32.15"/><rect class="uuid-869f5ca4-ddb2-460c-bba8-1c0fc48c26d2" x="670.64" y="155.95" width="61.25" height="32.15"/><rect class="uuid-869f5ca4-ddb2-460c-bba8-1c0fc48c26d2" x="732.39" y="155.95" width="61.25" height="32.15"/><rect class="uuid-869f5ca4-ddb2-460c-bba8-1c0fc48c26d2" x="176.64" y="188.6" width="61.25" height="32.15"/><rect class="uuid-869f5ca4-ddb2-460c-bba8-1c0fc48c26d2" x="238.39" y="188.6" width="61.25" height="32.15"/><rect class="uuid-869f5ca4-ddb2-460c-bba8-1c0fc48c26d2" x="300.14" y="188.6" width="61.25" height="32.15"/><rect class="uuid-869f5ca4-ddb2-460c-bba8-1c0fc48c26d2" x="361.89" y="188.6" width="61.25" height="32.15"/><rect class="uuid-869f5ca4-ddb2-460c-bba8-1c0fc48c26d2" x="423.64" y="188.6" width="61.25" height="32.15"/><rect class="uuid-869f5ca4-ddb2-460c-bba8-1c0fc48c26d2" x="485.39" y="188.6" width="61.25" height="32.15"/><rect class="uuid-869f5ca4-ddb2-460c-bba8-1c0fc48c26d2" x="547.14" y="188.6" width="61.25" height="32.15"/><rect class="uuid-869f5ca4-ddb2-460c-bba8-1c0fc48c26d2" x="608.89" y="188.6" width="61.25" height="32.15"/><rect class="uuid-869f5ca4-ddb2-460c-bba8-1c0fc48c26d2" x="670.64" y="188.6" width="61.25" height="32.15"/><rect class="uuid-869f5ca4-ddb2-460c-bba8-1c0fc48c26d2" x="732.39" y="188.6" width="61.25" height="32.15"/><rect class="uuid-869f5ca4-ddb2-460c-bba8-1c0fc48c26d2" x="176.64" y="221.25" width="61.25" height="32.15"/><rect class="uuid-869f5ca4-ddb2-460c-bba8-1c0fc48c26d2" x="238.39" y="221.25" width="61.25" height="32.15"/><rect class="uuid-869f5ca4-ddb2-460c-bba8-1c0fc48c26d2" x="300.14" y="221.25" width="61.25" height="32.15"/><rect class="uuid-869f5ca4-ddb2-460c-bba8-1c0fc48c26d2" x="361.89" y="221.25" width="61.25" height="32.15"/><rect class="uuid-869f5ca4-ddb2-460c-bba8-1c0fc48c26d2" x="423.64" y="221.25" width="61.25" height="32.15"/><rect class="uuid-869f5ca4-ddb2-460c-bba8-1c0fc48c26d2" x="485.39" y="221.25" width="61.25" height="32.15"/><rect class="uuid-869f5ca4-ddb2-460c-bba8-1c0fc48c26d2" x="547.14" y="221.25" width="61.25" height="32.15"/><rect class="uuid-869f5ca4-ddb2-460c-bba8-1c0fc48c26d2" x="608.89" y="221.25" width="61.25" height="32.15"/><rect class="uuid-869f5ca4-ddb2-460c-bba8-1c0fc48c26d2" x="670.64" y="221.25" width="61.25" height="32.15"/><rect class="uuid-869f5ca4-ddb2-460c-bba8-1c0fc48c26d2" x="732.39" y="221.25" width="61.25" height="32.15"/><rect class="uuid-869f5ca4-ddb2-460c-bba8-1c0fc48c26d2" x="176.64" y="253.9" width="61.25" height="32.15"/><rect class="uuid-869f5ca4-ddb2-460c-bba8-1c0fc48c26d2" x="238.39" y="253.9" width="61.25" height="32.15"/><rect class="uuid-869f5ca4-ddb2-460c-bba8-1c0fc48c26d2" x="300.14" y="253.9" width="61.25" height="32.15"/><rect class="uuid-869f5ca4-ddb2-460c-bba8-1c0fc48c26d2" x="361.89" y="253.9" width="61.25" height="32.15"/><rect class="uuid-869f5ca4-ddb2-460c-bba8-1c0fc48c26d2" x="423.64" y="253.9" width="61.25" height="32.15"/><rect class="uuid-869f5ca4-ddb2-460c-bba8-1c0fc48c26d2" x="485.39" y="253.9" width="61.25" height="32.15"/><rect class="uuid-869f5ca4-ddb2-460c-bba8-1c0fc48c26d2" x="547.14" y="253.9" width="61.25" height="32.15"/><rect class="uuid-869f5ca4-ddb2-460c-bba8-1c0fc48c26d2" x="608.89" y="253.9" width="61.25" height="32.15"/><rect class="uuid-869f5ca4-ddb2-460c-bba8-1c0fc48c26d2" x="670.64" y="253.9" width="61.25" height="32.15"/><rect class="uuid-869f5ca4-ddb2-460c-bba8-1c0fc48c26d2" x="732.39" y="253.9" width="61.25" height="32.15"/><rect class="uuid-869f5ca4-ddb2-460c-bba8-1c0fc48c26d2" x="176.64" y="286.55" width="61.25" height="32.15"/><rect class="uuid-869f5ca4-ddb2-460c-bba8-1c0fc48c26d2" x="238.39" y="286.55" width="61.25" height="32.15"/><rect class="uuid-869f5ca4-ddb2-460c-bba8-1c0fc48c26d2" x="300.14" y="286.55" width="61.25" height="32.15"/><rect class="uuid-869f5ca4-ddb2-460c-bba8-1c0fc48c26d2" x="361.89" y="286.55" width="61.25" height="32.15"/><rect class="uuid-869f5ca4-ddb2-460c-bba8-1c0fc48c26d2" x="423.64" y="286.55" width="61.25" height="32.15"/><rect class="uuid-869f5ca4-ddb2-460c-bba8-1c0fc48c26d2" x="485.39" y="286.55" width="61.25" height="32.15"/><rect class="uuid-869f5ca4-ddb2-460c-bba8-1c0fc48c26d2" x="547.14" y="286.55" width="61.25" height="32.15"/><rect class="uuid-869f5ca4-ddb2-460c-bba8-1c0fc48c26d2" x="608.89" y="286.55" width="61.25" height="32.15"/><rect class="uuid-869f5ca4-ddb2-460c-bba8-1c0fc48c26d2" x="670.64" y="286.55" width="61.25" height="32.15"/><rect class="uuid-869f5ca4-ddb2-460c-bba8-1c0fc48c26d2" x="732.39" y="286.55" width="61.25" height="32.15"/><rect class="uuid-869f5ca4-ddb2-460c-bba8-1c0fc48c26d2" x="176.64" y="319.2" width="61.25" height="32.15"/><rect class="uuid-869f5ca4-ddb2-460c-bba8-1c0fc48c26d2" x="238.39" y="319.2" width="61.25" height="32.15"/><rect class="uuid-869f5ca4-ddb2-460c-bba8-1c0fc48c26d2" x="300.14" y="319.2" width="61.25" height="32.15"/><rect class="uuid-869f5ca4-ddb2-460c-bba8-1c0fc48c26d2" x="361.89" y="319.2" width="61.25" height="32.15"/><rect class="uuid-869f5ca4-ddb2-460c-bba8-1c0fc48c26d2" x="423.64" y="319.2" width="61.25" height="32.15"/><rect class="uuid-869f5ca4-ddb2-460c-bba8-1c0fc48c26d2" x="485.39" y="319.2" width="61.25" height="32.15"/><rect class="uuid-869f5ca4-ddb2-460c-bba8-1c0fc48c26d2" x="547.14" y="319.2" width="61.25" height="32.15"/><rect class="uuid-869f5ca4-ddb2-460c-bba8-1c0fc48c26d2" x="608.89" y="319.2" width="61.25" height="32.15"/><rect class="uuid-869f5ca4-ddb2-460c-bba8-1c0fc48c26d2" x="670.64" y="319.2" width="61.25" height="32.15"/><rect class="uuid-869f5ca4-ddb2-460c-bba8-1c0fc48c26d2" x="732.39" y="319.2" width="61.25" height="32.15"/><rect class="uuid-869f5ca4-ddb2-460c-bba8-1c0fc48c26d2" x="176.64" y="351.85" width="61.25" height="32.15"/><rect class="uuid-869f5ca4-ddb2-460c-bba8-1c0fc48c26d2" x="238.39" y="351.85" width="61.25" height="32.15"/><rect class="uuid-869f5ca4-ddb2-460c-bba8-1c0fc48c26d2" x="300.14" y="351.85" width="61.25" height="32.15"/><rect class="uuid-869f5ca4-ddb2-460c-bba8-1c0fc48c26d2" x="361.89" y="351.85" width="61.25" height="32.15"/><rect class="uuid-869f5ca4-ddb2-460c-bba8-1c0fc48c26d2" x="423.64" y="351.85" width="61.25" height="32.15"/><rect class="uuid-869f5ca4-ddb2-460c-bba8-1c0fc48c26d2" x="485.39" y="351.85" width="61.25" height="32.15"/><rect class="uuid-869f5ca4-ddb2-460c-bba8-1c0fc48c26d2" x="547.14" y="351.85" width="61.25" height="32.15"/><rect class="uuid-869f5ca4-ddb2-460c-bba8-1c0fc48c26d2" x="608.89" y="351.85" width="61.25" height="32.15"/><rect class="uuid-869f5ca4-ddb2-460c-bba8-1c0fc48c26d2" x="670.64" y="351.85" width="61.25" height="32.15"/><rect class="uuid-869f5ca4-ddb2-460c-bba8-1c0fc48c26d2" x="732.39" y="351.85" width="61.25" height="32.15"/><path class="uuid-5bdaff39-ae38-4291-89ef-5628826a6e89" d="M179.83,126.1c16.66-4.93,33.92,2.27,47.16,12.32,13.91,10.56,24.79,24.49,38.27,35.54,11.89,9.75,26.88,17.63,42.66,17,13.85-.55,24.59-8.69,34.75-17.29,9.22-7.79,19.53-17.76,32.44-17.63,15.64,.16,25.72,15.13,29.49,28.75,4.58,16.53,3.08,34.5,10.25,50.35,5.37,11.87,16.12,22.94,30.01,22.61,15.38-.36,26.52-13.06,39.32-19.79s27.9-8.45,41.71-4.86c15.36,3.99,26.12,14.61,33.12,28.56,3.9,7.77,6.84,16,9.96,24.11,3.63,9.42,7.25,18.83,10.88,28.25,4.71,12.23,10.36,26.54,23.58,31.66s27.77-2.73,37.17-12.34c10.17-10.38,16.59-24.23,21.5-37.74,4.97-13.68,8.23-27.9,11.13-42.13,5.8-28.49,9.86-58.29,23.46-84.39,14.34-27.53,40.03-47.15,70.75-52.62,7.71-1.37,15.55-1.74,23.36-1.2,1.93,.13,1.92-2.87,0-3-30.29-2.09-61.16,10.3-81.42,32.98-19.29,21.6-27.35,50.03-33.15,77.76-6.01,28.77-9.89,58.72-22.74,85.49-6.65,13.87-16.25,28.24-31.25,33.96-7.15,2.73-14.97,2.61-21.59-1.47s-10.35-10.48-13.46-17.02c-3.73-7.86-6.56-16.18-9.68-24.29-3.36-8.73-6.66-17.48-10.09-26.17-5.57-14.11-12.43-28.29-25.61-36.74-11.34-7.28-25.4-9.62-38.64-7.85-6.86,.92-13.55,2.95-19.74,6.08-6.74,3.41-12.65,8.19-18.96,12.28-6.43,4.16-13.58,7.88-21.46,7.47-7.45-.39-13.91-4.62-18.69-10.14-11.56-13.35-11.87-31.54-14.32-48.12-2.09-14.13-6.71-28.99-18.7-37.88-10.41-7.72-23.17-6.58-33.84-.13s-19.7,16.83-30.81,23.55c-14.33,8.67-30.74,6.8-45.17-.75-29.75-15.56-45.8-51.17-80.36-58.68-7.35-1.6-14.88-1.53-22.11,.61-1.85,.55-1.06,3.44,.8,2.89h0Z"/><circle class="uuid-5bdaff39-ae38-4291-89ef-5628826a6e89" cx="176.64" cy="126" r="6"/><circle class="uuid-5bdaff39-ae38-4291-89ef-5628826a6e89" cx="238.64" cy="145" r="6"/><circle class="uuid-5bdaff39-ae38-4291-89ef-5628826a6e89" cx="300.64" cy="189" r="6"/><circle class="uuid-5bdaff39-ae38-4291-89ef-5628826a6e89" cx="361.64" cy="157" r="6"/><circle class="uuid-5bdaff39-ae38-4291-89ef-5628826a6e89" cx="423.64" cy="246" r="6"/><circle class="uuid-5bdaff39-ae38-4291-89ef-5628826a6e89" cx="484.64" cy="236" r="6"/><circle class="uuid-5bdaff39-ae38-4291-89ef-5628826a6e89" cx="547.64" cy="243" r="6"/><circle class="uuid-5bdaff39-ae38-4291-89ef-5628826a6e89" cx="608.64" cy="344" r="6"/><circle class="uuid-5bdaff39-ae38-4291-89ef-5628826a6e89" cx="670.64" cy="266" r="6"/><circle class="uuid-5bdaff39-ae38-4291-89ef-5628826a6e89" cx="731.64" cy="130" r="6"/><circle class="uuid-5bdaff39-ae38-4291-89ef-5628826a6e89" cx="793.64" cy="114" r="6"/><rect class="uuid-5bdaff39-ae38-4291-89ef-5628826a6e89" x="176.64" y="23" width="123" height="12" rx="6" ry="6"/><rect class="uuid-260a1f03-1a2a-4543-80c7-a240bfa32846" x="577.64" y="23" width="216" height="12" rx="6" ry="6"/></g><rect class="uuid-e47e008f-01ee-4f3a-ab9b-997e235f52d5" x="601.64" y="304" width="272" height="272" rx="15.79" ry="15.79"/><g><rect class="uuid-041901fd-c014-45fa-b7da-ae7b7357b2b4" x="23.64" y="287" width="521" height="329" rx="15.79" ry="15.79"/><g><rect class="uuid-6305ead2-8286-484e-b9d9-93ba15ad57c9" x="47.64" y="316" width="69" height="12" rx="6" ry="6"/><rect class="uuid-6305ead2-8286-484e-b9d9-93ba15ad57c9" x="128.64" y="316" width="47" height="12" rx="6" ry="6"/><path class="uuid-260a1f03-1a2a-4543-80c7-a240bfa32846" d="M515.64,362.5c0,5.66-2.3,10.78-6,14.5-3.72,3.7-8.84,6-14.5,6H68.14c-11.32,0-20.5-9.18-20.5-20.5,0-5.66,2.3-10.78,6-14.5,3.72-3.7,8.84-6,14.5-6H495.14c11.32,0,20.5,9.18,20.5,20.5Z"/><path class="uuid-5bdaff39-ae38-4291-89ef-5628826a6e89" d="M361.64,342v41H68.14c-11.32,0-20.5-9.18-20.5-20.5,0-5.66,2.3-10.78,6-14.5,3.72-3.7,8.84-6,14.5-6H361.64Z"/></g><g><rect class="uuid-6305ead2-8286-484e-b9d9-93ba15ad57c9" x="47.64" y="417" width="109" height="12" rx="6" ry="6"/><path class="uuid-260a1f03-1a2a-4543-80c7-a240bfa32846" d="M515.64,463.5c0,5.66-2.3,10.78-6,14.5-3.72,3.7-8.84,6-14.5,6H68.14c-11.32,0-20.5-9.18-20.5-20.5,0-5.66,2.3-10.78,6-14.5,3.72-3.7,8.84-6,14.5-6H495.14c11.32,0,20.5,9.18,20.5,20.5Z"/><path class="uuid-ca6f707e-c7a1-4a3e-b1bd-f7284dae0746" d="M147.64,443v41H68.14c-11.32,0-20.5-9.18-20.5-20.5,0-5.66,2.3-10.78,6-14.5,3.72-3.7,8.84-6,14.5-6h79.5Z"/></g><g><rect class="uuid-6305ead2-8286-484e-b9d9-93ba15ad57c9" x="47.64" y="518" width="69" height="12" rx="6" ry="6"/><rect class="uuid-6305ead2-8286-484e-b9d9-93ba15ad57c9" x="128.64" y="518" width="103" height="12" rx="6" ry="6"/><path class="uuid-260a1f03-1a2a-4543-80c7-a240bfa32846" d="M515.64,564.5c0,5.66-2.3,10.78-6,14.5-3.72,3.7-8.84,6-14.5,6H68.14c-11.32,0-20.5-9.18-20.5-20.5,0-5.66,2.3-10.78,6-14.5,3.72-3.7,8.84-6,14.5-6H495.14c11.32,0,20.5,9.18,20.5,20.5Z"/><path class="uuid-cbddbecd-4e0f-44ed-9a75-3878caedbf62" d="M128.64,544v41h-60.5c-11.32,0-20.5-9.18-20.5-20.5,0-5.66,2.3-10.78,6-14.5,3.72-3.7,8.84-6,14.5-6h60.5Z"/></g></g><path class="uuid-789c3892-ee1b-4f42-8f7a-399e220b790e" d="M737.64,338.5c-56.06,0-101.5,45.44-101.5,101.5s45.44,101.5,101.5,101.5,101.5-45.44,101.5-101.5-45.44-101.5-101.5-101.5Zm0,194c-51.09,0-92.5-41.41-92.5-92.5s41.41-92.5,92.5-92.5,92.5,41.41,92.5,92.5-41.41,92.5-92.5,92.5Z"/><g><text class="uuid-1f669d0e-5f2c-4620-929a-166d2108732e" transform="translate(679.79 445.4)"><tspan x="0" y="0">230</tspan></text><text class="uuid-6a3fd6a0-7f45-4f9a-8134-6e88c8fd81d0" transform="translate(699.69 480.5)"><tspan class="uuid-47cf5a8d-c9f8-4197-99ee-1f9029a17855" x="0" y="0">D</tspan><tspan class="uuid-b7a6de0b-ef29-43b7-867e-818933a4e65f" x="20.48" y="0">A</tspan><tspan class="uuid-118a3b42-b3aa-4def-a65d-d7c5f69ec079" x="37.92" y="0">Y</tspan><tspan class="uuid-31b14b72-ee6b-49d4-bd2c-600351470ac6" x="56.53" y="0">S</tspan></text></g></svg>