<?xml version="1.0" encoding="UTF-8"?><svg id="uuid-04e20dc0-ca1f-4fb6-8568-234f4be95c01" xmlns="http://www.w3.org/2000/svg" xmlns:xlink="http://www.w3.org/1999/xlink" viewBox="0 0 907.95 512.83"><defs><style>.uuid-cdff532e-9571-4a29-a8f5-fe1af76106d4{filter:url(#uuid-cd765624-ecd7-4893-8dd3-8c6822ea3900);}.uuid-cdff532e-9571-4a29-a8f5-fe1af76106d4,.uuid-5eabefd2-c815-4db4-95b8-9863e70a5cae{fill:#139ae1;}.uuid-e9fec40d-b0da-44ec-8601-59cf782f447b{letter-spacing:.05em;}.uuid-5cd6e69a-f856-41d5-8377-ef9da3d5bd55{letter-spacing:.09em;}.uuid-043f1d14-7364-42f9-b8e8-ba255141a5d8,.uuid-a0c187cc-e001-4d7c-a3d8-9f080ba07f3f,.uuid-372d0094-f4b5-4779-b93b-b4cca0e4a311,.uuid-7d7168a0-529e-4950-af93-f7649a699275,.uuid-3fc021aa-d286-44fd-a73f-bf0e728c3dac,.uuid-c61ba638-4d92-44d1-ac01-ef061201adff{fill:#fff;}.uuid-4ba134fe-df72-488e-940f-e98ac9ef5b71{fill:#ffec00;}.uuid-201ad249-7a28-4b8a-a4b3-c32bb83aa9eb{fill:#e5e5e5;}.uuid-cbfad7d1-8396-4016-b3c2-7952b34db94e{fill:#333;}.uuid-869ed8ee-f798-42fc-b371-d14ba00d5f57{fill:#a80fef;}.uuid-36e04568-a042-4b8b-ac5a-d88d1ae37a4b{filter:url(#uuid-2a1c7041-c33d-4964-bb46-882d37c34655);}.uuid-907c2306-cb31-402e-a863-a29f57586460{letter-spacing:-.03em;}.uuid-070e5cce-aba8-4834-b133-2fd81522447b{filter:url(#uuid-038e88f6-ec08-4052-a614-d6010072255e);}.uuid-a0c187cc-e001-4d7c-a3d8-9f080ba07f3f{stroke:#d1d1d1;stroke-miterlimit:10;}.uuid-8a69583e-8cf9-44c9-9c59-a68dafc4d0c2{letter-spacing:.07em;}.uuid-372d0094-f4b5-4779-b93b-b4cca0e4a311{font-family:AktivGrotesk-Bold, 'Aktiv Grotesk';font-size:52.45px;}.uuid-7d7168a0-529e-4950-af93-f7649a699275{font-family:AktivGrotesk-Medium, 'Aktiv Grotesk';font-size:21.25px;}.uuid-3fc021aa-d286-44fd-a73f-bf0e728c3dac{opacity:.6;}.uuid-44adf9a0-de61-4a69-a299-9edfc3b74b0d{filter:url(#uuid-b4d17566-057f-47f3-83f1-a6495dc5684f);}.uuid-c61ba638-4d92-44d1-ac01-ef061201adff{filter:url(#uuid-7b3d2c1f-5c1d-4a78-a9e7-399ad5cab767);}</style><filter id="uuid-b4d17566-057f-47f3-83f1-a6495dc5684f" filterUnits="userSpaceOnUse"><feOffset dx="7" dy="7"/><feGaussianBlur result="uuid-a504a131-076f-4ae0-bede-ca1b939f45a5" stdDeviation="7"/><feFlood flood-color="#000" flood-opacity=".05"/><feComposite in2="uuid-a504a131-076f-4ae0-bede-ca1b939f45a5" operator="in"/><feComposite in="SourceGraphic"/></filter><filter id="uuid-2a1c7041-c33d-4964-bb46-882d37c34655" filterUnits="userSpaceOnUse"><feOffset dx="7" dy="7"/><feGaussianBlur result="uuid-a37ea678-e257-4a46-99c4-d30a0e0bb39a" stdDeviation="7"/><feFlood flood-color="#000" flood-opacity=".05"/><feComposite in2="uuid-a37ea678-e257-4a46-99c4-d30a0e0bb39a" operator="in"/><feComposite in="SourceGraphic"/></filter><filter id="uuid-7b3d2c1f-5c1d-4a78-a9e7-399ad5cab767" filterUnits="userSpaceOnUse"><feOffset dx="0" dy="0"/><feGaussianBlur result="uuid-5d17fb5f-1108-47a9-828c-2a192478715f" stdDeviation="7.23"/><feFlood flood-color="#000" flood-opacity=".08"/><feComposite in2="uuid-5d17fb5f-1108-47a9-828c-2a192478715f" operator="in"/><feComposite in="SourceGraphic"/></filter><filter id="uuid-038e88f6-ec08-4052-a614-d6010072255e" filterUnits="userSpaceOnUse"><feOffset dx="7" dy="7"/><feGaussianBlur result="uuid-e5c99a63-8b05-40cc-8280-ab972cde9917" stdDeviation="7"/><feFlood flood-color="#000" flood-opacity=".05"/><feComposite in2="uuid-e5c99a63-8b05-40cc-8280-ab972cde9917" operator="in"/><feComposite in="SourceGraphic"/></filter><filter id="uuid-cd765624-ecd7-4893-8dd3-8c6822ea3900" filterUnits="userSpaceOnUse"><feOffset dx="0" dy="0"/><feGaussianBlur result="uuid-5f869c86-762a-45f6-9e74-7ca757b72ef3" stdDeviation="4.15"/><feFlood flood-color="#000" flood-opacity=".08"/><feComposite in2="uuid-5f869c86-762a-45f6-9e74-7ca757b72ef3" operator="in"/><feComposite in="SourceGraphic"/></filter></defs><g class="uuid-44adf9a0-de61-4a69-a299-9edfc3b74b0d"><rect class="uuid-043f1d14-7364-42f9-b8e8-ba255141a5d8" x="180.03" width="675" height="412" rx="15.79" ry="15.79"/><rect class="uuid-a0c187cc-e001-4d7c-a3d8-9f080ba07f3f" x="209.03" y="58" width="61.25" height="32.15"/><rect class="uuid-a0c187cc-e001-4d7c-a3d8-9f080ba07f3f" x="270.78" y="58" width="61.25" height="32.15"/><rect class="uuid-a0c187cc-e001-4d7c-a3d8-9f080ba07f3f" x="332.53" y="58" width="61.25" height="32.15"/><rect class="uuid-a0c187cc-e001-4d7c-a3d8-9f080ba07f3f" x="394.28" y="58" width="61.25" height="32.15"/><rect class="uuid-a0c187cc-e001-4d7c-a3d8-9f080ba07f3f" x="456.03" y="58" width="61.25" height="32.15"/><rect class="uuid-a0c187cc-e001-4d7c-a3d8-9f080ba07f3f" x="517.78" y="58" width="61.25" height="32.15"/><rect class="uuid-a0c187cc-e001-4d7c-a3d8-9f080ba07f3f" x="579.53" y="58" width="61.25" height="32.15"/><rect class="uuid-a0c187cc-e001-4d7c-a3d8-9f080ba07f3f" x="641.28" y="58" width="61.25" height="32.15"/><rect class="uuid-a0c187cc-e001-4d7c-a3d8-9f080ba07f3f" x="703.03" y="58" width="61.25" height="32.15"/><rect class="uuid-a0c187cc-e001-4d7c-a3d8-9f080ba07f3f" x="764.78" y="58" width="61.25" height="32.15"/><rect class="uuid-a0c187cc-e001-4d7c-a3d8-9f080ba07f3f" x="209.03" y="90.65" width="61.25" height="32.15"/><rect class="uuid-a0c187cc-e001-4d7c-a3d8-9f080ba07f3f" x="270.78" y="90.65" width="61.25" height="32.15"/><rect class="uuid-a0c187cc-e001-4d7c-a3d8-9f080ba07f3f" x="332.53" y="90.65" width="61.25" height="32.15"/><rect class="uuid-a0c187cc-e001-4d7c-a3d8-9f080ba07f3f" x="394.28" y="90.65" width="61.25" height="32.15"/><rect class="uuid-a0c187cc-e001-4d7c-a3d8-9f080ba07f3f" x="456.03" y="90.65" width="61.25" height="32.15"/><rect class="uuid-a0c187cc-e001-4d7c-a3d8-9f080ba07f3f" x="517.78" y="90.65" width="61.25" height="32.15"/><rect class="uuid-a0c187cc-e001-4d7c-a3d8-9f080ba07f3f" x="579.53" y="90.65" width="61.25" height="32.15"/><rect class="uuid-a0c187cc-e001-4d7c-a3d8-9f080ba07f3f" x="641.28" y="90.65" width="61.25" height="32.15"/><rect class="uuid-a0c187cc-e001-4d7c-a3d8-9f080ba07f3f" x="703.03" y="90.65" width="61.25" height="32.15"/><rect class="uuid-a0c187cc-e001-4d7c-a3d8-9f080ba07f3f" x="764.78" y="90.65" width="61.25" height="32.15"/><rect class="uuid-a0c187cc-e001-4d7c-a3d8-9f080ba07f3f" x="209.03" y="123.3" width="61.25" height="32.15"/><rect class="uuid-a0c187cc-e001-4d7c-a3d8-9f080ba07f3f" x="270.78" y="123.3" width="61.25" height="32.15"/><rect class="uuid-a0c187cc-e001-4d7c-a3d8-9f080ba07f3f" x="332.53" y="123.3" width="61.25" height="32.15"/><rect class="uuid-a0c187cc-e001-4d7c-a3d8-9f080ba07f3f" x="394.28" y="123.3" width="61.25" height="32.15"/><rect class="uuid-a0c187cc-e001-4d7c-a3d8-9f080ba07f3f" x="456.03" y="123.3" width="61.25" height="32.15"/><rect class="uuid-a0c187cc-e001-4d7c-a3d8-9f080ba07f3f" x="517.78" y="123.3" width="61.25" height="32.15"/><rect class="uuid-a0c187cc-e001-4d7c-a3d8-9f080ba07f3f" x="579.53" y="123.3" width="61.25" height="32.15"/><rect class="uuid-a0c187cc-e001-4d7c-a3d8-9f080ba07f3f" x="641.28" y="123.3" width="61.25" height="32.15"/><rect class="uuid-a0c187cc-e001-4d7c-a3d8-9f080ba07f3f" x="703.03" y="123.3" width="61.25" height="32.15"/><rect class="uuid-a0c187cc-e001-4d7c-a3d8-9f080ba07f3f" x="764.78" y="123.3" width="61.25" height="32.15"/><rect class="uuid-a0c187cc-e001-4d7c-a3d8-9f080ba07f3f" x="209.03" y="155.95" width="61.25" height="32.15"/><rect class="uuid-a0c187cc-e001-4d7c-a3d8-9f080ba07f3f" x="270.78" y="155.95" width="61.25" height="32.15"/><rect class="uuid-a0c187cc-e001-4d7c-a3d8-9f080ba07f3f" x="332.53" y="155.95" width="61.25" height="32.15"/><rect class="uuid-a0c187cc-e001-4d7c-a3d8-9f080ba07f3f" x="394.28" y="155.95" width="61.25" height="32.15"/><rect class="uuid-a0c187cc-e001-4d7c-a3d8-9f080ba07f3f" x="456.03" y="155.95" width="61.25" height="32.15"/><rect class="uuid-a0c187cc-e001-4d7c-a3d8-9f080ba07f3f" x="517.78" y="155.95" width="61.25" height="32.15"/><rect class="uuid-a0c187cc-e001-4d7c-a3d8-9f080ba07f3f" x="579.53" y="155.95" width="61.25" height="32.15"/><rect class="uuid-a0c187cc-e001-4d7c-a3d8-9f080ba07f3f" x="641.28" y="155.95" width="61.25" height="32.15"/><rect class="uuid-a0c187cc-e001-4d7c-a3d8-9f080ba07f3f" x="703.03" y="155.95" width="61.25" height="32.15"/><rect class="uuid-a0c187cc-e001-4d7c-a3d8-9f080ba07f3f" x="764.78" y="155.95" width="61.25" height="32.15"/><rect class="uuid-a0c187cc-e001-4d7c-a3d8-9f080ba07f3f" x="209.03" y="188.6" width="61.25" height="32.15"/><rect class="uuid-a0c187cc-e001-4d7c-a3d8-9f080ba07f3f" x="270.78" y="188.6" width="61.25" height="32.15"/><rect class="uuid-a0c187cc-e001-4d7c-a3d8-9f080ba07f3f" x="332.53" y="188.6" width="61.25" height="32.15"/><rect class="uuid-a0c187cc-e001-4d7c-a3d8-9f080ba07f3f" x="394.28" y="188.6" width="61.25" height="32.15"/><rect class="uuid-a0c187cc-e001-4d7c-a3d8-9f080ba07f3f" x="456.03" y="188.6" width="61.25" height="32.15"/><rect class="uuid-a0c187cc-e001-4d7c-a3d8-9f080ba07f3f" x="517.78" y="188.6" width="61.25" height="32.15"/><rect class="uuid-a0c187cc-e001-4d7c-a3d8-9f080ba07f3f" x="579.53" y="188.6" width="61.25" height="32.15"/><rect class="uuid-a0c187cc-e001-4d7c-a3d8-9f080ba07f3f" x="641.28" y="188.6" width="61.25" height="32.15"/><rect class="uuid-a0c187cc-e001-4d7c-a3d8-9f080ba07f3f" x="703.03" y="188.6" width="61.25" height="32.15"/><rect class="uuid-a0c187cc-e001-4d7c-a3d8-9f080ba07f3f" x="764.78" y="188.6" width="61.25" height="32.15"/><rect class="uuid-a0c187cc-e001-4d7c-a3d8-9f080ba07f3f" x="209.03" y="221.25" width="61.25" height="32.15"/><rect class="uuid-a0c187cc-e001-4d7c-a3d8-9f080ba07f3f" x="270.78" y="221.25" width="61.25" height="32.15"/><rect class="uuid-a0c187cc-e001-4d7c-a3d8-9f080ba07f3f" x="332.53" y="221.25" width="61.25" height="32.15"/><rect class="uuid-a0c187cc-e001-4d7c-a3d8-9f080ba07f3f" x="394.28" y="221.25" width="61.25" height="32.15"/><rect class="uuid-a0c187cc-e001-4d7c-a3d8-9f080ba07f3f" x="456.03" y="221.25" width="61.25" height="32.15"/><rect class="uuid-a0c187cc-e001-4d7c-a3d8-9f080ba07f3f" x="517.78" y="221.25" width="61.25" height="32.15"/><rect class="uuid-a0c187cc-e001-4d7c-a3d8-9f080ba07f3f" x="579.53" y="221.25" width="61.25" height="32.15"/><rect class="uuid-a0c187cc-e001-4d7c-a3d8-9f080ba07f3f" x="641.28" y="221.25" width="61.25" height="32.15"/><rect class="uuid-a0c187cc-e001-4d7c-a3d8-9f080ba07f3f" x="703.03" y="221.25" width="61.25" height="32.15"/><rect class="uuid-a0c187cc-e001-4d7c-a3d8-9f080ba07f3f" x="764.78" y="221.25" width="61.25" height="32.15"/><rect class="uuid-a0c187cc-e001-4d7c-a3d8-9f080ba07f3f" x="209.03" y="253.9" width="61.25" height="32.15"/><rect class="uuid-a0c187cc-e001-4d7c-a3d8-9f080ba07f3f" x="270.78" y="253.9" width="61.25" height="32.15"/><rect class="uuid-a0c187cc-e001-4d7c-a3d8-9f080ba07f3f" x="332.53" y="253.9" width="61.25" height="32.15"/><rect class="uuid-a0c187cc-e001-4d7c-a3d8-9f080ba07f3f" x="394.28" y="253.9" width="61.25" height="32.15"/><rect class="uuid-a0c187cc-e001-4d7c-a3d8-9f080ba07f3f" x="456.03" y="253.9" width="61.25" height="32.15"/><rect class="uuid-a0c187cc-e001-4d7c-a3d8-9f080ba07f3f" x="517.78" y="253.9" width="61.25" height="32.15"/><rect class="uuid-a0c187cc-e001-4d7c-a3d8-9f080ba07f3f" x="579.53" y="253.9" width="61.25" height="32.15"/><rect class="uuid-a0c187cc-e001-4d7c-a3d8-9f080ba07f3f" x="641.28" y="253.9" width="61.25" height="32.15"/><rect class="uuid-a0c187cc-e001-4d7c-a3d8-9f080ba07f3f" x="703.03" y="253.9" width="61.25" height="32.15"/><rect class="uuid-a0c187cc-e001-4d7c-a3d8-9f080ba07f3f" x="764.78" y="253.9" width="61.25" height="32.15"/><rect class="uuid-a0c187cc-e001-4d7c-a3d8-9f080ba07f3f" x="209.03" y="286.55" width="61.25" height="32.15"/><rect class="uuid-a0c187cc-e001-4d7c-a3d8-9f080ba07f3f" x="270.78" y="286.55" width="61.25" height="32.15"/><rect class="uuid-a0c187cc-e001-4d7c-a3d8-9f080ba07f3f" x="332.53" y="286.55" width="61.25" height="32.15"/><rect class="uuid-a0c187cc-e001-4d7c-a3d8-9f080ba07f3f" x="394.28" y="286.55" width="61.25" height="32.15"/><rect class="uuid-a0c187cc-e001-4d7c-a3d8-9f080ba07f3f" x="456.03" y="286.55" width="61.25" height="32.15"/><rect class="uuid-a0c187cc-e001-4d7c-a3d8-9f080ba07f3f" x="517.78" y="286.55" width="61.25" height="32.15"/><rect class="uuid-a0c187cc-e001-4d7c-a3d8-9f080ba07f3f" x="579.53" y="286.55" width="61.25" height="32.15"/><rect class="uuid-a0c187cc-e001-4d7c-a3d8-9f080ba07f3f" x="641.28" y="286.55" width="61.25" height="32.15"/><rect class="uuid-a0c187cc-e001-4d7c-a3d8-9f080ba07f3f" x="703.03" y="286.55" width="61.25" height="32.15"/><rect class="uuid-a0c187cc-e001-4d7c-a3d8-9f080ba07f3f" x="764.78" y="286.55" width="61.25" height="32.15"/><rect class="uuid-a0c187cc-e001-4d7c-a3d8-9f080ba07f3f" x="209.03" y="319.2" width="61.25" height="32.15"/><rect class="uuid-a0c187cc-e001-4d7c-a3d8-9f080ba07f3f" x="270.78" y="319.2" width="61.25" height="32.15"/><rect class="uuid-a0c187cc-e001-4d7c-a3d8-9f080ba07f3f" x="332.53" y="319.2" width="61.25" height="32.15"/><rect class="uuid-a0c187cc-e001-4d7c-a3d8-9f080ba07f3f" x="394.28" y="319.2" width="61.25" height="32.15"/><rect class="uuid-a0c187cc-e001-4d7c-a3d8-9f080ba07f3f" x="456.03" y="319.2" width="61.25" height="32.15"/><rect class="uuid-a0c187cc-e001-4d7c-a3d8-9f080ba07f3f" x="517.78" y="319.2" width="61.25" height="32.15"/><rect class="uuid-a0c187cc-e001-4d7c-a3d8-9f080ba07f3f" x="579.53" y="319.2" width="61.25" height="32.15"/><rect class="uuid-a0c187cc-e001-4d7c-a3d8-9f080ba07f3f" x="641.28" y="319.2" width="61.25" height="32.15"/><rect class="uuid-a0c187cc-e001-4d7c-a3d8-9f080ba07f3f" x="703.03" y="319.2" width="61.25" height="32.15"/><rect class="uuid-a0c187cc-e001-4d7c-a3d8-9f080ba07f3f" x="764.78" y="319.2" width="61.25" height="32.15"/><rect class="uuid-a0c187cc-e001-4d7c-a3d8-9f080ba07f3f" x="209.03" y="351.85" width="61.25" height="32.15"/><rect class="uuid-a0c187cc-e001-4d7c-a3d8-9f080ba07f3f" x="270.78" y="351.85" width="61.25" height="32.15"/><rect class="uuid-a0c187cc-e001-4d7c-a3d8-9f080ba07f3f" x="332.53" y="351.85" width="61.25" height="32.15"/><rect class="uuid-a0c187cc-e001-4d7c-a3d8-9f080ba07f3f" x="394.28" y="351.85" width="61.25" height="32.15"/><rect class="uuid-a0c187cc-e001-4d7c-a3d8-9f080ba07f3f" x="456.03" y="351.85" width="61.25" height="32.15"/><rect class="uuid-a0c187cc-e001-4d7c-a3d8-9f080ba07f3f" x="517.78" y="351.85" width="61.25" height="32.15"/><rect class="uuid-a0c187cc-e001-4d7c-a3d8-9f080ba07f3f" x="579.53" y="351.85" width="61.25" height="32.15"/><rect class="uuid-a0c187cc-e001-4d7c-a3d8-9f080ba07f3f" x="641.28" y="351.85" width="61.25" height="32.15"/><rect class="uuid-a0c187cc-e001-4d7c-a3d8-9f080ba07f3f" x="703.03" y="351.85" width="61.25" height="32.15"/><rect class="uuid-a0c187cc-e001-4d7c-a3d8-9f080ba07f3f" x="764.78" y="351.85" width="61.25" height="32.15"/><path class="uuid-5eabefd2-c815-4db4-95b8-9863e70a5cae" d="M212.22,126.1c16.66-4.93,33.92,2.27,47.16,12.32,13.91,10.56,24.79,24.49,38.27,35.54,11.89,9.75,26.88,17.63,42.66,17,13.85-.55,24.59-8.69,34.75-17.29,9.22-7.79,19.53-17.76,32.44-17.63,15.64,.16,25.72,15.13,29.49,28.75,4.58,16.53,3.08,34.5,10.25,50.35,5.37,11.87,16.12,22.94,30.01,22.61,15.38-.36,26.52-13.06,39.32-19.79s27.9-8.45,41.71-4.86c15.36,3.99,26.12,14.61,33.12,28.56,3.9,7.77,6.84,16,9.96,24.11,3.63,9.42,7.25,18.83,10.88,28.25,4.71,12.23,10.36,26.54,23.58,31.66s27.77-2.73,37.17-12.34c10.17-10.38,16.59-24.23,21.5-37.74,4.97-13.68,8.23-27.9,11.13-42.13,5.8-28.49,9.86-58.29,23.46-84.39,14.34-27.53,40.03-47.15,70.75-52.62,7.71-1.37,15.55-1.74,23.36-1.2,1.93,.13,1.92-2.87,0-3-30.29-2.09-61.16,10.3-81.42,32.98s-27.35,50.03-33.15,77.76c-6.01,28.77-9.89,58.72-22.74,85.49-6.65,13.87-16.25,28.24-31.25,33.96-7.15,2.73-14.97,2.61-21.59-1.47s-10.35-10.48-13.46-17.02c-3.73-7.86-6.56-16.18-9.68-24.29-3.36-8.73-6.66-17.48-10.09-26.17-5.57-14.11-12.43-28.29-25.61-36.74-11.34-7.28-25.4-9.62-38.64-7.85-6.86,.92-13.55,2.95-19.74,6.08-6.74,3.41-12.65,8.19-18.96,12.28-6.43,4.16-13.58,7.88-21.46,7.47-7.45-.39-13.91-4.62-18.69-10.14-11.56-13.35-11.87-31.54-14.32-48.12-2.09-14.13-6.71-28.99-18.7-37.88-10.41-7.72-23.17-6.58-33.84-.13-11.11,6.71-19.7,16.83-30.81,23.55-14.33,8.67-30.74,6.8-45.17-.75-29.75-15.56-45.8-51.17-80.36-58.68-7.35-1.6-14.88-1.53-22.11,.61-1.85,.55-1.06,3.44,.8,2.89h0Z"/><circle class="uuid-5eabefd2-c815-4db4-95b8-9863e70a5cae" cx="209.03" cy="126" r="6"/><circle class="uuid-5eabefd2-c815-4db4-95b8-9863e70a5cae" cx="271.03" cy="145" r="6"/><circle class="uuid-5eabefd2-c815-4db4-95b8-9863e70a5cae" cx="333.03" cy="189" r="6"/><circle class="uuid-5eabefd2-c815-4db4-95b8-9863e70a5cae" cx="394.03" cy="157" r="6"/><circle class="uuid-5eabefd2-c815-4db4-95b8-9863e70a5cae" cx="456.03" cy="246" r="6"/><circle class="uuid-5eabefd2-c815-4db4-95b8-9863e70a5cae" cx="517.03" cy="236" r="6"/><circle class="uuid-5eabefd2-c815-4db4-95b8-9863e70a5cae" cx="580.03" cy="243" r="6"/><circle class="uuid-5eabefd2-c815-4db4-95b8-9863e70a5cae" cx="641.03" cy="344" r="6"/><circle class="uuid-5eabefd2-c815-4db4-95b8-9863e70a5cae" cx="703.03" cy="266" r="6"/><circle class="uuid-5eabefd2-c815-4db4-95b8-9863e70a5cae" cx="764.03" cy="130" r="6"/><circle class="uuid-5eabefd2-c815-4db4-95b8-9863e70a5cae" cx="826.03" cy="114" r="6"/><rect class="uuid-5eabefd2-c815-4db4-95b8-9863e70a5cae" x="209.03" y="23" width="123" height="12" rx="6" ry="6"/><rect class="uuid-201ad249-7a28-4b8a-a4b3-c32bb83aa9eb" x="610.03" y="23" width="216" height="12" rx="6" ry="6"/></g><g class="uuid-36e04568-a042-4b8b-ac5a-d88d1ae37a4b"><rect class="uuid-c61ba638-4d92-44d1-ac01-ef061201adff" x="22.56" y="187" width="479.47" height="302.78" rx="15.79" ry="15.79"/><g><rect class="uuid-cbfad7d1-8396-4016-b3c2-7952b34db94e" x="44.65" y="213.69" width="63.5" height="11.04" rx="5.52" ry="5.52"/><rect class="uuid-cbfad7d1-8396-4016-b3c2-7952b34db94e" x="119.19" y="213.69" width="43.25" height="11.04" rx="5.52" ry="5.52"/><path class="uuid-201ad249-7a28-4b8a-a4b3-c32bb83aa9eb" d="M475.34,256.48c0,5.21-2.12,9.92-5.52,13.34-3.42,3.41-8.14,5.52-13.34,5.52H63.51c-10.42,0-18.87-8.45-18.87-18.87,0-5.21,2.12-9.92,5.52-13.34,3.42-3.41,8.14-5.52,13.34-5.52H456.48c10.42,0,18.87,8.45,18.87,18.87Z"/><path class="uuid-5eabefd2-c815-4db4-95b8-9863e70a5cae" d="M333.62,237.62v37.73H63.51c-10.42,0-18.87-8.45-18.87-18.87,0-5.21,2.12-9.92,5.52-13.34,3.42-3.41,8.14-5.52,13.34-5.52H333.62Z"/></g><g><rect class="uuid-cbfad7d1-8396-4016-b3c2-7952b34db94e" x="44.65" y="306.64" width="100.31" height="11.04" rx="5.52" ry="5.52"/><path class="uuid-201ad249-7a28-4b8a-a4b3-c32bb83aa9eb" d="M475.34,349.43c0,5.21-2.12,9.92-5.52,13.34-3.42,3.41-8.14,5.52-13.34,5.52H63.51c-10.42,0-18.87-8.45-18.87-18.87,0-5.21,2.12-9.92,5.52-13.34,3.42-3.41,8.14-5.52,13.34-5.52H456.48c10.42,0,18.87,8.45,18.87,18.87Z"/><path class="uuid-4ba134fe-df72-488e-940f-e98ac9ef5b71" d="M136.68,330.57v37.73H63.51c-10.42,0-18.87-8.45-18.87-18.87,0-5.21,2.12-9.92,5.52-13.34,3.42-3.41,8.14-5.52,13.34-5.52h73.16Z"/></g><g><rect class="uuid-cbfad7d1-8396-4016-b3c2-7952b34db94e" x="44.65" y="399.59" width="63.5" height="11.04" rx="5.52" ry="5.52"/><rect class="uuid-cbfad7d1-8396-4016-b3c2-7952b34db94e" x="119.19" y="399.59" width="94.79" height="11.04" rx="5.52" ry="5.52"/><path class="uuid-201ad249-7a28-4b8a-a4b3-c32bb83aa9eb" d="M475.34,442.38c0,5.21-2.12,9.92-5.52,13.34-3.42,3.41-8.14,5.52-13.34,5.52H63.51c-10.42,0-18.87-8.45-18.87-18.87,0-5.21,2.12-9.92,5.52-13.34,3.42-3.41,8.14-5.52,13.34-5.52H456.48c10.42,0,18.87,8.45,18.87,18.87Z"/><path class="uuid-869ed8ee-f798-42fc-b371-d14ba00d5f57" d="M119.19,423.52v37.73H63.51c-10.42,0-18.87-8.45-18.87-18.87,0-5.21,2.12-9.92,5.52-13.34,3.42-3.41,8.14-5.52,13.34-5.52h55.68Z"/></g></g><g class="uuid-070e5cce-aba8-4834-b133-2fd81522447b"><rect class="uuid-cdff532e-9571-4a29-a8f5-fe1af76106d4" x="675.68" y="236.51" width="219" height="219" rx="15.79" ry="15.79"/><path class="uuid-3fc021aa-d286-44fd-a73f-bf0e728c3dac" d="M785.18,264.28c-45.14,0-81.72,36.59-81.72,81.72s36.59,81.72,81.72,81.72,81.72-36.59,81.72-81.72-36.59-81.72-81.72-81.72Zm0,156.2c-41.13,0-74.48-33.34-74.48-74.48s33.34-74.48,74.48-74.48,74.48,33.34,74.48,74.48-33.34,74.48-74.48,74.48Z"/><g><text class="uuid-372d0094-f4b5-4779-b93b-b4cca0e4a311" transform="translate(738.6 350.35)"><tspan x="0" y="0">230</tspan></text><text class="uuid-7d7168a0-529e-4950-af93-f7649a699275" transform="translate(754.62 378.61)"><tspan class="uuid-e9fec40d-b0da-44ec-8601-59cf782f447b" x="0" y="0">D</tspan><tspan class="uuid-907c2306-cb31-402e-a863-a29f57586460" x="16.49" y="0">A</tspan><tspan class="uuid-8a69583e-8cf9-44c9-9c59-a68dafc4d0c2" x="30.53" y="0">Y</tspan><tspan class="uuid-5cd6e69a-f856-41d5-8377-ef9da3d5bd55" x="45.51" y="0">S</tspan></text></g></g></svg>