<?xml version="1.0" encoding="UTF-8"?><svg id="uuid-9713d9dc-daea-4bbf-976b-69b704a718a7" xmlns="http://www.w3.org/2000/svg" xmlns:xlink="http://www.w3.org/1999/xlink" viewBox="0 0 864.18 518.05"><defs><style>.uuid-fed93096-e432-459d-8c64-560be370486f{filter:url(#uuid-c959c57b-1527-4d50-8726-bfb6814f0c4f);}.uuid-fed93096-e432-459d-8c64-560be370486f,.uuid-776f7532-f0e8-4e3b-8b07-682fe1aeda45{fill:#139ae1;}.uuid-ecf3959a-7d76-4178-8a8d-3b2ef09e1596{letter-spacing:.05em;}.uuid-0a077d25-a688-4a4f-9cdc-0ca26007b04c{filter:url(#uuid-89682186-22e8-4c2d-a0bf-36f27e14184a);}.uuid-0a077d25-a688-4a4f-9cdc-0ca26007b04c,.uuid-c42ae5a7-8144-4d48-a18f-4c9abd449493,.uuid-a11e82c7-49f6-4edb-a3fa-38a617029fb4,.uuid-f68d593c-db50-43d2-916c-34d259a35b35,.uuid-8453c860-69fd-4b53-aa59-7ab557454236,.uuid-4a9fc1d3-1931-4363-9e58-707ab393de5b{fill:#fff;}.uuid-4201b3d2-acbc-455a-bf8d-3a78802b747b{letter-spacing:.09em;}.uuid-79789299-accd-4240-beb9-bcff82e432fc{fill:#ffec00;}.uuid-8f8395aa-923a-4d69-ae38-4e2cd46d6976{fill:#e5e5e5;}.uuid-8a5cfba1-3194-4006-a176-8a1393164a0a{fill:#333;}.uuid-03fd8e0c-91cb-4715-92af-5f6ae533803f{fill:#a80fef;}.uuid-07579aa5-3650-4792-9c6b-2f2733c0d474{filter:url(#uuid-f95f0319-ae71-45d8-afaf-3fbbe43a6edd);}.uuid-a350c940-1bb0-4250-9648-122833fcb148{filter:url(#uuid-e24a1f09-0749-4ecc-9dac-a148c72eb43b);}.uuid-2596d812-9857-4042-a429-99ca5df65338{letter-spacing:-.03em;}.uuid-a11e82c7-49f6-4edb-a3fa-38a617029fb4{stroke:#d1d1d1;stroke-miterlimit:10;}.uuid-0243216e-d041-45e0-98ac-a8199004e95a{letter-spacing:.07em;}.uuid-768f4eb7-0880-4fc3-9108-e6220223c3f3{filter:url(#uuid-6c21de43-9c99-4a16-b9d8-4ff23f7ab4a5);}.uuid-f68d593c-db50-43d2-916c-34d259a35b35{font-family:AktivGrotesk-Bold, 'Aktiv Grotesk';font-size:52.45px;}.uuid-8453c860-69fd-4b53-aa59-7ab557454236{font-family:AktivGrotesk-Medium, 'Aktiv Grotesk';font-size:21.25px;}.uuid-4a9fc1d3-1931-4363-9e58-707ab393de5b{opacity:.6;}</style><filter id="uuid-e24a1f09-0749-4ecc-9dac-a148c72eb43b" filterUnits="userSpaceOnUse"><feOffset dx="7" dy="7"/><feGaussianBlur result="uuid-395fc556-d90c-4f6b-a55f-1430b6c48499" stdDeviation="7"/><feFlood flood-color="#000" flood-opacity=".05"/><feComposite in2="uuid-395fc556-d90c-4f6b-a55f-1430b6c48499" operator="in"/><feComposite in="SourceGraphic"/></filter><filter id="uuid-f95f0319-ae71-45d8-afaf-3fbbe43a6edd" filterUnits="userSpaceOnUse"><feOffset dx="7" dy="7"/><feGaussianBlur result="uuid-5307b698-982f-49e5-9567-e8c4a878e1cd" stdDeviation="7"/><feFlood flood-color="#000" flood-opacity=".05"/><feComposite in2="uuid-5307b698-982f-49e5-9567-e8c4a878e1cd" operator="in"/><feComposite in="SourceGraphic"/></filter><filter id="uuid-89682186-22e8-4c2d-a0bf-36f27e14184a" filterUnits="userSpaceOnUse"><feOffset dx="0" dy="0"/><feGaussianBlur result="uuid-3acec822-173a-4bac-b1d0-121bce90b13d" stdDeviation="7.23"/><feFlood flood-color="#000" flood-opacity=".08"/><feComposite in2="uuid-3acec822-173a-4bac-b1d0-121bce90b13d" operator="in"/><feComposite in="SourceGraphic"/></filter><filter id="uuid-6c21de43-9c99-4a16-b9d8-4ff23f7ab4a5" filterUnits="userSpaceOnUse"><feOffset dx="7" dy="7"/><feGaussianBlur result="uuid-532a078b-2783-4d3c-809b-5fb68ce222e2" stdDeviation="7"/><feFlood flood-color="#000" flood-opacity=".05"/><feComposite in2="uuid-532a078b-2783-4d3c-809b-5fb68ce222e2" operator="in"/><feComposite in="SourceGraphic"/></filter><filter id="uuid-c959c57b-1527-4d50-8726-bfb6814f0c4f" filterUnits="userSpaceOnUse"><feOffset dx="0" dy="0"/><feGaussianBlur result="uuid-5a361361-6c4d-440a-b6bc-590fbdaa59f2" stdDeviation="4.15"/><feFlood flood-color="#000" flood-opacity=".08"/><feComposite in2="uuid-5a361361-6c4d-440a-b6bc-590fbdaa59f2" operator="in"/><feComposite in="SourceGraphic"/></filter></defs><g class="uuid-a350c940-1bb0-4250-9648-122833fcb148"><rect class="uuid-c42ae5a7-8144-4d48-a18f-4c9abd449493" width="675" height="412" rx="15.79" ry="15.79"/><rect class="uuid-a11e82c7-49f6-4edb-a3fa-38a617029fb4" x="29" y="58" width="61.25" height="32.15"/><rect class="uuid-a11e82c7-49f6-4edb-a3fa-38a617029fb4" x="90.75" y="58" width="61.25" height="32.15"/><rect class="uuid-a11e82c7-49f6-4edb-a3fa-38a617029fb4" x="152.5" y="58" width="61.25" height="32.15"/><rect class="uuid-a11e82c7-49f6-4edb-a3fa-38a617029fb4" x="214.25" y="58" width="61.25" height="32.15"/><rect class="uuid-a11e82c7-49f6-4edb-a3fa-38a617029fb4" x="276" y="58" width="61.25" height="32.15"/><rect class="uuid-a11e82c7-49f6-4edb-a3fa-38a617029fb4" x="337.75" y="58" width="61.25" height="32.15"/><rect class="uuid-a11e82c7-49f6-4edb-a3fa-38a617029fb4" x="399.5" y="58" width="61.25" height="32.15"/><rect class="uuid-a11e82c7-49f6-4edb-a3fa-38a617029fb4" x="461.25" y="58" width="61.25" height="32.15"/><rect class="uuid-a11e82c7-49f6-4edb-a3fa-38a617029fb4" x="523" y="58" width="61.25" height="32.15"/><rect class="uuid-a11e82c7-49f6-4edb-a3fa-38a617029fb4" x="584.75" y="58" width="61.25" height="32.15"/><rect class="uuid-a11e82c7-49f6-4edb-a3fa-38a617029fb4" x="29" y="90.65" width="61.25" height="32.15"/><rect class="uuid-a11e82c7-49f6-4edb-a3fa-38a617029fb4" x="90.75" y="90.65" width="61.25" height="32.15"/><rect class="uuid-a11e82c7-49f6-4edb-a3fa-38a617029fb4" x="152.5" y="90.65" width="61.25" height="32.15"/><rect class="uuid-a11e82c7-49f6-4edb-a3fa-38a617029fb4" x="214.25" y="90.65" width="61.25" height="32.15"/><rect class="uuid-a11e82c7-49f6-4edb-a3fa-38a617029fb4" x="276" y="90.65" width="61.25" height="32.15"/><rect class="uuid-a11e82c7-49f6-4edb-a3fa-38a617029fb4" x="337.75" y="90.65" width="61.25" height="32.15"/><rect class="uuid-a11e82c7-49f6-4edb-a3fa-38a617029fb4" x="399.5" y="90.65" width="61.25" height="32.15"/><rect class="uuid-a11e82c7-49f6-4edb-a3fa-38a617029fb4" x="461.25" y="90.65" width="61.25" height="32.15"/><rect class="uuid-a11e82c7-49f6-4edb-a3fa-38a617029fb4" x="523" y="90.65" width="61.25" height="32.15"/><rect class="uuid-a11e82c7-49f6-4edb-a3fa-38a617029fb4" x="584.75" y="90.65" width="61.25" height="32.15"/><rect class="uuid-a11e82c7-49f6-4edb-a3fa-38a617029fb4" x="29" y="123.3" width="61.25" height="32.15"/><rect class="uuid-a11e82c7-49f6-4edb-a3fa-38a617029fb4" x="90.75" y="123.3" width="61.25" height="32.15"/><rect class="uuid-a11e82c7-49f6-4edb-a3fa-38a617029fb4" x="152.5" y="123.3" width="61.25" height="32.15"/><rect class="uuid-a11e82c7-49f6-4edb-a3fa-38a617029fb4" x="214.25" y="123.3" width="61.25" height="32.15"/><rect class="uuid-a11e82c7-49f6-4edb-a3fa-38a617029fb4" x="276" y="123.3" width="61.25" height="32.15"/><rect class="uuid-a11e82c7-49f6-4edb-a3fa-38a617029fb4" x="337.75" y="123.3" width="61.25" height="32.15"/><rect class="uuid-a11e82c7-49f6-4edb-a3fa-38a617029fb4" x="399.5" y="123.3" width="61.25" height="32.15"/><rect class="uuid-a11e82c7-49f6-4edb-a3fa-38a617029fb4" x="461.25" y="123.3" width="61.25" height="32.15"/><rect class="uuid-a11e82c7-49f6-4edb-a3fa-38a617029fb4" x="523" y="123.3" width="61.25" height="32.15"/><rect class="uuid-a11e82c7-49f6-4edb-a3fa-38a617029fb4" x="584.75" y="123.3" width="61.25" height="32.15"/><rect class="uuid-a11e82c7-49f6-4edb-a3fa-38a617029fb4" x="29" y="155.95" width="61.25" height="32.15"/><rect class="uuid-a11e82c7-49f6-4edb-a3fa-38a617029fb4" x="90.75" y="155.95" width="61.25" height="32.15"/><rect class="uuid-a11e82c7-49f6-4edb-a3fa-38a617029fb4" x="152.5" y="155.95" width="61.25" height="32.15"/><rect class="uuid-a11e82c7-49f6-4edb-a3fa-38a617029fb4" x="214.25" y="155.95" width="61.25" height="32.15"/><rect class="uuid-a11e82c7-49f6-4edb-a3fa-38a617029fb4" x="276" y="155.95" width="61.25" height="32.15"/><rect class="uuid-a11e82c7-49f6-4edb-a3fa-38a617029fb4" x="337.75" y="155.95" width="61.25" height="32.15"/><rect class="uuid-a11e82c7-49f6-4edb-a3fa-38a617029fb4" x="399.5" y="155.95" width="61.25" height="32.15"/><rect class="uuid-a11e82c7-49f6-4edb-a3fa-38a617029fb4" x="461.25" y="155.95" width="61.25" height="32.15"/><rect class="uuid-a11e82c7-49f6-4edb-a3fa-38a617029fb4" x="523" y="155.95" width="61.25" height="32.15"/><rect class="uuid-a11e82c7-49f6-4edb-a3fa-38a617029fb4" x="584.75" y="155.95" width="61.25" height="32.15"/><rect class="uuid-a11e82c7-49f6-4edb-a3fa-38a617029fb4" x="29" y="188.6" width="61.25" height="32.15"/><rect class="uuid-a11e82c7-49f6-4edb-a3fa-38a617029fb4" x="90.75" y="188.6" width="61.25" height="32.15"/><rect class="uuid-a11e82c7-49f6-4edb-a3fa-38a617029fb4" x="152.5" y="188.6" width="61.25" height="32.15"/><rect class="uuid-a11e82c7-49f6-4edb-a3fa-38a617029fb4" x="214.25" y="188.6" width="61.25" height="32.15"/><rect class="uuid-a11e82c7-49f6-4edb-a3fa-38a617029fb4" x="276" y="188.6" width="61.25" height="32.15"/><rect class="uuid-a11e82c7-49f6-4edb-a3fa-38a617029fb4" x="337.75" y="188.6" width="61.25" height="32.15"/><rect class="uuid-a11e82c7-49f6-4edb-a3fa-38a617029fb4" x="399.5" y="188.6" width="61.25" height="32.15"/><rect class="uuid-a11e82c7-49f6-4edb-a3fa-38a617029fb4" x="461.25" y="188.6" width="61.25" height="32.15"/><rect class="uuid-a11e82c7-49f6-4edb-a3fa-38a617029fb4" x="523" y="188.6" width="61.25" height="32.15"/><rect class="uuid-a11e82c7-49f6-4edb-a3fa-38a617029fb4" x="584.75" y="188.6" width="61.25" height="32.15"/><rect class="uuid-a11e82c7-49f6-4edb-a3fa-38a617029fb4" x="29" y="221.25" width="61.25" height="32.15"/><rect class="uuid-a11e82c7-49f6-4edb-a3fa-38a617029fb4" x="90.75" y="221.25" width="61.25" height="32.15"/><rect class="uuid-a11e82c7-49f6-4edb-a3fa-38a617029fb4" x="152.5" y="221.25" width="61.25" height="32.15"/><rect class="uuid-a11e82c7-49f6-4edb-a3fa-38a617029fb4" x="214.25" y="221.25" width="61.25" height="32.15"/><rect class="uuid-a11e82c7-49f6-4edb-a3fa-38a617029fb4" x="276" y="221.25" width="61.25" height="32.15"/><rect class="uuid-a11e82c7-49f6-4edb-a3fa-38a617029fb4" x="337.75" y="221.25" width="61.25" height="32.15"/><rect class="uuid-a11e82c7-49f6-4edb-a3fa-38a617029fb4" x="399.5" y="221.25" width="61.25" height="32.15"/><rect class="uuid-a11e82c7-49f6-4edb-a3fa-38a617029fb4" x="461.25" y="221.25" width="61.25" height="32.15"/><rect class="uuid-a11e82c7-49f6-4edb-a3fa-38a617029fb4" x="523" y="221.25" width="61.25" height="32.15"/><rect class="uuid-a11e82c7-49f6-4edb-a3fa-38a617029fb4" x="584.75" y="221.25" width="61.25" height="32.15"/><rect class="uuid-a11e82c7-49f6-4edb-a3fa-38a617029fb4" x="29" y="253.9" width="61.25" height="32.15"/><rect class="uuid-a11e82c7-49f6-4edb-a3fa-38a617029fb4" x="90.75" y="253.9" width="61.25" height="32.15"/><rect class="uuid-a11e82c7-49f6-4edb-a3fa-38a617029fb4" x="152.5" y="253.9" width="61.25" height="32.15"/><rect class="uuid-a11e82c7-49f6-4edb-a3fa-38a617029fb4" x="214.25" y="253.9" width="61.25" height="32.15"/><rect class="uuid-a11e82c7-49f6-4edb-a3fa-38a617029fb4" x="276" y="253.9" width="61.25" height="32.15"/><rect class="uuid-a11e82c7-49f6-4edb-a3fa-38a617029fb4" x="337.75" y="253.9" width="61.25" height="32.15"/><rect class="uuid-a11e82c7-49f6-4edb-a3fa-38a617029fb4" x="399.5" y="253.9" width="61.25" height="32.15"/><rect class="uuid-a11e82c7-49f6-4edb-a3fa-38a617029fb4" x="461.25" y="253.9" width="61.25" height="32.15"/><rect class="uuid-a11e82c7-49f6-4edb-a3fa-38a617029fb4" x="523" y="253.9" width="61.25" height="32.15"/><rect class="uuid-a11e82c7-49f6-4edb-a3fa-38a617029fb4" x="584.75" y="253.9" width="61.25" height="32.15"/><rect class="uuid-a11e82c7-49f6-4edb-a3fa-38a617029fb4" x="29" y="286.55" width="61.25" height="32.15"/><rect class="uuid-a11e82c7-49f6-4edb-a3fa-38a617029fb4" x="90.75" y="286.55" width="61.25" height="32.15"/><rect class="uuid-a11e82c7-49f6-4edb-a3fa-38a617029fb4" x="152.5" y="286.55" width="61.25" height="32.15"/><rect class="uuid-a11e82c7-49f6-4edb-a3fa-38a617029fb4" x="214.25" y="286.55" width="61.25" height="32.15"/><rect class="uuid-a11e82c7-49f6-4edb-a3fa-38a617029fb4" x="276" y="286.55" width="61.25" height="32.15"/><rect class="uuid-a11e82c7-49f6-4edb-a3fa-38a617029fb4" x="337.75" y="286.55" width="61.25" height="32.15"/><rect class="uuid-a11e82c7-49f6-4edb-a3fa-38a617029fb4" x="399.5" y="286.55" width="61.25" height="32.15"/><rect class="uuid-a11e82c7-49f6-4edb-a3fa-38a617029fb4" x="461.25" y="286.55" width="61.25" height="32.15"/><rect class="uuid-a11e82c7-49f6-4edb-a3fa-38a617029fb4" x="523" y="286.55" width="61.25" height="32.15"/><rect class="uuid-a11e82c7-49f6-4edb-a3fa-38a617029fb4" x="584.75" y="286.55" width="61.25" height="32.15"/><rect class="uuid-a11e82c7-49f6-4edb-a3fa-38a617029fb4" x="29" y="319.2" width="61.25" height="32.15"/><rect class="uuid-a11e82c7-49f6-4edb-a3fa-38a617029fb4" x="90.75" y="319.2" width="61.25" height="32.15"/><rect class="uuid-a11e82c7-49f6-4edb-a3fa-38a617029fb4" x="152.5" y="319.2" width="61.25" height="32.15"/><rect class="uuid-a11e82c7-49f6-4edb-a3fa-38a617029fb4" x="214.25" y="319.2" width="61.25" height="32.15"/><rect class="uuid-a11e82c7-49f6-4edb-a3fa-38a617029fb4" x="276" y="319.2" width="61.25" height="32.15"/><rect class="uuid-a11e82c7-49f6-4edb-a3fa-38a617029fb4" x="337.75" y="319.2" width="61.25" height="32.15"/><rect class="uuid-a11e82c7-49f6-4edb-a3fa-38a617029fb4" x="399.5" y="319.2" width="61.25" height="32.15"/><rect class="uuid-a11e82c7-49f6-4edb-a3fa-38a617029fb4" x="461.25" y="319.2" width="61.25" height="32.15"/><rect class="uuid-a11e82c7-49f6-4edb-a3fa-38a617029fb4" x="523" y="319.2" width="61.25" height="32.15"/><rect class="uuid-a11e82c7-49f6-4edb-a3fa-38a617029fb4" x="584.75" y="319.2" width="61.25" height="32.15"/><rect class="uuid-a11e82c7-49f6-4edb-a3fa-38a617029fb4" x="29" y="351.85" width="61.25" height="32.15"/><rect class="uuid-a11e82c7-49f6-4edb-a3fa-38a617029fb4" x="90.75" y="351.85" width="61.25" height="32.15"/><rect class="uuid-a11e82c7-49f6-4edb-a3fa-38a617029fb4" x="152.5" y="351.85" width="61.25" height="32.15"/><rect class="uuid-a11e82c7-49f6-4edb-a3fa-38a617029fb4" x="214.25" y="351.85" width="61.25" height="32.15"/><rect class="uuid-a11e82c7-49f6-4edb-a3fa-38a617029fb4" x="276" y="351.85" width="61.25" height="32.15"/><rect class="uuid-a11e82c7-49f6-4edb-a3fa-38a617029fb4" x="337.75" y="351.85" width="61.25" height="32.15"/><rect class="uuid-a11e82c7-49f6-4edb-a3fa-38a617029fb4" x="399.5" y="351.85" width="61.25" height="32.15"/><rect class="uuid-a11e82c7-49f6-4edb-a3fa-38a617029fb4" x="461.25" y="351.85" width="61.25" height="32.15"/><rect class="uuid-a11e82c7-49f6-4edb-a3fa-38a617029fb4" x="523" y="351.85" width="61.25" height="32.15"/><rect class="uuid-a11e82c7-49f6-4edb-a3fa-38a617029fb4" x="584.75" y="351.85" width="61.25" height="32.15"/><path class="uuid-776f7532-f0e8-4e3b-8b07-682fe1aeda45" d="M32.19,126.1c16.66-4.93,33.92,2.27,47.16,12.32,13.91,10.56,24.79,24.49,38.27,35.54,11.89,9.75,26.88,17.63,42.66,17,13.85-.55,24.59-8.69,34.75-17.29,9.22-7.79,19.53-17.76,32.44-17.63,15.64,.16,25.72,15.13,29.49,28.75,4.58,16.53,3.08,34.5,10.25,50.35,5.37,11.87,16.12,22.94,30.01,22.61,15.38-.36,26.52-13.06,39.32-19.79s27.9-8.45,41.71-4.86c15.36,3.99,26.12,14.61,33.12,28.56,3.9,7.77,6.84,16,9.96,24.11,3.63,9.42,7.25,18.83,10.88,28.25,4.71,12.23,10.36,26.54,23.58,31.66s27.77-2.73,37.17-12.34c10.17-10.38,16.59-24.23,21.5-37.74,4.97-13.68,8.23-27.9,11.13-42.13,5.8-28.49,9.86-58.29,23.46-84.39,14.34-27.53,40.03-47.15,70.75-52.62,7.71-1.37,15.55-1.74,23.36-1.2,1.93,.13,1.92-2.87,0-3-30.29-2.09-61.16,10.3-81.42,32.98s-27.35,50.03-33.15,77.76c-6.01,28.77-9.89,58.72-22.74,85.49-6.65,13.87-16.25,28.24-31.25,33.96-7.15,2.73-14.97,2.61-21.59-1.47s-10.35-10.48-13.46-17.02c-3.73-7.86-6.56-16.18-9.68-24.29-3.36-8.73-6.66-17.48-10.09-26.17-5.57-14.11-12.43-28.29-25.61-36.74-11.34-7.28-25.4-9.62-38.64-7.85-6.86,.92-13.55,2.95-19.74,6.08-6.74,3.41-12.65,8.19-18.96,12.28s-13.58,7.88-21.46,7.47c-7.45-.39-13.91-4.62-18.69-10.14-11.56-13.35-11.87-31.54-14.32-48.12-2.09-14.13-6.71-28.99-18.7-37.88-10.41-7.72-23.17-6.58-33.84-.13s-19.7,16.83-30.81,23.55c-14.33,8.67-30.74,6.8-45.17-.75-29.75-15.56-45.8-51.17-80.36-58.68-7.35-1.6-14.88-1.53-22.11,.61-1.85,.55-1.06,3.44,.8,2.89h0Z"/><circle class="uuid-776f7532-f0e8-4e3b-8b07-682fe1aeda45" cx="29" cy="126" r="6"/><circle class="uuid-776f7532-f0e8-4e3b-8b07-682fe1aeda45" cx="91" cy="145" r="6"/><circle class="uuid-776f7532-f0e8-4e3b-8b07-682fe1aeda45" cx="153" cy="189" r="6"/><circle class="uuid-776f7532-f0e8-4e3b-8b07-682fe1aeda45" cx="214" cy="157" r="6"/><circle class="uuid-776f7532-f0e8-4e3b-8b07-682fe1aeda45" cx="276" cy="246" r="6"/><circle class="uuid-776f7532-f0e8-4e3b-8b07-682fe1aeda45" cx="337" cy="236" r="6"/><circle class="uuid-776f7532-f0e8-4e3b-8b07-682fe1aeda45" cx="400" cy="243" r="6"/><circle class="uuid-776f7532-f0e8-4e3b-8b07-682fe1aeda45" cx="461" cy="344" r="6"/><circle class="uuid-776f7532-f0e8-4e3b-8b07-682fe1aeda45" cx="523" cy="266" r="6"/><circle class="uuid-776f7532-f0e8-4e3b-8b07-682fe1aeda45" cx="584" cy="130" r="6"/><circle class="uuid-776f7532-f0e8-4e3b-8b07-682fe1aeda45" cx="646" cy="114" r="6"/><rect class="uuid-776f7532-f0e8-4e3b-8b07-682fe1aeda45" x="29" y="23" width="123" height="12" rx="6" ry="6"/><rect class="uuid-8f8395aa-923a-4d69-ae38-4e2cd46d6976" x="430" y="23" width="216" height="12" rx="6" ry="6"/></g><g class="uuid-07579aa5-3650-4792-9c6b-2f2733c0d474"><rect class="uuid-0a077d25-a688-4a4f-9cdc-0ca26007b04c" x="224.53" y="172" width="479.47" height="302.78" rx="15.79" ry="15.79"/><g><rect class="uuid-8a5cfba1-3194-4006-a176-8a1393164a0a" x="246.61" y="198.69" width="63.5" height="11.04" rx="5.52" ry="5.52"/><rect class="uuid-8a5cfba1-3194-4006-a176-8a1393164a0a" x="321.16" y="198.69" width="43.25" height="11.04" rx="5.52" ry="5.52"/><path class="uuid-8f8395aa-923a-4d69-ae38-4e2cd46d6976" d="M677.31,241.48c0,5.21-2.12,9.92-5.52,13.34-3.42,3.41-8.14,5.52-13.34,5.52H265.48c-10.42,0-18.87-8.45-18.87-18.87,0-5.21,2.12-9.92,5.52-13.34,3.42-3.41,8.14-5.52,13.34-5.52h392.96c10.42,0,18.87,8.45,18.87,18.87Z"/><path class="uuid-776f7532-f0e8-4e3b-8b07-682fe1aeda45" d="M535.59,222.62v37.73H265.48c-10.42,0-18.87-8.45-18.87-18.87,0-5.21,2.12-9.92,5.52-13.34,3.42-3.41,8.14-5.52,13.34-5.52h270.11Z"/></g><g><rect class="uuid-8a5cfba1-3194-4006-a176-8a1393164a0a" x="246.61" y="291.64" width="100.31" height="11.04" rx="5.52" ry="5.52"/><path class="uuid-8f8395aa-923a-4d69-ae38-4e2cd46d6976" d="M677.31,334.43c0,5.21-2.12,9.92-5.52,13.34-3.42,3.41-8.14,5.52-13.34,5.52H265.48c-10.42,0-18.87-8.45-18.87-18.87,0-5.21,2.12-9.92,5.52-13.34,3.42-3.41,8.14-5.52,13.34-5.52h392.96c10.42,0,18.87,8.45,18.87,18.87Z"/><path class="uuid-79789299-accd-4240-beb9-bcff82e432fc" d="M338.64,315.57v37.73h-73.16c-10.42,0-18.87-8.45-18.87-18.87,0-5.21,2.12-9.92,5.52-13.34,3.42-3.41,8.14-5.52,13.34-5.52h73.16Z"/></g><g><rect class="uuid-8a5cfba1-3194-4006-a176-8a1393164a0a" x="246.61" y="384.59" width="63.5" height="11.04" rx="5.52" ry="5.52"/><rect class="uuid-8a5cfba1-3194-4006-a176-8a1393164a0a" x="321.16" y="384.59" width="94.79" height="11.04" rx="5.52" ry="5.52"/><path class="uuid-8f8395aa-923a-4d69-ae38-4e2cd46d6976" d="M677.31,427.38c0,5.21-2.12,9.92-5.52,13.34-3.42,3.41-8.14,5.52-13.34,5.52H265.48c-10.42,0-18.87-8.45-18.87-18.87,0-5.21,2.12-9.92,5.52-13.34,3.42-3.41,8.14-5.52,13.34-5.52h392.96c10.42,0,18.87,8.45,18.87,18.87Z"/><path class="uuid-03fd8e0c-91cb-4715-92af-5f6ae533803f" d="M321.16,408.52v37.73h-55.68c-10.42,0-18.87-8.45-18.87-18.87,0-5.21,2.12-9.92,5.52-13.34,3.42-3.41,8.14-5.52,13.34-5.52h55.68Z"/></g></g><g class="uuid-768f4eb7-0880-4fc3-9108-e6220223c3f3"><rect class="uuid-fed93096-e432-459d-8c64-560be370486f" x="631.91" y="285.78" width="219" height="219" rx="15.79" ry="15.79"/><path class="uuid-4a9fc1d3-1931-4363-9e58-707ab393de5b" d="M741.41,313.55c-45.14,0-81.72,36.59-81.72,81.72s36.59,81.72,81.72,81.72,81.72-36.59,81.72-81.72-36.59-81.72-81.72-81.72Zm0,156.2c-41.13,0-74.48-33.34-74.48-74.48s33.34-74.48,74.48-74.48,74.48,33.34,74.48,74.48-33.34,74.48-74.48,74.48Z"/><g><text class="uuid-f68d593c-db50-43d2-916c-34d259a35b35" transform="translate(694.84 399.62)"><tspan x="0" y="0">230</tspan></text><text class="uuid-8453c860-69fd-4b53-aa59-7ab557454236" transform="translate(710.86 427.89)"><tspan class="uuid-ecf3959a-7d76-4178-8a8d-3b2ef09e1596" x="0" y="0">D</tspan><tspan class="uuid-2596d812-9857-4042-a429-99ca5df65338" x="16.49" y="0">A</tspan><tspan class="uuid-0243216e-d041-45e0-98ac-a8199004e95a" x="30.53" y="0">Y</tspan><tspan class="uuid-4201b3d2-acbc-455a-bf8d-3a78802b747b" x="45.51" y="0">S</tspan></text></g></g></svg>