<?xml version="1.0" encoding="utf-8"?>
<svg version="1.1" id="Layer_1" xmlns="http://www.w3.org/2000/svg" xmlns:xlink="http://www.w3.org/1999/xlink" x="0px" y="0px"
	 viewBox="0 0 800 800" style="enable-background:new 0 0 800 800;" xml:space="preserve">
<style type="text/css">
	.st0{clip-path:url(#SVGID_00000116939355369076476750000007163171745998435517_);fill:#B6509E;}
	.st1{clip-path:url(#SVGID_00000116939355369076476750000007163171745998435517_);fill:#B5519E;}
	.st2{clip-path:url(#SVGID_00000116939355369076476750000007163171745998435517_);fill:#B4529F;}
	.st3{clip-path:url(#SVGID_00000116939355369076476750000007163171745998435517_);fill:#B3529F;}
	.st4{clip-path:url(#SVGID_00000116939355369076476750000007163171745998435517_);fill:#B2539F;}
	.st5{clip-path:url(#SVGID_00000116939355369076476750000007163171745998435517_);fill:#B1549F;}
	.st6{clip-path:url(#SVGID_00000116939355369076476750000007163171745998435517_);fill:#B055A0;}
	.st7{clip-path:url(#SVGID_00000116939355369076476750000007163171745998435517_);fill:#AF55A0;}
	.st8{clip-path:url(#SVGID_00000116939355369076476750000007163171745998435517_);fill:#AE56A0;}
	.st9{clip-path:url(#SVGID_00000116939355369076476750000007163171745998435517_);fill:#AD57A1;}
	.st10{clip-path:url(#SVGID_00000116939355369076476750000007163171745998435517_);fill:#AC58A1;}
	.st11{clip-path:url(#SVGID_00000116939355369076476750000007163171745998435517_);fill:#AB59A1;}
	.st12{clip-path:url(#SVGID_00000116939355369076476750000007163171745998435517_);fill:#AA59A2;}
	.st13{clip-path:url(#SVGID_00000116939355369076476750000007163171745998435517_);fill:#A95AA2;}
	.st14{clip-path:url(#SVGID_00000116939355369076476750000007163171745998435517_);fill:#A85BA2;}
	.st15{clip-path:url(#SVGID_00000116939355369076476750000007163171745998435517_);fill:#A75CA2;}
	.st16{clip-path:url(#SVGID_00000116939355369076476750000007163171745998435517_);fill:#A65DA3;}
	.st17{clip-path:url(#SVGID_00000116939355369076476750000007163171745998435517_);fill:#A55DA3;}
	.st18{clip-path:url(#SVGID_00000116939355369076476750000007163171745998435517_);fill:#A45EA3;}
	.st19{clip-path:url(#SVGID_00000116939355369076476750000007163171745998435517_);fill:#A35FA4;}
	.st20{clip-path:url(#SVGID_00000116939355369076476750000007163171745998435517_);fill:#A260A4;}
	.st21{clip-path:url(#SVGID_00000116939355369076476750000007163171745998435517_);fill:#A160A4;}
	.st22{clip-path:url(#SVGID_00000116939355369076476750000007163171745998435517_);fill:#A061A5;}
	.st23{clip-path:url(#SVGID_00000116939355369076476750000007163171745998435517_);fill:#9F62A5;}
	.st24{clip-path:url(#SVGID_00000116939355369076476750000007163171745998435517_);fill:#9E63A5;}
	.st25{clip-path:url(#SVGID_00000116939355369076476750000007163171745998435517_);fill:#9D64A5;}
	.st26{clip-path:url(#SVGID_00000116939355369076476750000007163171745998435517_);fill:#9C64A6;}
	.st27{clip-path:url(#SVGID_00000116939355369076476750000007163171745998435517_);fill:#9B65A6;}
	.st28{clip-path:url(#SVGID_00000116939355369076476750000007163171745998435517_);fill:#9A66A6;}
	.st29{clip-path:url(#SVGID_00000116939355369076476750000007163171745998435517_);fill:#9967A7;}
	.st30{clip-path:url(#SVGID_00000116939355369076476750000007163171745998435517_);fill:#9868A7;}
	.st31{clip-path:url(#SVGID_00000116939355369076476750000007163171745998435517_);fill:#9768A7;}
	.st32{clip-path:url(#SVGID_00000116939355369076476750000007163171745998435517_);fill:#9669A7;}
	.st33{clip-path:url(#SVGID_00000116939355369076476750000007163171745998435517_);fill:#956AA8;}
	.st34{clip-path:url(#SVGID_00000116939355369076476750000007163171745998435517_);fill:#946BA8;}
	.st35{clip-path:url(#SVGID_00000116939355369076476750000007163171745998435517_);fill:#936BA8;}
	.st36{clip-path:url(#SVGID_00000116939355369076476750000007163171745998435517_);fill:#926CA9;}
	.st37{clip-path:url(#SVGID_00000116939355369076476750000007163171745998435517_);fill:#916DA9;}
	.st38{clip-path:url(#SVGID_00000116939355369076476750000007163171745998435517_);fill:#906EA9;}
	.st39{clip-path:url(#SVGID_00000116939355369076476750000007163171745998435517_);fill:#8F6FAA;}
	.st40{clip-path:url(#SVGID_00000116939355369076476750000007163171745998435517_);fill:#8E6FAA;}
	.st41{clip-path:url(#SVGID_00000116939355369076476750000007163171745998435517_);fill:#8D70AA;}
	.st42{clip-path:url(#SVGID_00000116939355369076476750000007163171745998435517_);fill:#8C71AA;}
	.st43{clip-path:url(#SVGID_00000116939355369076476750000007163171745998435517_);fill:#8B72AB;}
	.st44{clip-path:url(#SVGID_00000116939355369076476750000007163171745998435517_);fill:#8A73AB;}
	.st45{clip-path:url(#SVGID_00000116939355369076476750000007163171745998435517_);fill:#8973AB;}
	.st46{clip-path:url(#SVGID_00000116939355369076476750000007163171745998435517_);fill:#8874AC;}
	.st47{clip-path:url(#SVGID_00000116939355369076476750000007163171745998435517_);fill:#8775AC;}
	.st48{clip-path:url(#SVGID_00000116939355369076476750000007163171745998435517_);fill:#8676AC;}
	.st49{clip-path:url(#SVGID_00000116939355369076476750000007163171745998435517_);fill:#8576AD;}
	.st50{clip-path:url(#SVGID_00000116939355369076476750000007163171745998435517_);fill:#8477AD;}
	.st51{clip-path:url(#SVGID_00000116939355369076476750000007163171745998435517_);fill:#8378AD;}
	.st52{clip-path:url(#SVGID_00000116939355369076476750000007163171745998435517_);fill:#8279AD;}
	.st53{clip-path:url(#SVGID_00000116939355369076476750000007163171745998435517_);fill:#817AAE;}
	.st54{clip-path:url(#SVGID_00000116939355369076476750000007163171745998435517_);fill:#807AAE;}
	.st55{clip-path:url(#SVGID_00000116939355369076476750000007163171745998435517_);fill:#7F7BAE;}
	.st56{clip-path:url(#SVGID_00000116939355369076476750000007163171745998435517_);fill:#7E7CAF;}
	.st57{clip-path:url(#SVGID_00000116939355369076476750000007163171745998435517_);fill:#7D7DAF;}
	.st58{clip-path:url(#SVGID_00000116939355369076476750000007163171745998435517_);fill:#7C7EAF;}
	.st59{clip-path:url(#SVGID_00000116939355369076476750000007163171745998435517_);fill:#7B7EAF;}
	.st60{clip-path:url(#SVGID_00000116939355369076476750000007163171745998435517_);fill:#7A7FB0;}
	.st61{clip-path:url(#SVGID_00000116939355369076476750000007163171745998435517_);fill:#7980B0;}
	.st62{clip-path:url(#SVGID_00000116939355369076476750000007163171745998435517_);fill:#7881B0;}
	.st63{clip-path:url(#SVGID_00000116939355369076476750000007163171745998435517_);fill:#7781B1;}
	.st64{clip-path:url(#SVGID_00000116939355369076476750000007163171745998435517_);fill:#7682B1;}
	.st65{clip-path:url(#SVGID_00000116939355369076476750000007163171745998435517_);fill:#7583B1;}
	.st66{clip-path:url(#SVGID_00000116939355369076476750000007163171745998435517_);fill:#7484B2;}
	.st67{clip-path:url(#SVGID_00000116939355369076476750000007163171745998435517_);fill:#7385B2;}
	.st68{clip-path:url(#SVGID_00000116939355369076476750000007163171745998435517_);fill:#7185B2;}
	.st69{clip-path:url(#SVGID_00000116939355369076476750000007163171745998435517_);fill:#7086B2;}
	.st70{clip-path:url(#SVGID_00000116939355369076476750000007163171745998435517_);fill:#6F87B3;}
	.st71{clip-path:url(#SVGID_00000116939355369076476750000007163171745998435517_);fill:#6E88B3;}
	.st72{clip-path:url(#SVGID_00000116939355369076476750000007163171745998435517_);fill:#6D89B3;}
	.st73{clip-path:url(#SVGID_00000116939355369076476750000007163171745998435517_);fill:#6C89B4;}
	.st74{clip-path:url(#SVGID_00000116939355369076476750000007163171745998435517_);fill:#6B8AB4;}
	.st75{clip-path:url(#SVGID_00000116939355369076476750000007163171745998435517_);fill:#6A8BB4;}
	.st76{clip-path:url(#SVGID_00000116939355369076476750000007163171745998435517_);fill:#698CB5;}
	.st77{clip-path:url(#SVGID_00000116939355369076476750000007163171745998435517_);fill:#688CB5;}
	.st78{clip-path:url(#SVGID_00000116939355369076476750000007163171745998435517_);fill:#678DB5;}
	.st79{clip-path:url(#SVGID_00000116939355369076476750000007163171745998435517_);fill:#668EB5;}
	.st80{clip-path:url(#SVGID_00000116939355369076476750000007163171745998435517_);fill:#658FB6;}
	.st81{clip-path:url(#SVGID_00000116939355369076476750000007163171745998435517_);fill:#6490B6;}
	.st82{clip-path:url(#SVGID_00000116939355369076476750000007163171745998435517_);fill:#6390B6;}
	.st83{clip-path:url(#SVGID_00000116939355369076476750000007163171745998435517_);fill:#6291B7;}
	.st84{clip-path:url(#SVGID_00000116939355369076476750000007163171745998435517_);fill:#6192B7;}
	.st85{clip-path:url(#SVGID_00000116939355369076476750000007163171745998435517_);fill:#6093B7;}
	.st86{clip-path:url(#SVGID_00000116939355369076476750000007163171745998435517_);fill:#5F94B7;}
	.st87{clip-path:url(#SVGID_00000116939355369076476750000007163171745998435517_);fill:#5E94B8;}
	.st88{clip-path:url(#SVGID_00000116939355369076476750000007163171745998435517_);fill:#5D95B8;}
	.st89{clip-path:url(#SVGID_00000116939355369076476750000007163171745998435517_);fill:#5C96B8;}
	.st90{clip-path:url(#SVGID_00000116939355369076476750000007163171745998435517_);fill:#5B97B9;}
	.st91{clip-path:url(#SVGID_00000116939355369076476750000007163171745998435517_);fill:#5A97B9;}
	.st92{clip-path:url(#SVGID_00000116939355369076476750000007163171745998435517_);fill:#5998B9;}
	.st93{clip-path:url(#SVGID_00000116939355369076476750000007163171745998435517_);fill:#5899BA;}
	.st94{clip-path:url(#SVGID_00000116939355369076476750000007163171745998435517_);fill:#579ABA;}
	.st95{clip-path:url(#SVGID_00000116939355369076476750000007163171745998435517_);fill:#569BBA;}
	.st96{clip-path:url(#SVGID_00000116939355369076476750000007163171745998435517_);fill:#559BBA;}
	.st97{clip-path:url(#SVGID_00000116939355369076476750000007163171745998435517_);fill:#549CBB;}
	.st98{clip-path:url(#SVGID_00000116939355369076476750000007163171745998435517_);fill:#539DBB;}
	.st99{clip-path:url(#SVGID_00000116939355369076476750000007163171745998435517_);fill:#529EBB;}
	.st100{clip-path:url(#SVGID_00000116939355369076476750000007163171745998435517_);fill:#519FBC;}
	.st101{clip-path:url(#SVGID_00000116939355369076476750000007163171745998435517_);fill:#509FBC;}
	.st102{clip-path:url(#SVGID_00000116939355369076476750000007163171745998435517_);fill:#4FA0BC;}
	.st103{clip-path:url(#SVGID_00000116939355369076476750000007163171745998435517_);fill:#4EA1BD;}
	.st104{clip-path:url(#SVGID_00000116939355369076476750000007163171745998435517_);fill:#4DA2BD;}
	.st105{clip-path:url(#SVGID_00000116939355369076476750000007163171745998435517_);fill:#4CA2BD;}
	.st106{clip-path:url(#SVGID_00000116939355369076476750000007163171745998435517_);fill:#4BA3BD;}
	.st107{clip-path:url(#SVGID_00000116939355369076476750000007163171745998435517_);fill:#4AA4BE;}
	.st108{clip-path:url(#SVGID_00000116939355369076476750000007163171745998435517_);fill:#49A5BE;}
	.st109{clip-path:url(#SVGID_00000116939355369076476750000007163171745998435517_);fill:#48A6BE;}
	.st110{clip-path:url(#SVGID_00000116939355369076476750000007163171745998435517_);fill:#47A6BF;}
	.st111{clip-path:url(#SVGID_00000116939355369076476750000007163171745998435517_);fill:#46A7BF;}
	.st112{clip-path:url(#SVGID_00000116939355369076476750000007163171745998435517_);fill:#45A8BF;}
	.st113{clip-path:url(#SVGID_00000116939355369076476750000007163171745998435517_);fill:#44A9BF;}
	.st114{clip-path:url(#SVGID_00000116939355369076476750000007163171745998435517_);fill:#43AAC0;}
	.st115{clip-path:url(#SVGID_00000116939355369076476750000007163171745998435517_);fill:#42AAC0;}
	.st116{clip-path:url(#SVGID_00000116939355369076476750000007163171745998435517_);fill:#41ABC0;}
	.st117{clip-path:url(#SVGID_00000116939355369076476750000007163171745998435517_);fill:#40ACC1;}
	.st118{clip-path:url(#SVGID_00000116939355369076476750000007163171745998435517_);fill:#3FADC1;}
	.st119{clip-path:url(#SVGID_00000116939355369076476750000007163171745998435517_);fill:#3EADC1;}
	.st120{clip-path:url(#SVGID_00000116939355369076476750000007163171745998435517_);fill:#3DAEC2;}
	.st121{clip-path:url(#SVGID_00000116939355369076476750000007163171745998435517_);fill:#3CAFC2;}
	.st122{clip-path:url(#SVGID_00000116939355369076476750000007163171745998435517_);fill:#3BB0C2;}
	.st123{clip-path:url(#SVGID_00000116939355369076476750000007163171745998435517_);fill:#3AB1C2;}
	.st124{clip-path:url(#SVGID_00000116939355369076476750000007163171745998435517_);fill:#39B1C3;}
	.st125{clip-path:url(#SVGID_00000116939355369076476750000007163171745998435517_);fill:#38B2C3;}
	.st126{clip-path:url(#SVGID_00000116939355369076476750000007163171745998435517_);fill:#37B3C3;}
	.st127{clip-path:url(#SVGID_00000116939355369076476750000007163171745998435517_);fill:#36B4C4;}
	.st128{clip-path:url(#SVGID_00000116939355369076476750000007163171745998435517_);fill:#35B5C4;}
	.st129{clip-path:url(#SVGID_00000116939355369076476750000007163171745998435517_);fill:#34B5C4;}
	.st130{clip-path:url(#SVGID_00000116939355369076476750000007163171745998435517_);fill:#33B6C5;}
	.st131{clip-path:url(#SVGID_00000116939355369076476750000007163171745998435517_);fill:#32B7C5;}
	.st132{clip-path:url(#SVGID_00000116939355369076476750000007163171745998435517_);fill:#31B8C5;}
	.st133{clip-path:url(#SVGID_00000116939355369076476750000007163171745998435517_);fill:#30B8C5;}
	.st134{clip-path:url(#SVGID_00000116939355369076476750000007163171745998435517_);fill:#2FB9C6;}
	.st135{clip-path:url(#SVGID_00000116939355369076476750000007163171745998435517_);fill:#2EBAC6;}
	.st136{fill:#FFFFFF;}
</style>
<g>
	<g>
		<g id="b">
			<g>
				<g>
					<defs>
						<circle id="SVGID_1_" cx="400" cy="400" r="388"/>
					</defs>
					<clipPath id="SVGID_00000137108822423744641490000008623475357813267111_">
						<use xlink:href="#SVGID_1_"  style="overflow:visible;"/>
					</clipPath>
					<polygon style="clip-path:url(#SVGID_00000137108822423744641490000008623475357813267111_);fill:#B6509E;" points="788,273.9 
						567.6,12 788,12 					"/>
					<polygon style="clip-path:url(#SVGID_00000137108822423744641490000008623475357813267111_);fill:#B6509E;" points="788,282.5 
						560.4,12 567.6,12 788,273.9 					"/>
					<polygon style="clip-path:url(#SVGID_00000137108822423744641490000008623475357813267111_);fill:#B5519E;" points="788,291.1 
						553.1,12 560.4,12 788,282.5 					"/>
					<polygon style="clip-path:url(#SVGID_00000137108822423744641490000008623475357813267111_);fill:#B4529F;" points="788,299.8 
						545.9,12 553.1,12 788,291.1 					"/>
					<polygon style="clip-path:url(#SVGID_00000137108822423744641490000008623475357813267111_);fill:#B3529F;" points="788,308.4 
						538.6,12 545.9,12 788,299.8 					"/>
					<polygon style="clip-path:url(#SVGID_00000137108822423744641490000008623475357813267111_);fill:#B2539F;" points="788,317 
						531.4,12 538.6,12 788,308.4 					"/>
					<polygon style="clip-path:url(#SVGID_00000137108822423744641490000008623475357813267111_);fill:#B1549F;" points="788,325.6 
						524.1,12 531.4,12 788,317 					"/>
					<polygon style="clip-path:url(#SVGID_00000137108822423744641490000008623475357813267111_);fill:#B055A0;" points="788,334.2 
						516.9,12 524.1,12 788,325.6 					"/>
					<polygon style="clip-path:url(#SVGID_00000137108822423744641490000008623475357813267111_);fill:#AF55A0;" points="788,342.8 
						509.6,12 516.9,12 788,334.2 					"/>
					<polygon style="clip-path:url(#SVGID_00000137108822423744641490000008623475357813267111_);fill:#AE56A0;" points="788,351.5 
						502.4,12 509.6,12 788,342.8 					"/>
					<polygon style="clip-path:url(#SVGID_00000137108822423744641490000008623475357813267111_);fill:#AD57A1;" points="788,360.1 
						495.1,12 502.4,12 788,351.5 					"/>
					<polygon style="clip-path:url(#SVGID_00000137108822423744641490000008623475357813267111_);fill:#AC58A1;" points="788,368.7 
						487.9,12 495.1,12 788,360.1 					"/>
					<polygon style="clip-path:url(#SVGID_00000137108822423744641490000008623475357813267111_);fill:#AB59A1;" points="788,377.3 
						480.6,12 487.9,12 788,368.7 					"/>
					<polygon style="clip-path:url(#SVGID_00000137108822423744641490000008623475357813267111_);fill:#AA59A2;" points="788,385.9 
						473.4,12 480.6,12 788,377.3 					"/>
					<polygon style="clip-path:url(#SVGID_00000137108822423744641490000008623475357813267111_);fill:#A95AA2;" points="788,394.5 
						466.1,12 473.4,12 788,385.9 					"/>
					<polygon style="clip-path:url(#SVGID_00000137108822423744641490000008623475357813267111_);fill:#A85BA2;" points="788,403.2 
						458.9,12 466.1,12 788,394.5 					"/>
					<polygon style="clip-path:url(#SVGID_00000137108822423744641490000008623475357813267111_);fill:#A75CA2;" points="788,411.8 
						451.6,12 458.9,12 788,403.2 					"/>
					<polygon style="clip-path:url(#SVGID_00000137108822423744641490000008623475357813267111_);fill:#A65DA3;" points="788,420.4 
						444.4,12 451.6,12 788,411.8 					"/>
					<polygon style="clip-path:url(#SVGID_00000137108822423744641490000008623475357813267111_);fill:#A55DA3;" points="788,429 
						437.1,12 444.4,12 788,420.4 					"/>
					<polygon style="clip-path:url(#SVGID_00000137108822423744641490000008623475357813267111_);fill:#A45EA3;" points="788,437.6 
						429.9,12 437.1,12 788,429 					"/>
					<polygon style="clip-path:url(#SVGID_00000137108822423744641490000008623475357813267111_);fill:#A35FA4;" points="788,446.3 
						422.6,12 429.9,12 788,437.6 					"/>
					<polygon style="clip-path:url(#SVGID_00000137108822423744641490000008623475357813267111_);fill:#A260A4;" points="788,454.9 
						415.4,12 422.6,12 788,446.3 					"/>
					<polygon style="clip-path:url(#SVGID_00000137108822423744641490000008623475357813267111_);fill:#A160A4;" points="788,463.5 
						408.1,12 415.4,12 788,454.9 					"/>
					<polygon style="clip-path:url(#SVGID_00000137108822423744641490000008623475357813267111_);fill:#A061A5;" points="788,472.1 
						400.9,12 408.1,12 788,463.5 					"/>
					<polygon style="clip-path:url(#SVGID_00000137108822423744641490000008623475357813267111_);fill:#9F62A5;" points="788,480.7 
						393.6,12 400.9,12 788,472.1 					"/>
					<polygon style="clip-path:url(#SVGID_00000137108822423744641490000008623475357813267111_);fill:#9E63A5;" points="788,489.3 
						386.4,12 393.6,12 788,480.7 					"/>
					<polygon style="clip-path:url(#SVGID_00000137108822423744641490000008623475357813267111_);fill:#9D64A5;" points="788,498 
						379.1,12 386.4,12 788,489.3 					"/>
					<polygon style="clip-path:url(#SVGID_00000137108822423744641490000008623475357813267111_);fill:#9C64A6;" points="788,506.6 
						371.9,12 379.1,12 788,498 					"/>
					<polygon style="clip-path:url(#SVGID_00000137108822423744641490000008623475357813267111_);fill:#9B65A6;" points="788,515.2 
						364.6,12 371.9,12 788,506.6 					"/>
					<polygon style="clip-path:url(#SVGID_00000137108822423744641490000008623475357813267111_);fill:#9A66A6;" points="788,523.8 
						357.4,12 364.6,12 788,515.2 					"/>
					<polygon style="clip-path:url(#SVGID_00000137108822423744641490000008623475357813267111_);fill:#9967A7;" points="788,532.4 
						350.1,12 357.4,12 788,523.8 					"/>
					<polygon style="clip-path:url(#SVGID_00000137108822423744641490000008623475357813267111_);fill:#9868A7;" points="788,541 
						342.9,12 350.1,12 788,532.4 					"/>
					<polygon style="clip-path:url(#SVGID_00000137108822423744641490000008623475357813267111_);fill:#9768A7;" points="788,549.7 
						335.6,12 342.9,12 788,541 					"/>
					<polygon style="clip-path:url(#SVGID_00000137108822423744641490000008623475357813267111_);fill:#9669A7;" points="788,558.3 
						328.4,12 335.6,12 788,549.7 					"/>
					<polygon style="clip-path:url(#SVGID_00000137108822423744641490000008623475357813267111_);fill:#956AA8;" points="788,566.9 
						321.1,12 328.4,12 788,558.3 					"/>
					<polygon style="clip-path:url(#SVGID_00000137108822423744641490000008623475357813267111_);fill:#946BA8;" points="788,575.5 
						313.9,12 321.1,12 788,566.9 					"/>
					<polygon style="clip-path:url(#SVGID_00000137108822423744641490000008623475357813267111_);fill:#936BA8;" points="788,584.1 
						306.6,12 313.9,12 788,575.5 					"/>
					<polygon style="clip-path:url(#SVGID_00000137108822423744641490000008623475357813267111_);fill:#926CA9;" points="788,592.8 
						299.4,12 306.6,12 788,584.1 					"/>
					<polygon style="clip-path:url(#SVGID_00000137108822423744641490000008623475357813267111_);fill:#916DA9;" points="788,601.4 
						292.1,12 299.4,12 788,592.8 					"/>
					<polygon style="clip-path:url(#SVGID_00000137108822423744641490000008623475357813267111_);fill:#906EA9;" points="788,610 
						284.9,12 292.1,12 788,601.4 					"/>
					<polygon style="clip-path:url(#SVGID_00000137108822423744641490000008623475357813267111_);fill:#8F6FAA;" points="788,618.6 
						277.6,12 284.9,12 788,610 					"/>
					<polygon style="clip-path:url(#SVGID_00000137108822423744641490000008623475357813267111_);fill:#8E6FAA;" points="788,627.2 
						270.4,12 277.6,12 788,618.6 					"/>
					<polygon style="clip-path:url(#SVGID_00000137108822423744641490000008623475357813267111_);fill:#8D70AA;" points="788,635.8 
						263.1,12 270.4,12 788,627.2 					"/>
					<polygon style="clip-path:url(#SVGID_00000137108822423744641490000008623475357813267111_);fill:#8C71AA;" points="788,644.5 
						255.9,12 263.1,12 788,635.8 					"/>
					<polygon style="clip-path:url(#SVGID_00000137108822423744641490000008623475357813267111_);fill:#8B72AB;" points="788,653.1 
						248.6,12 255.9,12 788,644.5 					"/>
					<polygon style="clip-path:url(#SVGID_00000137108822423744641490000008623475357813267111_);fill:#8A73AB;" points="788,661.7 
						241.4,12 248.6,12 788,653.1 					"/>
					<polygon style="clip-path:url(#SVGID_00000137108822423744641490000008623475357813267111_);fill:#8973AB;" points="788,670.3 
						234.1,12 241.4,12 788,661.7 					"/>
					<polygon style="clip-path:url(#SVGID_00000137108822423744641490000008623475357813267111_);fill:#8874AC;" points="788,678.9 
						226.9,12 234.1,12 788,670.3 					"/>
					<polygon style="clip-path:url(#SVGID_00000137108822423744641490000008623475357813267111_);fill:#8775AC;" points="788,687.5 
						219.6,12 226.9,12 788,678.9 					"/>
					<polygon style="clip-path:url(#SVGID_00000137108822423744641490000008623475357813267111_);fill:#8676AC;" points="788,696.2 
						212.4,12 219.6,12 788,687.5 					"/>
					<polygon style="clip-path:url(#SVGID_00000137108822423744641490000008623475357813267111_);fill:#8576AD;" points="788,704.8 
						205.1,12 212.4,12 788,696.2 					"/>
					<polygon style="clip-path:url(#SVGID_00000137108822423744641490000008623475357813267111_);fill:#8477AD;" points="788,713.4 
						197.9,12 205.1,12 788,704.8 					"/>
					<polygon style="clip-path:url(#SVGID_00000137108822423744641490000008623475357813267111_);fill:#8378AD;" points="788,722 
						190.6,12 197.9,12 788,713.4 					"/>
					<polygon style="clip-path:url(#SVGID_00000137108822423744641490000008623475357813267111_);fill:#8279AD;" points="788,730.6 
						183.4,12 190.6,12 788,722 					"/>
					<polygon style="clip-path:url(#SVGID_00000137108822423744641490000008623475357813267111_);fill:#817AAE;" points="788,739.3 
						176.1,12 183.4,12 788,730.6 					"/>
					<polygon style="clip-path:url(#SVGID_00000137108822423744641490000008623475357813267111_);fill:#807AAE;" points="788,747.9 
						168.9,12 176.1,12 788,739.3 					"/>
					<polygon style="clip-path:url(#SVGID_00000137108822423744641490000008623475357813267111_);fill:#7F7BAE;" points="788,756.5 
						161.6,12 168.9,12 788,747.9 					"/>
					<polygon style="clip-path:url(#SVGID_00000137108822423744641490000008623475357813267111_);fill:#7E7CAF;" points="788,765.1 
						154.4,12 161.6,12 788,756.5 					"/>
					<polygon style="clip-path:url(#SVGID_00000137108822423744641490000008623475357813267111_);fill:#7D7DAF;" points="788,773.7 
						147.1,12 154.4,12 788,765.1 					"/>
					<polygon style="clip-path:url(#SVGID_00000137108822423744641490000008623475357813267111_);fill:#7C7EAF;" points="788,782.3 
						139.9,12 147.1,12 788,773.7 					"/>
					<polygon style="clip-path:url(#SVGID_00000137108822423744641490000008623475357813267111_);fill:#7B7EAF;" points="785.5,788 
						132.6,12 139.9,12 788,782.3 788,788 					"/>
					<polygon style="clip-path:url(#SVGID_00000137108822423744641490000008623475357813267111_);fill:#7A7FB0;" points="778.3,788 
						125.4,12 132.6,12 785.5,788 					"/>
					<polygon style="clip-path:url(#SVGID_00000137108822423744641490000008623475357813267111_);fill:#7980B0;" points="771,788 
						118.1,12 125.4,12 778.3,788 					"/>
					<polygon style="clip-path:url(#SVGID_00000137108822423744641490000008623475357813267111_);fill:#7881B0;" points="763.8,788 
						110.9,12 118.1,12 771,788 					"/>
					<polygon style="clip-path:url(#SVGID_00000137108822423744641490000008623475357813267111_);fill:#7781B1;" points="756.5,788 
						103.6,12 110.9,12 763.8,788 					"/>
					<polygon style="clip-path:url(#SVGID_00000137108822423744641490000008623475357813267111_);fill:#7682B1;" points="749.3,788 
						96.4,12 103.6,12 756.5,788 					"/>
					<polygon style="clip-path:url(#SVGID_00000137108822423744641490000008623475357813267111_);fill:#7583B1;" points="742,788 
						89.1,12 96.4,12 749.3,788 					"/>
					<polygon style="clip-path:url(#SVGID_00000137108822423744641490000008623475357813267111_);fill:#7484B2;" points="734.8,788 
						81.9,12 89.1,12 742,788 					"/>
					<polygon style="clip-path:url(#SVGID_00000137108822423744641490000008623475357813267111_);fill:#7385B2;" points="727.5,788 
						74.6,12 81.9,12 734.8,788 					"/>
					<polygon style="clip-path:url(#SVGID_00000137108822423744641490000008623475357813267111_);fill:#7185B2;" points="720.3,788 
						67.4,12 74.6,12 727.5,788 					"/>
					<polygon style="clip-path:url(#SVGID_00000137108822423744641490000008623475357813267111_);fill:#7086B2;" points="713,788 
						60.1,12 67.4,12 720.3,788 					"/>
					<polygon style="clip-path:url(#SVGID_00000137108822423744641490000008623475357813267111_);fill:#6F87B3;" points="705.8,788 
						52.9,12 60.1,12 713,788 					"/>
					<polygon style="clip-path:url(#SVGID_00000137108822423744641490000008623475357813267111_);fill:#6E88B3;" points="698.5,788 
						45.6,12 52.9,12 705.8,788 					"/>
					<polygon style="clip-path:url(#SVGID_00000137108822423744641490000008623475357813267111_);fill:#6D89B3;" points="691.3,788 
						38.4,12 45.6,12 698.5,788 					"/>
					<polygon style="clip-path:url(#SVGID_00000137108822423744641490000008623475357813267111_);fill:#6C89B4;" points="684,788 
						31.1,12 38.4,12 691.3,788 					"/>
					<polygon style="clip-path:url(#SVGID_00000137108822423744641490000008623475357813267111_);fill:#6B8AB4;" points="676.8,788 
						23.9,12 31.1,12 684,788 					"/>
					<polygon style="clip-path:url(#SVGID_00000137108822423744641490000008623475357813267111_);fill:#6A8BB4;" points="669.5,788 
						16.6,12 23.9,12 676.8,788 					"/>
					<polygon style="clip-path:url(#SVGID_00000137108822423744641490000008623475357813267111_);fill:#698CB5;" points="662.3,788 
						12,15.1 12,12 16.6,12 669.5,788 					"/>
					<polygon style="clip-path:url(#SVGID_00000137108822423744641490000008623475357813267111_);fill:#688CB5;" points="655,788 
						12,23.7 12,15.1 662.3,788 					"/>
					<polygon style="clip-path:url(#SVGID_00000137108822423744641490000008623475357813267111_);fill:#678DB5;" points="647.8,788 
						12,32.4 12,23.7 655,788 					"/>
					<polygon style="clip-path:url(#SVGID_00000137108822423744641490000008623475357813267111_);fill:#668EB5;" points="640.5,788 
						12,41 12,32.4 647.8,788 					"/>
					<polygon style="clip-path:url(#SVGID_00000137108822423744641490000008623475357813267111_);fill:#658FB6;" points="633.3,788 
						12,49.6 12,41 640.5,788 					"/>
					<polygon style="clip-path:url(#SVGID_00000137108822423744641490000008623475357813267111_);fill:#6490B6;" points="626,788 
						12,58.2 12,49.6 633.3,788 					"/>
					<polygon style="clip-path:url(#SVGID_00000137108822423744641490000008623475357813267111_);fill:#6390B6;" points="618.8,788 
						12,66.8 12,58.2 626,788 					"/>
					<polygon style="clip-path:url(#SVGID_00000137108822423744641490000008623475357813267111_);fill:#6291B7;" points="611.5,788 
						12,75.4 12,66.8 618.8,788 					"/>
					<polygon style="clip-path:url(#SVGID_00000137108822423744641490000008623475357813267111_);fill:#6192B7;" points="604.3,788 
						12,84.1 12,75.4 611.5,788 					"/>
					<polygon style="clip-path:url(#SVGID_00000137108822423744641490000008623475357813267111_);fill:#6093B7;" points="597,788 
						12,92.7 12,84.1 604.3,788 					"/>
					<polygon style="clip-path:url(#SVGID_00000137108822423744641490000008623475357813267111_);fill:#5F94B7;" points="589.8,788 
						12,101.3 12,92.7 597,788 					"/>
					<polygon style="clip-path:url(#SVGID_00000137108822423744641490000008623475357813267111_);fill:#5E94B8;" points="582.5,788 
						12,109.9 12,101.3 589.8,788 					"/>
					<polygon style="clip-path:url(#SVGID_00000137108822423744641490000008623475357813267111_);fill:#5D95B8;" points="575.3,788 
						12,118.5 12,109.9 582.5,788 					"/>
					<polygon style="clip-path:url(#SVGID_00000137108822423744641490000008623475357813267111_);fill:#5C96B8;" points="568,788 
						12,127.2 12,118.5 575.3,788 					"/>
					<polygon style="clip-path:url(#SVGID_00000137108822423744641490000008623475357813267111_);fill:#5B97B9;" points="560.8,788 
						12,135.8 12,127.2 568,788 					"/>
					<polygon style="clip-path:url(#SVGID_00000137108822423744641490000008623475357813267111_);fill:#5A97B9;" points="553.5,788 
						12,144.4 12,135.8 560.8,788 					"/>
					<polygon style="clip-path:url(#SVGID_00000137108822423744641490000008623475357813267111_);fill:#5998B9;" points="546.2,788 
						12,153 12,144.4 553.5,788 					"/>
					<polygon style="clip-path:url(#SVGID_00000137108822423744641490000008623475357813267111_);fill:#5899BA;" points="539,788 
						12,161.6 12,153 546.2,788 					"/>
					<polygon style="clip-path:url(#SVGID_00000137108822423744641490000008623475357813267111_);fill:#579ABA;" points="531.7,788 
						12,170.2 12,161.6 539,788 					"/>
					<polygon style="clip-path:url(#SVGID_00000137108822423744641490000008623475357813267111_);fill:#569BBA;" points="524.5,788 
						12,178.9 12,170.2 531.7,788 					"/>
					<polygon style="clip-path:url(#SVGID_00000137108822423744641490000008623475357813267111_);fill:#559BBA;" points="517.2,788 
						12,187.5 12,178.9 524.5,788 					"/>
					<polygon style="clip-path:url(#SVGID_00000137108822423744641490000008623475357813267111_);fill:#549CBB;" points="510,788 
						12,196.1 12,187.5 517.2,788 					"/>
					<polygon style="clip-path:url(#SVGID_00000137108822423744641490000008623475357813267111_);fill:#539DBB;" points="502.7,788 
						12,204.7 12,196.1 510,788 					"/>
					<polygon style="clip-path:url(#SVGID_00000137108822423744641490000008623475357813267111_);fill:#529EBB;" points="495.5,788 
						12,213.3 12,204.7 502.7,788 					"/>
					<polygon style="clip-path:url(#SVGID_00000137108822423744641490000008623475357813267111_);fill:#519FBC;" points="488.2,788 
						12,221.9 12,213.3 495.5,788 					"/>
					<polygon style="clip-path:url(#SVGID_00000137108822423744641490000008623475357813267111_);fill:#509FBC;" points="481,788 
						12,230.6 12,221.9 488.2,788 					"/>
					<polygon style="clip-path:url(#SVGID_00000137108822423744641490000008623475357813267111_);fill:#4FA0BC;" points="473.7,788 
						12,239.2 12,230.6 481,788 					"/>
					<polygon style="clip-path:url(#SVGID_00000137108822423744641490000008623475357813267111_);fill:#4EA1BD;" points="466.5,788 
						12,247.8 12,239.2 473.7,788 					"/>
					<polygon style="clip-path:url(#SVGID_00000137108822423744641490000008623475357813267111_);fill:#4DA2BD;" points="459.2,788 
						12,256.4 12,247.8 466.5,788 					"/>
					<polygon style="clip-path:url(#SVGID_00000137108822423744641490000008623475357813267111_);fill:#4CA2BD;" points="452,788 
						12,265 12,256.4 459.2,788 					"/>
					<polygon style="clip-path:url(#SVGID_00000137108822423744641490000008623475357813267111_);fill:#4BA3BD;" points="444.7,788 
						12,273.7 12,265 452,788 					"/>
					<polygon style="clip-path:url(#SVGID_00000137108822423744641490000008623475357813267111_);fill:#4AA4BE;" points="437.5,788 
						12,282.3 12,273.7 444.7,788 					"/>
					<polygon style="clip-path:url(#SVGID_00000137108822423744641490000008623475357813267111_);fill:#49A5BE;" points="430.2,788 
						12,290.9 12,282.3 437.5,788 					"/>
					<polygon style="clip-path:url(#SVGID_00000137108822423744641490000008623475357813267111_);fill:#48A6BE;" points="423,788 
						12,299.5 12,290.9 430.2,788 					"/>
					<polygon style="clip-path:url(#SVGID_00000137108822423744641490000008623475357813267111_);fill:#47A6BF;" points="415.7,788 
						12,308.1 12,299.5 423,788 					"/>
					<polygon style="clip-path:url(#SVGID_00000137108822423744641490000008623475357813267111_);fill:#46A7BF;" points="408.5,788 
						12,316.7 12,308.1 415.7,788 					"/>
					<polygon style="clip-path:url(#SVGID_00000137108822423744641490000008623475357813267111_);fill:#45A8BF;" points="401.2,788 
						12,325.4 12,316.7 408.5,788 					"/>
					<polygon style="clip-path:url(#SVGID_00000137108822423744641490000008623475357813267111_);fill:#44A9BF;" points="394,788 
						12,334 12,325.4 401.2,788 					"/>
					<polygon style="clip-path:url(#SVGID_00000137108822423744641490000008623475357813267111_);fill:#43AAC0;" points="386.7,788 
						12,342.6 12,334 394,788 					"/>
					<polygon style="clip-path:url(#SVGID_00000137108822423744641490000008623475357813267111_);fill:#42AAC0;" points="379.5,788 
						12,351.2 12,342.6 386.7,788 					"/>
					<polygon style="clip-path:url(#SVGID_00000137108822423744641490000008623475357813267111_);fill:#41ABC0;" points="372.2,788 
						12,359.8 12,351.2 379.5,788 					"/>
					<polygon style="clip-path:url(#SVGID_00000137108822423744641490000008623475357813267111_);fill:#40ACC1;" points="365,788 
						12,368.4 12,359.8 372.2,788 					"/>
					<polygon style="clip-path:url(#SVGID_00000137108822423744641490000008623475357813267111_);fill:#3FADC1;" points="357.7,788 
						12,377.1 12,368.4 365,788 					"/>
					<polygon style="clip-path:url(#SVGID_00000137108822423744641490000008623475357813267111_);fill:#3EADC1;" points="350.5,788 
						12,385.7 12,377.1 357.7,788 					"/>
					<polygon style="clip-path:url(#SVGID_00000137108822423744641490000008623475357813267111_);fill:#3DAEC2;" points="343.2,788 
						12,394.3 12,385.7 350.5,788 					"/>
					<polygon style="clip-path:url(#SVGID_00000137108822423744641490000008623475357813267111_);fill:#3CAFC2;" points="336,788 
						12,402.9 12,394.3 343.2,788 					"/>
					<polygon style="clip-path:url(#SVGID_00000137108822423744641490000008623475357813267111_);fill:#3BB0C2;" points="328.7,788 
						12,411.5 12,402.9 336,788 					"/>
					<polygon style="clip-path:url(#SVGID_00000137108822423744641490000008623475357813267111_);fill:#3AB1C2;" points="321.5,788 
						12,420.2 12,411.5 328.7,788 					"/>
					<polygon style="clip-path:url(#SVGID_00000137108822423744641490000008623475357813267111_);fill:#39B1C3;" points="314.2,788 
						12,428.8 12,420.2 321.5,788 					"/>
					<polygon style="clip-path:url(#SVGID_00000137108822423744641490000008623475357813267111_);fill:#38B2C3;" points="307,788 
						12,437.4 12,428.8 314.2,788 					"/>
					<polygon style="clip-path:url(#SVGID_00000137108822423744641490000008623475357813267111_);fill:#37B3C3;" points="299.7,788 
						12,446 12,437.4 307,788 					"/>
					<polygon style="clip-path:url(#SVGID_00000137108822423744641490000008623475357813267111_);fill:#36B4C4;" points="292.5,788 
						12,454.6 12,446 299.7,788 					"/>
					<polygon style="clip-path:url(#SVGID_00000137108822423744641490000008623475357813267111_);fill:#35B5C4;" points="285.2,788 
						12,463.2 12,454.6 292.5,788 					"/>
					<polygon style="clip-path:url(#SVGID_00000137108822423744641490000008623475357813267111_);fill:#34B5C4;" points="278,788 
						12,471.9 12,463.2 285.2,788 					"/>
					<polygon style="clip-path:url(#SVGID_00000137108822423744641490000008623475357813267111_);fill:#33B6C5;" points="270.7,788 
						12,480.5 12,471.9 278,788 					"/>
					<polygon style="clip-path:url(#SVGID_00000137108822423744641490000008623475357813267111_);fill:#32B7C5;" points="263.5,788 
						12,489.1 12,480.5 270.7,788 					"/>
					<polygon style="clip-path:url(#SVGID_00000137108822423744641490000008623475357813267111_);fill:#31B8C5;" points="256.2,788 
						12,497.7 12,489.1 263.5,788 					"/>
					<polygon style="clip-path:url(#SVGID_00000137108822423744641490000008623475357813267111_);fill:#30B8C5;" points="249,788 
						12,506.3 12,497.7 256.2,788 					"/>
					<polygon style="clip-path:url(#SVGID_00000137108822423744641490000008623475357813267111_);fill:#2FB9C6;" points="241.7,788 
						12,514.9 12,506.3 249,788 					"/>
					<polygon style="clip-path:url(#SVGID_00000137108822423744641490000008623475357813267111_);fill:#2EBAC6;" points="234.5,788 
						12,523.6 12,514.9 241.7,788 					"/>
					<polygon style="clip-path:url(#SVGID_00000137108822423744641490000008623475357813267111_);fill:#2EBAC6;" points="12,523.6 
						234.5,788 12,788 					"/>
				</g>
			</g>
			<g>
				<path class="st136" d="M569.8,554.6L438.6,237.4c-7.4-16.4-18.4-24.4-32.9-24.4h-11.6c-14.5,0-25.5,8-32.9,24.4l-57.1,138.2
					h-43.2c-12.9,0.1-23.4,10.5-23.5,23.5v0.3c0.1,12.9,10.6,23.4,23.5,23.5h23.2l-54.5,131.7c-1,2.9-1.6,5.9-1.6,9
					c0,7.4,2.3,13.2,6.4,17.7s10,6.7,17.4,6.7c4.9-0.1,9.6-1.6,13.5-4.5c4.2-2.9,7.1-7.1,9.4-11.9l60-148.8h41.6
					c12.9-0.1,23.4-10.5,23.5-23.5v-0.6c-0.1-12.9-10.6-23.4-23.5-23.5h-22.2l45.8-114.1l124.8,310.4c2.3,4.8,5.2,9,9.4,11.9
					c3.9,2.9,8.7,4.4,13.5,4.5c7.4,0,13.2-2.2,17.4-6.7s6.4-10.3,6.4-17.7C571.5,560.5,571,557.4,569.8,554.6z"/>
			</g>
		</g>
	</g>
</g>
</svg>
