<?xml version="1.0" encoding="utf-8"?>
<svg version="1.1" id="Layer_2" xmlns="http://www.w3.org/2000/svg" xmlns:xlink="http://www.w3.org/1999/xlink" x="0px" y="0px"
	 viewBox="0 0 800 800" style="enable-background:new 0 0 800 800;" xml:space="preserve">
<style type="text/css">
	.st0{fill:#9ba1ab;}
</style>
<path class="st0" d="M400,12C185.7,12,12,185.7,12,400s173.7,388,388,388s388-173.7,388-388S614.3,12,400,12z M571.4,563.5
	c0,7.4-2.2,13.2-6.4,17.7s-10,6.7-17.4,6.7c-4.8-0.1-9.6-1.6-13.5-4.5c-4.2-2.9-7.1-7.1-9.4-11.9L399.9,261.1l-45.8,114.1h22.2
	c12.9,0.1,23.4,10.6,23.5,23.5v0.6c-0.1,13-10.6,23.4-23.5,23.5h-41.6l-60,148.8c-2.3,4.8-5.2,9-9.4,11.9c-3.9,2.9-8.6,4.4-13.5,4.5
	c-7.4,0-13.3-2.2-17.4-6.7c-4.1-4.5-6.4-10.3-6.4-17.7c0-3.1,0.6-6.1,1.6-9l54.5-131.7h-23.2c-12.9-0.1-23.4-10.6-23.5-23.5v-0.3
	c0.1-13,10.6-23.4,23.5-23.5h43.2l57.1-138.2c7.4-16.4,18.4-24.4,32.9-24.4h11.6c14.5,0,25.5,8,32.9,24.4l131.2,317.2
	C571,557.4,571.5,560.5,571.4,563.5z"/>
</svg>
