<?xml version="1.0" encoding="utf-8"?>
<!-- Generator: Adobe Illustrator 26.1.0, SVG Export Plug-In . SVG Version: 6.00 Build 0)  -->
<svg version="1.1" id="Layer_1" xmlns="http://www.w3.org/2000/svg" xmlns:xlink="http://www.w3.org/1999/xlink" x="0px" y="0px"
	 viewBox="0 0 42 42" style="enable-background:new 0 0 42 42;" xml:space="preserve">
<style type="text/css">
	.st0{fill:#6F7580;}
	.st1{fill:#FEFEFE;}
	.st2{fill:#FFFFFF;}
</style>
<g>
	<path class="st0" d="M41,37.2v0.3c-0.1,0.3-0.3,0.5-0.6,0.6H14.8c0,0,0,0-0.1,0c-0.4-0.2-0.6-0.6-0.3-1c0.6-1,1.1-1.9,1.7-2.9
		c0.7-1.1,1.4-2.3,2-3.4c0.3-0.5,0.8-0.8,1.4-0.8c3.4,0,6.7,0,10.1,0c2.1,0,4.1,0,6.2,0c0.7,0,1.1,0.3,1.4,0.8
		c0.5,0.9,1,1.8,1.6,2.7c0.7,1.2,1.4,2.3,2,3.4C40.9,37,40.9,37.1,41,37.2z"/>
	<path class="st0" d="M34.4,26.3c-0.1,0.4-0.4,0.6-0.7,0.6c-2.5,0-5,0-7.5,0c-0.6,0-1-0.3-1.3-0.8c-0.2-0.3-0.3-0.6-0.5-0.9
		c-0.6-0.9-1.1-1.9-1.7-2.9c-0.9-1.6-1.9-3.1-2.8-4.7c-0.8-1.4-1.6-2.8-2.5-4.2c-0.3-0.4-0.5-0.8-0.8-1.3s-0.3-1,0-1.5
		c1.2-2.1,2.5-4.2,3.7-6.3c0.1-0.2,0.3-0.4,0.5-0.5h0.3c0.3,0.1,0.4,0.3,0.6,0.5c0.8,1.3,1.6,2.7,2.3,4c1.3,2.2,2.6,4.4,3.9,6.6
		c0.6,1,1.1,1.9,1.7,2.9c1.1,1.9,2.3,3.8,3.4,5.8c0.4,0.7,0.8,1.4,1.2,2.1C34.3,25.9,34.4,26.1,34.4,26.3z"/>
	<path class="st0" d="M18.7,23.4c-0.1,0.1-0.2,0.3-0.3,0.4c-0.3,0.6-0.7,1.1-1,1.7c-0.6,0.9-1.1,1.9-1.7,2.8c-1.8,3-3.5,5.9-5.3,8.9
		c-0.2,0.4-0.5,0.6-0.9,0.8H9.4h-8c-0.1,0-0.3-0.2-0.4-0.5v-0.3c1.3-2.2,2.6-4.4,3.9-6.6c0.8-1.4,1.6-2.8,2.4-4.1
		C8,25.3,8.7,24.2,9.4,23c0-0.1,0.1-0.1,0.1-0.2c0.5-0.9,1-1.8,1.6-2.7c0.9-1.5,1.8-3,2.6-4.5c0.4-0.6,1-0.6,1.3,0
		c1.2,2.1,2.5,4.2,3.7,6.3C19,22.4,19,22.9,18.7,23.4z"/>
</g>
<path class="st1" d="M509.6,447.1c7.5-2,12.5-6.7,15-14c0,4.7,1.8,11.1-0.5,13.5c-2.3,2.3-8.8,0.5-13.5,0.5
	C510.3,447.1,510,447.1,509.6,447.1z"/>
<path class="st2" d="M-482.6,432.1c1.9,8.1,7.1,12.9,15,15c-4.3,0-8.7-0.1-13,0.1c-1.7,0.1-2.1-0.3-2.1-2.1
	C-482.5,440.8-482.6,436.5-482.6,432.1z"/>
</svg>
