<?xml version="1.0" encoding="utf-8"?>
<!-- Generator: Adobe Illustrator 26.1.0, SVG Export Plug-In . SVG Version: 6.00 Build 0)  -->
<svg version="1.1" id="Layer_1" xmlns="http://www.w3.org/2000/svg" xmlns:xlink="http://www.w3.org/1999/xlink" x="0px" y="0px"
	 viewBox="0 0 42 42" style="enable-background:new 0 0 42 42;" xml:space="preserve">
<style type="text/css">
	.st0{fill:url(#SVGID_1_);}
	.st1{fill:url(#SVGID_00000105425009942291485430000006074732539082644871_);}
	.st2{fill:url(#SVGID_00000103253044671991260950000007242326616038537619_);}
	.st3{fill:#FEFEFE;}
</style>
<g>
	
		<linearGradient id="SVGID_1_" gradientUnits="userSpaceOnUse" x1="27.9688" y1="-1.567" x2="27.9688" y2="7.0315" gradientTransform="matrix(1 0 0 -1 0 37.3659)">
		<stop  offset="0" style="stop-color:#4F35FE"/>
		<stop  offset="1" style="stop-color:#3542F9"/>
	</linearGradient>
	<path class="st0" d="M42,38v0.3c-0.1,0.3-0.3,0.5-0.6,0.6H14.5c0,0-0.1,0-0.1-0.1c-0.5-0.2-0.6-0.7-0.4-1.1c0.6-1,1.2-2,1.8-3
		c0.7-1.2,1.4-2.4,2.1-3.6c0.3-0.6,0.8-0.8,1.5-0.8c3.5,0,7,0,10.6,0c2.2,0,4.3,0,6.5,0c0.7,0,1.2,0.3,1.5,0.9
		c0.5,0.9,1.1,1.9,1.6,2.8c0.7,1.2,1.4,2.4,2.1,3.6C41.9,37.8,41.9,37.9,42,38z"/>
	
		<linearGradient id="SVGID_00000065045892190331549880000009486437449942013119_" gradientUnits="userSpaceOnUse" x1="16.0987" y1="29.6767" x2="35.0609" y2="10.7145" gradientTransform="matrix(1 0 0 -1 0 37.3659)">
		<stop  offset="0" style="stop-color:#05D6FF"/>
		<stop  offset="1" style="stop-color:#2C5EFA"/>
	</linearGradient>
	<path style="fill:url(#SVGID_00000065045892190331549880000009486437449942013119_);" d="M35,26.5c-0.1,0.4-0.4,0.6-0.8,0.6
		c-2.6,0-5.3,0-7.9,0c-0.6,0-1-0.3-1.3-0.8c-0.2-0.3-0.4-0.6-0.5-0.9c-0.6-1-1.2-2-1.8-3c-1-1.7-2-3.3-2.9-5
		c-0.9-1.5-1.7-2.9-2.6-4.4c-0.3-0.4-0.5-0.9-0.8-1.3c-0.3-0.5-0.3-1,0-1.6C17.7,8,19,5.8,20.3,3.6c0.1-0.2,0.3-0.4,0.6-0.5h0.3
		c0.3,0.1,0.4,0.3,0.6,0.6c0.8,1.4,1.6,2.8,2.5,4.2c1.4,2.3,2.7,4.6,4,6.9c0.6,1,1.2,2,1.8,3c1.2,2,2.4,4,3.6,6
		c0.4,0.7,0.9,1.5,1.3,2.2C35,26.1,35.1,26.3,35,26.5z"/>
	
		<linearGradient id="SVGID_00000017488674834773754350000012751718794732235143_" gradientUnits="userSpaceOnUse" x1="-2.821556e-02" y1="-1.101" x2="18.9482" y2="17.8754" gradientTransform="matrix(1 0 0 -1 0 37.3659)">
		<stop  offset="0" style="stop-color:#5533FF"/>
		<stop  offset="1" style="stop-color:#1C8DFC"/>
	</linearGradient>
	<path style="fill:url(#SVGID_00000017488674834773754350000012751718794732235143_);" d="M18.6,23.5c-0.1,0.2-0.2,0.3-0.3,0.5
		c-0.3,0.6-0.7,1.2-1,1.8c-0.6,1-1.2,2-1.7,3c-1.8,3.1-3.7,6.2-5.5,9.4c-0.2,0.4-0.5,0.7-1,0.8c0,0-0.1,0-0.1,0H0.6
		c-0.3-0.1-0.5-0.3-0.6-0.6V38c1.4-2.3,2.7-4.7,4.1-7c0.9-1.5,1.7-2.9,2.6-4.3c0.7-1.2,1.4-2.4,2.2-3.7c0-0.1,0.1-0.1,0.1-0.2
		c0.5-0.9,1.1-1.9,1.6-2.8c0.9-1.6,1.8-3.1,2.8-4.7c0.4-0.6,1-0.6,1.4,0c1.3,2.2,2.6,4.4,3.9,6.6C18.9,22.5,18.9,23,18.6,23.5z"/>
</g>
<path class="st3" d="M509.6,448c7.5-2,12.5-6.7,15-14c0,4.7,1.8,11.1-0.5,13.5c-2.3,2.3-8.8,0.5-13.5,0.5
	C510.3,448,510,448,509.6,448z"/>
<path class="st3" d="M-482.6,433c1.9,8.1,7.1,12.9,15,15c-4.3,0-8.7-0.1-13,0.1c-1.7,0.1-2.1-0.3-2.1-2.1
	C-482.5,441.7-482.6,437.4-482.6,433z"/>
</svg>
