<?xml version="1.0" encoding="utf-8"?>
<!-- Generator: Adobe Illustrator 26.1.0, SVG Export Plug-In . SVG Version: 6.00 Build 0)  -->
<svg version="1.1" id="Layer_1" xmlns="http://www.w3.org/2000/svg" xmlns:xlink="http://www.w3.org/1999/xlink" x="0px" y="0px"
	 viewBox="0 0 1008 861" style="enable-background:new 0 0 1008 861;" xml:space="preserve">
<style type="text/css">
	.st0{fill:url(#SVGID_1_);}
	.st1{fill:url(#SVGID_00000044153457478226084300000009543385322774096035_);}
	.st2{fill:url(#SVGID_00000027576217470082198390000016322660850960753574_);}
	.st3{fill:#FEFEFE;}
</style>
<linearGradient id="SVGID_1_" gradientUnits="userSpaceOnUse" x1="670.8448" y1="860.32" x2="670.8448" y2="654.149">
	<stop  offset="0" style="stop-color:#4F35FE"/>
	<stop  offset="1" style="stop-color:#3542F9"/>
</linearGradient>
<path class="st0" d="M1007.3,838.3v8c-2.5,7.3-7.5,12-15,14H347.8c-0.3-1-1.2-0.9-2-1.2c-10.9-4.7-14.6-15.7-8.6-26
	c14.2-24.2,28.4-48.4,42.7-72.6c17-28.9,34.1-57.7,50.9-86.6c7.8-13.5,19.3-19.7,34.8-19.7c84.4,0.1,168.8,0,253.3,0
	c52.1,0,104.2,0.2,156.4-0.1c16.4-0.1,28.3,6.4,36.3,20.8c12.7,22.7,26.3,45,39.1,67.6c16.5,29.1,34.2,57.6,51.3,86.4
	C1003.8,832,1005.5,835.2,1007.3,838.3z"/>
<linearGradient id="SVGID_00000183236629159078270330000011657651679804412858_" gradientUnits="userSpaceOnUse" x1="386.0346" y1="110.921" x2="840.8786" y2="565.765">
	<stop  offset="0" style="stop-color:#05D6FF"/>
	<stop  offset="1" style="stop-color:#2C5EFA"/>
</linearGradient>
<path style="fill:url(#SVGID_00000183236629159078270330000011657651679804412858_);" d="M839.9,562.7c-2.8,9.3-9.1,14.4-18.6,14.4
	c-63,0.1-126.1,0.1-189.1,0c-14.2,0-25.1-6.5-32.3-19c-4.3-7.5-8.6-15-12.9-22.4c-14.1-23.9-28.3-47.9-42.4-71.8
	c-23.4-39.6-46.8-79.2-70.2-118.9c-20.6-35.1-41.1-70.3-61.7-105.4c-6.3-10.7-12.6-21.4-18.9-32.1c-7.5-12.6-7.3-25.1,0.1-37.7
	c30.9-52.5,61.8-105,92.6-157.6c3.3-5.6,7.5-9.5,13.3-12h8c6.6,2.4,10.7,7.2,14.1,13.2c19.4,33.5,39.2,66.8,58.8,100.2
	c32.4,55,65,109.9,97.1,165.1c14,24.1,28,48.4,42.2,72.4c28.6,48.3,57.1,96.7,85.8,145c10.5,17.7,20.9,35.4,31.3,53.1
	C839.5,553.3,841.4,557.6,839.9,562.7z"/>
<linearGradient id="SVGID_00000170266175093101684900000008548571438778760834_" gradientUnits="userSpaceOnUse" x1="-0.6287" y1="849.1405" x2="454.3965" y2="394.1153">
	<stop  offset="0" style="stop-color:#5533FF"/>
	<stop  offset="1" style="stop-color:#1C8DFC"/>
</linearGradient>
<path style="fill:url(#SVGID_00000170266175093101684900000008548571438778760834_);" d="M446.7,491c-2.2,3.7-4.5,7.3-6.8,11
	c-8.2,14.2-16.5,28.4-24.7,42.5c-13.9,23.7-27.8,47.4-41.7,71.1c-44.1,74.9-88.2,149.8-132.2,224.8c-5.6,9.5-13.1,16.2-23.9,18.9
	c-0.7,0.2-1.3,0.3-1.5,1H15.1c-7.9-2.1-13.1-6.9-15-15v-7C32.8,782.5,65.4,726.7,98.2,671c20.4-34.8,41-69.4,61.5-104.1
	c17.3-29.3,34.5-58.6,51.8-88c0.8-1.4,1.8-2.8,2.7-4.2c13.1-22.4,26.1-44.8,39.2-67.1c22.1-37.7,44.3-75.3,66.5-113
	c8.9-15.2,24.9-15.1,33.9,0.1c30.9,52.5,61.8,105.1,92.8,157.6C454.2,465.3,454.5,478.1,446.7,491z"/>
<path class="st3" d="M992.3,860.3c7.5-2,12.5-6.7,15-14c0,4.7,1.8,11.1-0.5,13.5c-2.3,2.3-8.8,0.5-13.5,0.5
	C993,860.3,992.7,860.3,992.3,860.3z"/>
<path class="st3" d="M0.1,845.3c1.9,8.1,7.1,12.9,15,15c-4.3,0-8.7-0.1-13,0.1c-1.7,0.1-2.1-0.3-2.1-2.1
	C0.2,854,0.1,849.7,0.1,845.3z"/>
</svg>
