<?xml version="1.0" encoding="utf-8"?>
<!-- Generator: Adobe Illustrator 26.1.0, SVG Export Plug-In . SVG Version: 6.00 Build 0)  -->
<svg version="1.1" id="Layer_1" xmlns="http://www.w3.org/2000/svg" xmlns:xlink="http://www.w3.org/1999/xlink" x="0px" y="0px"
	 viewBox="0 0 152 152" style="enable-background:new 0 0 152 152;" xml:space="preserve">
<style type="text/css">
	.st0{fill:#D7D7D7;}
	.st1{fill:#9BA1AB;}
	.st2{fill:#FFFFFF;}
	.st3{fill:#EDEDED;}
</style>
<path class="st0" d="M134.3,48.9c0-0.5,0-1-0.1-1.6c-0.6-3.6-2.8-6.8-5.9-8.6c-1.4-0.8-2.9-1.7-4.3-2.5c-3.2-1.9-6.5-3.7-9.8-5.6
	s-6.6-3.8-9.9-5.7c-3.6-2-7.1-4.1-10.7-6.2c-3.8-2.2-7.6-4.4-11.4-6.5c-3.6-2.2-8.1-2.4-11.8-0.3c-4.7,2.5-9.3,5.3-14,8
	c-5,2.9-10,5.8-14.9,8.7c-5.9,3.4-11.9,6.8-17.7,10.3c-3,1.6-5,4.5-5.6,7.8c0.6-3.2,2.6-6.1,5.6-7.7l46.4-26.8l0,0
	c3.6-2.1,8-2.1,11.6,0L128.3,39c3.6,2.1,5.8,5.9,5.8,10v53.7c0,4.1-2.2,8-5.8,10l-46.4,26.8c-2.9,1.7-6.4,2-9.5,0.9
	c1.9,0.7,4.1,0.9,6.1,0.5c1.5-0.3,2.9-0.9,4.1-1.7c5-2.9,10-5.8,15-8.7c5.2-3,10.4-6,15.6-9c4.9-2.8,9.8-5.6,14.6-8.5
	c0.8-0.4,1.7-0.9,2.4-1.5c2.6-2.2,4.2-5.5,4.2-9C134.3,84.8,134.3,66.8,134.3,48.9z M78.2,49.6c0.2-0.5,0.7-0.8,1.2-0.8
	c5.9,0,11.9,0,17.8-0.1c0.1,0,0.3,0,0.4,0.2c-0.2,0.3-0.3,0.6-0.5,1c-14,23.6-27.9,47.1-41.8,70.7c-0.2,0.3-0.4,0.6-0.5,1l0,0
	c0.3,0.4,0.6,0.6,1,0.8c6.1,3.5,12.1,6.9,18.1,10.4c1.3,0.9,3.1,0.9,4.4,0c4.1-2.4,8.2-4.8,12.3-7.1c1.3-0.6,2.5-1.4,3.7-2.3
	c0,0,0,0,0-0.1c0,0,0,0,0-0.1c0.1-0.4-0.2-0.8-0.4-1.1c-1.2-1.9-2.4-3.8-3.6-5.7c-4.4-6.8-8.7-13.7-13.1-20.5
	c-0.4-0.5-0.4-1.2-0.1-1.7c3.3-5.5,6.5-11,9.8-16.6c0.5-0.8,0.5-0.8,1,0c3.8,5.9,7.5,11.8,11.2,17.7c3.7,5.7,7.3,11.5,10.9,17.2
	c0.2,0.4,0.4,0.8,0.8,1h0.1h0.1c1.1-0.4,2.1-0.9,3-1.6c0.6-0.3,1.2-0.5,1.5-1.1l0,0l0,0c0-0.4-0.2-0.8-0.5-1.2
	c-1.6-2.6-3.2-5.2-4.8-7.8L98.7,82.7c-2.3-3.8-4.6-7.5-7-11.2c-0.4-0.5-0.5-1.2-0.2-1.7c2.8-4.8,5.6-9.6,8.5-14.3
	c0.4-0.7,0.5-0.7,0.9,0c1.9,3,3.8,5.9,5.7,8.8c5.6,8.7,11.2,17.4,16.8,26.2c0.7,1.1,1.4,2.2,2.1,3.3c0.2,0.2,0.3,0.7,0.7,0.5l0,0
	c0,0,0.1-0.1,0.2-0.1c0.1-0.3,0.1-0.7,0.1-1.1c0-14.5,0-28.9,0-43.4c0.1-1.7-0.8-3.3-2.3-4.1c-0.4-0.3-0.9-0.5-1.3-0.8
	c-6.3-3.6-12.6-7.2-18.9-10.8c-8.3-4.8-16.7-9.6-25-14.4c-1.7-1.2-4-1.2-5.8,0c-4.5,2.7-9.1,5.3-13.6,7.9
	C49.4,33.1,39.2,39.1,29,44.9c-2.1,1-3.4,3.2-3.3,5.5c0.1,13.3,0,26.6,0,39.9c0,0.4,0,0.8,0,1.2c0,0.2,0,0.6,0.4,0.6l0,0
	c0.1-0.2,0.2-0.4,0.4-0.5c7.8-12,15.5-24.1,23.3-36.1c1.6-2.5,3.9-4.3,6.6-5.4c3-1.1,6.2-1.6,9.4-1.5c2.3,0,4.5,0.1,6.8,0.2
	c0.1,0,0.3-0.1,0.4,0.2l-42.3,67.8l0,0c1.6,0.9,3.1,1.7,4.5,2.6c0.1,0,0.2,0.1,0.2,0.1c0.2,0,0.3,0,0.5-0.3c0.1-0.1,0.2-0.3,0.2-0.4
	c9.5-15.7,19-31.4,28.5-47C69.2,64.4,73.7,57,78.2,49.6z M63.9,136c-1.7-1-3.5-2-5.2-3l11.6,6.7c0.5,0.3,1,0.5,1.5,0.7
	c-0.2-0.1-0.3-0.1-0.5-0.2C68.8,138.8,66.4,137.4,63.9,136z M51.3,128.7c0.9,0.5,1.9,1,2.8,1.6c1.6,0.9,3.1,1.8,4.7,2.7l-7.7-4.4
	C51.1,128.6,51.2,128.6,51.3,128.7z M18.1,103.7c0,0.2,0,0.5,0,0.9c0,0,0-0.1,0.1-0.1c-0.1-0.4-0.1-0.8-0.1-1.2V103.7z M18.2,47.2
	c-0.1,0.6-0.2,1.2-0.2,1.9v53.7c0,0.2,0,0.3,0,0.5c0-18.1,0-36.2,0-54.3C18.1,48.4,18.1,47.8,18.2,47.2z"/>
<path class="st1" d="M133,31.7l-47-27c-6.2-3.5-13.8-3.5-19.9,0l-47,27C12.8,35.3,9,41.9,9,49.1v53.8c0,7.2,3.8,13.8,10,17.3l47,27
	c6.2,3.5,13.8,3.5,19.9,0l47-27c6.2-3.6,10-10.2,10-17.3V49.1C143,41.9,139.2,35.3,133,31.7z M130.1,111.7c-0.8,0.6-1.6,1.1-2.4,1.5
	c-4.9,2.8-9.7,5.7-14.6,8.5c-5.2,3-10.4,6-15.6,9c-5,2.9-10,5.8-15,8.7c-1.2,0.8-2.6,1.4-4.1,1.7c-2,0.4-4.2,0.2-6.1-0.5h-0.1
	c-0.2-0.1-0.3-0.1-0.5-0.2c-0.5-0.2-1-0.4-1.5-0.7L58.7,133c-1.5-0.9-3.1-1.8-4.7-2.7c-0.9-0.5-1.8-1.1-2.8-1.6
	c-0.1-0.1-0.2-0.1-0.3-0.2l-15.5-9c-0.1,0-0.2,0-0.2-0.1c-1.5-0.9-3-1.7-4.5-2.6l0,0l-6.9-4c-3.1-1.8-5.1-4.8-5.6-8.3
	c0,0,0,0.1-0.1,0.1c0-0.4,0-0.7,0-0.9v-0.4c0-0.2,0-0.4,0-0.5V49.1c0-0.6,0-1.3,0.2-1.9c0-0.1,0-0.3,0.1-0.4C19,43.5,21,40.7,24,39
	c5.9-3.5,11.8-6.9,17.7-10.3c5-2.9,10-5.8,14.9-8.7c4.7-2.7,9.2-5.5,14-8c3.7-2.1,8.2-1.9,11.8,0.3c3.8,2.2,7.6,4.3,11.4,6.5
	c3.6,2.1,7.1,4.1,10.7,6.2c3.3,1.9,6.6,3.8,9.9,5.7s6.5,3.7,9.8,5.6c1.4,0.8,2.9,1.6,4.3,2.5c3.2,1.8,5.4,5,5.9,8.6
	c0.1,0.5,0.1,1,0.1,1.6c0,18,0,35.9,0,53.9C134.3,106.2,132.8,109.5,130.1,111.7z"/>
<path class="st2" d="M18.2,47.2c-0.1,0.6-0.1,1.1-0.1,1.7c0,18.1,0,36.2,0,54.3c0-0.2,0-0.4,0-0.5V49C18,48.5,18.1,47.8,18.2,47.2z"
	/>
<path class="st2" d="M71.8,140.4c-0.5-0.2-1-0.4-1.5-0.7L58.7,133c1.7,1,3.5,2,5.2,3c2.4,1.4,4.9,2.8,7.3,4.2
	C71.4,140.2,71.6,140.3,71.8,140.4z"/>
<path class="st2" d="M126.5,49.5c0,14.5,0,28.9,0,43.4c0,0.4,0,0.7-0.1,1.1c-0.1,0.1-0.1,0.1-0.2,0.1l0,0c-0.4,0.2-0.5-0.2-0.7-0.5
	c-0.8-1-1.4-2.2-2.1-3.3c-5.6-8.7-11.2-17.5-16.8-26.2c-1.9-3-3.8-5.9-5.7-8.8c-0.4-0.7-0.5-0.7-0.9,0c-2.8,4.8-5.6,9.5-8.5,14.3
	c-0.3,0.5-0.2,1.2,0.2,1.7c2.3,3.7,4.6,7.5,7,11.2l11.9,19.2c1.6,2.6,3.2,5.2,4.8,7.8c0.3,0.3,0.4,0.7,0.5,1.2l0,0l0,0
	c-0.3,0.6-1,0.8-1.5,1.1c-0.9,0.7-1.9,1.2-3,1.6h-0.1h-0.1c-0.4-0.2-0.6-0.6-0.8-1c-3.7-5.7-7.3-11.5-10.9-17.2
	c-3.8-5.9-7.5-11.8-11.2-17.7c-0.5-0.8-0.6-0.8-1,0c-3.6,5.5-6.8,11-10.1,16.5c-0.3,0.5-0.3,1.2,0.1,1.7c4.4,6.8,8.8,13.7,13.1,20.5
	c1.2,1.9,2.4,3.8,3.6,5.7c0.2,0.3,0.5,0.7,0.4,1.1c0,0,0,0,0,0.1v0.1c-1.2,0.9-2.4,1.7-3.7,2.3c-4.1,2.4-8.2,4.8-12.3,7.1
	c-1.3,0.9-3.1,0.9-4.4,0c-6-3.5-12.1-7-18.1-10.4c-0.4-0.2-0.8-0.4-1-0.8l0,0c0.1-0.4,0.2-0.7,0.5-1C69.2,97,83.1,73.5,97,49.9
	c0.2-0.3,0.4-0.7,0.5-1c-0.1-0.2-0.3-0.2-0.4-0.2c-5.9,0-11.9,0.1-17.8,0.1c-0.5,0-1,0.3-1.2,0.8c-4.5,7.4-9,14.8-13.4,22.2
	c-9.5,15.7-19,31.4-28.5,47c-0.1,0.1-0.2,0.3-0.2,0.4c-0.1,0.2-0.3,0.3-0.5,0.3l-4.8-2.7L73,49c-0.1-0.3-0.3-0.2-0.4-0.2
	c-2.3-0.1-4.5-0.2-6.8-0.2c-3.2-0.1-6.4,0.4-9.4,1.5c-2.7,1-5,2.9-6.6,5.4c-7.7,12-15.5,24.1-23.3,36.1c-0.1,0.2-0.2,0.4-0.4,0.5
	l0,0c-0.5,0-0.4-0.4-0.4-0.6c0-0.4-0.1-0.8,0-1.2c0-13.3,0-26.6,0-39.9c-0.2-2.4,1.1-4.5,3.3-5.5c10.2-5.8,20.4-11.8,30.6-17.7
	c4.5-2.6,9.1-5.2,13.6-7.9c1.7-1.2,4-1.2,5.8,0c8.3,4.9,16.7,9.6,25,14.4c6.3,3.6,12.6,7.2,18.9,10.8c0.5,0.3,0.9,0.5,1.3,0.8
	C125.7,46.2,126.6,47.8,126.5,49.5z"/>
<path class="st1" d="M126.5,49.5c0,14.5,0,28.9,0,43.4c0,0.4,0,0.7-0.1,1.1c-0.1,0.1-0.1,0.1-0.2,0.1l0,0c-0.4,0.2-0.5-0.2-0.7-0.5
	c-0.8-1-1.4-2.2-2.1-3.3c-5.6-8.7-11.2-17.5-16.8-26.2c-1.9-3-3.8-5.9-5.7-8.8c-0.4-0.7-0.5-0.7-0.9,0c-2.8,4.8-5.6,9.5-8.5,14.3
	c-0.3,0.5-0.2,1.2,0.2,1.7c2.3,3.7,4.6,7.5,7,11.2l11.9,19.2c1.6,2.6,3.2,5.2,4.8,7.8c0.3,0.3,0.4,0.7,0.5,1.2l0,0l0,0
	c-0.3,0.6-1,0.8-1.5,1.1c-0.9,0.7-1.9,1.2-3,1.6h-0.1h-0.1c-0.4-0.2-0.6-0.6-0.8-1c-3.7-5.7-7.3-11.5-10.9-17.2
	c-3.8-5.9-7.5-11.8-11.2-17.7c-0.5-0.8-0.6-0.8-1,0c-3.6,5.5-6.8,11-10.1,16.5c-0.3,0.5-0.3,1.2,0.1,1.7c4.4,6.8,8.8,13.7,13.1,20.5
	c1.2,1.9,2.4,3.8,3.6,5.7c0.2,0.3,0.5,0.7,0.4,1.1c0,0,0,0,0,0.1v0.1c-1.2,0.9-2.4,1.7-3.7,2.3c-4.1,2.4-8.2,4.8-12.3,7.1
	c-1.3,0.9-3.1,0.9-4.4,0c-6-3.5-12.1-7-18.1-10.4c-0.4-0.2-0.8-0.4-1-0.8l0,0c0.1-0.4,0.2-0.7,0.5-1C69.2,97,83.1,73.5,97,49.9
	c0.2-0.3,0.4-0.7,0.5-1c-0.1-0.2-0.3-0.2-0.4-0.2c-5.9,0-11.9,0.1-17.8,0.1c-0.5,0-1,0.3-1.2,0.8c-4.5,7.4-9,14.8-13.4,22.2
	c-9.5,15.7-19,31.4-28.5,47c-0.1,0.1-0.2,0.3-0.2,0.4c-0.1,0.2-0.3,0.3-0.5,0.3c-0.1,0-0.2,0-0.2-0.1c-1.5-0.9-3-1.7-4.5-2.6l0,0
	L73,49c-0.1-0.3-0.3-0.2-0.4-0.2c-2.3-0.1-4.5-0.2-6.8-0.2c-3.2-0.1-6.4,0.4-9.4,1.5c-2.7,1-5,2.9-6.6,5.4
	c-7.7,12-15.5,24.1-23.3,36.1c-0.1,0.2-0.2,0.4-0.4,0.5l0,0c-0.5,0-0.4-0.4-0.4-0.6c0-0.4-0.1-0.8,0-1.2c0-13.3,0-26.6,0-39.9
	c-0.2-2.4,1.1-4.5,3.3-5.5c10.2-5.8,20.4-11.8,30.6-17.7c4.5-2.6,9.1-5.2,13.6-7.9c1.7-1.2,4-1.2,5.8,0c8.3,4.9,16.7,9.6,25,14.4
	c6.3,3.6,12.6,7.2,18.9,10.8c0.5,0.3,0.9,0.5,1.3,0.8C125.7,46.2,126.6,47.8,126.5,49.5z"/>
<path class="st2" d="M18.2,104.5c0,0,0,0.1-0.1,0.1c0-0.4,0-0.7,0-0.9v-0.4C18.1,103.7,18.1,104.1,18.2,104.5z"/>
<path class="st2" d="M58.7,133c-1.5-0.9-3.1-1.8-4.7-2.7c-0.9-0.5-1.8-1.1-2.8-1.6c-0.1-0.1-0.2-0.1-0.3-0.2L58.7,133z"/>
<path class="st2" d="M94.4,123.2L94.4,123.2C94.5,123.2,94.5,123.2,94.4,123.2C94.4,123.3,94.4,123.3,94.4,123.2
	c-1.1,1-2.4,1.8-3.7,2.4c-4.1,2.4-8.2,4.8-12.3,7.1c-1.3,0.9-3.1,0.9-4.4,0c-6-3.5-12.1-7-18.1-10.4c-0.4-0.2-0.8-0.4-1-0.8
	c1.1,0.5,2.2,1.1,3.3,1.8c5.4,3.1,10.7,6.1,16.1,9.2c1.3,0.8,2.9,0.8,4.1,0c5.1-3,10.2-5.9,15.3-8.9
	C93.9,123.5,94.1,123.4,94.4,123.2L94.4,123.2z"/>
<path class="st2" d="M115.8,110.8L115.8,110.8c-0.3,0.7-1,0.9-1.5,1.2c-0.9,0.7-1.9,1.2-3,1.6h-0.1h-0.1c0.1,0,0.1,0,0.2,0l0,0
	L115.8,110.8C115.7,110.8,115.8,110.8,115.8,110.8L115.8,110.8L115.8,110.8z"/>
<path class="st2" d="M126.5,49.5c0,14.5,0,28.9,0,43.4c0,0.4,0,0.7-0.1,1.1c-0.1,0.1-0.1,0.1-0.2,0.1l0,0l0,0c0-0.4,0-0.7,0-1.1
	c0-14.4,0-28.9,0-43.3c0.1-1.8-0.9-3.5-2.5-4.3C108.5,36.7,93.4,28,78.3,19.3c-1.4-0.9-3.2-0.9-4.6,0C65.4,24.2,57,29.1,48.6,34
	c-6.8,3.9-13.5,7.8-20.3,11.7c-1.5,0.8-2.4,2.3-2.3,4c0,13.8,0.1,27.7,0.1,41.5c0,0.3-0.1,0.6,0.1,0.9l0,0c-0.5,0-0.4-0.4-0.4-0.6
	c0-0.4-0.1-0.8,0-1.2c0-13.3,0-26.6,0-39.9c-0.2-2.4,1.1-4.5,3.3-5.5c10.2-5.8,20.4-11.8,30.6-17.7c4.5-2.6,9.1-5.2,13.6-7.9
	c1.7-1.2,4-1.2,5.8,0c8.3,4.9,16.7,9.6,25,14.4c6.3,3.6,12.6,7.2,18.9,10.8c0.5,0.3,0.9,0.5,1.3,0.8
	C125.7,46.2,126.6,47.8,126.5,49.5z"/>
<path class="st2" d="M134.3,102.8c0,3.5-1.5,6.7-4.2,9c-0.8,0.6-1.6,1.1-2.4,1.5c-4.9,2.8-9.7,5.7-14.6,8.5c-5.2,3-10.4,6-15.6,9
	c-5,2.9-10,5.8-15,8.7c-1.2,0.8-2.6,1.4-4.1,1.7c-2,0.4-4.2,0.2-6.1-0.5c3.1,1.1,6.6,0.7,9.5-0.9l46.4-26.8c3.6-2.1,5.8-5.9,5.8-10
	V49.3c0-4.1-2.2-8-5.8-10l-46.4-27c-3.6-2.1-8-2.1-11.6,0l0,0L23.8,39c-2.9,1.7-4.9,4.5-5.6,7.7c0.6-3.3,2.6-6.1,5.6-7.8
	c5.9-3.5,11.8-6.9,17.7-10.3c5-2.9,10-5.8,14.9-8.7c4.7-2.7,9.2-5.5,14-8c3.7-2.1,8.2-1.9,11.8,0.3c3.8,2.2,7.6,4.3,11.4,6.5
	c3.6,2.1,7.1,4.1,10.7,6.2c3.3,1.9,6.6,3.8,9.9,5.7s6.5,3.7,9.8,5.6c1.4,0.8,2.9,1.6,4.3,2.5c3.2,1.8,5.4,5,5.9,8.6
	c0.1,0.5,0.1,1,0.1,1.6C134.3,66.8,134.3,84.8,134.3,102.8z"/>
<path class="st3" d="M126.2,94.1L126.2,94.1c-0.4,0.2-0.5-0.2-0.7-0.5c-0.8-1-1.4-2.2-2.1-3.3c-5.6-8.7-11.2-17.5-16.8-26.2
	c-1.9-3-3.8-5.9-5.7-8.8c-0.4-0.7-0.5-0.7-0.9,0c-2.8,4.8-5.6,9.5-8.5,14.3c-0.3,0.5-0.2,1.2,0.2,1.7c2.3,3.7,4.6,7.5,7,11.2
	l11.9,19.2c1.6,2.6,3.2,5.2,4.8,7.8c0.3,0.3,0.4,0.7,0.5,1.2l0,0l0,0l0,0c-1.1-2.1-2.5-4.1-3.7-6.1C105.5,94.1,99,83.5,92.4,72.9
	c-0.4-0.6-0.8-1.3-1.2-1.9c-0.3-0.3-0.3-0.9,0-1.2c1.6-2.6,3.1-5.2,4.7-7.9l4.3-7.3c0.1-0.2,0.2-0.3,0.4-0.4
	c0.8,1.1,1.5,2.3,2.2,3.5c4.5,7,9,14.1,13.5,21.1c3.1,4.8,6.1,9.5,9.2,14.3C125.7,93.5,125.9,93.8,126.2,94.1z"/>
<path class="st3" d="M111.3,113.4C111.2,113.4,111.2,113.4,111.3,113.4C111.2,113.5,111.2,113.5,111.3,113.4c-0.1,0-0.2,0-0.2,0
	c-0.4-0.2-0.6-0.6-0.8-1c-3.7-5.7-7.3-11.5-10.9-17.2c-3.8-5.9-7.5-11.8-11.2-17.7c-0.5-0.8-0.6-0.8-1,0c-3.5,5.5-6.7,11-10,16.5
	c-0.3,0.5-0.3,1.2,0.1,1.7c4.4,6.8,8.8,13.7,13.1,20.5c1.2,1.9,2.4,3.8,3.6,5.7c0.2,0.3,0.5,0.7,0.4,1.1c0,0,0,0,0,0.1l0,0l0,0
	c-0.1-0.3-0.2-0.6-0.4-0.8c-3.1-4.9-6.2-9.8-9.3-14.7c-2.6-4-5.1-8-7.7-12c-0.4-0.4-0.4-1-0.1-1.5c3.4-5.8,6.9-11.6,10.3-17.4
	c0.1-0.1,0.1-0.3,0.3-0.3c0.3,0.1,0.4,0.3,0.5,0.6c6.2,9.8,12.4,19.5,18.6,29.3c1.3,2.1,2.6,4.2,4,6.2
	C110.7,112.9,111,113.2,111.3,113.4z"/>
</svg>
