<?xml version="1.0" encoding="utf-8"?>
<!-- Generator: Adobe Illustrator 26.1.0, SVG Export Plug-In . SVG Version: 6.00 Build 0)  -->
<svg version="1.1" id="Layer_1" xmlns="http://www.w3.org/2000/svg" xmlns:xlink="http://www.w3.org/1999/xlink" x="0px" y="0px"
	 viewBox="0 0 152 152" style="enable-background:new 0 0 152 152;" xml:space="preserve">
<style type="text/css">
	.st0{fill:#1D86CC;}
	.st1{fill:#FFFFFF;}
	.st2{fill:#2D374B;}
	.st3{fill:#96BEDC;}
	.st4{fill:#28A0F0;}
</style>
<g>
	<path id="Polygon_1" class="st0" d="M143,102.9c0,7.2-3.8,13.8-10,17.3l-47,27c-6.2,3.5-13.8,3.5-19.9,0l-47-27
		c-6.2-3.6-10-10.2-10-17.3V49.1c0-7.2,3.8-13.8,10-17.3l47-27c6.2-3.5,13.8-3.5,19.9,0l47,27c6.2,3.6,10,10.2,10,17.3V102.9z"/>
	<path id="Path_83" class="st1" d="M70.2,12.2L23.8,39c-3.6,2.1-5.8,5.9-5.8,10l0,53.7c0,4.1,2.2,8,5.8,10l46.5,26.9
		c3.6,2.1,8,2.1,11.6,0l46.4-26.8c3.6-2.1,5.8-5.9,5.8-10l0-53.7c0-4.1-2.2-8-5.8-10L81.8,12.3C78.2,10.2,73.8,10.2,70.2,12.2
		L70.2,12.2z"/>
	<path id="Path_84" class="st2" d="M54.9,121.5c0.1-0.3,0.2-0.7,0.5-1C69.2,97,83.1,73.5,97,49.9c0.2-0.3,0.4-0.7,0.5-1
		c-0.1-0.2-0.3-0.2-0.4-0.2c-5.9,0-11.9,0.1-17.8,0.1c-0.5,0-1,0.3-1.2,0.8c-4.5,7.4-9,14.8-13.4,22.2c-9.5,15.7-19,31.4-28.5,47
		c-0.1,0.1-0.2,0.3-0.2,0.4c-0.2,0.3-0.4,0.4-0.7,0.2c-1.5-0.9-3-1.7-4.5-2.6L73,49c-0.1-0.3-0.3-0.2-0.4-0.2
		c-2.3-0.1-4.5-0.2-6.8-0.2c-3.2-0.1-6.4,0.4-9.3,1.5c-2.7,1-5,2.9-6.6,5.3c-7.7,12.1-15.5,24.1-23.3,36.1c-0.1,0.2-0.3,0.4-0.4,0.6
		c-0.4,0-0.4-0.4-0.4-0.6c0-0.4,0-0.8,0-1.2c0-13.3,0-26.6,0-39.9c-0.1-2.3,1.2-4.5,3.3-5.5c10.2-5.8,20.4-11.8,30.6-17.7
		c4.5-2.6,9.1-5.2,13.6-7.9c1.7-1.2,4-1.2,5.7,0c8.3,4.9,16.7,9.6,25,14.4c6.3,3.6,12.6,7.2,18.9,10.9c0.5,0.3,0.9,0.5,1.3,0.8
		c1.5,0.8,2.4,2.4,2.3,4.1c0,14.5,0,28.9,0,43.4c0,0.4,0,0.7-0.1,1.1c-0.5,0.5-0.7-0.1-0.9-0.3c-0.8-1.1-1.4-2.2-2.1-3.3
		c-5.6-8.7-11.2-17.5-16.8-26.2c-1.9-2.9-3.8-5.9-5.7-8.8c-0.4-0.7-0.5-0.7-1,0c-2.8,4.8-5.6,9.5-8.5,14.3c-0.3,0.5-0.2,1.2,0.2,1.7
		c2.3,3.7,4.6,7.5,7,11.2l11.9,19.2c1.6,2.6,3.2,5.2,4.8,7.8c0.3,0.3,0.5,0.8,0.5,1.2c-0.3,0.6-1,0.8-1.5,1.1
		c-0.9,0.7-1.9,1.2-3,1.6c-0.6-0.1-0.8-0.7-1-1.1c-3.7-5.7-7.3-11.5-10.9-17.2c-3.8-5.9-7.5-11.8-11.3-17.7c-0.5-0.8-0.6-0.8-1,0
		C83.7,83,80.5,88.5,77.2,94c-0.3,0.5-0.3,1.2,0.1,1.7c4.4,6.8,8.7,13.7,13.1,20.6c1.2,1.9,2.5,3.8,3.6,5.7c0.2,0.4,0.6,0.7,0.3,1.3
		c-1.1,0.9-2.4,1.7-3.7,2.3c-4.1,2.4-8.2,4.8-12.3,7.1c-1.3,0.9-3.1,0.9-4.4,0c-6-3.5-12.1-7-18.1-10.4
		C55.5,122.2,55.2,121.9,54.9,121.5z"/>
	<path id="Path_85" class="st3" d="M126.2,94.1c0-0.4,0-0.7,0-1.1c0-14.4,0-28.9,0-43.3c0.1-1.8-0.9-3.5-2.5-4.3
		c-15.1-8.7-30.3-17.4-45.4-26.1c-1.4-0.9-3.2-0.9-4.6,0c-8.4,4.9-16.8,9.8-25.2,14.6c-6.8,3.9-13.5,7.8-20.3,11.7
		c-1.5,0.8-2.4,2.3-2.3,4c0,13.8,0.1,27.7,0.1,41.5c0,0.3-0.1,0.7,0.1,0.9c-1.6,2.7-3.4,5.2-5,7.8c-0.8,1.3-1.7,2.6-2.5,3.9
		c-0.1,0.2-0.3,0.4-0.6,0.8c0-0.4,0-0.7,0-0.9c0-18.3,0-36.5,0-54.8c-0.1-4.1,2.1-8,5.8-9.9c5.9-3.5,11.8-6.8,17.7-10.3
		c5-2.9,10-5.8,14.9-8.7c4.6-2.7,9.3-5.5,14-8c3.7-2.1,8.2-1.9,11.8,0.3c3.8,2.2,7.6,4.4,11.4,6.5c3.6,2.1,7.1,4.1,10.7,6.2
		c3.3,1.9,6.6,3.8,9.9,5.7c3.3,1.9,6.5,3.7,9.8,5.6c1.4,0.8,2.9,1.6,4.3,2.5c3.2,1.8,5.4,5,5.9,8.6c0.1,0.5,0.1,1,0.1,1.6
		c0,18,0,35.9,0,53.9c0,3.5-1.5,6.7-4.2,9c-0.7,0.6-1.6,1.1-2.4,1.5c-4.9,2.8-9.7,5.7-14.6,8.5c-5.2,3-10.4,6-15.6,9
		c-5,2.9-10,5.8-14.9,8.7c-1.2,0.8-2.6,1.4-4.1,1.7c-2.4,0.5-5,0.2-7.2-0.9c-2.5-1.3-4.9-2.8-7.3-4.2c-3.3-1.9-6.6-3.8-9.9-5.7
		c-0.9-0.5-1.9-1.1-2.8-1.6c-0.3-0.2-0.6-0.4-0.3-0.8c1.2-2.1,2.4-4.1,3.7-6.2c0-0.1,0.2-0.1,0.2-0.2c1.1,0.5,2.2,1.1,3.3,1.8
		c5.4,3.1,10.7,6.1,16.1,9.2c1.3,0.8,2.9,0.8,4.1,0c5.1-3,10.2-5.9,15.3-8.9c0.3-0.1,0.5-0.3,0.8-0.4c0.5-0.6,1.1-1.1,1.9-1.4
		c4.6-2.6,9.2-5.3,13.8-8c0.4-0.2,0.7-0.6,1.2-0.5l4.5-2.6c0.3-0.6,0.9-0.8,1.4-1c2.3-1.3,4.5-2.7,6.8-3.9c1.4-0.7,2.2-2.1,2.1-3.7
		c0-2.3,0-4.6,0-6.9C125.9,94.9,126,94.4,126.2,94.1z"/>
	<path id="Path_90" class="st4" d="M126.2,94.1c0,2.8,0.1,5.7,0,8.5c0,1.4-0.7,2.6-1.9,3.3c-2.9,1.6-5.7,3.3-8.6,4.9
		c-1.2-2.1-2.5-4.1-3.7-6.1C105.5,94.1,99,83.5,92.4,72.9c-0.4-0.6-0.8-1.3-1.2-1.9c-0.3-0.4-0.3-0.9,0-1.2c1.6-2.6,3.1-5.2,4.6-7.9
		l4.3-7.3c0.1-0.2,0.2-0.3,0.4-0.4c0.7,1.2,1.5,2.3,2.3,3.5c4.5,7,9,14.1,13.5,21.1c3.1,4.8,6.1,9.5,9.2,14.3
		C125.7,93.5,125.9,93.8,126.2,94.1z"/>
	<path id="Path_91" class="st4" d="M111.3,113.4c-1.9,1.2-3.8,2.3-5.8,3.4c-3.5,2-7,4.1-10.5,6.1c-0.2,0.1-0.4,0.2-0.6,0.3
		c0-0.3-0.2-0.6-0.4-0.9c-3.1-4.9-6.2-9.8-9.3-14.7c-2.6-4-5.1-8-7.7-12c-0.4-0.4-0.4-1-0.1-1.5c3.4-5.8,6.9-11.6,10.3-17.4
		c0.1-0.1,0.1-0.3,0.3-0.3c0.3,0.1,0.3,0.3,0.5,0.6c6.2,9.8,12.4,19.5,18.6,29.3c1.3,2.1,2.6,4.2,4,6.2
		C110.7,112.9,111,113.2,111.3,113.4L111.3,113.4z"/>
</g>
</svg>
