<?xml version="1.0" encoding="utf-8"?>
<!-- Generator: Adobe Illustrator 26.1.0, SVG Export Plug-In . SVG Version: 6.00 Build 0)  -->
<svg version="1.1" id="Layer_1" xmlns="http://www.w3.org/2000/svg" xmlns:xlink="http://www.w3.org/1999/xlink" x="0px" y="0px"
	 viewBox="0 0 194.9 179.6" style="enable-background:new 0 0 194.9 179.6;" xml:space="preserve">
<style type="text/css">
	.st0{fill:#FFFFFF;}
</style>
<path class="st0" d="M97.8,107c-5.6,9.5-11.4,18.4-17.9,26.8c-12.8,16.6-27.5,31.1-43.9,44.1c-3.2,2.5-5.3,2.3-7.7-1.2
	c-8.7-12.8-17.6-25.5-26.7-38C-1,135-0.5,132.8,3,130c21.5-17,38.6-37.5,50.7-62.2C63.2,48.3,68.5,27.7,69.4,6c0.2-4.6,1.7-6,6.2-6
	c15,0.2,30,0.2,45,0c4.3-0.1,5.8,1.5,6,5.8c2.2,48.6,24,87.5,60,119c10.5,9.2,10.8,9,2.8,20.6c-7.2,10.4-14.6,20.7-21.7,31.1
	c-2.4,3.5-4.4,4.1-8,1.3c-24.1-18.9-44.1-41.4-59.8-67.7C99.2,109.2,98.7,108.4,97.8,107z"/>
</svg>
