<?xml version="1.0" encoding="utf-8"?>
<!-- Generator: Adobe Illustrator 26.1.0, SVG Export Plug-In . SVG Version: 6.00 Build 0)  -->
<svg version="1.1" id="Layer_1" xmlns="http://www.w3.org/2000/svg" xmlns:xlink="http://www.w3.org/1999/xlink" x="0px" y="0px"
	 viewBox="0 0 31.8 31.8" style="enable-background:new 0 0 31.8 31.8;" xml:space="preserve">
<style type="text/css">
	.st0{fill:#FFFFFF;}
</style>
<g>
	<path class="st0" d="M15.9,31.8C7.1,31.8,0,24.7,0,15.9C0,7.1,7.1,0,15.9,0c8.8,0,15.9,7.2,15.9,15.9
		C31.8,24.7,24.7,31.8,15.9,31.8z M15.9,2.5c-7.4,0-13.4,6-13.4,13.4c0,7.4,6,13.4,13.4,13.4c7.4,0,13.4-6,13.4-13.4
		C29.3,8.5,23.3,2.5,15.9,2.5z"/>
</g>
<g>
	<path class="st0" d="M18.7,21.2c-0.1-0.1-0.1-0.3-0.2-0.5c0-0.2-0.1-0.4-0.1-0.6c-0.2,0.2-0.4,0.3-0.6,0.5s-0.5,0.3-0.7,0.4
		c-0.3,0.1-0.5,0.2-0.9,0.3c-0.3,0.1-0.7,0.1-1,0.1c-0.6,0-1.1-0.1-1.6-0.3c-0.5-0.2-0.9-0.4-1.3-0.7c-0.4-0.3-0.6-0.7-0.8-1.1
		s-0.3-0.9-0.3-1.4c0-1.2,0.5-2.2,1.4-2.8c0.9-0.7,2.3-1,4.1-1h1.7v-0.7c0-0.6-0.2-1-0.5-1.3c-0.4-0.3-0.9-0.5-1.6-0.5
		c-0.6,0-1,0.1-1.3,0.4c-0.3,0.3-0.4,0.6-0.4,1h-3c0-0.5,0.1-1,0.3-1.4s0.5-0.8,1-1.2c0.4-0.3,0.9-0.6,1.5-0.8s1.3-0.3,2.1-0.3
		c0.7,0,1.3,0.1,1.9,0.3s1.1,0.4,1.6,0.8c0.4,0.3,0.8,0.8,1,1.3s0.4,1.1,0.4,1.8v5c0,0.6,0,1.1,0.1,1.5s0.2,0.8,0.3,1v0.2H18.7z
		 M15.8,19.1c0.3,0,0.6,0,0.8-0.1c0.3-0.1,0.5-0.2,0.7-0.3c0.2-0.1,0.4-0.2,0.5-0.4c0.1-0.1,0.3-0.3,0.4-0.4v-2h-1.5
		c-0.5,0-0.9,0-1.2,0.1s-0.6,0.2-0.8,0.4c-0.2,0.2-0.4,0.3-0.5,0.6c-0.1,0.2-0.1,0.5-0.1,0.7c0,0.4,0.1,0.7,0.4,1
		C14.8,19,15.3,19.1,15.8,19.1z"/>
</g>
</svg>
