<?xml version="1.0" encoding="UTF-8"?>
<svg id="uuid-e133c1ff-2a41-47f6-a85c-32e5acaa090a" data-name="Layer 1" xmlns="http://www.w3.org/2000/svg" viewBox="0 0 800 800">
  <path d="M423.94,760.76c-24.39-7.56-41.7-32.97-46.94-56.98-6.51-29.84,7.31-78.36-41.81-70.58-14.93,2.36-27.24,17.37-26.48,32.39-35.12-31.43-38.98-83.84-30.02-127.73,2.79-2.93,17.91,14.54,21.69,17.11,47.36,32.18,141.99,29.73,193.66,9.14,8.27-3.3,15.55-9.31,22.59-12.51,9.35-4.26,10.36,21.47,10.18,27.6-1.87,64.07-46.12,73.59-84,106.51-25.77,22.4-23.9,42.85-18.87,75.06Z" style="fill: #9ba1ab;"/>
  <path d="M494.64,474.68l-86.13-290.84c-2.41-6.08-14.43-5.83-18.45-1.74l-86.13,291.49c-53.72,11.47-105.53,29.16-155.48,51.72-1.8-1.94,5.53-24.99,6.83-29.46,40.61-139.8,87.23-278.02,128.35-417.69,6.35-21.01,21.63-34.39,43.79-36.36,32.98-2.94,116.05-3.99,147.66.32,15.57,2.12,30.95,13.76,37.01,28.11l139.74,456.37c-50.36-22.72-102.49-42.03-157.19-51.93Z" style="fill: #9ba1ab;"/>
</svg>