<?xml version="1.0" encoding="utf-8"?>
<!-- Generator: Adobe Illustrator 26.1.0, SVG Export Plug-In . SVG Version: 6.00 Build 0)  -->
<svg version="1.1" id="Layer_1" xmlns="http://www.w3.org/2000/svg" xmlns:xlink="http://www.w3.org/1999/xlink" x="0px" y="0px"
	 viewBox="0 0 1503 1504" style="enable-background:new 0 0 1503 1504;" xml:space="preserve">
<style type="text/css">
	.st0{fill-rule:evenodd;clip-rule:evenodd;fill:#FFFFFF;}
</style>
<path class="st0" d="M1502.5,752c0,414.8-336.2,751-751,751c-414.8,0-751-336.2-751-751c0-414.8,336.2-751,751-751
	C1166.3,1,1502.5,337.2,1502.5,752z M538.7,1050.9H392.9c-30.6,0-45.8,0-55-5.9c-10-6.5-16.1-17.2-16.8-29
	c-0.6-10.9,7-24.2,22.1-50.7l359.9-634.3c15.3-26.9,23.1-40.4,32.8-45.4c10.5-5.3,23.1-5.3,33.6,0c9.8,5,17.5,18.4,32.8,45.4
	l74,129.1l0.4,0.7c16.5,28.9,24.9,43.6,28.6,58.9c4.1,16.8,4.1,34.5,0,51.3c-3.7,15.5-12,30.3-28.8,59.6l-189,334.2l-0.5,0.9
	c-16.6,29.1-25.1,43.9-36.8,55c-12.7,12.2-28,21-44.8,26C590.2,1050.9,573,1050.9,538.7,1050.9z M906.8,1050.9h208.8
	c30.8,0,46.3,0,55.5-6.1c10-6.5,16.2-17.3,16.8-29.2c0.5-10.5-6.9-23.3-21.4-48.3c-0.5-0.9-1-1.7-1.5-2.6l-104.6-179l-1.2-2
	c-14.7-24.9-22.1-37.4-31.7-42.3c-10.5-5.4-22.9-5.4-33.4,0c-9.6,5-17.3,18.1-32.7,44.5l-104.2,179l-0.4,0.6
	c-15.3,26.3-22.9,39.5-22.3,50.3c0.7,11.8,6.8,22.7,16.8,29.1C860.4,1050.9,875.9,1050.9,906.8,1050.9z"/>
</svg>
