<?xml version="1.0" encoding="utf-8"?>
<!-- Generator: Adobe Illustrator 26.1.0, SVG Export Plug-In . SVG Version: 6.00 Build 0)  -->
<svg version="1.1" id="Layer_1" xmlns="http://www.w3.org/2000/svg" xmlns:xlink="http://www.w3.org/1999/xlink" x="0px" y="0px"
	 viewBox="0 0 42 42" style="enable-background:new 0 0 42 42;" xml:space="preserve">
<style type="text/css">
	.st0{fill-rule:evenodd;clip-rule:evenodd;fill:#6f7580;}
</style>
<path class="st0" d="M41,21c0,11-9,20-20,20S1,32,1,21S10,1,21,1S41,10,41,21z M15.3,29h-3.9c-0.8,0-1.2,0-1.5-0.2
	c-0.3-0.2-0.4-0.5-0.4-0.8c0-0.3,0.2-0.6,0.6-1.4l9.6-16.9c0.4-0.7,0.6-1.1,0.9-1.2c0.3-0.1,0.6-0.1,0.9,0c0.3,0.1,0.5,0.5,0.9,1.2
	l2,3.4l0,0c0.4,0.8,0.7,1.2,0.8,1.6c0.1,0.4,0.1,0.9,0,1.4c-0.1,0.4-0.3,0.8-0.8,1.6l-5,8.9l0,0c-0.4,0.8-0.7,1.2-1,1.5
	c-0.3,0.3-0.7,0.6-1.2,0.7C16.7,29,16.2,29,15.3,29z M25.1,29h5.6c0.8,0,1.2,0,1.5-0.2c0.3-0.2,0.4-0.5,0.4-0.8
	c0-0.3-0.2-0.6-0.6-1.3c0,0,0,0,0-0.1l-2.8-4.8l0-0.1c-0.4-0.7-0.6-1-0.8-1.1c-0.3-0.1-0.6-0.1-0.9,0c-0.3,0.1-0.5,0.5-0.9,1.2
	l-2.8,4.8l0,0c-0.4,0.7-0.6,1.1-0.6,1.3c0,0.3,0.2,0.6,0.4,0.8C23.9,29,24.3,29,25.1,29z"/>
</svg>
