<?xml version="1.0" encoding="UTF-8" standalone="no"?>
<svg
   width="150"
   height="150"
   viewBox="0 0 96 96"
   version="1.1"
   id="svg8536"
   sodipodi:docname="azure.svg"
   inkscape:version="1.1.2 (0a00cf5339, 2022-02-04)"
   xmlns:inkscape="http://www.inkscape.org/namespaces/inkscape"
   xmlns:sodipodi="http://sodipodi.sourceforge.net/DTD/sodipodi-0.dtd"
   xmlns:xlink="http://www.w3.org/1999/xlink"
   xmlns="http://www.w3.org/2000/svg"
   xmlns:svg="http://www.w3.org/2000/svg">
  <sodipodi:namedview
     id="namedview8538"
     pagecolor="#ffffff"
     bordercolor="#666666"
     borderopacity="1.0"
     inkscape:pageshadow="2"
     inkscape:pageopacity="0.0"
     inkscape:pagecheckerboard="true"
     showgrid="false"
     inkscape:zoom="1.0288404"
     inkscape:cx="-50.056356"
     inkscape:cy="191.9637"
     inkscape:window-width="2082"
     inkscape:window-height="1376"
     inkscape:window-x="70"
     inkscape:window-y="27"
     inkscape:window-maximized="0"
     inkscape:current-layer="svg8536"
     units="mm" />
  <defs
     id="defs8526">
    <linearGradient
       id="e399c19f-b68f-429d-b176-18c2117ff73c"
       x1="-1032.172"
       x2="-1059.213"
       y1="145.312"
       y2="65.426"
       gradientTransform="matrix(1 0 0 -1 1075 158)"
       gradientUnits="userSpaceOnUse">
      <stop
         offset="0"
         stop-color="#114a8b"
         id="stop8505" />
      <stop
         offset="1"
         stop-color="#0669bc"
         id="stop8507" />
    </linearGradient>
    <linearGradient
       id="ac2a6fc2-ca48-4327-9a3c-d4dcc3256e15"
       x1="-1023.725"
       x2="-1029.98"
       y1="108.083"
       y2="105.968"
       gradientTransform="matrix(1,0,0,-1,1075,158)"
       gradientUnits="userSpaceOnUse"
       spreadMethod="pad">
      <stop
         offset="0"
         stop-opacity=".3"
         id="stop8510" />
      <stop
         offset=".071"
         stop-opacity=".2"
         id="stop8512" />
      <stop
         offset=".321"
         stop-opacity=".1"
         id="stop8514" />
      <stop
         offset=".623"
         stop-opacity=".05"
         id="stop8516" />
      <stop
         offset="1"
         stop-opacity="0"
         id="stop8518" />
    </linearGradient>
    <linearGradient
       id="a7fee970-a784-4bb1-af8d-63d18e5f7db9"
       x1="-1027.165"
       x2="-997.48199"
       y1="147.642"
       y2="68.560997"
       gradientTransform="matrix(1,0,0,-1,1075,158)"
       gradientUnits="userSpaceOnUse"
       xlink:href="#e399c19f-b68f-429d-b176-18c2117ff73c">
      <stop
         offset="0"
         stop-color="#3ccbf4"
         id="stop8521" />
      <stop
         offset="1"
         stop-color="#2892df"
         id="stop8523" />
    </linearGradient>
    <linearGradient
       inkscape:collect="always"
       xlink:href="#a7fee970-a784-4bb1-af8d-63d18e5f7db9"
       id="linearGradient10998"
       x1="33.647999"
       y1="48"
       x2="91.996765"
       y2="48"
       gradientUnits="userSpaceOnUse" />
    <filter
       style="color-interpolation-filters:sRGB;"
       inkscape:label="Greyscale"
       id="filter11301"
       x="0"
       y="0"
       width="1"
       height="1">
      <feColorMatrix
         values="0.21 0.72 0.072 0 0 0.21 0.72 0.072 0 0 0.21 0.72 0.072 0 0 0 0 0 1 0 "
         id="feColorMatrix11299" />
    </filter>
    <filter
       style="color-interpolation-filters:sRGB;"
       inkscape:label="Greyscale"
       id="filter11305"
       x="0"
       y="0"
       width="1"
       height="1">
      <feColorMatrix
         values="0.21 0.72 0.072 0 0 0.21 0.72 0.072 0 0 0.21 0.72 0.072 0 0 0 0 0 1 0 "
         id="feColorMatrix11303" />
    </filter>
    <filter
       style="color-interpolation-filters:sRGB;"
       inkscape:label="Greyscale"
       id="filter11309"
       x="0"
       y="0"
       width="1"
       height="1">
      <feColorMatrix
         values="0.21 0.72 0.072 0 0 0.21 0.72 0.072 0 0 0.21 0.72 0.072 0 0 0 0 0 1 0 "
         id="feColorMatrix11307" />
    </filter>
    <filter
       style="color-interpolation-filters:sRGB;"
       inkscape:label="Greyscale"
       id="filter11313"
       x="0"
       y="0"
       width="1"
       height="1">
      <feColorMatrix
         values="0.21 0.72 0.072 0 0 0.21 0.72 0.072 0 0 0.21 0.72 0.072 0 0 0 0 0 1 0 "
         id="feColorMatrix11311" />
    </filter>
  </defs>
  <path
     fill="url(#e399c19f-b68f-429d-b176-18c2117ff73c)"
     d="M33.338 6.544h26.038l-27.03 80.087a4.152 4.152 0 0 1-3.933 2.824H8.149a4.145 4.145 0 0 1-3.928-5.47L29.404 9.368a4.152 4.152 0 0 1 3.934-2.825z"
     id="path8528"
     style="filter:url(#filter11301)" />
  <path
     fill="#0078d4"
     d="M71.175 60.261h-41.29a1.911 1.911 0 0 0-1.305 3.309l26.532 24.764a4.171 4.171 0 0 0 2.846 1.121h23.38z"
     id="path8530"
     style="filter:url(#filter11305)" />
  <path
     fill="url(#ac2a6fc2-ca48-4327-9a3c-d4dcc3256e15)"
     d="M33.338 6.544a4.118 4.118 0 0 0-3.943 2.879L4.252 83.917a4.14 4.14 0 0 0 3.908 5.538h20.787a4.443 4.443 0 0 0 3.41-2.9l5.014-14.777 17.91 16.705a4.237 4.237 0 0 0 2.666.972H81.24L71.024 60.261l-29.781.007L59.47 6.544z"
     id="path8532"
     style="fill-opacity:1;filter:url(#filter11309)" />
  <path
     fill="url(#a7fee970-a784-4bb1-af8d-63d18e5f7db9)"
     d="M66.595 9.364a4.145 4.145 0 0 0-3.928-2.82H33.648a4.146 4.146 0 0 1 3.928 2.82l25.184 74.62a4.146 4.146 0 0 1-3.928 5.472h29.02a4.146 4.146 0 0 0 3.927-5.472z"
     id="path8534"
     style="fill-opacity:1;fill:url(#linearGradient10998);filter:url(#filter11313)" />
</svg>
