<?xml version="1.0" encoding="UTF-8"?><svg id="uuid-e46e4cd9-6ecc-415e-809b-c49d74e65ddf" xmlns="http://www.w3.org/2000/svg" viewBox="0 0 128 128"><path d="m64,0C28.65,0,0,28.65,0,64s28.65,64,64,64,64-28.65,64-64S99.35,0,64,0Zm29.3,58.54s-45.37,41.92-46.99,43.54c-1.62,1.62-2.43,2.84-3.44,2.03s.4-2.23.4-2.23c0,0,20.05-27.74,21.91-30.41,1.86-2.66,0-2.4,0-2.4h-29.81c-1.82-.4-.6-2.02-.6-2.02l42.73-42.33s1.01-1.42,2.03-1.02c1.01.41.6,1.42.6,1.42,0,0-14.78,26.94-16,28.96-1.21,2.03.37,2.23.37,2.23h27.79c2.22,0,1.01,2.23,1.01,2.23Z" style="fill:#9ba1ab;"/></svg>