<?xml version="1.0" encoding="UTF-8"?>
<svg xmlns="http://www.w3.org/2000/svg" xmlns:xlink="http://www.w3.org/1999/xlink" viewBox="0 0 800 800">
  <defs>
    <linearGradient id="uuid-08878b2c-8ac6-49fc-90dd-796f9c613c27" x1="593.6" y1="1030.56" x2="84.52" y2="1556.5" gradientTransform="translate(-11 -1035)" gradientUnits="userSpaceOnUse">
      <stop offset="0" stop-color="#1bc0fb"/>
      <stop offset=".67" stop-color="#5d32fe"/>
      <stop offset="1" stop-color="#9f42fa"/>
    </linearGradient>
  </defs>
  <g style="isolation: isolate;">
    <g id="uuid-0f74e3f4-a2b4-4759-a4f5-219ab0dfb702" data-name="Layer 1">
      <g>
        <g>
          <path d="M352.82,579.66c6.71-.65,12.32,4.39,17.89,7.26,63.58,32.74,134.28,35.79,198.82,3.16,12.77-6.46,21.64-16.73,35.72-5.13l90.04,90.04c6.94,8.07,6.53,19.14-1.48,26.26-7.57,6.73-20.82,14.53-29.75,19.83-121.03,71.87-272.41,69.87-391.22-5.66-5.93-3.77-16.86-10.28-21.58-14.88-6.45-6.28-7.24-17.06-1.46-24.09l92.95-92.95c2.62-2.13,6.74-3.5,10.07-3.82Z" style="fill: #1f0156;"/>
          <circle cx="473.13" cy="399.92" r="106.79" style="fill: #1f0156;"/>
        </g>
        <g>
          <path d="M262.58,433.69c2.85,20.26,10.41,42.36,19.55,61.01,5.7,11.63,17.29,23.12,7.08,35.97l-92.23,92.22c-8.11,6.5-18.38,5.03-25.19-2.55-8.77-9.77-20.3-29.92-26.73-41.8-98.28-181.59-31.12-406.92,148.36-505.87,65.19-35.94,147.25-54.19,221.06-42.9,2.7.41,6.13-.44,8.72.03,3.8.68,9.24,2.32,13.15,2.89,12.38,1.82,24.31,4.3,36.25,7.49,34.64,9.27,69.36,24.92,99.65,43.98,13.78,8.67,37.69,20.48,23.76,39.7-18.78,18.62-37.51,37.59-56.13,56.14-11.22,11.17-24.28,26.31-36.09,36.09s-22.28-.12-33.05-5.62c-103.34-52.76-230.27-13.7-284.96,87.85-10.71,19.89-16.31,37.83-21.74,59.55-4.92,24.75-5.97,51.59-1.46,75.82Z" style="fill: url(#uuid-08878b2c-8ac6-49fc-90dd-796f9c613c27);"/>
          <path d="M262.58,433.69c-2.35-3.76-1.83-9.25-2.17-13.5-1.68-20.96-1.45-42,3.63-62.32-.08,4.59-1.53,9.04-2.13,13.55-2.65,20.04-2.14,42.34.67,62.27Z" style="fill: #6032fe;"/>
        </g>
      </g>
      <g style="mix-blend-mode: color;">
        <g>
          <path d="M352.82,579.66c6.71-.65,12.32,4.39,17.89,7.26,63.58,32.74,134.28,35.79,198.82,3.16,12.77-6.46,21.64-16.73,35.72-5.13l90.04,90.04c6.94,8.07,6.53,19.14-1.48,26.26-7.57,6.73-20.82,14.53-29.75,19.83-121.03,71.87-272.41,69.87-391.22-5.66-5.93-3.77-16.86-10.28-21.58-14.88-6.45-6.28-7.24-17.06-1.46-24.09l92.95-92.95c2.62-2.13,6.74-3.5,10.07-3.82Z" style="fill: #9ba1ab;"/>
          <circle cx="473.13" cy="399.92" r="106.79" style="fill: #9ba1ab;"/>
        </g>
        <g>
          <path d="M262.58,433.69c2.85,20.26,10.41,42.36,19.55,61.01,5.7,11.63,17.29,23.12,7.08,35.97l-92.23,92.22c-8.11,6.5-18.38,5.03-25.19-2.55-8.77-9.77-20.3-29.92-26.73-41.8-98.28-181.59-31.12-406.92,148.36-505.87,65.19-35.94,147.25-54.19,221.06-42.9,2.7.41,6.13-.44,8.72.03,3.8.68,9.24,2.32,13.15,2.89,12.38,1.82,24.31,4.3,36.25,7.49,34.64,9.27,69.36,24.92,99.65,43.98,13.78,8.67,37.69,20.48,23.76,39.7-18.78,18.62-37.51,37.59-56.13,56.14-11.22,11.17-24.28,26.31-36.09,36.09s-22.28-.12-33.05-5.62c-103.34-52.76-230.27-13.7-284.96,87.85-10.71,19.89-16.31,37.83-21.74,59.55-4.92,24.75-5.97,51.59-1.46,75.82Z" style="fill: #9ba1ab;"/>
          <path d="M262.58,433.69c-2.35-3.76-1.83-9.25-2.17-13.5-1.68-20.96-1.45-42,3.63-62.32-.08,4.59-1.53,9.04-2.13,13.55-2.65,20.04-2.14,42.34.67,62.27Z" style="fill: #9ba1ab;"/>
        </g>
      </g>
    </g>
  </g>
</svg>