<?xml version="1.0" encoding="utf-8"?>
<!-- Generator: Adobe Illustrator 26.1.0, SVG Export Plug-In . SVG Version: 6.00 Build 0)  -->
<svg version="1.1"
	 id="svg32" xmlns:cc="http://creativecommons.org/ns#" xmlns:dc="http://purl.org/dc/elements/1.1/" xmlns:inkscape="http://www.inkscape.org/namespaces/inkscape" xmlns:rdf="http://www.w3.org/1999/02/22-rdf-syntax-ns#" xmlns:sodipodi="http://sodipodi.sourceforge.net/DTD/sodipodi-0.dtd" xmlns:svg="http://www.w3.org/2000/svg"
	 xmlns="http://www.w3.org/2000/svg" xmlns:xlink="http://www.w3.org/1999/xlink" x="0px" y="0px" viewBox="0 0 42 42"
	 style="enable-background:new 0 0 42 42;" xml:space="preserve">
<style type="text/css">
	.st0{fill:#6f7580;}
</style>
<g>
	
		<sodipodi:namedview  bordercolor="#666666" borderopacity="1" fit-margin-bottom="0" fit-margin-left="0" fit-margin-right="0" fit-margin-top="0" gridtolerance="10" guidetolerance="10" id="namedview34" inkscape:current-layer="Layer_1-2" inkscape:cx="-165.09584" inkscape:cy="294.4716" inkscape:pageopacity="0" inkscape:pageshadow="2" inkscape:window-height="878" inkscape:window-maximized="1" inkscape:window-width="1440" inkscape:window-x="0" inkscape:window-y="0" inkscape:zoom="0.40971549" objecttolerance="10" pagecolor="#ffffff" showgrid="false">
		</sodipodi:namedview>
	<g>
		<path class="st0" d="M21,1C10,1,1,10,1,21s9,20,20,20s20-9,20-20S32,1,21,1z M32.6,15h-6.4c-1.2,0-2.1,1-2.1,2.1v0.7h5.6v5.6h-5.6
			v2.1c0,4.3-3.5,7.8-7.8,7.8c-4.3,0-7.8-3.5-7.8-7.8s3.5-7.8,7.8-7.8h2.1v-0.7c0-4.3,3.5-7.8,7.8-7.8h6.4V15z"/>
		<path class="st0" d="M18.5,23.5v2.1c0,1.2-1,2.1-2.1,2.1s-2.1-1-2.1-2.1c0-1.2,1-2.1,2.1-2.1C16.4,23.5,18.5,23.5,18.5,23.5z"/>
		<g>
			<rect x="18.5" y="17.9" class="st0" width="5.6" height="5.6"/>
		</g>
	</g>
</g>
</svg>
