<?xml version="1.0" encoding="utf-8"?>
<!-- Generator: Adobe Illustrator 26.1.0, SVG Export Plug-In . SVG Version: 6.00 Build 0)  -->
<svg version="1.1"
	 id="svg32" xmlns:cc="http://creativecommons.org/ns#" xmlns:dc="http://purl.org/dc/elements/1.1/" xmlns:inkscape="http://www.inkscape.org/namespaces/inkscape" xmlns:rdf="http://www.w3.org/1999/02/22-rdf-syntax-ns#" xmlns:sodipodi="http://sodipodi.sourceforge.net/DTD/sodipodi-0.dtd" xmlns:svg="http://www.w3.org/2000/svg"
	 xmlns="http://www.w3.org/2000/svg" xmlns:xlink="http://www.w3.org/1999/xlink" x="0px" y="0px" viewBox="0 0 256 256"
	 style="enable-background:new 0 0 256 256;" xml:space="preserve">
<style type="text/css">
	.st0{fill:#FFFFFF;}
</style>
<sodipodi:namedview  bordercolor="#666666" borderopacity="1" fit-margin-bottom="0" fit-margin-left="0" fit-margin-right="0" fit-margin-top="0" gridtolerance="10" guidetolerance="10" id="namedview34" inkscape:current-layer="Layer_1-2" inkscape:cx="-165.09584" inkscape:cy="294.4716" inkscape:pageopacity="0" inkscape:pageshadow="2" inkscape:window-height="878" inkscape:window-maximized="1" inkscape:window-width="1440" inkscape:window-x="0" inkscape:window-y="0" inkscape:zoom="0.40971549" objecttolerance="10" pagecolor="#ffffff" showgrid="false">
	</sodipodi:namedview>
<g id="Layer_2_1_">
	<g id="Layer_1-2">
		<g id="g43" transform="scale(2.56)">
			<path class="st0" d="M38.4,56.3c-2.9,0-5.3,2.4-5.3,5.3c0,2.9,2.4,5.3,5.3,5.3c2.9,0,5.3-2.4,5.3-5.3v-5.3H38.4z M38.4,56.3
				c-2.9,0-5.3,2.4-5.3,5.3c0,2.9,2.4,5.3,5.3,5.3c2.9,0,5.3-2.4,5.3-5.3v-5.3H38.4z M38.4,56.3c-2.9,0-5.3,2.4-5.3,5.3
				c0,2.9,2.4,5.3,5.3,5.3c2.9,0,5.3-2.4,5.3-5.3v-5.3H38.4z M38.4,56.3c-2.9,0-5.3,2.4-5.3,5.3c0,2.9,2.4,5.3,5.3,5.3
				c2.9,0,5.3-2.4,5.3-5.3v-5.3H38.4z M38.4,56.3c-2.9,0-5.3,2.4-5.3,5.3c0,2.9,2.4,5.3,5.3,5.3c2.9,0,5.3-2.4,5.3-5.3v-5.3H38.4z
				 M38.4,56.3c-2.9,0-5.3,2.4-5.3,5.3c0,2.9,2.4,5.3,5.3,5.3c2.9,0,5.3-2.4,5.3-5.3v-5.3H38.4z M38.4,56.3c-2.9,0-5.3,2.4-5.3,5.3
				c0,2.9,2.4,5.3,5.3,5.3c2.9,0,5.3-2.4,5.3-5.3v-5.3H38.4z M38.4,56.3c-2.9,0-5.3,2.4-5.3,5.3c0,2.9,2.4,5.3,5.3,5.3
				c2.9,0,5.3-2.4,5.3-5.3v-5.3H38.4z M38.4,56.3c-2.9,0-5.3,2.4-5.3,5.3c0,2.9,2.4,5.3,5.3,5.3c2.9,0,5.3-2.4,5.3-5.3v-5.3H38.4z
				 M38.4,56.3c-2.9,0-5.3,2.4-5.3,5.3c0,2.9,2.4,5.3,5.3,5.3c2.9,0,5.3-2.4,5.3-5.3v-5.3H38.4z M38.4,56.3c-2.9,0-5.3,2.4-5.3,5.3
				c0,2.9,2.4,5.3,5.3,5.3c2.9,0,5.3-2.4,5.3-5.3v-5.3H38.4z"/>
			<path class="st0" d="M38.4,56.3h5.3v5.3c0,2.9-2.4,5.3-5.3,5.3c-2.9,0-5.3-2.4-5.3-5.3C33.1,58.7,35.5,56.3,38.4,56.3z"/>
			<path class="st0" d="M50,0C22.4,0,0,22.4,0,50s22.4,50,50,50s50-22.4,50-50S77.6,0,50,0z M79,35.1H63.1c-2.9,0-5.3,2.4-5.3,5.3
				v1.8h14.1v14.1H57.8v5.3c0,2-0.3,3.9-0.9,5.7C54.5,75.2,47.1,81,38.4,81C27.7,81,19,72.3,19,61.6c0-8.7,5.8-16.1,13.7-18.5
				c1.8-0.6,3.7-0.9,5.7-0.9h5.3v-1.8c0-3.3,0.8-6.5,2.3-9.2C49.3,25.1,55.7,21,63.1,21H79V35.1z"/>
			<rect x="32.7" y="31.2" class="st0" width="36.1" height="36.1"/>
		</g>
	</g>
</g>
</svg>
