<?xml version="1.0" encoding="utf-8"?>
<!-- Generator: Adobe Illustrator 28.0.0, SVG Export Plug-In . SVG Version: 6.00 Build 0)  -->
<svg version="1.1" id="Layer_1" xmlns="http://www.w3.org/2000/svg" xmlns:xlink="http://www.w3.org/1999/xlink" x="0px" y="0px"
	 viewBox="0 0 128 128" style="enable-background:new 0 0 128 128;" xml:space="preserve">
<style type="text/css">
	.st0{display:none;fill-rule:evenodd;clip-rule:evenodd;fill:#2671BE;}
	.st1{fill:#4EAA25;}
</style>
<path class="st0" d="M-27,155.1c0-58.8,0.1-117.7-0.1-176.5c0-4.2,0.9-5.1,5.1-5.1c57.2,0.2,114.4,0.2,171.6,0
	c4.2,0,5.1,0.9,5.1,5.1c-0.2,58.8-0.1,117.7-0.1,176.5c-2,1.2-4.1,0.7-6.2,0.7c-56.4,0-112.7,0-169.1,0
	C-22.9,155.8-25,156.3-27,155.1z"/>
<path class="st1" d="M109.2,28.5L71.3,6C69,4.7,66.5,4,64,4s-5,0.7-7.3,2L18.8,28.5c-4.5,2.7-7.3,7.6-7.3,13v45
	c0,5.4,2.8,10.3,7.3,13L56.7,122c2.3,1.3,4.8,2,7.3,2s5-0.7,7.3-2l37.9-22.5c4.5-2.7,7.3-7.6,7.3-13v-45
	C116.5,36.1,113.7,31.2,109.2,28.5z M79.8,98.7l0.1,3.2c0,0.4-0.3,0.8-0.6,1l-1.9,1.1c-0.3,0.2-0.6,0-0.6-0.4l0-3.2
	c-1.6,0.7-3.3,0.8-4.4,0.4c-0.2-0.1-0.3-0.4-0.2-0.7l0.7-2.9c0.1-0.2,0.2-0.5,0.3-0.6c0.1-0.1,0.1-0.1,0.2-0.1
	c0.1-0.1,0.2-0.1,0.3,0c1.1,0.4,2.6,0.2,4-0.5c1.8-0.9,3-2.7,3-4.5c0-1.6-0.9-2.3-3.1-2.3c-2.8,0-5.3-0.5-5.4-4.6
	c0-3.3,1.7-6.8,4.4-9l0-3.3c0-0.4,0.2-0.8,0.6-1l1.8-1.2c0.3-0.2,0.6,0,0.6,0.4l0,3.3c1.4-0.5,2.6-0.7,3.6-0.4
	c0.2,0.1,0.3,0.4,0.2,0.8L82.9,77c-0.1,0.2-0.2,0.4-0.3,0.6c-0.1,0.1-0.1,0.1-0.2,0.1c-0.1,0.1-0.2,0.1-0.3,0
	c-0.5-0.1-1.7-0.4-3.5,0.6c-1.9,1-2.6,2.7-2.6,3.9c0,1.5,0.8,1.9,3.4,2c3.5,0.1,5,1.6,5,5.1C84.5,92.7,82.7,96.5,79.8,98.7z
	 M99.7,93.3c0,0.3,0,0.6-0.3,0.7l-9.6,5.8c-0.2,0.1-0.5,0-0.5-0.3v-2.5c0-0.3,0.2-0.5,0.4-0.6l9.4-5.6c0.2-0.1,0.5,0,0.5,0.3
	C99.7,91.1,99.7,93.3,99.7,93.3z M106.3,38L70.5,60.1c-4.5,2.6-7.8,5.5-7.8,10.9v44.2c0,3.2,1.3,5.3,3.3,5.9c-0.7,0.1-1.3,0.2-2,0.2
	c-2.1,0-4.2-0.6-6-1.6L20.1,97.2c-3.7-2.2-6-6.3-6-10.7v-45c0-4.4,2.3-8.5,6-10.7L58,8.3c1.8-1.1,3.9-1.7,6-1.7c2.1,0,4.2,0.6,6,1.7
	l37.9,22.5c3.1,1.9,5.2,5.1,5.8,8.7C112.4,36.8,109.6,36.1,106.3,38z"/>
</svg>
