<svg xmlns="http://www.w3.org/2000/svg" x="0px" y="0px" viewBox="0 0 172 172"><g fill="none" fill-rule="nonzero" stroke="none" stroke-width="1" stroke-linecap="butt" stroke-linejoin="miter" stroke-miterlimit="10" stroke-dasharray="" stroke-dashoffset="0" font-family="none" font-weight="none" font-size="none" text-anchor="none" style="mix-blend-mode: normal"><path d="M0,172v-172h172v172z" fill="none"></path><g><path d="M136.85825,65.78642c-2.76275,-9.86492 -8.30975,-18.55092 -15.75592,-25.19083l-16.47617,16.47617c6.00925,4.89125 10.062,12.09017 10.80017,20.23867v5.40367c0.09317,0 0.17917,-0.02867 0.27233,-0.02867c8.3205,0 15.093,6.7725 15.093,15.093c0,8.3205 -6.7725,15.09658 -15.093,15.09658c-0.09317,0 -0.17917,-0.02508 -0.27233,-0.02867v0.02867h-23.8865h-5.53983v23.29167h29.42633v-0.01433c0.09317,0 0.17917,0.01433 0.27233,0.01433c21.16675,0 38.38467,-17.2215 38.38467,-38.38467c0,-13.34792 -6.8585,-25.11558 -17.22508,-31.99558z" fill="#9ba1ab"></path><path d="M70.09,91.6975l16.91333,-16.91333c-0.01433,-0.01792 -0.02867,-0.03225 -0.03942,-0.04658l-16.90258,16.90258c0.00717,0.01792 0.01792,0.03583 0.02867,0.05733z" fill="#9ba1ab" opacity="0.5"></path><path d="M70.09,91.6975l16.91333,-16.91333c-0.01433,-0.01792 -0.02867,-0.03225 -0.03942,-0.04658l-16.90258,16.90258c0.00717,0.01792 0.01792,0.03583 0.02867,0.05733z" fill="#9ba1ab" opacity="0.5"></path><path d="M86,27.14733c-29.14325,0 -52.85417,23.71092 -52.85417,52.85417c0,0.83492 0.086,1.64833 0.12542,2.4725h23.29167c-0.06808,-0.817 -0.12542,-1.63758 -0.12542,-2.4725c0,-16.30058 13.26192,-29.5625 29.5625,-29.5625c7.05558,0 13.53783,2.494 18.62617,6.63275l16.47617,-16.47617c-9.34533,-8.33483 -21.62542,-13.44825 -35.10233,-13.44825z" fill="#9ba1ab"></path><path d="M56.30133,112.875v0c-0.00358,0 -0.00358,0 -0.00717,0c-2.18942,0 -4.257,-0.49092 -6.13467,-1.33658l-16.8775,16.8775c6.42492,4.84108 14.37992,7.75075 23.01217,7.75075c0.00358,0 0.00358,0 0.00717,0v0h29.69867v-23.29167z" fill="#9ba1ab" opacity="0.5"></path><path d="M56.30133,112.875v0c-0.00358,0 -0.00358,0 -0.00717,0c-2.18942,0 -4.257,-0.49092 -6.13467,-1.33658l-16.8775,16.8775c6.42492,4.84108 14.37992,7.75075 23.01217,7.75075c0.00358,0 0.00358,0 0.00717,0v0h29.69867v-23.29167z" fill="#9ba1ab"></path><path d="M41.20833,97.78917c0,-8.31333 6.7725,-15.08583 15.08583,-15.08583c6.10242,0 11.38783,3.66575 13.76358,8.93683l16.90258,-16.90258c-7.02692,-9.32383 -18.14958,-15.32592 -30.66975,-15.32592c-21.13808,0 -38.37392,17.2 -38.37392,38.3775c0,12.50942 6.05942,23.61417 15.36533,30.62675l16.8775,-16.8775c-5.26033,-2.35783 -8.95117,-7.62533 -8.95117,-13.74925z" fill="#9ba1ab"></path></g></g></svg>