<?xml version="1.0" encoding="utf-8"?>
<!-- Generator: Adobe Illustrator 26.1.0, SVG Export Plug-In . SVG Version: 6.00 Build 0)  -->
<svg version="1.1" id="Layer_1" xmlns="http://www.w3.org/2000/svg" xmlns:xlink="http://www.w3.org/1999/xlink" x="0px" y="0px"
	 viewBox="0 0 256 256" style="enable-background:new 0 0 256 256;" xml:space="preserve">
<style type="text/css">
	.st0{fill:#616872;}
	.st1{fill:#6F7580;}
	.st2{fill:#80848C;}
	.st3{fill:#545C68;}
</style>
<g>
	<path class="st0" d="M256,187.9c0,0-39-5.8-59.6-7.4c-19.8-1.6-43.2-2.5-68.4-2.5s-48.6,0.9-68.4,2.5C39,182.2,0,190.2,0,190.2
		v10.1c0,9,57.3,16.2,128,16.2s128-7.3,128-16.2V187.9z"/>
	<path class="st0" d="M88.7,54.3C42,71,10.8,115.2,10.8,164.8v16.6c16.7-4,33.7-6.4,50.8-7.4c-0.1-3.2-0.2-6.4-0.2-9.6
		C61.4,120.8,71.9,81.6,88.7,54.3z"/>
	<path class="st1" d="M245.3,164.8c0-27.2-9.4-53.6-26.8-74.6c7.5,24,11.3,49,11.1,74.2c0,4.6-0.1,9.1-0.4,13.6
		c5.3,0.8,10.6,1.9,15.8,3.4L245.3,164.8z"/>
	<path class="st0" d="M245.3,164.8c0-27.2-9.4-53.6-26.8-74.6c7.5,24,11.3,49,11.1,74.2c0,4.6-0.1,9.1-0.4,13.6
		c5.3,0.8,10.6,1.9,15.8,3.4L245.3,164.8z"/>
	<path class="st1" d="M218.5,90.2c-31.4-38.1-83.3-52.5-129.9-35.9c-16.8,27.3-27.3,66.5-27.3,110.1c0,3.2,0.1,6.4,0.2,9.6
		c17.5-1.3,37.7-2.2,59.3-2.3c0,0,4.9,0,7.2,0c33.9-0.4,67.7,1.7,101.3,6.3c0.2-4.5,0.3-9,0.4-13.6
		C229.8,139.3,226.1,114.2,218.5,90.2L218.5,90.2z"/>
	<g transform="translate(81.394668, 0.000000)">
		<path class="st1" d="M93.8,98l-7.4-46.5c-0.5-3.4-3-6.2-6.3-7.2c-21.7-6.4-44.7-6.4-66.3,0c-3.3,1-5.8,3.8-6.3,7.2L0,98"/>
	</g>
	<path class="st1" d="M128,170.7c-2.2,0-4.5,0-6.7,0h-0.2h-0.2C53.5,171.2,0,178.3,0,186.9v12.5c-0.1,0.7,0,1.5,0.4,2.1
		c3.4-2.6,7.4-4.4,11.5-5.3c10.6-2.6,21.5-4.4,32.4-5.4c6.2-0.7,12.4,1.3,17,5.5c8.4,7.7,19.4,12,30.8,12h71.6
		c11.4,0,22.4-4.3,30.8-12l0,0c4.6-4.2,10.8-6.2,17-5.5c10.9,1,21.7,2.8,32.4,5.4c4,0.8,7.7,2.4,10.9,4.8c0.2,0.2,0.4,0.3,0.6,0.5
		c0.4-0.6,0.6-1.4,0.4-2.1v-12.5C256,178,198.7,170.7,128,170.7z"/>
	<polygon class="st2" points="155,133.5 128,150.1 128,171.6 	"/>
	<polygon class="st3" points="128,171.6 128,150.1 101,133.5 	"/>
	<polygon class="st3" points="101,123.6 101,123.6 128,139.2 128,79.9 	"/>
	<polygon class="st2" points="155,123.6 128,79.9 128,79.9 128,108 128,108 128,139.2 155,123.6 	"/>
</g>
</svg>
