<?xml version="1.0" encoding="UTF-8"?>
<svg id="uuid-9660e0cd-0971-48db-8851-5a8b5f34fbd1" data-name="Layer 1" xmlns="http://www.w3.org/2000/svg" viewBox="0 0 800 800">
  <path d="M494.3,313.38c-11.73-10.73-23.44,5.8-32.84,1.44-2.3-1.07-4.36-6.83-5.1-9.27-10.78-35.48,28.52-64.59,59.9-45.53,23.77,14.44,25.53,48.03,3.64,65.17-15.44,12.09-16.64-3.64-25.59-11.82Z" style="fill: #9ba1ab;"/>
  <path d="M288.64,254.32c26.01-2.77,47.45,18.63,44.7,44.7-.37,3.49-3.52,14.52-6.73,15.97-8.37,3.77-20.17-10.27-30.5-3.27-11.43,7.74-11.5,27.18-29.26,12.37-26.81-22.37-12.8-66.09,21.79-69.77Z" style="fill: #9ba1ab;"/>
  <path d="M696.56,477.27c37-4.28,61.36,36.52,43.24,68.36,17.05,15.18,20.62,41.07,7.56,60.01,27.08,50.26-34.41,77.01-71.6,91.04-58.35,22.01-155.5,43.98-210.19,5.14-5.44-3.86-9.98-8.73-15.3-12.72-33.5,4.81-67.77,5.56-101.26.18-35.08,36.6-88.32,36.9-135.4,30.73-27.66-3.63-54.87-10.97-81.07-20.3-38.46-13.71-108.4-41.05-79.92-94.07-13.13-19.1-9.41-44.62,7.56-60.01-8.88-16.66-8.22-36.62,3.59-51.65,8.88-11.29,20.87-16.59,35.12-17.48-5.28-18.67-9.97-37.75-12.1-57.11C56.84,147.27,372.81-22.64,589.07,141.06c102.05,77.25,147.52,213.07,107.49,336.2ZM671.59,446.26c23.35-100.23-13.52-206.31-91.93-271.57-196.34-163.44-498.47-1.66-458.69,253.67.56,3.59,2.73,18,4.02,20.19.76,1.29.88.41,1.53-.01,2.28-1.49,4.86-4.76,7.71-6.67,17.1-11.46,39.98-7.81,56.45,3.03,8.87,5.84,15.62,14.15,22.84,21.78,29.4-33.25,67.92-20.49,84.72,17.43,9.46,21.35,17.17,39.3,32.19,57.84,8.41,10.39,18.77,19.05,26.75,29.99,19.72,27.02,24.36,56.58,10.3,87.67,20.46,1.69,41.23,2.42,61.69.04.81-.09,1.74,0,2.29-.75.63-.86-4.76-15.9-5.38-18.93-11.15-54.41,27.85-73.48,53.08-111.14,10.52-15.7,16-29.92,23.6-46.76,16.58-36.73,56.08-47.56,83.73-15.39,6.4-6.73,12.27-13.98,19.8-19.53,19.32-14.25,46.51-18.11,65.3-.89ZM155.44,466.87c-8.53,1.58-8.77,12.93-8.03,19.77,2.15,19.66,49.58,57.84,63.43,75.77,3.41,4.42,12.22,16.07,1.15,17.04-10.92.95-26.95-17.11-35.16-23.88-14.19-11.7-29.01-23.57-44.71-33.21-10.57-6.49-35.77-22.39-44.15-6.45-6.42,12.21,9.22,23.36,17.95,29.63,21.44,15.41,47.69,26.61,68.57,42.64,5.65,4.34,13.76,10.35,12.95,18.11-1.17,11.28-14.31,2.07-20.2-1.02-17.61-9.23-62.76-40.71-81.24-36.86-8.74,1.82-10.92,11.22-7.1,18.53,12.25,23.48,73.09,28.88,85.82,47.32,4.05,5.87,1.03,12.16-6.41,11.74-11.5-.66-38.09-18.34-50.58-23.59-8.01-3.37-22.53-8.85-27.9,1.11-6.27,11.64,12.13,22.61,20.56,27.4,47.25,26.87,149.36,53.28,200.69,32.71,30.67-12.29,52.59-51.69,36.51-83.05-9.54-18.61-31.42-35.87-44.13-54.98-12.01-18.05-17.43-34.16-26.71-52.72-7.93-15.86-23.04-19.42-30.3-.99-6.2,15.74-.8,33.73,10.69,45.56,4.07,4.19,10.17,7.23,14.04,11.68,14.91,17.16-6.38,28.59-20.42,17.39-6.82-5.44-22.56-36.31-28.83-46.07-4.23-6.59-8.77-13.63-13.32-19.97-8.75-12.2-25.9-36.82-43.18-33.62ZM559.37,484.34c-6.9-7.78-15.55-5.59-21.66,1.65-5.35,6.33-6.38,13.43-9.72,20.54-9.32,19.84-20.89,40.46-34.95,57.35-19.25,23.11-45.42,40.11-33.8,75.45,18.76,57.11,79.66,55.89,129.3,48.04,29.6-4.68,111.55-27.02,129.6-50.45,8.1-10.52,1.03-19.86-11.4-18.96-19.87,1.44-47.6,27.22-65.07,28.04-7.05.33-10.38-5.53-6.74-11.34,11.01-17.55,72.49-24.43,85.72-46.67,4.36-7.32,2.55-17.69-6.65-19.6-18.31-3.81-62.48,26.89-79.73,36.11-3.56,1.9-13.38,7.37-16.81,7.48-4.89.16-5.5-6.31-4.71-10.08,1.49-7.16,22.09-20.11,28.64-24.32,17.36-11.15,36.92-20.62,53.57-32.68,8.71-6.31,23.37-16.7,17.03-28.97-3.51-6.8-8.42-7.67-15.62-6.69-15.46,2.1-43.68,22.93-56.48,32.79-12.44,9.58-24.51,22.5-36.91,31.18-4.94,3.46-21.4,12.42-19.85-.16.88-7.18,21.93-27.84,27.92-34.14,11.4-12,39.77-36.15,41.53-52.27,1.48-13.5-2.43-23.87-18.04-18.8-17.7,5.75-40.25,42.72-50.27,58.67-6.66,10.61-14.44,27.62-21.63,36.63-11.45,14.34-36.73,7.52-26.34-10.46,4.29-7.43,15.33-12.72,21.03-20.58,9.24-12.72,13.27-35.08,2.02-47.76Z" style="fill: #9ba1ab;"/>
  <g>
    <path d="M459.01,479.54c-6.39-12.83-19.29-24.42-32.54-29.87-1.45-.6-6.13-2.55-7.25-2.66-8.12-.79-14.17,24.39-23.74,20.03-3.86-1.76-9.58-15.74-13.57-18.96s-14.18,2.35-18.23,4.58c-11.85,6.55-22.03,16.96-27.98,29.14-26.09-18.69-47-54.83-44.67-88.17,1.13-16.21,13.24-10.31,23.46-5.99,39.08,16.51,62.55,34.23,108.37,22.83,22.07-5.49,38.46-17.14,58.65-24.57,19.09-7.03,20.45.3,19.1,18.35-2.17,29.06-18.66,58.75-41.6,75.28Z" style="fill: #9ba1ab;"/>
    <path d="M459.01,479.54c-.08.06-.08,1.29-.8,1.82-35.7,26.14-87.34,25.65-122.52.45,5.95-12.18,16.13-22.59,27.98-29.14,4.05-2.24,14.26-7.78,18.23-4.58s9.71,17.2,13.57,18.96c9.57,4.36,15.62-20.82,23.74-20.03,1.12.11,5.8,2.06,7.25,2.66,13.25,5.45,26.15,17.04,32.54,29.87Z" style="fill: #9ba1ab;"/>
  </g>
</svg>