<?xml version="1.0" encoding="UTF-8"?>
<svg id="uuid-998fed3f-af72-4f63-8a38-62a70240df5c" data-name="Layer 1" xmlns="http://www.w3.org/2000/svg" viewBox="0 0 800 800">
  <path d="M494.3,313.65c-11.73-10.73-23.44,5.8-32.84,1.44-2.3-1.07-4.36-6.83-5.1-9.27-10.78-35.48,28.52-64.59,59.9-45.53,23.77,14.44,25.53,48.03,3.64,65.17-15.44,12.09-16.64-3.64-25.59-11.82Z" style="fill: #3b3c45;"/>
  <path d="M288.64,254.59c26.01-2.77,47.45,18.63,44.7,44.7-.37,3.49-3.52,14.52-6.73,15.97-8.37,3.77-20.17-10.27-30.5-3.27-11.43,7.74-11.5,27.18-29.26,12.37-26.81-22.37-12.8-66.09,21.79-69.77Z" style="fill: #3b3c45;"/>
  <g>
    <path d="M696.56,477.54c37-4.28,61.36,36.52,43.24,68.36,17.05,15.18,20.62,41.07,7.56,60.01,27.08,50.26-34.41,77.01-71.6,91.04-58.35,22.01-155.5,43.98-210.19,5.14-5.44-3.86-9.98-8.73-15.3-12.72-33.5,4.81-67.77,5.56-101.26.18-35.08,36.6-88.32,36.9-135.4,30.73-27.66-3.63-54.87-10.97-81.07-20.3-38.46-13.71-108.4-41.05-79.92-94.07-13.13-19.1-9.41-44.62,7.56-60.01-8.88-16.66-8.22-36.62,3.59-51.65,8.88-11.29,20.87-16.59,35.12-17.48-5.28-18.67-9.97-37.75-12.1-57.11C56.84,147.54,372.81-22.37,589.07,141.33c102.05,77.25,147.52,213.07,107.49,336.2ZM671.59,446.53c23.35-100.23-13.52-206.31-91.93-271.57-196.34-163.44-498.47-1.66-458.69,253.67.56,3.59,2.73,18,4.02,20.19.76,1.29.88.41,1.53-.01,2.28-1.49,4.86-4.76,7.71-6.67,17.1-11.46,39.98-7.81,56.45,3.03,8.87,5.84,15.62,14.15,22.84,21.78,29.4-33.25,67.92-20.49,84.72,17.43,9.46,21.35,17.17,39.3,32.19,57.84,8.41,10.39,18.77,19.05,26.75,29.99,19.72,27.02,24.36,56.58,10.3,87.67,20.46,1.69,41.23,2.42,61.69.04.81-.09,1.74,0,2.29-.75.63-.86-4.76-15.9-5.38-18.93-11.15-54.41,27.85-73.48,53.08-111.14,10.52-15.7,16-29.92,23.6-46.76,16.58-36.73,56.08-47.56,83.73-15.39,6.4-6.73,12.27-13.98,19.8-19.53,19.32-14.25,46.51-18.11,65.3-.89ZM155.44,467.13c-8.53,1.58-8.77,12.93-8.03,19.77,2.15,19.66,49.58,57.84,63.43,75.77,3.41,4.42,12.22,16.07,1.15,17.04-10.92.95-26.95-17.11-35.16-23.88-14.19-11.7-29.01-23.57-44.71-33.21-10.57-6.49-35.77-22.39-44.15-6.45-6.42,12.21,9.22,23.36,17.95,29.63,21.44,15.41,47.69,26.61,68.57,42.64,5.65,4.34,13.76,10.35,12.95,18.11-1.17,11.28-14.31,2.07-20.2-1.02-17.61-9.23-62.76-40.71-81.24-36.86-8.74,1.82-10.92,11.22-7.1,18.53,12.25,23.48,73.09,28.88,85.82,47.32,4.05,5.87,1.03,12.16-6.41,11.74-11.5-.66-38.09-18.34-50.58-23.59-8.01-3.37-22.53-8.85-27.9,1.11-6.27,11.64,12.13,22.61,20.56,27.4,47.25,26.87,149.36,53.28,200.69,32.71,30.67-12.29,52.59-51.69,36.51-83.05-9.54-18.61-31.42-35.87-44.13-54.98-12.01-18.05-17.43-34.16-26.71-52.72-7.93-15.86-23.04-19.42-30.3-.99-6.2,15.74-.8,33.73,10.69,45.56,4.07,4.19,10.17,7.23,14.04,11.68,14.91,17.16-6.38,28.59-20.42,17.39-6.82-5.44-22.56-36.31-28.83-46.07-4.23-6.59-8.77-13.63-13.32-19.97-8.75-12.2-25.9-36.82-43.18-33.62ZM559.37,484.61c-6.9-7.78-15.55-5.59-21.66,1.65-5.35,6.33-6.38,13.43-9.72,20.54-9.32,19.84-20.89,40.46-34.95,57.35-19.25,23.11-45.42,40.11-33.8,75.45,18.76,57.11,79.66,55.89,129.3,48.04,29.6-4.68,111.55-27.02,129.6-50.45,8.1-10.52,1.03-19.86-11.4-18.96-19.87,1.44-47.6,27.22-65.07,28.04-7.05.33-10.38-5.53-6.74-11.34,11.01-17.55,72.49-24.43,85.72-46.67,4.36-7.32,2.55-17.69-6.65-19.6-18.31-3.81-62.48,26.89-79.73,36.11-3.56,1.9-13.38,7.37-16.81,7.48-4.89.16-5.5-6.31-4.71-10.08,1.49-7.16,22.09-20.11,28.64-24.32,17.36-11.15,36.92-20.62,53.57-32.68,8.71-6.31,23.37-16.7,17.03-28.97-3.51-6.8-8.42-7.67-15.62-6.69-15.46,2.1-43.68,22.93-56.48,32.79-12.44,9.58-24.51,22.5-36.91,31.18-4.94,3.46-21.4,12.42-19.85-.16.88-7.18,21.93-27.84,27.92-34.14,11.4-12,39.77-36.15,41.53-52.27,1.48-13.5-2.43-23.87-18.04-18.8-17.7,5.75-40.25,42.72-50.27,58.67-6.66,10.61-14.44,27.62-21.63,36.63-11.45,14.34-36.73,7.52-26.34-10.46,4.29-7.43,15.33-12.72,21.03-20.58,9.24-12.72,13.27-35.08,2.02-47.76Z" style="fill: #fe9d0b;"/>
    <path d="M559.37,484.61c11.24,12.68,7.21,35.04-2.02,47.76-5.71,7.86-16.74,13.15-21.03,20.58-10.39,17.98,14.9,24.8,26.34,10.46,7.19-9.01,14.97-26.01,21.63-36.63,10.01-15.95,32.56-52.92,50.27-58.67,15.61-5.07,19.52,5.3,18.04,18.8-1.77,16.12-30.13,40.27-41.53,52.27-5.98,6.3-27.03,26.96-27.92,34.14-1.55,12.58,14.91,3.62,19.85.16,12.4-8.68,24.47-21.59,36.91-31.18,12.8-9.86,41.02-30.69,56.48-32.79,7.2-.98,12.1-.11,15.62,6.69,6.34,12.27-8.32,22.66-17.03,28.97-16.64,12.06-36.2,21.52-53.57,32.68-6.55,4.21-27.14,17.16-28.64,24.32-.79,3.78-.18,10.24,4.71,10.08,3.43-.11,13.25-5.58,16.81-7.48,17.25-9.22,61.42-39.91,79.73-36.11,9.2,1.91,11.01,12.28,6.65,19.6-13.23,22.24-74.72,29.12-85.72,46.67-3.64,5.81-.31,11.67,6.74,11.34,17.47-.82,45.19-26.6,65.07-28.04,12.43-.9,19.5,8.44,11.4,18.96-18.05,23.43-100,45.77-129.6,50.45-49.64,7.85-110.54,9.07-129.3-48.04-11.61-35.35,14.56-52.34,33.8-75.45,14.06-16.88,25.63-37.51,34.95-57.35,3.34-7.11,4.37-14.21,9.72-20.54,6.11-7.23,14.76-9.43,21.66-1.65Z" style="fill: #fed11e;"/>
    <path d="M155.44,467.13c17.28-3.19,34.43,21.42,43.18,33.62,4.55,6.34,9.08,13.39,13.32,19.97,6.27,9.75,22.01,40.62,28.83,46.07,14.03,11.2,35.33-.23,20.42-17.39-3.87-4.45-9.97-7.49-14.04-11.68-11.49-11.83-16.9-29.83-10.69-45.56,7.27-18.43,22.37-14.87,30.3.99,9.28,18.56,14.71,34.67,26.71,52.72,12.71,19.11,34.59,36.36,44.13,54.98,16.09,31.37-5.84,70.77-36.51,83.05-51.33,20.57-153.44-5.84-200.69-32.71-8.43-4.79-26.84-15.76-20.56-27.4,5.37-9.97,19.89-4.48,27.9-1.11,12.49,5.25,39.08,22.93,50.58,23.59,7.44.43,10.46-5.86,6.41-11.74-12.73-18.44-73.57-23.85-85.82-47.32-3.82-7.32-1.64-16.72,7.1-18.53,18.48-3.84,63.63,27.63,81.24,36.86,5.89,3.09,19.03,12.3,20.2,1.02.81-7.75-7.3-13.77-12.95-18.11-20.88-16.03-47.13-27.23-68.57-42.64-8.72-6.27-24.37-17.42-17.95-29.63,8.38-15.94,33.58-.04,44.15,6.45,15.7,9.64,30.52,21.51,44.71,33.21,8.21,6.77,24.24,24.83,35.16,23.88,11.06-.97,2.26-12.62-1.15-17.04-13.85-17.93-61.28-56.11-63.43-75.77-.75-6.84-.51-18.19,8.03-19.77Z" style="fill: #fed11e;"/>
  </g>
  <g>
    <circle cx="212.39" cy="321.8" r="26.03" style="fill: #fe9d0b;"/>
    <path d="M671.59,446.53c-18.8-17.23-45.98-13.36-65.3.89-7.52,5.55-13.4,12.79-19.8,19.53-27.64-32.17-67.14-21.34-83.73,15.39-7.6,16.84-13.08,31.06-23.6,46.76-25.24,37.65-64.23,56.73-53.08,111.14.62,3.02,6.02,18.06,5.38,18.93-.56.76-1.48.66-2.29.75-20.46,2.38-41.23,1.65-61.69-.04,14.06-31.09,9.42-60.65-10.3-87.67-7.98-10.94-18.35-19.6-26.75-29.99-15.01-18.54-22.73-36.49-32.19-57.84-16.8-37.91-55.32-50.68-84.72-17.43-7.22-7.63-13.97-15.95-22.84-21.78-16.48-10.84-39.35-14.49-56.45-3.03-2.85,1.91-5.43,5.18-7.71,6.67-.65.43-.77,1.3-1.53.01-1.3-2.19-3.46-16.6-4.02-20.19C81.19,173.29,383.32,11.52,579.66,174.95c78.4,65.26,115.28,171.34,91.93,271.57ZM288.64,254.59c-34.59,3.68-48.61,47.4-21.79,69.77,17.75,14.81,17.83-4.63,29.26-12.37,10.33-7,22.13,7.04,30.5,3.27,3.2-1.44,6.36-12.47,6.73-15.97,2.75-26.07-18.69-47.46-44.7-44.7ZM494.3,313.65c8.95,8.18,10.15,23.91,25.59,11.82,21.9-17.14,20.13-50.73-3.64-65.17-31.38-19.07-70.68,10.05-59.9,45.53.74,2.44,2.8,8.2,5.1,9.27,9.4,4.36,21.11-12.17,32.84-1.44ZM238.42,321.8c0-14.38-11.66-26.03-26.03-26.03s-26.03,11.66-26.03,26.03,11.66,26.03,26.03,26.03,26.03-11.66,26.03-26.03ZM613.65,321.79c0-14.38-11.65-26.03-26.03-26.03s-26.03,11.65-26.03,26.03,11.65,26.03,26.03,26.03,26.03-11.65,26.03-26.03ZM335.7,482.08c35.18,25.2,86.82,25.69,122.52-.45.72-.53.72-1.76.8-1.82,22.94-16.53,39.43-46.22,41.6-75.28,1.35-18.05-.01-25.38-19.1-18.35-20.18,7.43-36.58,19.08-58.65,24.57-45.82,11.39-69.29-6.32-108.37-22.83-10.22-4.32-22.33-10.21-23.46,5.99-2.33,33.34,18.58,69.48,44.67,88.17Z" style="fill: #fed11e;"/>
    <circle cx="587.62" cy="321.79" r="26.03" style="fill: #fe9d0b;"/>
  </g>
  <g>
    <path d="M459.01,479.81c-6.39-12.83-19.29-24.42-32.54-29.87-1.45-.6-6.13-2.55-7.25-2.66-8.12-.79-14.17,24.39-23.74,20.03-3.86-1.76-9.58-15.74-13.57-18.96s-14.18,2.35-18.23,4.58c-11.85,6.55-22.03,16.96-27.98,29.14-26.09-18.69-47-54.83-44.67-88.17,1.13-16.21,13.24-10.31,23.46-5.99,39.08,16.51,62.55,34.23,108.37,22.83,22.07-5.49,38.46-17.14,58.65-24.57,19.09-7.03,20.45.3,19.1,18.35-2.17,29.06-18.66,58.75-41.6,75.28Z" style="fill: #3b3b45;"/>
    <path d="M459.01,479.81c-.08.06-.08,1.29-.8,1.82-35.7,26.14-87.34,25.65-122.52.45,5.95-12.18,16.13-22.59,27.98-29.14,4.05-2.24,14.26-7.78,18.23-4.58s9.71,17.2,13.57,18.96c9.57,4.36,15.62-20.82,23.74-20.03,1.12.11,5.8,2.06,7.25,2.66,13.25,5.45,26.15,17.04,32.54,29.87Z" style="fill: #fd323d;"/>
  </g>
</svg>