<?xml version="1.0" encoding="UTF-8"?>
<svg id="Layer_1" xmlns="http://www.w3.org/2000/svg" version="1.1" viewBox="0 0 128 128">
  <!-- Generator: Adobe Illustrator 29.5.1, SVG Export Plug-In . SVG Version: 2.1.0 Build 141)  -->
  <defs>
    <style>
      .st0 {
        fill: #6f7580;
      }
    </style>
  </defs>
  <path class="st0" d="M50.4,65.2l-13,3.8c-.7-6.1.8-12,3.8-16.9l10.2,9.1h0c.9.9,1.1,2.2.3,3.2-.3.4-.7.7-1.2.8h0Z"/>
  <path class="st0" d="M54.7,76.2h0s-5.2,12.6-5.2,12.6c-4.8-3.1-8.7-7.8-10.8-13.5l13.4-2.3h0c.2,0,.3,0,.5,0,1,0,2,.7,2.2,1.8.1.5,0,1-.1,1.4Z"/>
  <path class="st0" d="M56.3,54.9l-11.1-7.9c3.4-3.4,7.8-5.9,12.8-7,.9-.2,1.8-.4,2.8-.5l-.8,13.6h0c0,1.2-1,2.2-2.3,2.2s-1-.2-1.3-.4h0Z"/>
  <polygon class="st0" points="59.3 65.1 61.9 61.9 66.1 61.9 68.7 65.1 67.7 69.2 64 71 60.2 69.1 59.3 65.1"/>
  <path class="st0" d="M66.1,79.7l6.6,11.9c-.9.3-1.8.5-2.6.7-5,1.1-10.1.8-14.6-.8l6.6-11.9h0c.2-.4.5-.7.8-.9.3-.2.7-.3,1.1-.3.4,0,.7,0,1.1.2.5.2.8.6,1,1h0Z"/>
  <path class="st0" d="M68,53.1l-.8-13.6c5.9.7,11.3,3.4,15.5,7.5l-11.1,7.8h0c-1,.7-2.4.5-3.1-.4-.3-.4-.5-.8-.5-1.3h0Z"/>
  <path class="st0" d="M75.8,73l13.5,2.3c-2,5.5-5.8,10.4-10.8,13.6l-5.2-12.6h0c-.5-1.1,0-2.4,1.1-3,.3-.1.6-.2.9-.2.2,0,.3,0,.5,0h0Z"/>
  <path class="st0" d="M90.2,60.2c.7,2.9.8,5.9.6,8.7l-13.1-3.8h0c-1.2-.4-1.9-1.6-1.6-2.8.1-.5.4-.9.7-1.2h0s10.1-9.1,10.1-9.1c1.5,2.5,2.6,5.2,3.3,8.1Z"/>
  <path class="st0" d="M126,77.1l-10.7-46.4c-.3-1.2-.8-2.3-1.6-3.3-.8-1-1.8-1.7-2.9-2.3L67.6,4.4c-1.2-.6-2.6-.9-4-.8-1.1,0-2.2.3-3.2.8L17.1,25.1c-1.1.5-2.1,1.3-2.9,2.3-.8,1-1.3,2.1-1.6,3.3L2,77.1c-.2,1.1-.3,2.2,0,3.3.2,1.1.6,2.1,1.2,3,.2.2.3.4.5.7l30,37.2c.8,1,1.8,1.7,2.9,2.3,1.1.5,2.3.8,3.6.8h48c1.2,0,2.5-.3,3.6-.8,1.1-.5,2.1-1.3,2.9-2.3l29.9-37.2c.8-1,1.3-2.1,1.6-3.3.3-1.2.3-2.5,0-3.7ZM109.6,76.5c-.3,1.4-1.8,2.2-3.3,1.9,0,0,0,0,0,0,0,0,0,0,0,0-.2,0-.5,0-.7-.1-.9-.2-1.5-.6-2.3-.9-1.7-.6-3.1-1.1-4.5-1.3-.7,0-1.1.3-1.5.5-.2,0-.8-.1-1.1-.2-2.5,7.8-7.8,14.5-14.9,18.8.1.3.3.9.4,1.1-.2.4-.4.8-.2,1.5.5,1.3,1.3,2.6,2.3,4.1.5.7,1,1.2,1.4,2.1.1.2.2.5.3.7.7,1.4.2,3.1-1.1,3.7-1.3.6-2.9,0-3.6-1.5-.1-.2-.2-.5-.3-.7-.4-.8-.5-1.6-.8-2.4-.6-1.7-1.1-3.1-1.8-4.4-.4-.6-.9-.7-1.3-.8,0-.2-.4-.7-.6-1-1.4.5-2.9,1-4.4,1.3-6.7,1.5-13.4.9-19.5-1.4l-.6,1.1c-.4.1-.9.2-1.1.5-.9,1.1-1.3,2.9-2,4.7-.3.8-.4,1.5-.8,2.4,0,.2-.2.5-.3.7h0s0,0,0,0c-.7,1.4-2.3,2.1-3.6,1.5-1.3-.6-1.8-2.2-1.1-3.7,0-.2.2-.5.3-.7.4-.8.9-1.4,1.4-2.1,1-1.5,1.8-2.9,2.3-4.2.1-.4,0-1-.2-1.5l.5-1.1c-6.9-4.1-12.3-10.6-14.9-18.7l-1.1.2c-.3-.2-.9-.6-1.5-.5-1.4.2-2.8.7-4.5,1.3-.8.3-1.4.7-2.3.9-.2,0-.5,0-.7.1,0,0,0,0,0,0,0,0,0,0,0,0-1.5.3-3-.5-3.3-1.9-.3-1.4.7-2.8,2.2-3.2,0,0,0,0,0,0h0c.2,0,.5-.1.7-.2.9-.2,1.6-.1,2.5-.2,1.8-.2,3.3-.4,4.6-.8.4-.2.8-.8,1.1-1.1l1.1-.3c-1.2-8.4.8-16.7,5.3-23.4l-.8-.7c0-.3-.1-1.1-.5-1.5-1-1-2.3-1.7-3.9-2.7-.7-.4-1.4-.7-2.1-1.3-.2-.1-.4-.3-.5-.4,0,0,0,0,0,0-1.2-1-1.5-2.7-.6-3.8.5-.6,1.3-.9,2.1-.9.6,0,1.3.2,1.8.7.2.1.4.3.6.5.7.6,1.1,1.2,1.7,1.8,1.3,1.3,2.3,2.4,3.5,3.2.6.4,1.1.2,1.5.2.3.2.6.4.9.7,4.4-4.7,10.2-8.1,16.9-9.7,1.5-.3,3.1-.6,4.7-.7v-1.1c.4-.3.8-.8.9-1.3.1-1.4,0-2.9-.3-4.7-.1-.8-.3-1.5-.4-2.5,0-.2,0-.5,0-.7h0c0-1.7,1.2-3,2.6-3s2.6,1.3,2.6,2.9,0,.5,0,.7c0,.9-.2,1.6-.4,2.5-.2,1.8-.4,3.3-.3,4.7,0,.7.5,1,.8,1.3,0,.2,0,.8,0,1.2,8.2.7,15.9,4.5,21.5,10.4l1-.7c.3,0,1.1.1,1.6-.2,1.2-.8,2.2-1.9,3.5-3.2.6-.6,1-1.2,1.7-1.8.2-.1.4-.3.6-.5,1.2-1,3-.9,3.9.2.9,1.1.6,2.8-.6,3.8-.2.1-.4.3-.6.5-.7.5-1.4.8-2.2,1.3-1.5,1-2.8,1.8-3.8,2.7-.5.5-.5,1-.5,1.5-.1.1-.6.6-.9.8,2.2,3.3,3.9,7.1,4.9,11.2.9,4.1,1.1,8.2.5,12.1l1,.3c.2.3.6.9,1.1,1.1,1.3.4,2.8.6,4.6.8.8,0,1.6,0,2.5.2.2,0,.5.1.8.2,1.5.4,2.5,1.8,2.2,3.2Z"/>
</svg>