<svg width="128" height="128" viewBox="0 0 128 128" fill="none" xmlns="http://www.w3.org/2000/svg"><path d="M63.5685 3.63009C62.4682 3.68551 61.3902 3.95829 60.3977 4.43243L17.1298 25.1063C16.01 25.6411 15.026 26.4193 14.251 27.3831C13.476 28.3469 12.9299 29.4714 12.6533 30.6732L1.97866 77.1119C1.73218 78.1818 1.7046 79.29 1.89756 80.3707C2.09051 81.4514 2.50009 82.4827 3.10204 83.4037C3.24798 83.6288 3.40494 83.8468 3.57236 84.0567L33.5206 121.293C34.2958 122.256 35.2799 123.034 36.3998 123.569C37.5197 124.103 38.7466 124.381 39.9895 124.381L88.0164 124.37C89.2587 124.37 90.4854 124.094 91.6052 123.56C92.7251 123.027 93.7094 122.25 94.4852 121.287L124.422 84.0456C125.198 83.0815 125.745 81.9566 126.021 80.7542C126.298 79.5519 126.298 78.3031 126.022 77.1007L115.331 30.6621C115.054 29.4603 114.508 28.3358 113.733 27.372C112.958 26.4083 111.974 25.6301 110.854 25.0953L67.5805 4.43226C66.332 3.83586 64.9524 3.56003 63.5685 3.63009Z" fill="#326CE5"/><path d="M63.9973 19.4338C62.5671 19.4339 61.4074 20.7222 61.4076 22.3113C61.4076 22.3357 61.4125 22.3591 61.4129 22.3832C61.4109 22.5992 61.4005 22.8593 61.4076 23.0472C61.4416 23.9638 61.6413 24.6653 61.7617 25.5098C61.9795 27.3171 62.1619 28.8153 62.0495 30.2079C61.9397 30.7329 61.5531 31.2132 61.2084 31.5469L61.1475 32.6427C59.572 32.7724 58.0076 33.0127 56.4659 33.362C49.7415 34.8889 43.9518 38.3528 39.544 43.0294C39.2293 42.8122 38.9176 42.5908 38.6088 42.3653C38.1463 42.4278 37.6792 42.5706 37.0704 42.2159C35.9114 41.4359 34.8558 40.359 33.5786 39.0618C32.9933 38.4413 32.5696 37.8504 31.8742 37.2522C31.7164 37.1164 31.4754 36.9328 31.2987 36.7929C30.7551 36.3596 30.114 36.1334 29.4948 36.1124C28.6987 36.0851 27.9323 36.3964 27.4308 37.0254C26.539 38.1436 26.8245 39.853 28.067 40.8435C28.0796 40.8536 28.093 40.8614 28.1058 40.8713C28.2765 41.0096 28.4856 41.1871 28.6425 41.3029C29.3804 41.8477 30.0544 42.1266 30.7896 42.5591C32.3385 43.5156 33.6227 44.3086 34.641 45.265C35.0387 45.6889 35.1083 46.436 35.1613 46.7592L35.9912 47.5006C31.5478 54.1878 29.4913 62.4477 30.7067 70.8639L29.6221 71.1793C29.3361 71.5485 28.9322 72.1293 28.5097 72.3026C27.1772 72.7223 25.6775 72.8764 23.8671 73.0662C23.0171 73.137 22.2835 73.0947 21.3823 73.2654C21.184 73.303 20.9078 73.375 20.6907 73.4259L20.6685 73.4315C20.6567 73.4342 20.6411 73.44 20.6297 73.4425C19.1033 73.8114 18.1229 75.2143 18.4384 76.5968C18.7541 77.9794 20.2451 78.8202 21.7808 78.4892C21.7919 78.4867 21.808 78.4862 21.8195 78.4837C21.8369 78.4798 21.8521 78.4713 21.8693 78.4671C22.0836 78.4202 22.3517 78.3679 22.539 78.3178C23.4249 78.0805 24.0665 77.732 24.8631 77.4268C26.5766 76.8123 27.9958 76.2988 29.3786 76.0987C29.9559 76.0535 30.5645 76.4549 30.8671 76.6244L31.996 76.4307C34.5937 84.4847 40.0378 90.9945 46.9315 95.0793L46.461 96.2082C46.6306 96.6464 46.8176 97.2395 46.6912 97.6726C46.1886 98.9759 45.3277 100.352 44.3472 101.886C43.8725 102.594 43.3866 103.144 42.9582 103.955C42.8557 104.149 42.7252 104.448 42.6262 104.652C41.9605 106.077 42.4487 107.717 43.7274 108.332C45.0141 108.952 46.611 108.298 47.3021 106.872C47.3032 106.869 47.3067 106.868 47.3076 106.866C47.3083 106.864 47.3069 106.862 47.3076 106.861C47.406 106.658 47.5456 106.392 47.6286 106.202C47.9955 105.361 48.1177 104.641 48.3757 103.828C49.061 102.107 49.4373 100.301 50.3806 99.1755C50.6389 98.8673 51.06 98.7487 51.4967 98.6318L52.0832 97.5694C58.0929 99.8761 64.8199 100.495 71.5396 98.9695C73.0499 98.626 74.5347 98.1786 75.9832 97.6303C76.1479 97.9226 76.4544 98.4848 76.5366 98.6263C76.9803 98.7706 77.4645 98.8452 77.8592 99.4287C78.5648 100.635 79.0474 102.061 79.6354 103.784C79.8934 104.597 80.0211 105.317 80.388 106.158C80.4716 106.349 80.6104 106.619 80.7089 106.822C81.3986 108.253 83.0008 108.909 84.2894 108.288C85.5677 107.672 86.0565 106.032 85.3905 104.608C85.2915 104.403 85.1555 104.105 85.053 103.911C84.6244 103.1 84.1387 102.556 83.664 101.847C82.6835 100.313 81.8702 99.0389 81.3674 97.7353C81.1573 97.0631 81.4029 96.645 81.5667 96.2082C81.4686 96.0957 81.2587 95.4609 81.1351 95.1623C88.2992 90.9321 93.5833 84.1796 96.0649 76.3809C96.4001 76.4337 96.9825 76.5368 97.1716 76.5747C97.5612 76.3179 97.9193 75.9825 98.6216 76.0379C100.004 76.2378 101.423 76.7515 103.137 77.366C103.934 77.6711 104.575 78.0253 105.461 78.2624C105.648 78.3125 105.917 78.3592 106.131 78.4063C106.148 78.4104 106.163 78.4189 106.18 78.4228C106.192 78.4255 106.208 78.4258 106.219 78.4285C107.755 78.7589 109.246 77.9185 109.562 76.5359C109.877 75.1534 108.897 73.7501 107.37 73.3818C107.148 73.3311 106.833 73.2454 106.618 73.2047C105.716 73.034 104.983 73.0759 104.133 73.0055C102.322 72.8156 100.823 72.6614 99.4903 72.2417C98.947 72.031 98.5605 71.3845 98.3724 71.1184L97.3266 70.8141C97.8688 66.891 97.7227 62.8081 96.7844 58.7229C95.8372 54.5998 94.1636 50.8288 91.9312 47.5063C92.1995 47.2622 92.7063 46.8137 92.8499 46.6816C92.8918 46.217 92.8557 45.7298 93.3368 45.2152C94.3552 44.259 95.6394 43.4659 97.1883 42.5093C97.9235 42.0767 98.6031 41.798 99.3408 41.2531C99.5076 41.1299 99.7357 40.9347 99.9109 40.7938C101.153 39.8028 101.439 38.0937 100.547 36.9756C99.6553 35.8576 97.927 35.752 96.6847 36.7431C96.5079 36.8832 96.268 37.0659 96.1092 37.2025C95.414 37.8006 94.9845 38.3914 94.3993 39.012C93.122 40.3093 92.0665 41.3916 90.9075 42.1718C90.4053 42.464 89.6697 42.363 89.3359 42.3432L88.351 43.046C82.7341 37.1564 75.087 33.3909 66.8527 32.6593C66.8297 32.3142 66.7996 31.6906 66.7918 31.5027C66.4547 31.1802 66.0474 30.9049 65.9452 30.2079C65.8324 28.8153 66.0206 27.3171 66.2384 25.5098C66.3587 24.6653 66.5584 23.9639 66.5926 23.0472C66.6004 22.839 66.5878 22.5365 66.5871 22.3113C66.5869 20.7222 65.4276 19.4338 63.9973 19.4338ZM60.7545 39.5211L59.9853 53.1062L59.93 53.134C59.8783 54.3493 58.8782 55.3196 57.6502 55.3196C57.1471 55.3196 56.6828 55.1581 56.3054 54.8826L56.2833 54.8936L45.144 46.997C48.5675 43.6307 52.9466 41.1428 57.9932 39.9971C58.9049 39.7913 59.8265 39.6324 60.7545 39.5211ZM67.2455 39.5211C73.1376 40.2457 78.5864 42.9137 82.7619 47.0027L71.6946 54.8493L71.656 54.8329C70.6735 55.5502 69.2895 55.3722 68.5238 54.4123C68.2212 54.0357 68.0467 53.5722 68.0259 53.0895L68.0147 53.0842L67.2455 39.5211ZM41.1044 52.0715L51.2754 61.1689L51.2642 61.2241C52.1824 62.0222 52.3178 63.4071 51.552 64.3673C51.2501 64.7464 50.8354 65.0197 50.3678 65.1475L50.3567 65.1917L37.3193 68.9546C36.6558 62.8871 38.0859 56.989 41.1044 52.0715ZM86.8183 52.0768C88.3294 54.5263 89.4737 57.2622 90.1549 60.2281C90.828 63.1584 90.9969 66.0835 90.7195 68.9104L77.6157 65.1365L77.6045 65.0811C76.4312 64.7606 75.71 63.5669 75.9832 62.3696C76.0895 61.8987 76.3435 61.4741 76.7082 61.1577L76.7027 61.1301L86.8183 52.077V52.0768ZM61.911 61.8715H66.078L68.6678 65.1089L67.7381 69.1484L63.9973 70.9468L60.2454 69.1429L59.3158 65.1032L61.911 61.8715ZM75.2694 72.95C75.4465 72.9412 75.6227 72.9571 75.7952 72.9888L75.8173 72.961L89.3028 75.2409C87.3291 80.7859 83.5526 85.5893 78.5066 88.804L73.2718 76.1596L73.2883 76.1374C72.8075 75.0201 73.2886 73.7097 74.395 73.1769C74.6783 73.0405 74.9742 72.9649 75.2694 72.95ZM52.6201 73.0053C53.6491 73.0198 54.5722 73.7341 54.8114 74.7817C54.9233 75.2722 54.8688 75.758 54.6839 76.1872L54.7229 76.237L49.5434 88.7542C44.7006 85.6467 40.8435 80.994 38.7802 75.2852L52.1496 73.0164L52.1717 73.0441C52.3214 73.0166 52.4729 73.0033 52.6201 73.0053ZM63.9141 78.4894C64.2833 78.4765 64.6501 78.5543 64.9823 78.7161C65.4356 78.9344 65.7857 79.2781 66.0059 79.69H66.0559L72.6464 91.5985C71.7812 91.8877 70.9021 92.1333 70.0123 92.3346C64.972 93.479 59.9476 93.1321 55.3981 91.582L61.9719 79.6956H61.9831C62.1715 79.3433 62.449 79.0466 62.7878 78.8349C63.1266 78.6232 63.515 78.504 63.9143 78.4892L63.9141 78.4894Z" fill="white" stroke="white" stroke-width="0.276684"/></svg>
