<?xml version="1.0" encoding="UTF-8"?><svg id="uuid-ffa63bef-4579-4a99-9560-ca04518fec3a" xmlns="http://www.w3.org/2000/svg" viewBox="0 0 128 128"><path d="m126.1,28.96c.05.17.07.35.07.52v27.47c0,.72-.38,1.38-1.01,1.74l-23.06,13.28v26.32c0,.72-.38,1.38-1,1.74l-48.14,27.71c-.11.06-.23.1-.35.15-.05.02-.09.04-.14.06-.34.09-.69.09-1.03,0-.06-.02-.11-.05-.16-.07-.11-.04-.23-.08-.33-.14L2.84,100.02c-.62-.36-1.01-1.02-1.01-1.74V15.86c0-.18.03-.36.07-.53.02-.06.05-.11.07-.17.04-.11.07-.21.13-.31.04-.07.09-.12.14-.18.06-.08.11-.16.18-.23.06-.06.13-.1.2-.15.07-.06.14-.13.22-.17h0L26.9.27c.62-.36,1.38-.36,2,0l24.06,13.86h0c.08.05.15.11.22.17.07.05.14.1.2.15.07.07.12.16.18.24.04.06.1.11.14.18.06.1.09.21.13.31.02.06.06.11.07.17.05.17.07.35.07.52v51.48l20.05-11.55v-26.32c0-.18.03-.35.07-.52.02-.06.05-.11.07-.17.04-.11.08-.21.13-.31.04-.07.09-.12.14-.18.06-.08.11-.16.18-.23.06-.06.13-.1.2-.15.08-.06.14-.13.22-.17h0l24.07-13.86c.62-.36,1.38-.36,2,0l24.06,13.86c.09.05.15.11.23.17.06.05.14.1.19.15.07.07.12.16.18.24.05.06.1.11.14.18.06.1.09.21.13.31.02.06.06.11.07.17h0Zm-3.94,26.84v-22.85l-8.42,4.85-11.63,6.7v22.85l20.06-11.55h0Zm-24.06,41.33v-22.86l-11.44,6.54-32.68,18.65v23.08l44.12-25.4ZM5.84,19.33v77.8l44.12,25.4v-23.07l-23.05-13.04h0s-.01-.01-.01-.01c-.08-.05-.14-.11-.22-.17-.06-.05-.14-.09-.19-.15h0c-.07-.07-.11-.15-.17-.22-.05-.07-.11-.13-.15-.2h0c-.05-.08-.07-.17-.11-.26-.03-.08-.08-.15-.1-.23h0c-.03-.1-.03-.2-.04-.3-.01-.08-.03-.15-.03-.23V30.88l-11.63-6.7-8.42-4.84h0ZM27.9,4.32L7.85,15.86l20.05,11.54,20.05-11.54L27.9,4.32h0Zm10.43,72.03l11.63-6.7V19.33l-8.42,4.85-11.63,6.7v50.32l8.42-4.85Zm61.77-58.41l-20.05,11.54,20.05,11.54,20.05-11.54-20.05-11.54Zm-2.01,26.56l-11.63-6.7-8.42-4.85v22.85l11.63,6.7,8.42,4.85v-22.85Zm-46.13,51.49l29.41-16.79,14.7-8.39-20.03-11.53-23.07,13.28-21.02,12.1,20.02,11.33Z" style="fill:#9ba1ab;"/></svg>