<?xml version="1.0" encoding="utf-8"?>
<!-- Generator: Adobe Illustrator 26.1.0, SVG Export Plug-In . SVG Version: 6.00 Build 0)  -->
<svg version="1.1" id="Layer_1" xmlns="http://www.w3.org/2000/svg" xmlns:xlink="http://www.w3.org/1999/xlink" x="0px" y="0px"
	 viewBox="0 0 212 212" style="enable-background:new 0 0 212 212;" xml:space="preserve">
<style type="text/css">
	.st0{fill-rule:evenodd;clip-rule:evenodd;fill:#CDBDB2;}
	.st1{fill-rule:evenodd;clip-rule:evenodd;fill:#393939;}
	.st2{fill-rule:evenodd;clip-rule:evenodd;fill:#F89C35;}
	.st3{fill-rule:evenodd;clip-rule:evenodd;fill:#F89D35;}
	.st4{fill-rule:evenodd;clip-rule:evenodd;fill:#D87C30;}
	.st5{fill-rule:evenodd;clip-rule:evenodd;fill:#EA8D3A;}
	.st6{fill-rule:evenodd;clip-rule:evenodd;fill:#EB8F35;}
	.st7{fill-rule:evenodd;clip-rule:evenodd;fill:#EA8E3A;}
	.st8{fill-rule:evenodd;clip-rule:evenodd;fill:#E8821E;}
	.st9{fill-rule:evenodd;clip-rule:evenodd;fill:#DFCEC3;}
	.st10{fill-rule:evenodd;clip-rule:evenodd;fill:#E88F35;}
	.st11{fill-rule:evenodd;clip-rule:evenodd;fill:#8E5A30;}
</style>
<g>
	<polygon class="st0" points="61,184.7 88.6,192.1 88.6,182.5 90.8,180.2 106.6,180.2 106.6,191.5 106.6,199.4 89.7,199.4 
		68.9,190.4 	"/>
	<polygon class="st0" points="151,184.7 124,192.1 124,182.5 121.8,180.2 106,180.2 106,191.5 106,199.4 122.9,199.4 143.7,190.4 	
		"/>
	<polygon class="st1" points="90.8,163.9 88.6,182.5 91.4,180.2 120.6,180.2 124,182.5 121.8,163.9 117.2,161.1 94.8,161.7 	"/>
	<polygon class="st2" points="75.6,38.5 89.1,70 95.3,161.7 117.2,161.7 124,70 136.4,38.5 	"/>
	<polygon class="st3" points="16.6,107.7 0.8,153.2 40.2,151 65.5,151 65.5,131.3 64.4,90.8 58.8,95.3 	"/>
	<polygon class="st4" points="46.4,112.7 92.5,113.9 87.4,137.5 65.5,131.9 	"/>
	<polygon class="st5" points="46.4,113.3 65.5,131.3 65.5,149.3 	"/>
	<polygon class="st3" points="65.5,131.9 88,137.5 95.3,161.7 90.2,164.5 65.5,149.9 	"/>
	<polygon class="st6" points="65.5,149.9 61,184.7 90.8,163.9 	"/>
	<polygon class="st7" points="92.5,113.9 95.3,161.7 86.9,137.2 	"/>
	<polygon class="st4" points="39.6,150.4 65.5,149.9 61,184.7 	"/>
	<polygon class="st6" points="13.2,199.9 61,184.7 39.6,150.4 0.8,153.2 	"/>
	<polygon class="st8" points="89.1,70 64.9,90.2 46.4,112.7 92.5,114.4 	"/>
	<polygon class="st9" points="61,184.7 90.8,163.9 88.6,181.9 88.6,192.1 68.3,188.1 	"/>
	<polygon class="st9" points="151,184.7 121.8,163.9 124,181.9 124,192.1 144.2,188.1 	"/>
	<polygon class="st1" points="80.1,124 86.3,136.9 64.4,131.3 	"/>
	<polygon class="st10" points="12.6,12.1 89.1,70 76.2,38.5 	"/>
	<path class="st11" d="M12.6,12.1L2.5,43l5.6,33.8L4.2,79l5.6,5.1L5.3,88l6.2,5.6L7.6,97l9,11.2l42.2-12.9
		C79.4,78.8,89.5,70.4,89.1,70S63.2,50.3,12.6,12.1z"/>
	<g transform="matrix(-1 0 0 1 211.5 0)">
		<polygon class="st3" points="16.1,107.7 0.3,153.2 39.7,151 65,151 65,131.3 63.9,90.8 58.2,95.3 		"/>
		<polygon class="st4" points="45.9,112.7 92,113.9 86.9,137.5 65,131.9 		"/>
		<polygon class="st5" points="45.9,113.3 65,131.3 65,149.3 		"/>
		<polygon class="st3" points="65,131.9 87.5,137.5 94.8,161.7 89.8,164.5 65,149.9 		"/>
		<polygon class="st6" points="65,149.9 60.5,184.7 89.8,164.5 		"/>
		<polygon class="st7" points="92,113.9 94.8,161.7 86.4,137.2 		"/>
		<polygon class="st4" points="39.1,150.4 65,149.9 60.5,184.7 		"/>
		<polygon class="st6" points="12.7,199.9 60.5,184.7 39.1,150.4 0.3,153.2 		"/>
		<polygon class="st8" points="88.6,70 64.4,90.2 45.9,112.7 92,114.4 		"/>
		<polygon class="st1" points="79.6,124 85.8,136.9 63.9,131.3 		"/>
		<polygon class="st10" points="12.1,12.1 88.6,70 75.7,38.5 		"/>
		<path class="st11" d="M12.1,12.1L2,43l5.6,33.8L3.7,79l5.6,5.1L4.8,88l6.2,5.6L7.1,97l9,11.2l42.2-12.9C78.9,78.8,89,70.4,88.6,70
			S62.8,50.3,12.1,12.1z"/>
	</g>
</g>
</svg>
