<?xml version="1.0" encoding="utf-8"?>
<!-- Generator: Adobe Illustrator 26.1.0, SVG Export Plug-In . SVG Version: 6.00 Build 0)  -->
<svg version="1.1" id="Layer_1" xmlns="http://www.w3.org/2000/svg" xmlns:xlink="http://www.w3.org/1999/xlink" x="0px" y="0px"
	 viewBox="0 0 212 189" style="enable-background:new 0 0 212 189;" xml:space="preserve">
<style type="text/css">
	.st0{fill-rule:evenodd;clip-rule:evenodd;fill:#FFFFFF;}
	.st1{fill-rule:evenodd;clip-rule:evenodd;fill:#E3E3E3;}
	.st2{fill-rule:evenodd;clip-rule:evenodd;fill:#F4F4F4;}
	.st3{fill-rule:evenodd;clip-rule:evenodd;fill:#F5F5F5;}
	.st4{fill-rule:evenodd;clip-rule:evenodd;fill:#EAEAEA;}
	.st5{fill-rule:evenodd;clip-rule:evenodd;fill:#B9B9B9;}
</style>
<polygon class="st0" points="106.3,168.8 106.3,187.9 89.4,187.9 68.6,178.9 60.8,173.2 88.3,180.6 88.3,171 90.6,168.8 "/>
<polygon class="st0" points="150.8,173.2 143.4,178.9 122.6,187.9 105.8,187.9 105.8,168.8 121.5,168.8 123.8,171 123.8,180.6 "/>
<path class="st0" d="M65.2,119.8v19.7H39.9l-0.2,0l-39.2,2.2l15.6-45.2l0.1-0.4l42.2-12.4c2-1.6,3.8-3.1,5.6-4.5v0.1l0.6,22.3l0,0.2
	l0.5,17.4L65.2,119.8z"/>
<path class="st1" d="M92.2,102.4l-0.4,0l-27.1-0.7l-18.6-0.5l19.1,19.1l21.4,5.5l0.5,0.1l0-0.1l4.7-22v0l0.2-0.9l0.1-0.4v0
	L92.2,102.4L92.2,102.4z M65.2,119.8l0-0.5l14.6-6.8l6.2,12.9l-20.8-5.3V119.8z"/>
<polygon class="st2" points="65.2,119.8 65.2,137.8 46.1,101.8 55.6,110.7 64.9,119.5 "/>
<polygon class="st0" points="95.1,150.2 95.1,150.2 90.5,152.7 90,153 89.9,152.9 65.2,138.4 65.2,120.4 86.6,125.7 87.2,125.9 
	87.8,126 "/>
<polygon class="st3" points="65.2,138.4 60.8,173.2 90.6,152.4 "/>
<polygon class="st3" points="92.2,102.4 95.1,150.2 86.6,125.7 "/>
<polygon class="st1" points="39.4,138.9 65.2,138.4 60.8,173.2 "/>
<polygon class="st3" points="12.9,188.4 60.8,173.2 39.4,138.9 0.6,141.8 "/>
<polygon class="st4" points="88.9,58.5 64.7,78.8 46.1,101.2 92.2,102.9 "/>
<polygon class="st0" points="60.8,173.2 90.6,152.4 88.3,170.4 88.3,180.6 68.1,176.6 "/>
<polygon class="st0" points="150.8,173.2 121.5,152.4 123.8,170.4 123.8,180.6 144,176.6 "/>
<polygon class="st2" points="12.4,0.6 88.9,58.5 75.9,27 "/>
<path class="st5" d="M12.4,0.6L2.2,31.5l5.6,33.8l-3.9,2.2l5.6,5.1l-4.5,3.9l6.2,5.6l-3.9,3.4l9,11.2l42.2-12.9
	c20.6-16.5,30.8-24.9,30.4-25.3S63,38.8,12.4,0.6z"/>
<path class="st0" d="M210.9,141.8l-39.2-2.2l-0.2,0h-25.3v-19.7l0-0.5l0.5-17.4l0-0.2l0.6-22.3v-0.1c1.8,1.4,3.7,2.9,5.6,4.5
	l42.2,12.4l0.1,0.4L210.9,141.8z"/>
<path class="st1" d="M146.8,101.7l-26.2,0.6l-1.2,0h0l0,0.1v0l0.1,0.4l0.8,3.8v0l4.1,19.1l0,0.1l0.5-0.1l21.4-5.5l19.1-19.1
	L146.8,101.7z M125.4,125.4l6.2-12.9l14.6,6.8l0,0.5v0.3L125.4,125.4z"/>
<polygon class="st2" points="165.4,101.8 146.2,137.8 146.2,119.8 146.6,119.5 155.9,110.7 "/>
<polygon class="st0" points="146.2,120.4 146.2,138.4 121.9,152.8 121.6,153 121.6,153 121.5,153 116.4,150.2 116.6,149.6 
	117.2,147.7 123.8,126 124.3,125.9 124.9,125.7 "/>
<polygon class="st3" points="150.8,173.2 121.6,153 121.6,153 121.5,153 121.6,153 121.6,153 121.9,152.8 146.2,138.4 146.4,139.5 
	"/>
<polygon class="st3" points="119.2,102.4 116.4,150.2 124.9,125.7 "/>
<polygon class="st1" points="172.1,138.9 146.2,138.4 150.8,173.2 "/>
<polygon class="st3" points="198.6,188.4 150.8,173.2 172.1,138.9 210.9,141.8 "/>
<polygon class="st4" points="122.6,58.5 146.8,78.8 165.4,101.2 119.2,102.9 "/>
<polygon class="st2" points="199.1,0.6 122.6,58.5 135.6,27 "/>
<path class="st5" d="M199.1,0.6l10.1,30.9l-5.6,33.8l3.9,2.2l-5.6,5.1l4.5,3.9l-6.2,5.6l3.9,3.4l-9,11.2L153,83.8
	c-20.6-16.5-30.8-24.9-30.4-25.3S148.5,38.8,199.1,0.6z"/>
<path class="st0" d="M136.1,27l-11.9,30.2l0,0l-0.5,1.2l-0.1,0.9l0,0.3l-3.1,42.6l0,0.5l-0.3,3.5l0,0.4v0l-3,40.9l0,0.4l-0.1,1.5
	l0,0.5H95.1v0l-3.1-46.3v0l0-0.1l-0.1-0.8l0-0.6l-3-43.8c0,0,0,0,0,0L75.4,27H136.1z"/>
</svg>
