<?xml version="1.0" encoding="utf-8"?>
<!-- Generator: Adobe Illustrator 26.1.0, SVG Export Plug-In . SVG Version: 6.00 Build 0)  -->
<svg version="1.1" id="Layer_1" xmlns="http://www.w3.org/2000/svg" xmlns:xlink="http://www.w3.org/1999/xlink" x="0px" y="0px"
	 viewBox="0 0 42 42" style="enable-background:new 0 0 42 42;" xml:space="preserve">
<style type="text/css">
	.st0{fill-rule:evenodd;clip-rule:evenodd;fill:#CDBDB2;}
	.st1{fill-rule:evenodd;clip-rule:evenodd;fill:#393939;}
	.st2{fill-rule:evenodd;clip-rule:evenodd;fill:#F89C35;}
	.st3{fill-rule:evenodd;clip-rule:evenodd;fill:#F89D35;}
	.st4{fill-rule:evenodd;clip-rule:evenodd;fill:#D87C30;}
	.st5{fill-rule:evenodd;clip-rule:evenodd;fill:#EA8D3A;}
	.st6{fill-rule:evenodd;clip-rule:evenodd;fill:#EB8F35;}
	.st7{fill-rule:evenodd;clip-rule:evenodd;fill:#EA8E3A;}
	.st8{fill-rule:evenodd;clip-rule:evenodd;fill:#E8821E;}
	.st9{fill-rule:evenodd;clip-rule:evenodd;fill:#DFCEC3;}
	.st10{fill-rule:evenodd;clip-rule:evenodd;fill:#E88F35;}
	.st11{fill-rule:evenodd;clip-rule:evenodd;fill:#8E5A30;}
</style>
<g>
	<polygon class="st0" points="12.4,36 17.7,37.4 17.7,35.5 18.1,35.1 21.1,35.1 21.1,37.3 21.1,38.8 17.9,38.8 13.9,37 	"/>
	<polygon class="st0" points="29.6,36 24.4,37.4 24.4,35.5 24,35.1 21,35.1 21,37.3 21,38.8 24.2,38.8 28.2,37 	"/>
	<polygon class="st1" points="18.1,32 17.7,35.5 18.2,35.1 23.8,35.1 24.4,35.5 24,32 23.1,31.5 18.9,31.6 	"/>
	<polygon class="st2" points="15.2,8.2 17.8,14.2 19,31.6 23.1,31.6 24.4,14.2 26.8,8.2 	"/>
	<polygon class="st3" points="4,21.3 1,30 8.5,29.6 13.3,29.6 13.3,25.8 13.1,18.1 12,19 	"/>
	<polygon class="st4" points="9.7,22.3 18.4,22.5 17.5,27 13.3,25.9 	"/>
	<polygon class="st5" points="9.7,22.4 13.3,25.8 13.3,29.2 	"/>
	<polygon class="st3" points="13.3,25.9 17.6,27 19,31.6 18,32.1 13.3,29.3 	"/>
	<polygon class="st6" points="13.3,29.3 12.4,36 18.1,32 	"/>
	<polygon class="st7" points="18.4,22.5 19,31.6 17.4,26.9 	"/>
	<polygon class="st4" points="8.4,29.4 13.3,29.3 12.4,36 	"/>
	<polygon class="st6" points="3.4,38.9 12.4,36 8.4,29.4 1,30 	"/>
	<polygon class="st8" points="17.8,14.2 13.2,18 9.7,22.3 18.4,22.6 	"/>
	<polygon class="st9" points="12.4,36 18.1,32 17.7,35.4 17.7,37.4 13.8,36.6 	"/>
	<polygon class="st9" points="29.6,36 24,32 24.4,35.4 24.4,37.4 28.3,36.6 	"/>
	<polygon class="st1" points="16.1,24.4 17.3,26.9 13.1,25.8 	"/>
	<polygon class="st10" points="3.2,3.1 17.8,14.2 15.3,8.2 	"/>
	<path class="st11" d="M3.2,3.1L1.3,9l1.1,6.4l-0.7,0.4l1.1,1l-0.9,0.7L3,18.6l-0.7,0.6L4,21.4l8-2.5c3.9-3.1,5.8-4.7,5.8-4.8
		S12.9,10.4,3.2,3.1z"/>
	<g transform="matrix(-1 0 0 1 211.5 0)">
		<polygon class="st3" points="173.5,21.3 170.5,30 178,29.6 182.8,29.6 182.8,25.8 182.6,18.1 181.5,19 		"/>
		<polygon class="st4" points="179.2,22.3 187.9,22.5 187,27 182.8,25.9 		"/>
		<polygon class="st5" points="179.2,22.4 182.8,25.8 182.8,29.2 		"/>
		<polygon class="st3" points="182.8,25.9 187.1,27 188.5,31.6 187.5,32.1 182.8,29.3 		"/>
		<polygon class="st6" points="182.8,29.3 181.9,36 187.5,32.1 		"/>
		<polygon class="st7" points="187.9,22.5 188.5,31.6 186.9,26.9 		"/>
		<polygon class="st4" points="177.9,29.4 182.8,29.3 181.9,36 		"/>
		<polygon class="st6" points="172.9,38.9 181.9,36 177.9,29.4 170.5,30 		"/>
		<polygon class="st8" points="187.3,14.2 182.7,18 179.2,22.3 187.9,22.6 		"/>
		<polygon class="st1" points="185.6,24.4 186.8,26.9 182.6,25.8 		"/>
		<polygon class="st10" points="172.7,3.1 187.3,14.2 184.8,8.2 		"/>
		<path class="st11" d="M172.7,3.1L170.8,9l1.1,6.4l-0.7,0.4l1.1,1l-0.9,0.7l1.2,1.1l-0.7,0.6l1.7,2.1l8-2.5
			c3.9-3.1,5.8-4.7,5.8-4.8C187.2,14.1,182.4,10.4,172.7,3.1z"/>
	</g>
</g>
</svg>
