<?xml version="1.0" encoding="utf-8"?>
<!-- Generator: Adobe Illustrator 26.1.0, SVG Export Plug-In . SVG Version: 6.00 Build 0)  -->
<svg version="1.1" id="Layer_1" xmlns="http://www.w3.org/2000/svg" xmlns:xlink="http://www.w3.org/1999/xlink" x="0px" y="0px"
	 viewBox="0 0 212 212" style="enable-background:new 0 0 212 212;" xml:space="preserve">
<style type="text/css">
	.st0{fill-rule:evenodd;clip-rule:evenodd;fill:#FFFFFF;}
	.st1{fill-rule:evenodd;clip-rule:evenodd;fill:#E3E3E3;}
	.st2{fill-rule:evenodd;clip-rule:evenodd;fill:#F4F4F4;}
	.st3{fill-rule:evenodd;clip-rule:evenodd;fill:#F5F5F5;}
	.st4{fill-rule:evenodd;clip-rule:evenodd;fill:#EAEAEA;}
	.st5{fill-rule:evenodd;clip-rule:evenodd;fill:#B9B9B9;}
</style>
<g>
	<polygon class="st0" points="106.6,180.3 106.6,199.4 89.7,199.4 68.9,190.4 61.1,184.7 88.6,192.1 88.6,182.5 90.9,180.3 	"/>
	<polygon class="st0" points="151.1,184.7 143.7,190.4 122.9,199.4 106.1,199.4 106.1,180.3 121.8,180.3 124.1,182.5 124.1,192.1 	
		"/>
	<path class="st0" d="M65.5,131.3V151H40.2H40l-39.2,2.2L16.4,108l0.1-0.4l42.2-12.4c2-1.6,3.8-3.1,5.6-4.5v0.1l0.6,22.3v0.2
		l0.5,17.4L65.5,131.3z"/>
	<path class="st1" d="M92.5,113.9h-0.4L65,113.2l-18.6-0.5l19.1,19.1l21.4,5.5l0.5,0.1v-0.1l4.7-22l0,0l0.2-0.9l0.1-0.4l0,0
		L92.5,113.9L92.5,113.9z M65.5,131.3v-0.5l14.6-6.8l6.2,12.9l-20.8-5.3V131.3z"/>
	<polygon class="st2" points="65.5,131.3 65.5,149.3 46.4,113.3 55.9,122.2 65.2,131 	"/>
	<polygon class="st0" points="95.4,161.7 95.4,161.7 90.8,164.2 90.3,164.5 90.2,164.4 65.5,149.9 65.5,131.9 86.9,137.2 
		87.5,137.4 88.1,137.5 	"/>
	<polygon class="st3" points="65.5,149.9 61.1,184.7 90.9,163.9 	"/>
	<polygon class="st3" points="92.5,113.9 95.4,161.7 86.9,137.2 	"/>
	<polygon class="st1" points="39.7,150.4 65.5,149.9 61.1,184.7 	"/>
	<polygon class="st3" points="13.2,199.9 61.1,184.7 39.7,150.4 0.9,153.3 	"/>
	<polygon class="st4" points="89.2,70 65,90.3 46.4,112.7 92.5,114.4 	"/>
	<polygon class="st0" points="61.1,184.7 90.9,163.9 88.6,181.9 88.6,192.1 68.4,188.1 	"/>
	<polygon class="st0" points="151.1,184.7 121.8,163.9 124.1,181.9 124.1,192.1 144.3,188.1 	"/>
	<polygon class="st2" points="12.7,12.1 89.2,70 76.2,38.5 	"/>
	<path class="st5" d="M12.7,12.1L2.5,43l5.6,33.8L4.2,79l5.6,5.1L5.3,88l6.2,5.6L7.6,97l9,11.2l42.2-12.9
		C79.4,78.8,89.6,70.4,89.2,70C88.8,69.6,63.3,50.3,12.7,12.1z"/>
	<path class="st0" d="M211.2,153.3l-39.2-2.2h-0.2h-25.3v-19.7v-0.5l0.5-17.4v-0.2l0.6-22.3v-0.1c1.8,1.4,3.7,2.9,5.6,4.5l42.2,12.4
		l0.1,0.4L211.2,153.3z"/>
	<path class="st1" d="M147.1,113.2l-26.2,0.6h-1.2l0,0v0.1l0,0l0.1,0.4l0.8,3.8l0,0l4.1,19.1v0.1l0.5-0.1l21.4-5.5l19.1-19.1
		L147.1,113.2z M125.7,136.9l6.2-12.9l14.6,6.8v0.5v0.3L125.7,136.9z"/>
	<polygon class="st2" points="165.7,113.3 146.5,149.3 146.5,131.3 146.9,131 156.2,122.2 	"/>
	<polygon class="st0" points="146.5,131.9 146.5,149.9 122.2,164.3 121.9,164.5 121.9,164.5 121.8,164.5 116.7,161.7 116.9,161.1 
		117.5,159.2 124.1,137.5 124.6,137.4 125.2,137.2 	"/>
	<polygon class="st3" points="151.1,184.7 121.9,164.5 121.9,164.5 121.8,164.5 121.9,164.5 121.9,164.5 122.2,164.3 146.5,149.9 
		146.7,151 	"/>
	<polygon class="st3" points="119.5,113.9 116.7,161.7 125.2,137.2 	"/>
	<polygon class="st1" points="172.4,150.4 146.5,149.9 151.1,184.7 	"/>
	<polygon class="st3" points="198.9,199.9 151.1,184.7 172.4,150.4 211.2,153.3 	"/>
	<polygon class="st4" points="122.9,70 147.1,90.3 165.7,112.7 119.5,114.4 	"/>
	<polygon class="st2" points="199.4,12.1 122.9,70 135.9,38.5 	"/>
	<path class="st5" d="M199.4,12.1L209.5,43l-5.6,33.8l3.9,2.2l-5.6,5.1l4.5,3.9l-6.2,5.6l3.9,3.4l-9,11.2l-42.1-12.9
		c-20.6-16.5-30.8-24.9-30.4-25.3C123.3,69.6,148.8,50.3,199.4,12.1z"/>
	<path class="st0" d="M136.4,38.5l-11.9,30.2l0,0l-0.5,1.2l-0.1,0.9v0.3l-3.1,42.6v0.5l-0.3,3.5v0.4l0,0l-3,40.9v0.4l-0.1,1.5v0.5
		h-22l0,0l-3.1-46.3l0,0V115l-0.1-0.8v-0.6l-3-43.8l0,0L75.7,38.5H136.4z"/>
</g>
</svg>
