<?xml version="1.0" encoding="utf-8"?>
<!-- Generator: Adobe Illustrator 26.1.0, SVG Export Plug-In . SVG Version: 6.00 Build 0)  -->
<svg version="1.1" id="Layer_1" xmlns="http://www.w3.org/2000/svg" xmlns:xlink="http://www.w3.org/1999/xlink" x="0px" y="0px"
	 viewBox="0 0 42 42" style="enable-background:new 0 0 42 42;" xml:space="preserve">
<style type="text/css">
	.st0{fill-rule:evenodd;clip-rule:evenodd;fill:#B6BABF;}
	.st1{fill-rule:evenodd;clip-rule:evenodd;fill:#9BA1AB;}
	.st2{fill-rule:evenodd;clip-rule:evenodd;fill:#838993;}
</style>
<g>
	<polygon class="st0" points="21.1,35.1 21.1,38.8 17.9,38.8 13.9,37 12.5,36 17.7,37.4 17.7,35.5 18.1,35.1 	"/>
	<polygon class="st0" points="29.6,36 28.2,37 24.2,38.8 21,38.8 21,35.1 24,35.1 24.4,35.5 24.4,37.4 	"/>
	<path class="st0" d="M13.3,25.8v3.7H8.5l0,0L1,30l3-8.6v-0.1l8-2.4c0.4-0.3,0.7-0.6,1.1-0.9l0,0l0.1,4.2l0,0l0.1,3.3L13.3,25.8z"/>
	<path class="st1" d="M18.4,22.5L18.4,22.5l-5.2-0.1l-3.5-0.1l3.6,3.6l4.1,1h0.1l0,0l0.9-4.2l0,0V22.5L18.4,22.5L18.4,22.5
		L18.4,22.5L18.4,22.5z M13.3,25.8L13.3,25.8l2.8-1.4l1.2,2.5L13.3,25.8L13.3,25.8z"/>
	<polygon class="st1" points="13.3,25.8 13.3,29.2 9.7,22.4 11.5,24.1 13.2,25.8 	"/>
	<polygon class="st0" points="19,31.6 19,31.6 18.1,32.1 18,32.1 18,32.1 13.3,29.3 13.3,25.9 17.4,26.9 17.5,27 17.6,27 	"/>
	<polygon class="st1" points="13.3,29.3 12.5,36 18.1,32 	"/>
	<polygon class="st1" points="18.4,22.5 19,31.6 17.4,26.9 	"/>
	<polygon class="st1" points="8.4,29.4 13.3,29.3 12.5,36 	"/>
	<polygon class="st1" points="3.4,38.9 12.5,36 8.4,29.4 1,30 	"/>
	<polygon class="st1" points="17.8,14.2 13.2,18 9.7,22.3 18.4,22.6 	"/>
	<polygon class="st0" points="12.5,36 18.1,32 17.7,35.4 17.7,37.4 13.9,36.6 	"/>
	<polygon class="st0" points="29.6,36 24,32 24.4,35.4 24.4,37.4 28.3,36.6 	"/>
	<polygon class="st1" points="3.3,3.1 17.8,14.2 15.3,8.2 	"/>
	<path class="st2" d="M3.3,3.1L1.3,9l1.1,6.4l-0.7,0.4l1.1,1l-0.9,0.7L3,18.6l-0.7,0.6L4,21.4l8-2.5c3.9-3.1,5.9-4.7,5.8-4.8
		C17.7,14.1,12.9,10.4,3.3,3.1z"/>
	<path class="st0" d="M41,30l-7.5-0.4l0,0h-4.8v-3.7v-0.1l0.1-3.3l0,0l0.1-4.2l0,0c0.3,0.3,0.7,0.6,1.1,0.9l8,2.4v0.1L41,30z"/>
	<path class="st1" d="M28.8,22.4l-5,0.1h-0.2l0,0l0,0l0,0v0.1l0.2,0.7l0,0l0.8,3.6l0,0h0.1l4.1-1l3.6-3.6L28.8,22.4z M24.7,26.9
		l1.2-2.5l2.8,1.3v0.1v0.1L24.7,26.9z"/>
	<polygon class="st1" points="32.3,22.4 28.7,29.2 28.7,25.8 28.8,25.8 30.5,24.1 	"/>
	<polygon class="st0" points="28.7,25.9 28.7,29.3 24.1,32.1 24,32.1 24,32.1 24,32.1 23,31.6 23.1,31.5 23.2,31.1 24.4,27 24.5,27 
		24.7,26.9 	"/>
	<polygon class="st1" points="29.6,36 24,32.1 24,32.1 24,32.1 24,32.1 24,32.1 24.1,32.1 28.7,29.3 28.7,29.6 	"/>
	<polygon class="st1" points="23.6,22.5 23,31.6 24.7,26.9 	"/>
	<polygon class="st1" points="33.6,29.4 28.7,29.3 29.6,36 	"/>
	<polygon class="st1" points="38.7,38.9 29.6,36 33.6,29.4 41,30 	"/>
	<polygon class="st1" points="24.2,14.2 28.8,18 32.3,22.3 23.6,22.6 	"/>
	<polygon class="st1" points="38.8,3.1 24.2,14.2 26.7,8.2 	"/>
	<path class="st2" d="M38.8,3.1L40.7,9l-1.1,6.4l0.7,0.4l-1.1,1l0.9,0.7L39,18.6l0.7,0.6L38,21.4L30,19c-3.9-3.1-5.9-4.7-5.8-4.8
		C24.3,14.1,29.1,10.4,38.8,3.1z"/>
	<path class="st0" d="M26.8,8.2l-2.3,5.7l0,0l-0.1,0.2v0.2v0.1l-0.6,8.1v0.1l-0.1,0.7v0.1l0,0l-0.6,7.8v0.1v0.3v0.1H19l0,0l-0.6-8.8
		l0,0l0,0v-0.2v-0.1l-0.6-8.3l0,0l-2.6-6h11.6V8.2z"/>
</g>
</svg>
