<?xml version="1.0" encoding="utf-8"?>
<!-- Generator: Adobe Illustrator 26.1.0, SVG Export Plug-In . SVG Version: 6.00 Build 0)  -->
<svg version="1.1" id="Layer_1" xmlns="http://www.w3.org/2000/svg" xmlns:xlink="http://www.w3.org/1999/xlink" x="0px" y="0px"
	 viewBox="0 0 218.3 218.3" style="enable-background:new 0 0 218.3 218.3;" xml:space="preserve">
<style type="text/css">
	.st0{fill:#FFFFFF;}
</style>
<g>
	<g>
		<path class="st0" d="M59.8,153.3C43.5,138.3,22.1,129.9,0,130V88.3c32.7,0,64.3,12.3,88.3,34.6L59.8,153.3z"/>
		<path class="st0" d="M130,0H88.3c0,48.8-39.5,88.3-88.3,88.3V130C71.8,130,130,71.8,130,0C130,0,130,0,130,0z"/>
	</g>
	<path class="st0" d="M88.3,0H130c0,48.8,39.5,88.3,88.3,88.3V130C146.5,130,88.3,71.8,88.3,0C88.3,0,88.3,0,88.3,0z"/>
	<path class="st0" d="M88.3,218.3H130c0-48.8,39.5-88.3,88.3-88.3V88.3C146.5,88.3,88.3,146.5,88.3,218.3z"/>
	<path class="st0" d="M88.3,122.9c26.6,24.6,41.7,59.2,41.7,95.4H88.3c0-24.7-10.3-48.3-28.5-65L88.3,122.9z"/>
</g>
</svg>
