<?xml version="1.0" encoding="UTF-8" standalone="no"?>
<svg xmlns="http://www.w3.org/2000/svg" width="218.264" height="218.263" viewBox="0 0 218.264 218.263">
  <g>
    <g>
      <path d="M59.776,153.277A87.98,87.98,0,0,0,0,129.966V88.3a129.5,129.5,0,0,1,88.3,34.6Z" fill="#00c8a0"/>
      <path d="M129.967,0H88.3A88.3,88.3,0,0,1,0,88.3v41.669A129.967,129.967,0,0,0,129.967,0Z" fill="#00e3b4"/>
    </g>
    <path d="M88.3,0h41.67a88.3,88.3,0,0,0,88.3,88.3v41.669A129.966,129.966,0,0,1,88.3,0Z" fill="#00c8a0"/>
    <path d="M88.3,218.263h41.67a88.3,88.3,0,0,1,88.3-88.3V88.3A129.967,129.967,0,0,0,88.3,218.263Z" fill="#00e3b4"/>
    <path d="M88.3,122.9a129.615,129.615,0,0,1,41.668,95.366H88.3a88.061,88.061,0,0,0-28.521-64.986Z" fill="#00c8a0"/>
  </g>
</svg>
