<?xml version="1.0" encoding="utf-8"?>
<!-- Generator: Adobe Illustrator 26.1.0, SVG Export Plug-In . SVG Version: 6.00 Build 0)  -->
<svg version="1.1" id="Layer_1" xmlns="http://www.w3.org/2000/svg" xmlns:xlink="http://www.w3.org/1999/xlink" x="0px" y="0px"
	 viewBox="0 0 220 220" style="enable-background:new 0 0 220 220;" xml:space="preserve">
<style type="text/css">
	.st0{fill:#00C8A0;}
	.st1{fill:#00E3B4;}
</style>
<g>
	<g>
		<path class="st0" d="M60.6,154.1c-16.3-15-37.6-23.3-59.8-23.3V89.2c32.7,0,64.3,12.3,88.3,34.6L60.6,154.1z"/>
		<path class="st1" d="M130.8,0.9H89.2c0,48.8-39.5,88.3-88.3,88.3v41.7C72.6,130.8,130.8,72.6,130.8,0.9
			C130.8,0.9,130.8,0.9,130.8,0.9z"/>
	</g>
	<path class="st0" d="M89.2,0.9h41.7c0,48.8,39.5,88.3,88.3,88.3v41.7C147.4,130.8,89.2,72.7,89.2,0.9C89.2,0.9,89.2,0.9,89.2,0.9z"
		/>
	<path class="st1" d="M89.2,219.1h41.7c0-48.8,39.5-88.3,88.3-88.3V89.2C147.4,89.2,89.2,147.4,89.2,219.1z"/>
	<path class="st0" d="M89.2,123.8c26.6,24.6,41.7,59.2,41.7,95.4H89.2c0-24.7-10.3-48.3-28.5-65L89.2,123.8z"/>
</g>
</svg>
