<?xml version="1.0" encoding="utf-8"?>
<!-- Generator: Adobe Illustrator 26.1.0, SVG Export Plug-In . SVG Version: 6.00 Build 0)  -->
<svg version="1.1" id="Layer_1" xmlns="http://www.w3.org/2000/svg" xmlns:xlink="http://www.w3.org/1999/xlink" x="0px" y="0px"
	 viewBox="0 0 92 92" style="enable-background:new 0 0 92 92;" xml:space="preserve">
<style type="text/css">
	.st0{fill:#FFFFFF;}
</style>
<path class="st0" d="M73.1,5.6L54.4,33.5c-1.3,1.9,1.2,4.2,3,2.6L75.9,20c0.5-0.4,1.2-0.1,1.2,0.6v50.3c0,0.7-0.9,1-1.3,0.5l-56-67
	C18,2.2,15.4,1,12.5,1h-2C5.3,1,1,5.3,1,10.6v70.8c0,5.3,4.3,9.6,9.6,9.6c3.3,0,6.4-1.7,8.2-4.6l18.8-27.9c1.3-1.9-1.2-4.2-3-2.6
	L16,71.9c-0.5,0.4-1.2,0.1-1.2-0.6V21.1c0-0.7,0.9-1,1.3-0.5l56,67c1.8,2.2,4.5,3.4,7.3,3.4h2c5.3,0,9.6-4.3,9.6-9.6V10.6
	C91,5.3,86.7,1,81.4,1C78.1,1,74.9,2.7,73.1,5.6z"/>
</svg>
