<svg width="128" height="128" viewBox="0 0 128 128" fill="none" xmlns="http://www.w3.org/2000/svg"><path d="M76.547 82.8382L45.1545 76.2783C45.023 76.5325 44.8768 76.7787 44.7165 77.0158L73.295 118.704L75.019 116.982L79.881 86.7476C79.0592 86.4005 78.3299 85.8662 77.751 85.1874C77.1722 84.5086 76.7599 83.704 76.547 82.8377V82.8382ZM65.095 41.8018C63.919 43.6058 61.889 44.7998 59.577 44.7998C59.221 44.7998 58.875 44.7638 58.535 44.7098L44.2185 67.11L82.4675 50.6502C82.4555 50.4962 82.4215 50.3522 82.4215 50.1942C82.4215 49.8722 82.4655 49.5602 82.5175 49.2522L65.095 41.8018ZM66.135 37.7199L84.6675 45.6438C85.258 45.1822 85.9335 44.8411 86.6555 44.6398L89.7015 25.7001L78.097 14.0958L65.035 34.5345C65.6752 35.4814 66.0545 36.5797 66.135 37.7199ZM104.967 40.9659L93.3375 29.334L90.8095 45.0378C91.4504 45.36 92.026 45.7981 92.5075 46.3298L104.967 40.9659ZM77.103 78.7018C77.5581 77.8755 78.212 77.1757 79.0054 76.6656C79.7988 76.1554 80.7069 75.851 81.6475 75.7798L84.9875 55.0061C84.7255 54.8321 84.4915 54.6241 84.2615 54.4101L45.7925 70.9659C45.8905 71.3679 45.9585 71.7779 45.9905 72.2039L77.103 78.7018ZM108.135 44.1358L94.6795 49.9257L127.88 64.12L128 64L108.135 44.1358ZM84.0895 86.8101L80.0455 111.952L103.527 88.4701L86.6135 84.9382C85.9648 85.787 85.0901 86.4358 84.0895 86.8101ZM38.4465 80.3462C37.5965 80.3462 36.7825 80.2002 36.0205 79.9418L28.2205 92.1481L25.2065 89.1361L32.5945 77.5763C32.4118 77.3495 32.2415 77.113 32.0845 76.8678L18.7005 82.6302L15.528 79.4578L30.178 73.1519L3.6925 67.6239L0.07 64L1.216 62.854L31.7585 69.2299C32.1097 68.5636 32.5595 67.9541 33.0925 67.4219L18.2685 45.7998L21.2625 42.8058L36.75 65.398C37.3062 65.2688 37.875 65.2024 38.446 65.2C39.1 65.2 39.734 65.292 40.34 65.448L54.8325 42.7718C53.6526 41.5479 52.9937 39.9139 52.9945 38.2139C52.9945 37.6939 53.0605 37.1899 53.1745 36.7059L35.0945 28.976L38.266 25.8041L55.396 33.13C56.2646 32.4141 57.3029 31.9337 58.4109 31.7351C59.5188 31.5365 60.6593 31.6264 61.7225 31.996L75.0845 11.0838L64.001 0L0 64L64.001 128L70.299 121.702L41.5065 79.6978C40.5429 80.1249 39.5006 80.3458 38.4465 80.3462ZM89.0615 55.9016L85.6635 77.0198C86.2573 77.497 86.7491 78.0887 87.1095 78.7598C87.4699 79.4309 87.6917 80.1677 87.7615 80.9262L107.048 84.9522L124.707 67.2925L92.8315 53.6642C91.9194 54.8784 90.5643 55.6824 89.0615 55.9016Z" fill="#9ba1ab"/></svg>
