<?xml version="1.0" encoding="utf-8"?>
<!-- Generator: Adobe Illustrator 26.1.0, SVG Export Plug-In . SVG Version: 6.00 Build 0)  -->
<svg version="1.1" id="Layer_1" xmlns="http://www.w3.org/2000/svg" xmlns:xlink="http://www.w3.org/1999/xlink" x="0px" y="0px"
	 viewBox="0 0 90 90" style="enable-background:new 0 0 90 90;" xml:space="preserve">
<style type="text/css">
	.st0{fill:#6f7580;}
</style>
<path class="st0" d="M45,0C20.2,0,0,20.2,0,45s20.2,45,45,45s45-20.2,45-45S69.9,0,45,0z M22.2,46.5l0.2-0.3l11.7-18.3
	c0.2-0.3,0.6-0.2,0.7,0c2,4.4,3.7,9.8,2.9,13.2c-0.3,1.4-1.3,3.3-2.3,5c-0.1,0.2-0.3,0.5-0.4,0.7c-0.1,0.1-0.2,0.2-0.3,0.2h-12
	C22.2,47.1,22,46.8,22.2,46.5z M74.4,52.8c0,0.2-0.1,0.3-0.2,0.4c-0.9,0.4-4,1.8-5.3,3.6c-3.3,4.6-5.8,11.1-11.4,11.1H34
	c-8.3,0-15-6.8-15-15.1v-0.3c0-0.2,0.2-0.4,0.4-0.4h13.1c0.3,0,0.5,0.2,0.4,0.5c-0.1,0.9,0.1,1.7,0.5,2.5c0.8,1.6,2.4,2.6,4.1,2.6
	h6.5v-5.1h-6.4c-0.3,0-0.5-0.4-0.3-0.6c0.1-0.1,0.2-0.2,0.2-0.3c0.6-0.9,1.5-2.2,2.3-3.7c0.6-1,1.1-2.1,1.6-3.2
	c0.1-0.2,0.2-0.4,0.2-0.6c0.1-0.4,0.2-0.7,0.4-1c0.1-0.3,0.2-0.6,0.2-0.8c0.2-0.9,0.3-1.9,0.3-3c0-0.4,0-0.8-0.1-1.2
	c0-0.4-0.1-0.9-0.1-1.3c0-0.4-0.1-0.8-0.2-1.2c-0.1-0.6-0.2-1.2-0.4-1.8l-0.1-0.2c-0.1-0.4-0.2-0.8-0.3-1.2
	c-0.4-1.3-0.8-2.5-1.2-3.6c-0.2-0.5-0.3-0.9-0.5-1.3c-0.3-0.7-0.5-1.3-0.8-1.8c-0.1-0.3-0.2-0.5-0.4-0.7c-0.1-0.3-0.2-0.5-0.4-0.8
	c-0.1-0.2-0.2-0.4-0.3-0.6L37,22.1c-0.1-0.2,0.1-0.4,0.3-0.4l5,1.3h0l0.7,0.2l0.7,0.2l0.3,0.1v-2.9c0-1.4,1.1-2.6,2.5-2.6
	c0.7,0,1.3,0.3,1.8,0.8c0.5,0.5,0.7,1.1,0.7,1.8v4.4l0.5,0.2c0,0,0.1,0,0.1,0.1c0.1,0.1,0.3,0.2,0.6,0.4c0.2,0.2,0.4,0.3,0.6,0.5
	c0.5,0.4,1,0.9,1.7,1.5c0.2,0.1,0.3,0.3,0.5,0.4c0.8,0.8,1.7,1.6,2.6,2.6c0.2,0.3,0.5,0.5,0.7,0.8c0.2,0.3,0.5,0.6,0.7,0.9
	c0.3,0.4,0.6,0.8,0.9,1.2c0.1,0.2,0.3,0.4,0.4,0.6c0.3,0.5,0.7,1.1,1,1.6c0.1,0.3,0.2,0.5,0.4,0.8c0.3,0.7,0.6,1.5,0.8,2.2
	c0.1,0.2,0.1,0.3,0.1,0.5v0c0.1,0.2,0.1,0.5,0.1,0.7c0.1,0.8,0,1.5-0.1,2.3c-0.1,0.3-0.2,0.6-0.3,1c-0.1,0.3-0.2,0.6-0.4,1
	c-0.3,0.6-0.6,1.3-1,1.9c-0.1,0.2-0.3,0.5-0.4,0.7c-0.2,0.2-0.3,0.5-0.5,0.7c-0.2,0.3-0.4,0.6-0.6,0.8c-0.2,0.3-0.4,0.5-0.6,0.8
	c-0.3,0.4-0.6,0.7-0.9,1c-0.2,0.2-0.4,0.4-0.6,0.6c-0.2,0.2-0.4,0.4-0.6,0.6c-0.3,0.3-0.6,0.5-0.8,0.8l-0.5,0.5
	c-0.1,0.1-0.2,0.1-0.3,0.1H49v5.1h5c1.1,0,2.2-0.4,3-1.1c0.3-0.2,1.6-1.3,3.1-3c0-0.1,0.1-0.1,0.2-0.1l13.7-3.9
	c0.2-0.1,0.5,0.1,0.5,0.4V52.8z"/>
</svg>
