<?xml version="1.0" encoding="utf-8"?>
<!-- Generator: Adobe Illustrator 26.1.0, SVG Export Plug-In . SVG Version: 6.00 Build 0)  -->
<svg version="1.1" id="Layer_1" xmlns="http://www.w3.org/2000/svg" xmlns:xlink="http://www.w3.org/1999/xlink" x="0px" y="0px"
	 viewBox="0 0 40 40" style="enable-background:new 0 0 40 40;" xml:space="preserve">
<style type="text/css">
	.st0{fill:#6f7580;}
</style>
<g>
	<path class="st0" d="M29.9,13.4c-0.7-0.4-1.6-0.4-2.4,0l-5.6,3.3l-3.8,2.1l-5.5,3.3c-0.7,0.4-1.6,0.4-2.4,0l-4.3-2.6
		c-0.7-0.4-1.2-1.2-1.2-2.1v-5c0-0.8,0.4-1.6,1.2-2.1l4.3-2.5c0.7-0.4,1.6-0.4,2.4,0l4.3,2.6c0.7,0.4,1.2,1.2,1.2,2.1v3.3l3.8-2.2
		v-3.4c0-0.8-0.4-1.6-1.2-2.1l-8-4.7C11.9,3,11,3,10.2,3.5L2.1,8.2c-0.8,0.4-1.2,1.2-1.2,2v9.4c0,0.8,0.4,1.6,1.2,2.1l8.1,4.7
		c0.7,0.4,1.6,0.4,2.4,0l5.5-3.2l3.8-2.2l5.5-3.2c0.7-0.4,1.6-0.4,2.4,0l4.3,2.5c0.7,0.4,1.2,1.2,1.2,2.1v5c0,0.8-0.4,1.6-1.2,2.1
		L29.9,32c-0.7,0.4-1.6,0.4-2.4,0l-4.3-2.5c-0.7-0.4-1.2-1.2-1.2-2.1v-3.2l-3.8,2.2v3.3c0,0.8,0.4,1.6,1.2,2.1l8.1,4.7
		c0.7,0.4,1.6,0.4,2.4,0l8.1-4.7c0.7-0.4,1.2-1.2,1.2-2.1v-9.5c0-0.8-0.4-1.6-1.2-2.1L29.9,13.4z"/>
</g>
</svg>
