<?xml version="1.0" encoding="utf-8"?>
<!-- Generator: Adobe Illustrator 28.0.0, SVG Export Plug-In . SVG Version: 6.00 Build 0)  -->
<svg version="1.1" id="Layer_1" xmlns="http://www.w3.org/2000/svg" xmlns:xlink="http://www.w3.org/1999/xlink" x="0px" y="0px"
	 viewBox="0 0 128 128" style="enable-background:new 0 0 128 128;" xml:space="preserve">
<style type="text/css">
	.st0{fill-rule:evenodd;clip-rule:evenodd;fill:#6F7580;}
</style>
<path class="st0" d="M114.5,21.5c-27,0-53.9,0.1-80.9-0.1c-6.5-0.1-9.5,2.6-10.8,8.7c-5.1,22.7-10.5,45.3-15.7,68
	c-1.5,6.7-0.3,8.3,6.5,8.3c13.5,0.1,27,0,40.4,0c13,0,26,0,39.1,0c8.8,0,10.9-1.6,12.8-9.9c5-22.2,10-44.5,14.9-66.8
	C122.4,23,121.3,21.6,114.5,21.5z M37.9,96.4c-3,2.2-5.9,2.8-8.3-0.5c-2.7-3.6-0.2-5.8,2.6-7.8c10-7.3,19.9-14.5,29.8-21.9
	c1.4-1,3.4-1.6,3.6-4.1c-0.9-1.1-1.9-2.3-2.9-3.4c-6-6.6-11.9-13.3-17.9-19.8c-2.8-3-3.7-5.9-0.3-8.8c3.3-2.9,6.5-2.6,9.6,0.7
	c8.4,9.3,16.8,18.7,25.4,27.9c3.2,3.4,2.5,5.8-1.1,8.3C64.7,76.7,51.3,86.5,37.9,96.4z M82.1,97.1c-4.1,0.2-8.2,0.1-12.2,0.1l0,0
	c-3.6,0-7.3,0.1-10.9,0c-2.9-0.1-4.6-1.7-4.6-4.8c0-2.9,1.5-5,4.4-5.1c7.9-0.2,15.9-0.2,23.8,0c2.5,0.1,4.4,1.7,4.4,4.3
	C86.9,94.6,85.3,96.9,82.1,97.1z"/>
</svg>
