<?xml version="1.0" encoding="utf-8"?>
<!-- Generator: Adobe Illustrator 28.0.0, SVG Export Plug-In . SVG Version: 6.00 Build 0)  -->
<svg version="1.1" id="Layer_1" xmlns="http://www.w3.org/2000/svg" xmlns:xlink="http://www.w3.org/1999/xlink" x="0px" y="0px"
	 viewBox="0 0 128 128" style="enable-background:new 0 0 128 128;" xml:space="preserve">
<style type="text/css">
	.st0{display:none;fill-rule:evenodd;clip-rule:evenodd;fill:#2671BE;}
	.st1{fill-rule:evenodd;clip-rule:evenodd;fill:#2671BE;}
	.st2{fill-rule:evenodd;clip-rule:evenodd;fill:#FDFDFE;}
	.st3{fill-rule:evenodd;clip-rule:evenodd;fill:#FCFDFD;}
</style>
<path class="st0" d="M-27,155.1c0-58.8,0.1-117.7-0.1-176.5c0-4.2,0.9-5.1,5.1-5.1c57.2,0.2,114.4,0.2,171.6,0
	c4.2,0,5.1,0.9,5.1,5.1c-0.2,58.8-0.1,117.7-0.1,176.5c-2,1.2-4.1,0.7-6.2,0.7c-56.4,0-112.7,0-169.1,0
	C-22.9,155.8-25,156.3-27,155.1z"/>
<g>
	<path class="st1" d="M54.1,106.5c-13.5,0-27,0.1-40.4,0c-6.8,0-8.1-1.7-6.5-8.3c5.2-22.7,10.6-45.3,15.7-68
		c1.4-6.1,4.3-8.8,10.8-8.7c27,0.3,53.9,0.1,80.9,0.1c6.8,0,7.9,1.5,6.4,8.3C116,52.1,111,74.4,106,96.6c-1.9,8.3-4.1,9.9-12.8,9.9
		C80.1,106.6,67.1,106.6,54.1,106.5z"/>
	<path class="st2" d="M65.5,62.1c-0.9-1.1-1.9-2.3-2.9-3.4c-6-6.6-11.9-13.3-17.9-19.8c-2.8-3-3.7-5.9-0.3-8.8
		c3.3-2.9,6.5-2.7,9.6,0.7c8.4,9.3,16.8,18.7,25.4,27.9c3.2,3.4,2.4,5.8-1.1,8.3c-13.5,9.8-26.9,19.7-40.3,29.6
		c-3,2.2-5.9,2.8-8.3-0.5c-2.7-3.6-0.2-5.8,2.6-7.8c10-7.3,19.9-14.5,29.8-21.9C63.3,65.2,65.3,64.6,65.5,62.1z"/>
	<path class="st3" d="M69.8,97.2c-3.6,0-7.3,0.1-10.9,0c-2.9-0.1-4.6-1.7-4.6-4.8c0-2.9,1.5-5,4.4-5.1c7.9-0.2,15.9-0.2,23.8,0
		c2.5,0,4.4,1.7,4.4,4.3c0,3-1.6,5.4-4.8,5.5C78,97.3,73.9,97.1,69.8,97.2C69.8,97.2,69.8,97.2,69.8,97.2z"/>
</g>
</svg>
