<?xml version="1.0" encoding="UTF-8"?>
<svg id="uuid-5d3b5834-76f7-444a-b558-eebd4e2b5ae4" data-name="Layer 1" xmlns="http://www.w3.org/2000/svg" viewBox="0 0 800 800">
  <path d="M309.16,648.9l-35.03-.57c9.51.27,26.86-1.51,35.03.57Z" style="fill: #6f7580;"/>
  <path d="M610.88,561.89c-.16-1.14.75-1.62,1.13-2.26.12,1.14-.69,1.6-1.13,2.26Z" style="fill: #6f7580;"/>
  <path d="M608.62,565.84c.04-.9.37-1.73,1.13-2.26-.31.51-.62,1.4-1.13,2.26Z" style="fill: #6f7580;"/>
  <path d="M606.36,569.8l.09-.79.47-.34c-.15.26-.31.69-.57,1.13Z" style="fill: #6f7580;"/>
  <path d="M604.1,573.75l.09-.79.47-.34c-.16.29-.32.69-.57,1.13Z" style="fill: #6f7580;"/>
  <path d="M601.84,577.71l.09-.79.47-.34c-.17.31-.33.7-.57,1.13Z" style="fill: #6f7580;"/>
  <g>
    <g>
      <path d="M322.16,293.22c-.35,1.97-4.75,4.78-6.23,6.2-17.93,17.16-36.3,33.79-54.21,50.88-2.21,2.11-2.64,2.41-4.53,4.78-5.73,7.17-15.83,15.18-22.62,21.74-9.21,8.91-17.22,16.22-24.19,27.23-1.64,2.58-2.72,6.27-5.17,8.1.12-9.88-.16-19.8-.03-29.69.69-51.92,1.74-103.98,2.31-155.89.15-13.48-.84-28-.05-41.3.16-2.8,1.02-5.9,1.15-8.73,26.6-32.01,53.16-64.39,79.93-96.06.57-.67.65-1.85,1-2.15.31-.28.78-.04,1-.11.08.1.17.19.25.29.53.75.69,2.03.83,2.87,2.03,12.32,3.37,24.82,5.19,37.18,8.59,58.19,17.52,116.39,25.37,174.66Z" style="fill: #6f7580;"/>
      <g>
        <path d="M359.45,460.74c-30.27-31.33-60.37-62.96-90.67-94.37-3.73-3.87-7.6-7.68-11.59-11.29l1.83.66c33.87,32.32,67.93,69.31,100.43,105Z" style="fill: #6f7580;"/>
        <path d="M257.19,355.08l-.48-1.21c21.68-20.86,43.13-41.09,64.35-60.69-10.03-70.96-20.68-143.78-31.01-213.21-.03-.21-.06-.42-.09-.63l.56-1.12c.07-.02.12-.42.39-.49.9-.24,2.94,2.69,3.86,3.3,46.95,54.59,95.17,108.15,142.65,162.18-2.48-2.38-4.94-4.77-7.35-7.22s-4.8-4.9-7.08-7.46c-43.95-49.47-90.37-102.3-132.22-150.02.53.75.69,2.03.83,2.87,2.03,12.32,3.37,24.82,5.19,37.18,8.59,58.19,17.52,116.39,25.37,174.66-.35,1.97-4.75,4.78-6.23,6.2-17.93,17.16-36.3,33.79-54.21,50.88-2.21,2.11-2.64,2.41-4.53,4.78Z" style="fill: #6f7580;"/>
        <path d="M512.67,618.79c.12-.13.28-.26.47-.4,0,.01.01.03.02.06.06.13.09.25.11.36v.02c.07.46-.21.72-.83.76-.04,0-.08,0-.13,0-.28,0-.62-.03-1.03-.1-.02-.02-.04-.05-.07-.07-45.47-47.38-92.21-95.94-140.22-145.67l-11.54-13.02c44.26,45.81,88.8,91.4,133.08,137.29,5.87,6.09,11.82,12.38,17.48,18.68.35.38,1.79,2.24,2.66,2.08Z" style="fill: #6f7580;"/>
        <path d="M537.26,357.63c0,.63-.81,1.48-1.23,1.99-3.4,4.16-8.61,8.39-12.46,12.4-8.52,8.9-17.2,17.94-25.39,27.15-1.11,1.25-4.01,3.38-4.26,4.79-.3,1.72.46,2.99.58,4.51,5.46,66.73,10.61,133.98,17.49,200.61.3,2.83.46,6.72,1.15,9.31-1.17-.31-1.73-1.29-1.68-2.95-6.76-70.24-12.99-140.67-18.7-211.31l.43-1.36c14.58-15.72,28.91-30.78,42.97-45.18-33.08-36.43-65.8-74.18-98.17-113.25,31.68,36.05,63.22,72.22,94.92,108.2,1,1.12,4.35,3.83,4.35,5.09Z" style="fill: #6f7580;"/>
        <g>
          <path d="M635.48,744.37l-300.16-94.78c-8.04-1.06-18.55,1.24-26.15-.69-8.57-.49-17.16-.71-25.76-.68-3.09,0-6.17.04-9.27.11-26.35-.76-53.12-15.65-68.93-36.45-3.89-5.11-7.02-10.75-10.28-16.27-36.29-61.54-70.59-124.29-106.79-185.9-13.86-27.58-13.58-60.6,1.13-87.78.9-1.66,7.36-12.77,8.02-13.18,4.13-2.6,6.69-7.93,10.73-11.02,33.38-40.52,67.03-80.82,100.57-121.19l1.04,1.26-1.03,7c-.6,74.23-1.32,148.96-2.15,224.19,6.97-12.51,16.28-23.69,27.93-33.55,7.3-6.31,14.27-12.93,20.92-19.85l1.89-.51,1.83.66c33.87,32.32,67.93,69.31,100.43,105l1.11,2.43-1.95,180.11c40.11-5.49,80.5-11.86,121.2-19.1,2.66-.82,4.92-.68,6.77.42l1.69-.56c.82-.62,1.68-1.24,2.7-1.46,3.64-.78,16.05-3.22,20.24-3.15.41,0,.73.03.97.09.04.01.09.02.13.04.04.01.09.02.13.03.43.13.84.31,1.26.49.94,1.96,5.83,5.96,7.64,7.9,29.01,31.05,59.81,60.45,89.25,90.99l11.88,10.16c1.25.23.83-.55.84-1.41.15-7.7.06-16.13.54-23.75.07-1.03-.2-2.13,1.16-2.52,5.87,12.21,12.35,24.19,17.97,36.55.86,4.7-3.21,7.17-7.5,6.37Z" style="fill: #6f7580;"/>
          <path d="M488.27,624.04l-.37.48c-.43.16-.88.07-1.33.09l.37-.48c.43-.18.9-.05,1.33-.09Z" style="fill: #6f7580;"/>
          <path d="M513.7,620.08c-8.5,1.08-16.9,3.07-25.43,3.96l-1.69.56c-4.31.21-8.91,1.07-13.22,1.75-29.81,4.7-59.55,10.1-89.39,14.58-7.48,1.13-16.93,3-24.24,3.48-.74.04-1.85.1-2.29-.56l2.01-183.11c44.26,45.81,88.8,91.4,133.08,137.29,5.87,6.09,11.82,12.38,17.48,18.68.35.38,1.79,2.24,2.66,2.08.19-.03.35-.16.47-.4,0,.01.01.03.02.06.02.08.06.21.11.36v.02c.16.49.4,1.19.43,1.25Z" style="fill: #6f7580;"/>
        </g>
      </g>
    </g>
    <g>
      <path d="M721,360.96c-2.83,21-13.61,38.63-26.96,54.4-28,47.66-53.49,96.95-82.03,144.26l-1.13,2.26c-.38.59-.73,1.05-1.13,1.7l-.36.71-.04.1-.73,1.45c-.55.94-1.14,1.87-1.69,2.82l-.15.3-.42.83c-.53.94-1.15,1.87-1.69,2.83l-.26.51-.03.07-.28.55c-.52.93-1.16,1.87-1.69,2.83-.08.13-.15.29-.23.46l-.03.06-.31.61c-6.5,11.59-12.78,23.33-19.61,34.74,13.23,27.52,26.82,54.88,40.06,82.39.98,2.03,1.75,4.59,2.72,6.61-.32,8.64-.54,18.39-.56,27.36-.23.98-.78,1.22-1.68,1.44-.82.19-11.58-9.06-12.97-10.46-32.13-32.41-65.57-66.28-96.55-98.3l.45-1.41c-.86.07-1.33-.13-1.39-.48,0,0-.01-.03,0-.04-.03-.21.09-.48.36-.77.12-.13.28-.26.47-.4-1.17-.31-1.73-1.29-1.68-2.95-6.76-70.24-12.99-140.67-18.7-211.31l.43-1.36c14.58-15.72,28.91-30.78,42.97-45.18-33.08-36.43-65.8-74.18-98.17-113.25l-.57-1.13c-2.48-2.38-4.94-4.77-7.35-7.22s-4.8-4.9-7.08-7.46c-43.95-49.47-90.37-102.3-132.22-150.02-.08-.1-.17-.19-.25-.29-.08.63-.24,1.21-.47,1.75-.17.42-.38.82-.63,1.19l-68.56,82.36c-3.91,4.51-8,8.85-12.27,13.02-33.94,43.77-72.39,89.16-106.62,129.5-1.45,2.23-3.02,3.14-4.68,2.71.96-2.22,2.05-4.58,3.16-6.73,34.73-67.32,70.84-133.96,105.42-201.38,15.82-26.09,44.64-43.43,75.3-45.05,8.49-.44,17.05.51,25.43.62,50.84.67,101.81.74,152.59,2.22,23.8.7,48.6-1.65,72.35.54,32.45,2.99,57.31,20.84,73.59,48.45,22.76,38.6,42.11,79.92,65.49,117.86,12.5,24.53,26.05,48.62,38.31,73.29,10.6,21.35,15.34,38.19,12.07,62.39Z" style="fill: #6f7580;"/>
      <path d="M437.99,244.34l-.57-1.13c.59.66.53,1.08.57,1.13Z" style="fill: #6f7580;"/>
    </g>
  </g>
</svg>