<svg xmlns="http://www.w3.org/2000/svg" xmlns:xlink="http://www.w3.org/1999/xlink" width="511.226" height="179.651" viewBox="0 0 511.226 179.651">
  <defs>
    <clipPath id="clip-rails">
      <rect width="511.226" height="179.651"/>
    </clipPath>
  </defs>
  <g id="rails" clip-path="url(#clip-rails)">
    <g id="rails-2" data-name="rails">
      <path id="Path_1" data-name="Path 1" d="M219.115,150.634s22.569-1.935,22.569-31.081S214.344,87.7,214.344,87.7H165.078v91.954H189.84V157.469l21.409,22.182h36.627ZM209.572,131.8H189.84V110.783H209.7s5.546,2.063,5.546,10.446S209.572,131.8,209.572,131.8Zm93.243-43.462H277.667c-17.926,0-23.988,16.25-23.988,23.988v67.321h25.149V163.53h23.6v16.121H326.8V112.33C326.8,92.727,309.006,88.343,302.815,88.343Zm-.387,49.137H278.7V115.168s0-5.03,7.867-5.03h8.641c6.964,0,7.093,5.03,7.093,5.03v22.311Zm35.853-49.137h26.18v91.309h-26.18Zm62.936,67.708V88.343H375.166v91.309h61.259v-23.6Zm43.849.258v23.343h42.172c8.641,0,23.472-6.319,23.988-23.988v-9.028c0-15.089-12.381-23.988-23.988-23.988H466.217V111.815h41.656V88.343h-39.98c-10.317,0-24.117,8.512-24.117,24.375v8.125c0,15.863,13.671,23.988,24.117,23.988,29.018.129-6.964,0,19.861,0v11.349Z" fill="#c00"/>
      <path id="Path_2" data-name="Path 2" d="M9.028,179.522H110.912s-19.474-88.858,45.01-124.84c14.057-6.835,58.809-32.371,132.062,21.8C290.305,74.543,292.5,73,292.5,73S225.435,6.061,150.763,13.542C113.233,16.895,67.063,51.071,39.98,96.21S9.028,179.522,9.028,179.522ZM221.308,20.764l.516-8.641c-1.161-.645-4.385-2.192-12.51-4.514l-.516,8.512C213.054,17.54,217.181,19.087,221.308,20.764ZM209.056,48.1l-.516,8.125a71.918,71.918,0,0,1,12.768,1.548l.516-8A91.327,91.327,0,0,0,209.056,48.1ZM161.338,7.867h1.29L160.048,0a102.9,102.9,0,0,0-12.381.774l2.45,7.609A108.878,108.878,0,0,1,161.338,7.867Zm6.19,47.46,2.966,8.9a81.592,81.592,0,0,1,11.22-4.514L178.878,51.2A93.57,93.57,0,0,0,167.528,55.327ZM108.977,21.409l-5.8-8.9c-3.224,1.677-6.577,3.482-10.059,5.546l5.932,9.028C102.4,25.02,105.624,23.085,108.977,21.409Zm26.438,58.035,6.19,9.286a71.611,71.611,0,0,1,7.609-9.157l-5.8-8.77A71.348,71.348,0,0,0,135.416,79.444Zm-18.7,41.527,10.446,8.254a103,103,0,0,1,2.708-15.089l-9.286-7.351A122.62,122.62,0,0,0,116.715,120.971ZM60.228,59.712l-9.157-8c-3.353,3.224-6.577,6.448-9.544,9.673l9.93,8.512A130.61,130.61,0,0,1,60.228,59.712ZM21.28,117.36,6.448,111.944C4,117.489,1.29,123.938,0,127.42l14.831,5.417C16.508,128.451,19.216,122.132,21.28,117.36Zm93.5,36.369a131.019,131.019,0,0,0,1.548,16.25l15.476,5.546a170.46,170.46,0,0,1-3.1-16.766Z" fill="#c00"/>
    </g>
  </g>
</svg>
