<svg version="1.1" id="Layer_1" xmlns="http://www.w3.org/2000/svg" xmlns:xlink="http://www.w3.org/1999/xlink" x="0px" y="0px"
	 width="100%" viewBox="0 0 224 224" enable-background="new 0 0 224 224" xml:space="preserve">
<path fill="#000000" opacity="1.000000" stroke="none" 
	d="
M130.000000,225.000000 
	C86.666672,225.000000 43.833340,225.000000 1.000006,225.000000 
	C1.000004,150.333344 1.000004,75.666679 1.000002,1.000016 
	C75.666656,1.000010 150.333313,1.000010 224.999969,1.000005 
	C224.999985,75.666649 224.999985,150.333298 225.000000,224.999969 
	C193.500000,225.000000 162.000000,225.000000 130.000000,225.000000 
M173.006607,32.990372 
	C173.006607,39.577793 173.006607,46.165215 173.006607,52.847675 
	C180.366943,52.847675 187.155975,52.847675 194.822800,52.966084 
	C195.214722,49.729206 195.909393,46.495628 195.944748,43.254860 
	C196.078568,30.989183 195.997711,30.907406 183.852524,31.038366 
	C180.280457,31.076883 176.714828,31.715599 173.006607,32.990372 
M31.055714,159.529312 
	C31.352425,159.630554 31.649136,159.731781 32.880260,159.974670 
	C35.016563,159.982880 37.158817,160.097015 39.287952,159.977509 
	C43.911514,159.718002 48.528374,159.339172 53.892513,158.571869 
	C53.873886,132.073395 53.855255,105.574905 53.968918,78.289474 
	C56.997082,72.681625 58.989113,66.047081 63.293156,61.703495 
	C69.962433,54.972939 79.086700,52.746532 88.760132,52.938354 
	C100.190796,53.165031 111.631477,52.887058 123.923714,52.930283 
	C124.225189,46.192432 124.616417,39.455235 124.665512,32.715546 
	C124.669640,32.148483 122.379890,31.069626 121.152184,31.064236 
	C106.757286,31.001024 92.361687,31.097818 77.280045,31.240816 
	C63.572906,32.950729 51.750725,38.658562 42.741035,49.094509 
	C36.686260,56.107765 33.043060,64.633652 30.965483,74.700157 
	C31.014856,76.555138 31.064230,78.410110 30.972010,80.502960 
	C30.972010,80.502960 31.042877,80.770546 30.263334,81.234482 
	C30.180153,106.683464 30.091448,132.132431 30.053905,157.581482 
	C30.053164,158.084091 30.652105,158.587601 30.981846,159.022766 
	C30.981846,159.022766 30.913292,159.027771 31.055714,159.529312 
M158.826004,52.996128 
	C159.384949,45.703697 159.943878,38.411266 160.540527,30.626875 
	C151.917450,31.052145 144.551285,31.415424 137.034500,32.732971 
	C137.024292,38.013065 137.128815,43.296825 136.960083,48.571850 
	C136.861771,51.644505 137.733322,53.178604 141.119339,53.043507 
	C146.719482,52.820061 152.331558,52.894825 158.826004,52.996128 
M30.013216,192.683380 
	C31.733692,193.802048 33.378613,195.712952 35.189304,195.885635 
	C39.955807,196.340210 44.803810,195.856918 49.600807,196.105331 
	C52.623245,196.261856 53.886738,194.839630 53.960266,192.236130 
	C54.105362,187.098709 54.233906,181.937073 53.849941,176.824432 
	C53.748478,175.473373 51.807438,173.225250 50.617474,173.162399 
	C43.882202,172.806808 37.118465,172.990433 30.388235,172.990433 
	C30.388235,179.578949 30.388235,185.771896 30.013216,192.683380 
M159.965622,175.198181 
	C159.477661,174.582764 158.972672,173.419525 158.504288,173.434082 
	C151.466492,173.652954 144.433502,174.026886 137.015808,174.382767 
	C137.015808,180.643967 136.820679,186.778397 137.191818,192.878372 
	C137.260361,194.005112 139.558182,195.798401 140.929382,195.899765 
	C145.896774,196.266937 150.914078,195.891449 155.900101,196.097366 
	C159.356949,196.240128 160.147522,194.654068 160.043259,191.573837 
	C159.868790,186.418701 159.993484,181.253433 159.965622,175.198181 
M65.997566,189.338455 
	C66.574806,191.843140 64.183235,195.918961 69.349968,196.018478 
	C74.837303,196.124191 80.331589,196.139359 85.814781,195.954880 
	C86.872345,195.919312 88.773048,194.807251 88.794472,194.143661 
	C89.015564,187.295425 88.930260,180.437332 88.930260,173.944595 
	C80.727295,173.944595 73.547165,173.944595 65.997543,173.944595 
	C65.997543,179.132568 65.997543,183.754959 65.997566,189.338455 
M191.242752,88.991318 
	C193.583511,89.003395 196.104492,89.386208 196.057693,85.742393 
	C195.991516,80.592453 196.172607,75.435059 195.938751,70.294914 
	C195.887772,69.174438 194.563797,67.197388 193.769836,67.168633 
	C186.886032,66.919312 179.989365,67.024963 173.008163,67.024963 
	C173.008163,73.434875 173.140854,79.086815 172.957428,84.728462 
	C172.850647,88.012665 174.116623,89.176430 177.335449,89.037315 
	C181.647415,88.850975 185.973511,88.991432 191.242752,88.991318 
M180.566254,138.008331 
	C178.141174,138.008331 175.716095,138.008331 173.011581,138.008331 
	C173.011581,144.584656 172.813095,150.551041 173.173660,156.483414 
	C173.248672,157.717957 175.327713,159.742661 176.595917,159.833725 
	C181.883026,160.213394 187.228912,160.212891 192.515976,159.833160 
	C193.765884,159.743408 195.782120,157.712555 195.882248,156.450546 
	C196.275101,151.499496 196.275452,146.480331 195.880920,141.529541 
	C195.780960,140.275375 193.791565,138.343323 192.481812,138.173035 
	C188.888748,137.705872 185.195465,138.009689 180.566254,138.008331 
M100.988586,190.299866 
	C101.284065,192.673431 99.775536,196.052063 104.308128,196.016022 
	C110.130524,195.969727 115.963219,196.177002 121.767967,195.853348 
	C122.898254,195.790329 124.777542,193.847992 124.847122,192.684891 
	C125.174362,187.214508 125.176201,181.702148 124.838333,176.232941 
	C124.768555,175.103241 122.793823,173.222504 121.632637,173.172089 
	C114.877869,172.878815 108.103859,173.028549 100.988419,173.028549 
	C100.988419,178.759857 100.988419,184.048294 100.988586,190.299866 
M173.025177,180.747955 
	C173.025177,185.699356 173.025177,190.650772 173.025177,196.003494 
	C179.866959,196.003494 186.327057,196.160477 192.765228,195.855255 
	C193.891983,195.801849 195.787521,193.857559 195.857086,192.698257 
	C196.185745,187.221802 196.100464,181.711426 195.918808,176.221222 
	C195.883575,175.156357 194.788559,173.238022 194.136932,173.218338 
	C186.952347,173.001236 179.758774,173.081924 172.641174,173.081924 
	C172.808319,176.014221 172.916733,177.916565 173.025177,180.747955 
M184.482727,124.994659 
	C186.810715,124.994652 189.154755,124.821480 191.462952,125.035172 
	C194.937561,125.356834 196.240906,124.046432 196.067993,120.508591 
	C195.824753,115.531883 196.200485,110.521416 195.868073,105.555061 
	C195.784714,104.309601 194.055862,102.202644 193.003601,102.152176 
	C186.433167,101.837044 179.840103,101.993149 173.303589,101.993149 
	C173.303589,109.967468 173.303589,117.356567 173.303589,124.994659 
	C176.890869,124.994659 180.194580,124.994659 184.482727,124.994659 
z"/>
<path fill="#47E3B7" opacity="1.000000" stroke="none" 
	d="
M31.134716,73.788734 
	C33.043060,64.633652 36.686260,56.107765 42.741035,49.094509 
	C51.750725,38.658562 63.572906,32.950729 77.958557,31.448435 
	C80.443909,31.776924 82.250458,31.997124 84.057640,32.002384 
	C94.990814,32.034222 105.934525,32.298008 116.852875,31.894045 
	C122.082207,31.700565 123.513268,33.525497 123.124817,38.422657 
	C122.746185,43.195862 123.058723,48.023895 123.067810,52.827850 
	C111.631477,52.887058 100.190796,53.165031 88.760132,52.938354 
	C79.086700,52.746532 69.962433,54.972939 63.293156,61.703495 
	C58.989113,66.047081 56.997082,72.681625 53.605724,78.972755 
	C53.211014,106.107063 53.179497,132.558090 53.147980,159.009125 
	C48.528374,159.339172 43.911514,159.718002 39.287952,159.977509 
	C37.158817,160.097015 35.016563,159.982880 32.291973,159.711090 
	C31.492407,159.209335 31.228943,159.069427 30.913292,159.027771 
	C30.913292,159.027771 30.981846,159.022766 31.083990,158.592438 
	C31.138382,132.364914 31.090630,106.567734 31.042877,80.770546 
	C31.042877,80.770546 30.972010,80.502960 31.281071,80.068863 
	C31.438328,77.686081 31.286522,75.737411 31.134716,73.788734 
z"/>
<path fill="#52E5BB" opacity="1.000000" stroke="none" 
	d="
M30.200726,192.324112 
	C30.388235,185.771896 30.388235,179.578949 30.388235,172.990433 
	C37.118465,172.990433 43.882202,172.806808 50.617474,173.162399 
	C51.807438,173.225250 53.748478,175.473373 53.849941,176.824432 
	C54.233906,181.937073 54.105362,187.098709 53.960266,192.236130 
	C53.886738,194.839630 52.623245,196.261856 49.600807,196.105331 
	C44.803810,195.856918 39.955807,196.340210 35.189304,195.885635 
	C33.378613,195.712952 31.733692,193.802048 30.200726,192.324112 
z"/>
<path fill="#4AE3B9" opacity="1.000000" stroke="none" 
	d="
M159.978943,175.645309 
	C159.993484,181.253433 159.868790,186.418701 160.043259,191.573837 
	C160.147522,194.654068 159.356949,196.240128 155.900101,196.097366 
	C150.914078,195.891449 145.896774,196.266937 140.929382,195.899765 
	C139.558182,195.798401 137.260361,194.005112 137.191818,192.878372 
	C136.820679,186.778397 137.015808,180.643967 137.015808,174.382767 
	C144.433502,174.026886 151.466492,173.652954 158.504288,173.434082 
	C158.972672,173.419525 159.477661,174.582764 159.978943,175.645309 
z"/>
<path fill="#4AE3B9" opacity="1.000000" stroke="none" 
	d="
M65.997559,188.857910 
	C65.997543,183.754959 65.997543,179.132568 65.997543,173.944595 
	C73.547165,173.944595 80.727295,173.944595 88.930260,173.944595 
	C88.930260,180.437332 89.015564,187.295425 88.794472,194.143661 
	C88.773048,194.807251 86.872345,195.919312 85.814781,195.954880 
	C80.331589,196.139359 74.837303,196.124191 69.349968,196.018478 
	C64.183235,195.918961 66.574806,191.843140 65.997559,188.857910 
z"/>
<path fill="#4AE3B9" opacity="1.000000" stroke="none" 
	d="
M190.768143,88.991440 
	C185.973511,88.991432 181.647415,88.850975 177.335449,89.037315 
	C174.116623,89.176430 172.850647,88.012665 172.957428,84.728462 
	C173.140854,79.086815 173.008163,73.434875 173.008163,67.024963 
	C179.989365,67.024963 186.886032,66.919312 193.769836,67.168633 
	C194.563797,67.197388 195.887772,69.174438 195.938751,70.294914 
	C196.172607,75.435059 195.991516,80.592453 196.057693,85.742393 
	C196.104492,89.386208 193.583511,89.003395 190.768143,88.991440 
z"/>
<path fill="#4AE3B9" opacity="1.000000" stroke="none" 
	d="
M181.054047,138.008331 
	C185.195465,138.009689 188.888748,137.705872 192.481812,138.173035 
	C193.791565,138.343323 195.780960,140.275375 195.880920,141.529541 
	C196.275452,146.480331 196.275101,151.499496 195.882248,156.450546 
	C195.782120,157.712555 193.765884,159.743408 192.515976,159.833160 
	C187.228912,160.212891 181.883026,160.213394 176.595917,159.833725 
	C175.327713,159.742661 173.248672,157.717957 173.173660,156.483414 
	C172.813095,150.551041 173.011581,144.584656 173.011581,138.008331 
	C175.716095,138.008331 178.141174,138.008331 181.054047,138.008331 
z"/>
<path fill="#45E3B7" opacity="1.000000" stroke="none" 
	d="
M157.938599,52.843937 
	C152.331558,52.894825 146.719482,52.820061 141.119339,53.043507 
	C137.733322,53.178604 136.861771,51.644505 136.960083,48.571850 
	C137.128815,43.296825 137.024292,38.013065 137.567566,32.264954 
	C143.762802,31.822775 149.430878,31.718317 155.082687,31.973482 
	C156.365967,32.031418 158.676422,33.337147 158.675735,34.066772 
	C158.669739,40.326057 158.241028,46.584938 157.938599,52.843937 
z"/>
<path fill="#79EAC9" opacity="1.000000" stroke="none" 
	d="
M100.988503,189.818298 
	C100.988419,184.048294 100.988419,178.759857 100.988419,173.028549 
	C108.103859,173.028549 114.877869,172.878815 121.632637,173.172089 
	C122.793823,173.222504 124.768555,175.103241 124.838333,176.232941 
	C125.176201,181.702148 125.174362,187.214508 124.847122,192.684891 
	C124.777542,193.847992 122.898254,195.790329 121.767967,195.853348 
	C115.963219,196.177002 110.130524,195.969727 104.308128,196.016022 
	C99.775536,196.052063 101.284065,192.673431 100.988503,189.818298 
M112.518951,193.989197 
	C123.011948,193.989029 123.014153,193.989029 123.009949,183.330536 
	C123.009102,181.166550 123.282349,178.940567 122.849800,176.863846 
	C122.621681,175.768631 121.152077,174.124603 120.227943,174.114548 
	C114.788292,174.055450 109.344208,174.404419 103.901611,174.615936 
	C103.610161,179.033829 103.317291,183.451630 103.030121,187.869797 
	C103.008575,188.201324 103.065857,188.540588 103.022285,188.867691 
	C102.507629,192.731491 104.047562,194.525482 108.053307,194.010162 
	C109.199585,193.862686 110.381042,193.988602 112.518951,193.989197 
z"/>
<path fill="#79EAC9" opacity="1.000000" stroke="none" 
	d="
M173.025177,180.283417 
	C172.916733,177.916565 172.808319,176.014221 172.641174,173.081924 
	C179.758774,173.081924 186.952347,173.001236 194.136932,173.218338 
	C194.788559,173.238022 195.883575,175.156357 195.918808,176.221222 
	C196.100464,181.711426 196.185745,187.221802 195.857086,192.698257 
	C195.787521,193.857559 193.891983,195.801849 192.765228,195.855255 
	C186.327057,196.160477 179.866959,196.003494 173.025177,196.003494 
	C173.025177,190.650772 173.025177,185.699356 173.025177,180.283417 
M173.927124,184.483994 
	C174.041840,195.272980 172.706177,193.867325 183.493301,193.988770 
	C183.824417,193.992493 184.155624,193.992828 184.486725,193.988708 
	C195.317444,193.853943 193.983658,195.317444 193.954514,184.462418 
	C193.921997,172.346619 195.648788,174.003540 183.457352,173.956512 
	C172.757507,173.915237 174.027817,172.762222 173.927124,184.483994 
z"/>
<path fill="#79EAC9" opacity="1.000000" stroke="none" 
	d="
M183.990509,124.994659 
	C180.194580,124.994659 176.890869,124.994659 173.303589,124.994659 
	C173.303589,117.356567 173.303589,109.967468 173.303589,101.993149 
	C179.840103,101.993149 186.433167,101.837044 193.003601,102.152176 
	C194.055862,102.202644 195.784714,104.309601 195.868073,105.555061 
	C196.200485,110.521416 195.824753,115.531883 196.067993,120.508591 
	C196.240906,124.046432 194.937561,125.356834 191.462952,125.035172 
	C189.154755,124.821480 186.810715,124.994652 183.990509,124.994659 
M184.480438,103.025917 
	C182.815643,103.026062 181.127411,103.205711 179.490585,102.991798 
	C175.049088,102.411324 173.442688,104.276367 173.871948,108.642670 
	C174.163727,111.610611 174.133621,114.648087 173.878189,117.622749 
	C173.526672,121.716530 175.042343,123.100479 179.228897,123.100525 
	C194.261429,123.100708 194.144211,123.240021 194.068512,108.130569 
	C194.049133,104.261513 192.942749,102.484909 188.946259,103.004219 
	C187.800308,103.153130 186.618530,103.026398 184.480438,103.025917 
z"/>
<path fill="#82EBCC" opacity="1.000000" stroke="none" 
	d="
M123.495758,52.879066 
	C123.058723,48.023895 122.746185,43.195862 123.124817,38.422657 
	C123.513268,33.525497 122.082207,31.700565 116.852875,31.894045 
	C105.934525,32.298008 94.990814,32.034222 84.057640,32.002384 
	C82.250458,31.997124 80.443909,31.776924 78.301666,31.404221 
	C92.361687,31.097818 106.757286,31.001024 121.152184,31.064236 
	C122.379890,31.069626 124.669640,32.148483 124.665512,32.715546 
	C124.616417,39.455235 124.225189,46.192432 123.495758,52.879066 
z"/>
<path fill="#FFFFFF" opacity="1.000000" stroke="none" 
	d="
M53.520248,158.790497 
	C53.179497,132.558090 53.211014,106.107063 53.539581,79.366226 
	C53.855255,105.574905 53.873886,132.073395 53.520248,158.790497 
z"/>
<path fill="#FFFFFF" opacity="1.000000" stroke="none" 
	d="
M30.653107,81.002518 
	C31.090630,106.567734 31.138382,132.364914 31.078701,158.626404 
	C30.652105,158.587601 30.053164,158.084091 30.053905,157.581482 
	C30.091448,132.132431 30.180153,106.683464 30.653107,81.002518 
z"/>
<path fill="#82EBCC" opacity="1.000000" stroke="none" 
	d="
M173.146255,32.079243 
	C176.714828,31.715599 180.280457,31.076883 183.852524,31.038366 
	C195.997711,30.907406 196.078568,30.989183 195.944748,43.254860 
	C195.909393,46.495628 195.214722,49.729206 194.366425,52.685791 
	C193.910065,52.405502 193.872421,51.963352 193.917801,51.499969 
	C193.976822,46.053875 193.888535,41.068008 194.042343,36.089622 
	C194.134460,33.107243 193.019104,31.882467 189.985001,31.989128 
	C184.676804,32.175743 179.360397,32.129028 173.822174,32.154602 
	C173.596909,32.129120 173.146255,32.079243 173.146255,32.079243 
z"/>
<path fill="#AFF1DD" opacity="1.000000" stroke="none" 
	d="
M158.382294,52.920033 
	C158.241028,46.584938 158.669739,40.326057 158.675735,34.066772 
	C158.676422,33.337147 156.365967,32.031418 155.082687,31.973482 
	C149.430878,31.718317 143.762802,31.822775 137.642883,31.787819 
	C144.551285,31.415424 151.917450,31.052145 160.540527,30.626875 
	C159.943878,38.411266 159.384949,45.703697 158.382294,52.920033 
z"/>
<path fill="#52E5BB" opacity="1.000000" stroke="none" 
	d="
M173.076431,32.534805 
	C173.146255,32.079243 173.596909,32.129120 173.809616,32.605125 
	C174.019653,38.023010 174.100983,42.966892 173.982666,47.905998 
	C173.912216,50.847511 175.085052,52.086983 178.059326,52.017673 
	C183.327927,51.894901 188.601135,51.970669 193.872421,51.963352 
	C193.872421,51.963352 193.910065,52.405502 193.927536,52.626587 
	C187.155975,52.847675 180.366943,52.847675 173.006607,52.847675 
	C173.006607,46.165215 173.006607,39.577793 173.076431,32.534805 
z"/>
<path fill="#92ECD1" opacity="1.000000" stroke="none" 
	d="
M31.050098,74.244446 
	C31.286522,75.737411 31.438328,77.686081 31.351868,79.949921 
	C31.064230,78.410110 31.014856,76.555138 31.050098,74.244446 
z"/>
<path fill="#92ECD1" opacity="1.000000" stroke="none" 
	d="
M30.984503,159.278534 
	C31.228943,159.069427 31.492407,159.209335 31.824764,159.640259 
	C31.649136,159.731781 31.352425,159.630554 30.984503,159.278534 
z"/>
<path fill="#45E3B7" opacity="1.000000" stroke="none" 
	d="
M112.032654,193.989166 
	C110.381042,193.988602 109.199585,193.862686 108.053307,194.010162 
	C104.047562,194.525482 102.507629,192.731491 103.022285,188.867691 
	C103.065857,188.540588 103.008575,188.201324 103.030121,187.869797 
	C103.317291,183.451630 103.610161,179.033829 103.901611,174.615936 
	C109.344208,174.404419 114.788292,174.055450 120.227943,174.114548 
	C121.152077,174.124603 122.621681,175.768631 122.849800,176.863846 
	C123.282349,178.940567 123.009102,181.166550 123.009949,183.330536 
	C123.014153,193.989029 123.011948,193.989029 112.032654,193.989166 
z"/>
<path fill="#45E3B7" opacity="1.000000" stroke="none" 
	d="
M173.926971,183.999481 
	C174.027817,172.762222 172.757507,173.915237 183.457352,173.956512 
	C195.648788,174.003540 193.921997,172.346619 193.954514,184.462418 
	C193.983658,195.317444 195.317444,193.853943 184.486725,193.988708 
	C184.155624,193.992828 183.824417,193.992493 183.493301,193.988770 
	C172.706177,193.867325 174.041840,195.272980 173.926971,183.999481 
z"/>
<path fill="#45E3B7" opacity="1.000000" stroke="none" 
	d="
M184.966812,103.025986 
	C186.618530,103.026398 187.800308,103.153130 188.946259,103.004219 
	C192.942749,102.484909 194.049133,104.261513 194.068512,108.130569 
	C194.144211,123.240021 194.261429,123.100708 179.228897,123.100525 
	C175.042343,123.100479 173.526672,121.716530 173.878189,117.622749 
	C174.133621,114.648087 174.163727,111.610611 173.871948,108.642670 
	C173.442688,104.276367 175.049088,102.411324 179.490585,102.991798 
	C181.127411,103.205711 182.815643,103.026062 184.966812,103.025986 
z"/>
<path fill="#45E3B7" opacity="1.000000" stroke="none" 
	d="
M193.917801,51.499969 
	C188.601135,51.970669 183.327927,51.894901 178.059326,52.017673 
	C175.085052,52.086983 173.912216,50.847511 173.982666,47.905998 
	C174.100983,42.966892 174.019653,38.023010 174.034882,32.630608 
	C179.360397,32.129028 184.676804,32.175743 189.985001,31.989128 
	C193.019104,31.882467 194.134460,33.107243 194.042343,36.089622 
	C193.888535,41.068008 193.976822,46.053875 193.917801,51.499969 
z"/>
</svg>