<svg version="1.1" id="Layer_1" xmlns="http://www.w3.org/2000/svg" xmlns:xlink="http://www.w3.org/1999/xlink" x="0px" y="0px"
	  viewBox="0 0 128 128" xml:space="preserve">
<path class="st0" d="M298,0"/>
<path class="st0" d="M298,0"/>
<path clip-rule="evenodd" fill-rule="evenodd" fill="#6f7580" class="st1" d="M362,566.9C162.9,566.9,1.5,458.8,1.5,325.4C1.5,192.1,162.9,84,362,84c199.1,0,360.5,108.1,360.5,241.5
	C722.5,458.8,561.1,566.9,362,566.9z M417.2,178.4c-151.4,0-274,73.9-274,165.1s122.7,165.1,274,165.1c151.4,0,263-50.5,263-165.1
	C680.2,228.9,568.5,178.4,417.2,178.4L417.2,178.4z"/>
<path class="st1" fill="#6f7580" d="M550.5,458c0,0,21.8,6.6,34.5,13c4.4,2.2,12,6.7,17.5,12.5c5.4,5.7,8,11.5,8,11.5l86,145l-139,0.1l-65-122.1
	c0,0-13.3-22.9-21.5-29.5c-6.8-5.5-9.7-7.5-16.5-7.5h-33l0,159l-123,0.1V233.9h247c0,0,112.5,2,112.5,109.1S550.5,458,550.5,458z
	 M497,322l-74.5,0l0,69l74.5,0c0,0,34.5-0.1,34.5-35.1C531.5,320.1,497,322,497,322L497,322z"/>
</svg>
