<svg id="uuid-460b6127-4e76-4b2f-8b27-692631bc9877" xmlns="http://www.w3.org/2000/svg" viewBox="0 0 128 112.41"><path d="m64,97.78C28.65,97.78,0,76.16,0,49.49S28.65,1.2,64,1.2s64,21.62,64,48.29-28.65,48.29-64,48.29Zm9.8-77.7c-26.87,0-48.65,14.78-48.65,33.01s21.78,33.01,48.65,33.01,46.69-10.11,46.69-33.01-19.83-33.01-46.69-33.01h0Z" style="fill:#9ba1ab; fill-rule:evenodd;"/><path d="m97.47,76s3.87,1.32,6.12,2.6c.78.45,2.13,1.33,3.11,2.5.95,1.14,1.42,2.3,1.42,2.3l15.27,29h-24.67s-11.54-24.4-11.54-24.4c0,0-2.36-4.57-3.82-5.9-1.21-1.11-1.73-1.5-2.93-1.5h-5.86v31.79s-21.83.01-21.83.01V31.19h43.84s19.97.41,19.97,21.81-19.08,23-19.08,23Zm-9.5-27.19h-13.22s0,13.8,0,13.8h13.22s6.12-.03,6.12-7.03-6.12-6.77-6.12-6.77h0Z" style="fill:#9ba1ab; fill-rule:evenodd;"/></svg>