<svg id="uuid-f839b87a-76ac-4a51-a936-ba92ffe8e71a" xmlns="http://www.w3.org/2000/svg" xmlns:xlink="http://www.w3.org/1999/xlink" viewBox="0 0 721.09 556.06"><defs><linearGradient id="uuid-f04d0d00-e544-4a5e-b613-3b541fda8eba" x1="60.33" y1="496.72" x2="61.33" y2="495.72" gradientTransform="translate(-23739.16 201906.2) scale(398 -406.12)" gradientUnits="userSpaceOnUse"><stop offset="0" stop-color="#276dc3"/><stop offset="1" stop-color="#165caa"/></linearGradient></defs><path d="m360.55,482.94C161.42,482.94,0,374.83,0,241.47S161.42,0,360.55,0s360.55,108.11,360.55,241.47-161.42,241.47-360.55,241.47Zm55.19-388.53c-151.35,0-274.05,73.91-274.05,165.08s122.7,165.08,274.05,165.08,263.05-50.53,263.05-165.08-111.7-165.08-263.05-165.08h0Z" style="fill:#bcbec2; fill-rule:evenodd;"/><path d="m549.09,374s21.82,6.58,34.5,13c4.4,2.23,12.01,6.67,17.5,12.5,5.38,5.71,8,11.5,8,11.5l86,145-139,.06-65-122.06s-13.31-22.87-21.5-29.5c-6.83-5.53-9.74-7.5-16.5-7.5h-33.03l.03,158.97-123,.05V149.94h247s112.5,2.03,112.5,109.06-107.5,115-107.5,115Zm-53.5-135.98l-74.46-.05-.04,69.05,74.5-.02s34.5-.11,34.5-35.12-34.5-33.85-34.5-33.85h0Z" style="fill:url(#uuid-f04d0d00-e544-4a5e-b613-3b541fda8eba); fill-rule:evenodd;"/></svg>