<svg id="uuid-d2bf80cf-d2ec-4085-b2fd-626d88aa23d6" xmlns="http://www.w3.org/2000/svg"  viewBox="0 0 128 128"><path d="m360.55,566.91C161.42,566.91,0,458.8,0,325.44S161.42,83.97,360.55,83.97s360.55,108.11,360.55,241.47-161.42,241.47-360.55,241.47Zm55.19-388.53c-151.35,0-274.05,73.91-274.05,165.08s122.7,165.08,274.05,165.08,263.05-50.53,263.05-165.08-111.7-165.08-263.05-165.08h0Z" style="fill:#6e7580; fill-rule:evenodd;"/><path d="m549.09,457.97s21.82,6.58,34.5,13c4.4,2.23,12.01,6.67,17.5,12.5,5.38,5.71,8,11.5,8,11.5l86,145-139,.06-65-122.06s-13.31-22.87-21.5-29.5c-6.83-5.53-9.74-7.5-16.5-7.5h-33.03l.03,158.97-123,.05V233.91h247s112.5,2.03,112.5,109.06-107.5,115-107.5,115Zm-53.5-135.98l-74.46-.05-.04,69.05,74.5-.02s34.5-.11,34.5-35.12-34.5-33.85-34.5-33.85h0Z" style="fill:#6e7580; fill-rule:evenodd;"/></svg>