<svg id="uuid-14163e7a-1a6c-4302-bc03-08c86b290564" xmlns="http://www.w3.org/2000/svg" viewBox="0 0 128 128"><path d="m63.92,100.04C28.57,100.04-.08,80.85-.08,57.17S28.57,14.31,63.92,14.31s64,19.19,64,42.86-28.65,42.86-64,42.86Zm9.8-68.97c-26.87,0-48.65,13.12-48.65,29.3s21.78,29.3,48.65,29.3,46.69-8.97,46.69-29.3-19.83-29.3-46.69-29.3h0Z" style="fill:#6e7580; fill-rule:evenodd;"/><path d="m97.39,80.7s3.87,1.17,6.12,2.31c.78.4,2.13,1.18,3.11,2.22.95,1.01,1.42,2.04,1.42,2.04l15.27,25.74h-24.67s-11.54-21.66-11.54-21.66c0,0-2.36-4.06-3.82-5.24-1.21-.98-1.73-1.33-2.93-1.33h-5.86v28.22s-21.83,0-21.83,0V40.93h43.84s19.97.36,19.97,19.36-19.08,20.41-19.08,20.41Zm-9.5-24.14h-13.22s0,12.25,0,12.25h13.22s6.12-.02,6.12-6.24-6.12-6.01-6.12-6.01h0Z" style="fill:#6e7580; fill-rule:evenodd;"/></svg>