<svg id="uuid-07ef5ab3-973e-48e6-8796-2d0c120d8450" xmlns="http://www.w3.org/2000/svg" xmlns:xlink="http://www.w3.org/1999/xlink" viewBox="0 0 128 128"><defs><linearGradient id="uuid-758aef04-343e-4c83-b15d-2e07d2cfde1b" x1="-236.03" y1="282.48" x2="-235.86" y2="282.31" gradientTransform="translate(93990 114769.04) scale(398 -406.12)" gradientUnits="userSpaceOnUse"><stop offset="0" stop-color="#276dc3"/><stop offset="1" stop-color="#165caa"/></linearGradient></defs><path d="m64,100.37C28.65,100.37,0,81.18,0,57.51S28.65,14.65,64,14.65s64,19.19,64,42.86-28.65,42.86-64,42.86Zm9.8-68.97c-26.87,0-48.65,13.12-48.65,29.3s21.78,29.3,48.65,29.3,46.69-8.97,46.69-29.3-19.83-29.3-46.69-29.3h0Z" style="fill:#bcbec2; fill-rule:evenodd;"/><path d="m97.47,81.04s3.87,1.17,6.12,2.31c.78.4,2.13,1.18,3.11,2.22.95,1.01,1.42,2.04,1.42,2.04l15.27,25.74h-24.67s-11.54-21.66-11.54-21.66c0,0-2.36-4.06-3.82-5.24-1.21-.98-1.73-1.33-2.93-1.33h-5.86v28.22s-21.83,0-21.83,0V41.26h43.84s19.97.36,19.97,19.36-19.08,20.41-19.08,20.41Zm-9.5-24.14h-13.22s0,12.25,0,12.25h13.22s6.12-.02,6.12-6.24-6.12-6.01-6.12-6.01h0Z" style="fill:url(#uuid-758aef04-343e-4c83-b15d-2e07d2cfde1b); fill-rule:evenodd;"/></svg>