<svg version="1.1" id="Layer_1" xmlns="http://www.w3.org/2000/svg" xmlns:xlink="http://www.w3.org/1999/xlink" x="0px" y="0px"
	 width="100%" viewBox="0 0 512 512" enable-background="new 0 0 512 512" xml:space="preserve">
<path fill="none" opacity="1.000000" stroke="none" 
	d="
M225.000000,0.999998 
	C246.020889,1.000000 267.041779,1.000000 288.640869,1.367720 
	C290.062073,2.149428 290.872101,2.829791 291.752838,2.938736 
	C319.072510,6.318133 345.011169,14.389627 369.686462,26.408360 
	C386.616302,34.654480 402.882751,44.270702 417.002350,56.756371 
	C430.290771,68.507088 443.452728,80.644508 455.018158,94.038422 
	C469.584320,110.907448 481.084747,130.013245 490.367920,150.467392 
	C500.693085,173.217392 507.535492,196.840790 511.063477,221.509781 
	C511.239471,222.740326 512.333496,223.839600 513.000000,225.000000 
	C513.000000,246.020889 513.000000,267.041779 512.632080,288.640320 
	C511.067993,295.309113 509.959625,301.419037 508.660583,307.488129 
	C503.129517,333.329254 494.396332,357.936951 481.530762,381.143463 
	C465.680817,409.733093 445.076447,434.347382 420.069214,455.125458 
	C402.389038,469.815674 382.882965,481.856354 361.733856,491.226959 
	C339.527374,501.066010 316.498840,507.674683 292.486908,511.063934 
	C291.257996,511.237396 290.159332,512.333496 289.000000,513.000000 
	C267.979095,513.000000 246.958206,513.000000 225.358170,512.632690 
	C223.936157,511.851135 223.127045,511.174011 222.245560,511.060913 
	C194.622284,507.516571 168.082886,499.926788 143.522598,486.946838 
	C127.727638,478.599274 112.227715,469.118469 98.262733,458.043396 
	C84.029274,446.755432 70.916245,433.693268 58.985943,419.954865 
	C44.373138,403.127350 32.924984,383.976166 23.634857,363.529144 
	C13.300643,340.784210 6.460493,317.158539 2.936554,292.488556 
	C2.760860,291.258575 1.666573,290.159851 1.000004,289.000000 
	C1.000000,267.979095 1.000000,246.958206 1.367713,225.359100 
	C2.484753,221.642120 3.460009,218.538055 3.948425,215.359192 
	C8.781403,183.903397 19.504801,154.498962 35.593876,127.164917 
	C50.111015,102.501472 68.423180,80.897842 90.194145,62.183395 
	C105.412590,49.101543 121.913940,37.981899 139.648254,28.780508 
	C163.875488,16.210302 189.535110,7.771474 216.613632,3.782617 
	C219.483444,3.359872 222.208038,1.951247 225.000000,0.999998 
M278.929535,83.170769 
	C274.627655,83.133606 270.325775,83.096443 265.886658,82.339310 
	C264.650909,79.107887 262.278717,77.917259 258.867035,77.951271 
	C248.372421,78.055893 237.874237,78.105492 227.381454,77.932816 
	C223.268845,77.865135 220.817291,79.842674 219.141556,83.196487 
	C217.803619,85.874199 216.608719,88.625549 215.409744,91.370171 
	C201.826477,122.464813 188.273712,153.572800 174.670166,184.658569 
	C169.401642,196.697784 164.058243,208.704590 158.683350,220.696747 
	C156.096664,226.468033 156.501816,231.301102 161.353134,236.062759 
	C166.067841,240.690308 170.189255,245.992950 174.119659,251.331558 
	C179.329330,258.407745 185.104889,263.828705 194.816330,262.033325 
	C195.886246,261.835510 197.068878,262.247314 198.568619,262.418579 
	C198.240967,263.925842 198.128372,265.238281 197.673706,266.419006 
	C186.853333,294.519104 176.003708,322.607971 165.142807,350.692444 
	C159.142288,366.208801 153.114441,381.714630 147.092346,397.222626 
	C145.686081,400.844055 145.387741,404.313965 148.119308,407.547546 
	C155.191559,415.919556 162.175293,424.367004 169.299988,432.693939 
	C173.046799,437.072968 178.303711,437.282593 182.302887,433.174927 
	C189.497086,425.785767 196.659012,418.358765 203.630997,410.760864 
	C220.482605,392.396606 237.141800,373.855255 254.070007,355.562469 
	C257.011688,352.383667 257.722717,349.439941 256.305847,345.159332 
	C259.231506,342.109070 262.157135,339.058807 265.810364,336.118225 
	C268.829559,337.585327 271.177917,336.705414 273.299744,334.249329 
	C276.448761,330.604309 279.721832,327.064484 282.998077,323.531769 
	C296.336304,309.149414 309.716217,294.805664 323.035950,280.406219 
	C327.434509,275.651123 331.947876,270.968414 335.955566,265.894684 
	C340.294952,260.401123 339.836273,257.005249 335.230469,251.735779 
	C331.844543,247.861954 328.856781,243.604202 325.217010,239.996338 
	C319.204773,234.036865 315.871399,224.693192 305.410004,224.393997 
	C305.608368,223.455444 305.595764,222.918869 305.824097,222.520340 
	C316.489380,203.905045 327.165192,185.295776 337.862579,166.698898 
	C347.316254,150.264191 356.786530,133.839035 366.272308,117.422844 
	C368.606567,113.383095 368.639435,109.671402 365.459320,105.939667 
	C358.890594,98.231461 352.700836,90.186043 345.867432,82.726166 
	C343.743713,80.407768 340.080414,78.274872 337.067688,78.198509 
	C320.086517,77.768105 303.088623,78.034950 286.096924,77.955681 
	C282.287262,77.937904 280.016602,79.298355 278.929535,83.170769 
z"/>
<path fill="#030302" opacity="1.000000" stroke="none" 
	d="
M255.954742,345.687805 
	C257.722717,349.439941 257.011688,352.383667 254.070007,355.562469 
	C237.141800,373.855255 220.482605,392.396606 203.630997,410.760864 
	C196.659012,418.358765 189.497086,425.785767 182.302887,433.174927 
	C178.303711,437.282593 173.046799,437.072968 169.299988,432.693939 
	C162.175293,424.367004 155.191559,415.919556 148.119308,407.547546 
	C145.387741,404.313965 145.686081,400.844055 147.092346,397.222626 
	C153.114441,381.714630 159.142288,366.208801 165.142807,350.692444 
	C176.003708,322.607971 186.853333,294.519104 197.673706,266.419006 
	C198.128372,265.238281 198.240967,263.925842 198.568619,262.418579 
	C197.068878,262.247314 195.886246,261.835510 194.816330,262.033325 
	C185.104889,263.828705 179.329330,258.407745 174.119659,251.331558 
	C170.189255,245.992950 166.067841,240.690308 161.353134,236.062759 
	C156.501816,231.301102 156.096664,226.468033 158.683350,220.696747 
	C164.058243,208.704590 169.401642,196.697784 174.670166,184.658569 
	C188.273712,153.572800 201.826477,122.464813 215.409744,91.370171 
	C216.608719,88.625549 217.803619,85.874199 219.141556,83.196487 
	C220.817291,79.842674 223.268845,77.865135 227.381454,77.932816 
	C237.874237,78.105492 248.372421,78.055893 258.867035,77.951271 
	C262.278717,77.917259 264.650909,79.107887 265.825256,83.038986 
	C263.834412,90.206505 258.189880,87.521812 253.572235,88.395935 
	C246.450302,88.278877 239.776184,88.503891 233.131546,88.159630 
	C229.490829,87.971001 227.960968,89.402695 226.579315,92.572357 
	C207.927002,135.362808 189.133606,178.091751 170.391129,220.842926 
	C169.842834,222.093597 169.469254,223.420853 168.949554,224.895905 
	C178.017120,224.895905 186.499466,224.895905 195.445740,224.974091 
	C200.869385,225.059235 205.835236,225.221939 210.786957,225.026535 
	C215.171036,224.853561 218.461456,226.410233 220.800720,230.541946 
	C220.422363,233.702469 220.476288,236.625916 219.505890,239.156525 
	C202.223358,284.225555 184.815704,329.246582 167.437637,374.278992 
	C165.701385,378.778198 163.982330,383.284027 162.255295,387.786774 
	C162.666473,388.087402 163.077637,388.388000 163.488815,388.688629 
	C178.058640,372.662842 192.628464,356.637085 207.494385,340.421997 
	C239.462479,305.657654 271.134460,271.082703 303.571808,235.672195 
	C300.747467,235.672195 299.130646,235.672211 297.513855,235.672211 
	C287.180756,235.672195 276.847656,235.690430 266.514587,235.667038 
	C256.028595,235.643295 252.578308,229.836746 257.685120,220.857101 
	C258.013794,220.279160 258.357574,219.709793 258.688873,219.133301 
	C282.725403,177.309891 306.763306,135.487274 330.789551,93.657951 
	C331.663086,92.137138 332.421021,90.549904 333.617340,88.256477 
	C331.233215,88.256477 329.638855,88.256493 328.044495,88.256470 
	C314.378143,88.256248 300.711761,88.239113 287.045471,88.267204 
	C283.453247,88.274590 280.277466,87.814491 279.827087,83.311195 
	C280.016602,79.298355 282.287262,77.937904 286.096924,77.955681 
	C303.088623,78.034950 320.086517,77.768105 337.067688,78.198509 
	C340.080414,78.274872 343.743713,80.407768 345.867432,82.726166 
	C352.700836,90.186043 358.890594,98.231461 365.459320,105.939667 
	C368.639435,109.671402 368.606567,113.383095 366.272308,117.422844 
	C356.786530,133.839035 347.316254,150.264191 337.862579,166.698898 
	C327.165192,185.295776 316.489380,203.905045 305.824097,222.520340 
	C305.595764,222.918869 305.608368,223.455444 305.410004,224.393997 
	C315.871399,224.693192 319.204773,234.036865 325.217010,239.996338 
	C328.856781,243.604202 331.844543,247.861954 335.230469,251.735779 
	C339.836273,257.005249 340.294952,260.401123 335.955566,265.894684 
	C331.947876,270.968414 327.434509,275.651123 323.035950,280.406219 
	C309.716217,294.805664 296.336304,309.149414 282.998077,323.531769 
	C279.721832,327.064484 276.448761,330.604309 273.299744,334.249329 
	C271.177917,336.705414 268.829559,337.585327 265.361572,335.723755 
	C262.363770,331.742706 263.769012,328.961487 266.433289,326.090576 
	C278.292969,313.311096 290.048615,300.434937 301.822754,287.576263 
	C310.327240,278.288422 318.801727,268.973114 327.571686,259.360840 
	C324.655060,256.022400 321.948608,252.924500 319.089966,249.526672 
	C316.920410,246.820618 314.903046,244.414490 312.489471,241.535858 
	C261.953766,296.706818 211.741074,351.525085 161.371490,406.514648 
	C166.595886,412.700958 171.385086,418.371948 176.477036,424.401428 
	C179.859558,420.618347 182.839417,417.285614 186.076721,413.733978 
	C206.372467,391.674683 226.448792,369.868896 246.406128,347.954742 
	C249.246246,344.836182 252.048218,343.414520 255.954742,345.687805 
M350.845764,105.309685 
	C348.092316,102.037125 345.338867,98.764572 342.158966,94.985184 
	C317.199432,138.420502 292.524719,181.360107 267.493073,224.920914 
	C273.072479,224.920914 277.544739,224.920914 282.911255,225.030243 
	C287.005951,224.497925 291.384247,226.730331 294.524963,221.164276 
	C313.789307,187.023392 333.463989,153.114075 352.987366,119.119240 
	C357.085632,111.983170 357.057373,111.966949 350.845764,105.309685 
M199.436951,235.754440 
	C191.771942,235.754440 184.106934,235.754440 175.132568,235.754440 
	C179.740891,241.213470 183.199631,245.459473 186.858658,249.525238 
	C187.631332,250.383835 189.118088,250.954178 190.309036,251.015854 
	C193.961823,251.204987 197.635315,251.182190 201.290344,251.014511 
	C202.266220,250.969742 203.745560,250.343964 204.071060,249.587738 
	C205.925278,245.279999 207.500229,240.852051 209.440735,235.753952 
	C205.694794,235.753952 203.053802,235.753952 199.436951,235.754440 
z"/>
<path fill="#FDE07C" opacity="1.000000" stroke="none" 
	d="
M279.378296,83.240982 
	C280.277466,87.814491 283.453247,88.274590 287.045471,88.267204 
	C300.711761,88.239113 314.378143,88.256248 328.044495,88.256470 
	C329.638855,88.256493 331.233215,88.256477 333.617340,88.256477 
	C332.421021,90.549904 331.663086,92.137138 330.789551,93.657951 
	C306.763306,135.487274 282.725403,177.309891 258.688873,219.133301 
	C258.357574,219.709793 258.013794,220.279160 257.685120,220.857101 
	C252.578308,229.836746 256.028595,235.643295 266.514587,235.667038 
	C276.847656,235.690430 287.180756,235.672195 297.513855,235.672211 
	C299.130646,235.672211 300.747467,235.672195 303.571808,235.672195 
	C271.134460,271.082703 239.462479,305.657654 207.464294,340.001526 
	C208.426498,335.842773 209.546692,331.850372 211.030045,327.997803 
	C222.622452,297.889496 234.308487,267.817261 245.902802,237.709732 
	C247.942123,232.414124 246.451782,230.193085 240.737442,230.069977 
	C234.080505,229.926590 227.416946,230.091110 220.756256,230.122009 
	C218.461456,226.410233 215.171036,224.853561 210.786957,225.026535 
	C205.835236,225.221939 200.869385,225.059235 195.464066,224.600113 
	C199.661835,213.143112 204.186417,202.086334 208.970627,191.143036 
	C223.938538,156.905838 239.004440,122.711494 254.032379,88.500534 
	C258.189880,87.521812 263.834412,90.206505 265.893860,83.398972 
	C270.325775,83.096443 274.627655,83.133606 279.378296,83.240982 
z"/>
<path fill="#7A6B78" opacity="1.000000" stroke="none" 
	d="
M256.130310,345.423584 
	C252.048218,343.414520 249.246246,344.836182 246.406128,347.954742 
	C226.448792,369.868896 206.372467,391.674683 185.740234,413.673401 
	C180.663742,411.322937 180.204041,407.125793 180.631485,402.682068 
	C181.345932,395.254639 187.781509,391.598297 192.027725,386.789276 
	C207.754471,368.977905 224.084137,351.697388 240.251846,334.277313 
	C254.501205,318.924225 268.870270,303.682220 283.116089,288.325836 
	C288.083923,282.970703 292.715485,277.301697 297.725525,271.988098 
	C304.788086,264.497559 312.059845,257.204224 319.242157,249.826599 
	C321.948608,252.924500 324.655060,256.022400 327.571686,259.360840 
	C318.801727,268.973114 310.327240,278.288422 301.822754,287.576263 
	C290.048615,300.434937 278.292969,313.311096 266.433289,326.090576 
	C263.769012,328.961487 262.363770,331.742706 264.997803,335.668915 
	C262.157135,339.058807 259.231506,342.109070 256.130310,345.423584 
z"/>
<path fill="#FDCD64" opacity="1.000000" stroke="none" 
	d="
M220.800720,230.541931 
	C227.416946,230.091110 234.080505,229.926590 240.737442,230.069977 
	C246.451782,230.193085 247.942123,232.414124 245.902802,237.709732 
	C234.308487,267.817261 222.622452,297.889496 211.030045,327.997803 
	C209.546692,331.850372 208.426498,335.842773 207.168182,340.190857 
	C192.628464,356.637085 178.058640,372.662842 163.488815,388.688629 
	C163.077637,388.388000 162.666473,388.087402 162.255295,387.786774 
	C163.982330,383.284027 165.701385,378.778198 167.437637,374.278992 
	C184.815704,329.246582 202.223358,284.225555 219.505890,239.156525 
	C220.476288,236.625916 220.422363,233.702469 220.800720,230.541931 
z"/>
<path fill="#FDCC64" opacity="1.000000" stroke="none" 
	d="
M253.572250,88.395935 
	C239.004440,122.711494 223.938538,156.905838 208.970627,191.143036 
	C204.186417,202.086334 199.661835,213.143112 195.000137,224.521942 
	C186.499466,224.895905 178.017120,224.895905 168.949554,224.895905 
	C169.469254,223.420853 169.842834,222.093597 170.391129,220.842926 
	C189.133606,178.091751 207.927002,135.362808 226.579315,92.572357 
	C227.960968,89.402695 229.490829,87.971001 233.131546,88.159630 
	C239.776184,88.503891 246.450302,88.278877 253.572250,88.395935 
z"/>
<path fill="#655D67" opacity="1.000000" stroke="none" 
	d="
M319.089966,249.526672 
	C312.059845,257.204224 304.788086,264.497559 297.725525,271.988098 
	C292.715485,277.301697 288.083923,282.970703 283.116089,288.325836 
	C268.870270,303.682220 254.501205,318.924225 240.251846,334.277313 
	C224.084137,351.697388 207.754471,368.977905 192.027725,386.789276 
	C187.781509,391.598297 181.345932,395.254639 180.631485,402.682068 
	C180.204041,407.125793 180.663742,411.322937 185.482788,413.892303 
	C182.839417,417.285614 179.859558,420.618347 176.477036,424.401428 
	C171.385086,418.371948 166.595886,412.700958 161.371490,406.514648 
	C211.741074,351.525085 261.953766,296.706818 312.489471,241.535858 
	C314.903046,244.414490 316.920410,246.820618 319.089966,249.526672 
z"/>
<path fill="#655D67" opacity="1.000000" stroke="none" 
	d="
M282.017029,224.920914 
	C277.544739,224.920914 273.072479,224.920914 267.493073,224.920914 
	C292.524719,181.360107 317.199432,138.420502 342.158966,94.985184 
	C345.338867,98.764572 348.092316,102.037125 350.681946,105.792130 
	C349.914124,107.054970 349.213257,107.778839 348.720184,108.623924 
	C331.295807,138.487976 313.831177,168.328812 296.520508,198.258698 
	C291.456909,207.013580 286.839142,216.026337 282.017029,224.920914 
z"/>
<path fill="#796A77" opacity="1.000000" stroke="none" 
	d="
M282.464142,224.975586 
	C286.839142,216.026337 291.456909,207.013580 296.520508,198.258698 
	C313.831177,168.328812 331.295807,138.487976 348.720184,108.623924 
	C349.213257,107.778839 349.914124,107.054970 350.821838,106.098183 
	C357.057373,111.966949 357.085632,111.983170 352.987366,119.119240 
	C333.463989,153.114075 313.789307,187.023392 294.524963,221.164276 
	C291.384247,226.730331 287.005951,224.497925 282.464142,224.975586 
z"/>
<path fill="#655D67" opacity="1.000000" stroke="none" 
	d="
M199.924881,235.754196 
	C203.053802,235.753952 205.694794,235.753952 209.440735,235.753952 
	C207.500229,240.852051 205.925278,245.279999 204.071060,249.587738 
	C203.745560,250.343964 202.266220,250.969742 201.290344,251.014511 
	C197.635315,251.182190 193.961823,251.204987 190.309036,251.015854 
	C189.118088,250.954178 187.631332,250.383835 186.858658,249.525238 
	C183.199631,245.459473 179.740891,241.213470 175.132568,235.754440 
	C184.106934,235.754440 191.771942,235.754440 199.924881,235.754196 
z"/>
</svg>