<svg id="uuid-72f0139e-aed0-420b-9fc3-7a9625ea5eee" data-name="Layer 1" xmlns="http://www.w3.org/2000/svg" viewBox="0 0 512 512">
  <path d="M278.38,82.24c.9,4.57,4.07,5.03,7.67,5.03,13.67-.03,27.33-.01,41-.01,1.59,0,3.19,0,5.57,0-1.2,2.29-1.95,3.88-2.83,5.4-24.03,41.83-48.06,83.65-72.1,125.48-.33.58-.68,1.15-1,1.72-5.11,8.98-1.66,14.79,8.83,14.81,10.33.02,20.67,0,31,0,1.62,0,3.23,0,6.06,0-32.44,35.41-64.11,69.99-96.11,104.33.96-4.16,2.08-8.15,3.57-12,11.59-30.11,23.28-60.18,34.87-90.29,2.04-5.3.55-7.52-5.17-7.64-6.66-.14-13.32.02-19.98.05-2.29-3.71-5.59-5.27-9.97-5.1-4.95.2-9.92.03-15.32-.43,4.2-11.46,8.72-22.51,13.51-33.46,14.97-34.24,30.03-68.43,45.06-102.64,4.16-.98,9.8,1.71,11.86-5.1,4.43-.3,8.73-.27,13.48-.16Z" style="fill: #9ba1ab;"/>
  <path d="M255.13,344.42c-4.08-2.01-6.88-.59-9.72,2.53-19.96,21.91-40.03,43.72-60.67,65.72-5.08-2.35-5.54-6.55-5.11-10.99.71-7.43,7.15-11.08,11.4-15.89,15.73-17.81,32.06-35.09,48.22-52.51,14.25-15.35,28.62-30.6,42.86-45.95,4.97-5.36,9.6-11.02,14.61-16.34,7.06-7.49,14.33-14.78,21.52-22.16,2.71,3.1,5.41,6.2,8.33,9.53-8.77,9.61-17.24,18.93-25.75,28.22-11.77,12.86-23.53,25.73-35.39,38.51-2.66,2.87-4.07,5.65-1.44,9.58-2.84,3.39-5.77,6.44-8.87,9.75Z" style="fill: #b6bdc6;"/>
  <path d="M219.8,229.54c6.62-.45,13.28-.62,19.94-.47,5.71.12,7.2,2.34,5.17,7.64-11.59,30.11-23.28,60.18-34.87,90.29-1.48,3.85-2.6,7.84-3.86,12.19-14.54,16.45-29.11,32.47-43.68,48.5-.41-.3-.82-.6-1.23-.9,1.73-4.5,3.45-9.01,5.18-13.51,17.38-45.03,34.79-90.05,52.07-135.12.97-2.53.92-5.45,1.29-8.61Z" style="fill: #b6bdc6;"/>
  <path d="M252.57,87.4c-14.57,34.32-29.63,68.51-44.6,102.75-4.78,10.94-9.31,22-13.97,33.38-8.5.37-16.98.37-26.05.37.52-1.48.89-2.8,1.44-4.05,18.74-42.75,37.54-85.48,56.19-128.27,1.38-3.17,2.91-4.6,6.55-4.41,6.64.34,13.32.12,20.44.24Z" style="fill: #b6bdc6;"/>
  <path d="M318.09,248.53c-7.03,7.68-14.3,14.97-21.36,22.46-5.01,5.31-9.64,10.98-14.61,16.34-14.25,15.36-28.61,30.6-42.86,45.95-16.17,17.42-32.5,34.7-48.22,52.51-4.25,4.81-10.68,8.47-11.4,15.89-.43,4.44.03,8.64,4.85,11.21-2.64,3.39-5.62,6.73-9.01,10.51-5.09-6.03-9.88-11.7-15.11-17.89,50.37-54.99,100.58-109.81,151.12-164.98,2.41,2.88,4.43,5.28,6.6,7.99Z" style="fill: #9ba1ab;"/>
  <path d="M281.02,223.92h-14.52c25.03-43.56,49.71-86.5,74.67-129.94,3.18,3.78,5.93,7.05,8.52,10.81-.77,1.26-1.47,1.99-1.96,2.83-17.42,29.86-34.89,59.7-52.2,89.63-5.06,8.75-9.68,17.77-14.5,26.66Z" style="fill: #9ba1ab;"/>
  <path d="M281.46,223.98c4.38-8.95,8.99-17.96,14.06-26.72,17.31-29.93,34.78-59.77,52.2-89.63.49-.85,1.19-1.57,2.1-2.53q6.24,5.87,2.17,13.02c-19.52,33.99-39.2,67.9-58.46,102.05-3.14,5.57-7.52,3.33-12.06,3.81Z" style="fill: #b6bdc6;"/>
  <path d="M198.92,234.75c3.13,0,5.77,0,9.52,0-1.94,5.1-3.52,9.53-5.37,13.83-.33.76-1.8,1.38-2.78,1.43-3.66.17-7.33.19-10.98,0-1.19-.06-2.68-.63-3.45-1.49-3.66-4.07-7.12-8.31-11.73-13.77,8.97,0,16.64,0,24.79,0Z" style="fill: #b6bdc6;"/>
  <path d="M254.96,344.66c1.77,3.75,1.06,6.7-1.88,9.87-16.93,18.29-33.59,36.83-50.44,55.2-6.97,7.6-14.13,15.02-21.33,22.41-4,4.11-9.26,3.9-13-.48-7.12-8.33-14.11-16.77-21.18-25.15-2.73-3.23-2.43-6.7-1.03-10.32,6.02-15.51,12.05-31.01,18.05-46.53,10.86-28.08,21.71-56.17,32.53-84.27.45-1.18.57-2.49.89-4-1.5-.17-2.68-.58-3.75-.39-9.71,1.8-15.49-3.63-20.7-10.7-3.93-5.34-8.05-10.64-12.77-15.27-4.85-4.76-5.26-9.59-2.67-15.37,5.37-11.99,10.72-24,15.99-36.04,13.6-31.09,27.16-62.19,40.74-93.29,1.2-2.74,2.39-5.5,3.73-8.17,1.68-3.35,4.13-5.33,8.24-5.26,10.49.17,20.99.12,31.49.02,3.41-.03,5.78,1.16,6.96,5.09-1.99,7.17-7.64,4.48-12.25,5.36-7.12-.12-13.8.11-20.44-.24-3.64-.19-5.17,1.24-6.55,4.41-18.65,42.79-37.45,85.52-56.19,128.27-.55,1.25-.92,2.58-1.44,4.05,9.07,0,17.55,0,26.5.08,5.42.09,10.39.25,15.34.05,4.38-.17,7.67,1.38,10.01,5.52-.38,3.16-.32,6.08-1.29,8.61-17.28,45.07-34.69,90.09-52.07,135.12-1.74,4.5-3.46,9.01-5.18,13.51.41.3.82.6,1.23.9,14.57-16.03,29.14-32.05,44.01-48.27,31.97-34.76,63.64-69.34,96.08-104.75-2.82,0-4.44,0-6.06,0-10.33,0-20.67.02-31,0-10.49-.02-13.94-5.83-8.83-14.81.33-.58.67-1.15,1-1.72,24.04-41.82,48.07-83.65,72.1-125.48.87-1.52,1.63-3.11,2.83-5.4-2.38,0-3.98,0-5.57,0-13.67,0-27.33-.02-41,.01-3.59,0-6.77-.45-7.22-4.96.19-4.01,2.46-5.37,6.27-5.36,16.99.08,33.99-.19,50.97.24,3.01.08,6.68,2.21,8.8,4.53,6.83,7.46,13.02,15.51,19.59,23.21,3.18,3.73,3.15,7.44.81,11.48-9.49,16.42-18.96,32.84-28.41,49.28-10.7,18.6-21.37,37.21-32.04,55.82-.23.4-.22.94-.41,1.87,10.46.3,13.79,9.64,19.81,15.6,3.64,3.61,6.63,7.87,10.01,11.74,4.61,5.27,5.06,8.67.73,14.16-4.01,5.07-8.52,9.76-12.92,14.51-13.32,14.4-26.7,28.74-40.04,43.13-3.28,3.53-6.55,7.07-9.7,10.72-2.12,2.46-4.47,3.34-7.94,1.47-3-3.98-1.59-6.76,1.07-9.63,11.86-12.78,23.62-25.66,35.39-38.51,8.5-9.29,16.98-18.6,25.75-28.22-2.92-3.34-5.62-6.44-8.48-9.83-2.17-2.71-4.19-5.11-6.6-7.99-50.54,55.17-100.75,109.99-151.12,164.98,5.22,6.19,10.01,11.86,15.11,17.89,3.38-3.78,6.36-7.12,9.6-10.67,20.3-22.06,40.37-43.87,60.33-65.78,2.84-3.12,5.64-4.54,9.55-2.27M349.85,104.28c-2.75-3.27-5.51-6.55-8.69-10.32-24.96,43.44-49.63,86.37-74.67,129.94,5.58,0,10.05,0,15.42.11,4.09-.53,8.47,1.7,11.61-3.87,19.26-34.14,38.94-68.05,58.46-102.05q4.1-7.14-2.14-13.81M198.44,234.73h-24.3c4.61,5.46,8.07,9.71,11.73,13.77.77.86,2.26,1.43,3.45,1.49,3.65.19,7.33.17,10.98,0,.98-.04,2.46-.67,2.78-1.43,1.85-4.31,3.43-8.74,5.37-13.83-3.75,0-6.39,0-10,0Z" style="fill: #40444c;"/>
</svg>
