<svg id="uuid-1bc5b871-add0-4cca-b6d0-655e19f985f4" data-name="Layer 1" xmlns="http://www.w3.org/2000/svg" viewBox="0 0 512 512">
  <path d="M278.38,82.24c.9,4.57,4.07,5.03,7.67,5.03,13.67-.03,27.33-.01,41-.01,1.59,0,3.19,0,5.57,0-1.2,2.29-1.95,3.88-2.83,5.4-24.03,41.83-48.06,83.65-72.1,125.48-.33.58-.68,1.15-1,1.72-5.11,8.98-1.66,14.79,8.83,14.81,10.33.02,20.67,0,31,0,1.62,0,3.23,0,6.06,0-32.44,35.41-64.11,69.99-96.11,104.33.96-4.16,2.08-8.15,3.57-12,11.59-30.11,23.28-60.18,34.87-90.29,2.04-5.3.55-7.52-5.17-7.64-6.66-.14-13.32.02-19.98.05-2.29-3.71-5.59-5.27-9.97-5.1-4.95.2-9.92.03-15.32-.43,4.2-11.46,8.72-22.51,13.51-33.46,14.97-34.24,30.03-68.43,45.06-102.64,4.16-.98,9.8,1.71,11.86-5.1,4.43-.3,8.73-.27,13.48-.16Z" style="fill: #636874;"/>
  <path d="M255.13,344.42c-4.08-2.01-6.88-.59-9.72,2.53-19.96,21.91-40.03,43.72-60.67,65.72-5.08-2.35-5.54-6.55-5.11-10.99.71-7.43,7.15-11.08,11.4-15.89,15.73-17.81,32.06-35.09,48.22-52.51,14.25-15.35,28.62-30.6,42.86-45.95,4.97-5.36,9.6-11.02,14.61-16.34,7.06-7.49,14.33-14.78,21.52-22.16,2.71,3.1,5.41,6.2,8.33,9.53-8.77,9.61-17.24,18.93-25.75,28.22-11.77,12.86-23.53,25.73-35.39,38.51-2.66,2.87-4.07,5.65-1.44,9.58-2.84,3.39-5.77,6.44-8.87,9.75Z" style="fill: #6f7580;"/>
  <path d="M219.8,229.54c6.62-.45,13.28-.62,19.94-.47,5.71.12,7.2,2.34,5.17,7.64-11.59,30.11-23.28,60.18-34.87,90.29-1.48,3.85-2.6,7.84-3.86,12.19-14.54,16.45-29.11,32.47-43.68,48.5-.41-.3-.82-.6-1.23-.9,1.73-4.5,3.45-9.01,5.18-13.51,17.38-45.03,34.79-90.05,52.07-135.12.97-2.53.92-5.45,1.29-8.61Z" style="fill: #6f7580;"/>
  <path d="M252.57,87.4c-14.57,34.32-29.63,68.51-44.6,102.75-4.78,10.94-9.31,22-13.97,33.38-8.5.37-16.98.37-26.05.37.52-1.48.89-2.8,1.44-4.05,18.74-42.75,37.54-85.48,56.19-128.27,1.38-3.17,2.91-4.6,6.55-4.41,6.64.34,13.32.12,20.44.24Z" style="fill: #6f7580;"/>
  <path d="M318.09,248.53c-7.03,7.68-14.3,14.97-21.36,22.46-5.01,5.31-9.64,10.98-14.61,16.34-14.25,15.36-28.61,30.6-42.86,45.95-16.17,17.42-32.5,34.7-48.22,52.51-4.25,4.81-10.68,8.47-11.4,15.89-.43,4.44.03,8.64,4.85,11.21-2.64,3.39-5.62,6.73-9.01,10.51-5.09-6.03-9.88-11.7-15.11-17.89,50.37-54.99,100.58-109.81,151.12-164.98,2.41,2.88,4.43,5.28,6.6,7.99Z" style="fill: #636874;"/>
  <path d="M281.02,223.92h-14.52c25.03-43.56,49.71-86.5,74.67-129.94,3.18,3.78,5.93,7.05,8.52,10.81-.77,1.26-1.47,1.99-1.96,2.83-17.42,29.86-34.89,59.7-52.2,89.63-5.06,8.75-9.68,17.77-14.5,26.66Z" style="fill: #636874;"/>
  <path d="M281.46,223.98c4.38-8.95,8.99-17.96,14.06-26.72,17.31-29.93,34.78-59.77,52.2-89.63.49-.85,1.19-1.57,2.1-2.53q6.24,5.87,2.17,13.02c-19.52,33.99-39.2,67.9-58.46,102.05-3.14,5.57-7.52,3.33-12.06,3.81Z" style="fill: #6f7580;"/>
  <path d="M198.92,234.75c3.13,0,5.77,0,9.52,0-1.94,5.1-3.52,9.53-5.37,13.83-.33.76-1.8,1.38-2.78,1.43-3.66.17-7.33.19-10.98,0-1.19-.06-2.68-.63-3.45-1.49-3.66-4.07-7.12-8.31-11.73-13.77,8.97,0,16.64,0,24.79,0Z" style="fill: #6f7580;"/>
</svg>
