<?xml version="1.0" encoding="utf-8"?>
<!-- Generator: Adobe Illustrator 26.1.0, SVG Export Plug-In . SVG Version: 6.00 Build 0)  -->
<svg version="1.1" id="Layer_1" xmlns="http://www.w3.org/2000/svg" xmlns:xlink="http://www.w3.org/1999/xlink" x="0px" y="0px"
	 viewBox="0 0 400 400" style="enable-background:new 0 0 400 400;" xml:space="preserve">
<style type="text/css">
	.st0{fill:url(#SVGID_1_);}
	.st1{fill:url(#SVGID_00000102541656751048354890000001182081003071986320_);}
	.st2{fill:url(#SVGID_00000093899388597871738990000013019319643833017764_);}
</style>
<g>
	
		<linearGradient id="SVGID_1_" gradientUnits="userSpaceOnUse" x1="362.0309" y1="-259.3044" x2="142.3648" y2="161.4446" gradientTransform="matrix(1 0 0 1 0 266)">
		<stop  offset="0" style="stop-color:#00FFA3"/>
		<stop  offset="1" style="stop-color:#DC1FFF"/>
	</linearGradient>
	<path class="st0" d="M65.7,282c2.4-2.4,5.7-3.8,9.2-3.8h317.4c5.8,0,8.7,7,4.6,11.1L334.2,352c-2.4,2.4-5.7,3.8-9.2,3.8H7.6
		c-5.8,0-8.7-7-4.6-11.1L65.7,282z"/>
	
		<linearGradient id="SVGID_00000080919909124085340420000001351225998596252800_" gradientUnits="userSpaceOnUse" x1="265.9893" y1="-309.4461" x2="46.3232" y2="111.3029" gradientTransform="matrix(1 0 0 1 0 266)">
		<stop  offset="0" style="stop-color:#00FFA3"/>
		<stop  offset="1" style="stop-color:#DC1FFF"/>
	</linearGradient>
	<path style="fill:url(#SVGID_00000080919909124085340420000001351225998596252800_);" d="M65.7,48c2.5-2.4,5.8-3.8,9.2-3.8h317.4
		c5.8,0,8.7,7,4.6,11.1L334.2,118c-2.4,2.4-5.7,3.8-9.2,3.8H7.6c-5.8,0-8.7-7-4.6-11.1L65.7,48z"/>
	
		<linearGradient id="SVGID_00000069390260758927080670000002817645667066154402_" gradientUnits="userSpaceOnUse" x1="313.7025" y1="-284.5359" x2="94.0362" y2="136.2131" gradientTransform="matrix(1 0 0 1 0 266)">
		<stop  offset="0" style="stop-color:#00FFA3"/>
		<stop  offset="1" style="stop-color:#DC1FFF"/>
	</linearGradient>
	<path style="fill:url(#SVGID_00000069390260758927080670000002817645667066154402_);" d="M334.2,164.2c-2.4-2.4-5.7-3.8-9.2-3.8
		H7.6c-5.8,0-8.7,7-4.6,11.1l62.7,62.7c2.4,2.4,5.7,3.8,9.2,3.8h317.4c5.8,0,8.7-7,4.6-11.1L334.2,164.2z"/>
</g>
</svg>
