<?xml version="1.0" encoding="utf-8"?>
<!-- Generator: Adobe Illustrator 26.1.0, SVG Export Plug-In . SVG Version: 6.00 Build 0)  -->
<svg version="1.1" id="Layer_1" xmlns="http://www.w3.org/2000/svg" xmlns:xlink="http://www.w3.org/1999/xlink" x="0px" y="0px"
	 viewBox="0 0 400 400" style="enable-background:new 0 0 400 400;" xml:space="preserve">
<style type="text/css">
	.st0{fill:#6f7580;}
</style>
<g>
	<path class="st0" d="M65.7,282c2.4-2.4,5.7-3.8,9.2-3.8h317.4c5.8,0,8.7,7,4.6,11.1L334.2,352c-2.4,2.4-5.7,3.8-9.2,3.8H7.6
		c-5.8,0-8.7-7-4.6-11.1L65.7,282z"/>
	<path class="st0" d="M65.7,48c2.5-2.4,5.8-3.8,9.2-3.8h317.4c5.8,0,8.7,7,4.6,11.1L334.2,118c-2.4,2.4-5.7,3.8-9.2,3.8H7.6
		c-5.8,0-8.7-7-4.6-11.1L65.7,48z"/>
	<path class="st0" d="M334.2,164.2c-2.4-2.4-5.7-3.8-9.2-3.8H7.6c-5.8,0-8.7,7-4.6,11.1l62.7,62.7c2.4,2.4,5.7,3.8,9.2,3.8h317.4
		c5.8,0,8.7-7,4.6-11.1L334.2,164.2z"/>
</g>
</svg>
