<?xml version="1.0" encoding="UTF-8"?>
<svg id="uuid-3d517b6c-6144-4bdc-9c4a-447cfe95e886" data-name="Layer 1" xmlns="http://www.w3.org/2000/svg" xmlns:xlink="http://www.w3.org/1999/xlink" viewBox="0 0 800 800">
  <defs>
    <linearGradient id="uuid-902f11cc-0674-4fce-a4d0-dbdfb9309b0d" x1="144.94" y1="2440.44" x2="711.03" y2="2165.35" gradientTransform="translate(0 2502) scale(1 -1)" gradientUnits="userSpaceOnUse">
      <stop offset=".1" stop-color="#76b3e1"/>
      <stop offset=".3" stop-color="#dcf2fd"/>
      <stop offset="1" stop-color="#76b3e1"/>
    </linearGradient>
    <linearGradient id="uuid-6fa92504-524b-4eb7-9bb5-426b7960fe40" x1="456.17" y1="2306.67" x2="357.05" y2="1976.56" gradientTransform="translate(0 2502) scale(1 -1)" gradientUnits="userSpaceOnUse">
      <stop offset="0" stop-color="#76b3e1"/>
      <stop offset=".5" stop-color="#4377bb"/>
      <stop offset="1" stop-color="#1f3b77"/>
    </linearGradient>
    <linearGradient id="uuid-59fc4567-b297-4166-a449-0cdc6f9e2a89" x1="103.59" y1="2162.46" x2="676.05" y2="1773.25" gradientTransform="translate(0 2502) scale(1 -1)" gradientUnits="userSpaceOnUse">
      <stop offset="0" stop-color="#315aa9"/>
      <stop offset=".5" stop-color="#518ac8"/>
      <stop offset="1" stop-color="#315aa9"/>
    </linearGradient>
    <linearGradient id="uuid-ecb049c1-72e3-4ac2-b972-31f6a80be08b" x1="362.73" y1="2116.1" x2="131.75" y2="1269.01" gradientTransform="translate(0 2502) scale(1 -1)" gradientUnits="userSpaceOnUse">
      <stop offset="0" stop-color="#4377bb"/>
      <stop offset=".5" stop-color="#1a336b"/>
      <stop offset="1" stop-color="#1a336b"/>
    </linearGradient>
  </defs>
  <path d="M761.48,206.17S520.49,28.84,334.07,69.77l-13.64,4.55c-27.28,9.09-50.02,22.73-63.66,40.92l-9.09,13.64-68.2,118.22,118.22,22.73c50.02,31.83,113.67,45.47,172.78,31.83l209.16,40.92,81.84-136.41Z" style="fill: #76b3e1;"/>
  <path d="M761.48,206.17S520.49,28.84,334.07,69.77l-13.64,4.55c-27.28,9.09-50.02,22.73-63.66,40.92l-9.09,13.64-68.2,118.22,118.22,22.73c50.02,31.83,113.67,45.47,172.78,31.83l209.16,40.92,81.84-136.41Z" style="fill: url(#uuid-902f11cc-0674-4fce-a4d0-dbdfb9309b0d); isolation: isolate; opacity: .3;"/>
  <path d="M256.77,206.17l-18.19,4.55c-77.3,22.73-100.03,95.49-59.11,159.14,45.47,59.11,140.95,90.94,218.25,68.2l281.91-95.49s-240.99-177.33-422.86-136.41Z" style="fill: #518ac8;"/>
  <path d="M256.77,206.17l-18.19,4.55c-77.3,22.73-100.03,95.49-59.11,159.14,45.47,59.11,140.95,90.94,218.25,68.2l281.91-95.49s-240.99-177.33-422.86-136.41Z" style="fill: url(#uuid-6fa92504-524b-4eb7-9bb5-426b7960fe40); isolation: isolate; opacity: .3;"/>
  <path d="M629.62,410.78c-52.07-65.06-138.4-92.03-218.25-68.2l-281.91,90.94-90.94,159.14,509.25,86.39,90.94-163.69c18.19-31.83,13.64-68.2-9.09-104.58Z" style="fill: url(#uuid-59fc4567-b297-4166-a449-0cdc6f9e2a89);"/>
  <path d="M538.68,569.93c-52.07-65.06-138.4-92.03-218.25-68.2l-281.91,90.94s240.99,181.88,427.41,136.41l13.64-4.55c77.3-22.73,104.58-95.49,59.11-154.6Z" style="fill: url(#uuid-ecb049c1-72e3-4ac2-b972-31f6a80be08b);"/>
</svg>