<svg width="150" height="150" viewBox="0 0 150 150" fill="none" xmlns="http://www.w3.org/2000/svg">
<path d="M128.409 26.1309C134.659 44.709 137.659 60.5437 137.443 73.8594C137.45 74.2438 137.5 74.6156 137.5 75C137.5 109.519 109.519 137.5 75 137.5C40.4813 137.5 12.5 109.519 12.5 75C12.5 40.4813 40.4813 12.5 75 12.5C90.5437 12.5 104.732 18.2092 115.666 27.5967C116.091 26.8812 116.497 26.1565 116.854 25.416L123.51 11.5625L128.409 26.1309ZM45.3281 112.5C42.7719 112.5 40.6562 114.616 40.6562 117.188C40.6562 119.759 42.7563 121.875 45.3281 121.875C46.7344 121.875 48.0816 121.234 48.9629 120.141C50.5815 118.141 50.2685 115.172 48.2686 113.55C47.4436 112.869 46.3937 112.5 45.3281 112.5ZM122.763 28.125C116.7 41.1468 101.8 51.1343 88.9189 54.2969C76.8533 57.2719 66.1687 54.8285 55 59.2754C29.4908 69.4192 29.916 100.837 43.9473 107.896L44.7812 108.35C44.8267 108.34 65.4067 104.12 76.8066 99.7715C93.4626 93.3995 111.74 77.7313 117.771 59.4941C114.512 78.4502 98.8559 96.6719 83.0186 105C74.6092 109.462 66.3745 110.647 52.5371 115.625H79.7842C96.0435 115.909 113.319 115.188 123.078 101.744C137.719 81.5817 129.55 48.9594 122.763 28.125Z" fill="#9BA1AB"/>
</svg>