<?xml version="1.0" encoding="utf-8"?>
<!-- Generator: Adobe Illustrator 28.0.0, SVG Export Plug-In . SVG Version: 6.00 Build 0)  -->
<svg version="1.1" id="Layer_1" xmlns="http://www.w3.org/2000/svg" xmlns:xlink="http://www.w3.org/1999/xlink" x="0px" y="0px"
	 viewBox="0 0 128 128" style="enable-background:new 0 0 128 128;" xml:space="preserve">
<path d="M116.9,47.7c-8.9-8.9-23.4-8.9-32.6,0L47.8,84.2c-2.2,2.2-2.2,6,0,8.2c2.2,2.2,6,2.2,8.2,0l36.5-36.5
	c4.5-4.5,11.7-4.5,16.2,0c4.5,4.5,4.5,11.7,0,16.2L72.8,108c4.5,4.5,11.7,4.5,16.2,0l27.7-27.7C125.8,71.2,125.8,56.7,116.9,47.7z
	 M104.6,59.8c-2.2-2.2-6-2.2-8.2,0L59.9,96.5c-4.5,4.5-11.7,4.5-16.2,0c-2.2-2.2-6-2.2-8.2,0c-2.2,2.2-2.2,6,0,8.2
	c8.9,8.9,23.4,8.9,32.6,0l36.5-36.5C106.8,65.8,106.8,62,104.6,59.8z M92.5,23.4c-8.9-8.9-23.4-8.9-32.6,0L23.4,59.8
	c-2.2,2.2-2.2,5.9,0,8.2s6,2.2,8.2,0l36.7-36.5c4.5-4.5,11.8-4.5,16.2,0c2.2,2.2,6,2.2,8.2,0c2.1-2.4,2.1-5.9-0.1-8.2
	C92.6,23.4,92.5,23.4,92.5,23.4z M80.2,35.4c-2.2-2.2-6-2.2-8.2,0L35.5,72.1c-4.5,4.5-11.7,4.5-16.2,0c-4.5-4.5-4.5-11.7,0-16.2
	L55.3,20c-4.5-4.5-11.7-4.5-16.2,0L11.2,47.7c-8.9,8.9-8.9,23.4,0,32.6c8.9,8.9,23.4,8.9,32.6,0l36.5-36.5
	C82.4,41.4,82.4,37.7,80.2,35.4C80.2,35.4,80.2,35.4,80.2,35.4z"/>
</svg>
