<?xml version="1.0" encoding="utf-8"?>
<!-- Generator: Adobe Illustrator 28.0.0, SVG Export Plug-In . SVG Version: 6.00 Build 0)  -->
<svg version="1.1" id="Layer_1" xmlns="http://www.w3.org/2000/svg" xmlns:xlink="http://www.w3.org/1999/xlink" x="0px" y="0px"
	 viewBox="0 0 128 128" style="enable-background:new 0 0 128 128;" xml:space="preserve">
<style type="text/css">
	.st0{fill:#6F7580;}
</style>
<path class="st0" d="M117.3,47.7c-8.9-8.9-23.4-8.9-32.6,0L48.3,84.2c-2.2,2.2-2.2,6,0,8.2c2.2,2.2,6,2.2,8.2,0L93,55.9
	c4.5-4.5,11.7-4.5,16.2,0c4.5,4.5,4.5,11.7,0,16.2L73.3,108c4.5,4.5,11.7,4.5,16.2,0l27.7-27.7C126.3,71.2,126.3,56.7,117.3,47.7z
	 M105.1,59.8c-2.2-2.2-6-2.2-8.2,0L60.4,96.5c-4.5,4.5-11.7,4.5-16.2,0c-2.2-2.2-6-2.2-8.2,0c-2.2,2.2-2.2,6,0,8.2
	c8.9,8.9,23.4,8.9,32.6,0l36.5-36.5C107.3,65.8,107.3,62,105.1,59.8z M93,23.3c-8.9-8.9-23.4-8.9-32.6,0L23.9,59.8
	c-2.2,2.2-2.2,5.9,0,8.2s6,2.2,8.2,0l36.7-36.5c4.5-4.5,11.8-4.5,16.2,0c2.2,2.2,6,2.2,8.2,0c2.1-2.4,2.1-5.9-0.1-8.2
	C93.1,23.3,93,23.3,93,23.3z M80.7,35.4c-2.2-2.2-6-2.2-8.2,0L36,72.1c-4.5,4.5-11.7,4.5-16.2,0c-4.5-4.5-4.5-11.7,0-16.2L55.8,20
	c-4.5-4.5-11.7-4.5-16.2,0L11.7,47.7c-8.9,8.9-8.9,23.4,0,32.6c8.9,8.9,23.4,8.9,32.6,0l36.5-36.5C82.9,41.4,82.9,37.7,80.7,35.4
	C80.7,35.4,80.7,35.4,80.7,35.4z"/>
</svg>
