<?xml version="1.0" encoding="utf-8"?>
<!-- Generator: Adobe Illustrator 28.0.0, SVG Export Plug-In . SVG Version: 6.00 Build 0)  -->
<svg version="1.1" id="Layer_1" xmlns="http://www.w3.org/2000/svg" xmlns:xlink="http://www.w3.org/1999/xlink" x="0px" y="0px"
	 viewBox="0 0 128 128" style="enable-background:new 0 0 128 128;" xml:space="preserve">
<style type="text/css">
	.st0{fill:#6F7580;}
</style>
<path class="st0" d="M109.3,3.9c-0.3,0-0.6,0-0.9,0.1L20.6,31.8c-0.9,0.3-1.6,1.1-2,2c-0.2,0.3-0.3,0.7-0.3,1.1v28.6
	c0,0.4,0.1,0.8,0.3,1.1c0.4,0.9,1.1,1.7,2,2l37.3,11.8L20.6,90.2c-1.3,0.4-2.3,1.9-2.3,3.3v28.4c0,1.4,1,2.2,2.3,1.8l87.8-27.8
	c1.2-0.4,2.1-1.7,2.3-3c0-0.1,0.1-0.2,0.1-0.3V64.2c0-1.4-1-2.9-2.3-3.3L71.5,49.2l36.9-11.7c1.3-0.4,2.3-1.9,2.3-3.3V5.8
	C110.7,4.7,110.1,4,109.3,3.9L109.3,3.9z"/>
</svg>
