<?xml version="1.0" encoding="utf-8"?>
<!-- Generator: Adobe Illustrator 26.1.0, SVG Export Plug-In . SVG Version: 6.00 Build 0)  -->
<svg version="1.1" xmlns="http://www.w3.org/2000/svg" xmlns:xlink="http://www.w3.org/1999/xlink" x="0px" y="0px"
	 viewBox="0 0 24 24" style="enable-background:new 0 0 24 24;" xml:space="preserve">
<style type="text/css">
	.st0{fill:url(#SVGID_1_);}
	.st1{fill:url(#SVGID_00000016794765737005237020000013186460977210961568_);}
	.st2{fill:url(#SVGID_00000067943786539576830650000003373690204831486141_);}
	.st3{fill:#0E0F23;}
	.st4{fill-rule:evenodd;clip-rule:evenodd;fill:#FFFFFF;}
	.st5{fill:#FFFFFF;}
</style>
<g id="Layer_1">
	<g>
		<g>
			<g>
				
					<linearGradient id="SVGID_1_" gradientUnits="userSpaceOnUse" x1="20.649" y1="-963.5071" x2="24.3376" y2="-950.8409" gradientTransform="matrix(1 0 0 1 -12 964)">
					<stop  offset="0" style="stop-color:#03B8FF"/>
					<stop  offset="1" style="stop-color:#FA52A0"/>
				</linearGradient>
				<path class="st0" d="M5,2.3L23.6,15L19,21.8L0.4,9L5,2.3z"/>
				
					<linearGradient id="SVGID_00000076574728196010568720000013416776525768378788_" gradientUnits="userSpaceOnUse" x1="23.6711" y1="-964.3873" x2="27.3598" y2="-951.721" gradientTransform="matrix(1 0 0 1 -12 964)">
					<stop  offset="0" style="stop-color:#03B8FF"/>
					<stop  offset="1" style="stop-color:#FA52A0"/>
				</linearGradient>
				<path style="fill:url(#SVGID_00000076574728196010568720000013416776525768378788_);" d="M23.6,15c-1.6,2.3-7,1.4-12.1-2.2
					C6.3,9.3,3.5,4.6,5,2.3C6.6,0,12,0.9,17.1,4.5C22.3,7.9,25.1,12.7,23.6,15z"/>
				
					<linearGradient id="SVGID_00000067932411942383047010000003813368938119279780_" gradientUnits="userSpaceOnUse" x1="17.6625" y1="-962.6375" x2="21.3512" y2="-949.9711" gradientTransform="matrix(1 0 0 1 -12 964)">
					<stop  offset="0" style="stop-color:#03B8FF"/>
					<stop  offset="1" style="stop-color:#FA52A0"/>
				</linearGradient>
				<path style="fill:url(#SVGID_00000067932411942383047010000003813368938119279780_);" d="M19,21.7c-1.6,2.3-7,1.4-12.1-2.2
					s-8-8.2-6.4-10.6c1.6-2.3,7-1.4,12.1,2.2S20.5,19.4,19,21.7z"/>
				<path class="st3" d="M23.6,15L23.6,15L19,21.8l0,0c-1.6,2.3-7,1.3-12.1-2.2c-1-0.7-1.9-1.4-2.8-2.2c0.7-0.1,1.6-0.5,2.5-1.5
					c1.6-1.7,2.4-2.1,3.1-2c0.7,0,1.5,0.7,2.8,2.4s3.1,2.2,4.2,1.3c0.1-0.1,0.2-0.1,0.3-0.2c0.9-0.7,1.2-1,2.9-4.2
					c0.4-0.8,1.8-2.1,3.7-1.5C24.1,13,24.1,14.1,23.6,15z"/>
				<path class="st4" d="M22.9,14.6c-1.4,2-6.3,1-11-2.3C7.1,9,4.3,4.8,5.7,2.8s6.3-1,11,2.3S24.2,12.6,22.9,14.6z M18.5,11.6
					c-0.7,1-3.1,0.5-5.5-1.1c-2.3-1.6-3.7-3.7-3-4.7s3.1-0.5,5.5,1.1C17.8,8.5,19.2,10.6,18.5,11.6z"/>
				<path class="st5" d="M4.6,4.6c0-0.1-0.1-0.2-0.2-0.1S4.2,4.6,4.2,4.7C4.3,5,4.4,5.2,4.4,5.4c0,0.1,0.1,0.2,0.2,0.1
					c0.1,0,0.2-0.1,0.1-0.2C4.7,5.1,4.7,4.9,4.6,4.6z"/>
				<path class="st5" d="M5.1,6.2C5.1,6.1,5,6,4.9,6.1S4.8,6.2,4.8,6.3c1.1,2.5,3.4,5.2,6.4,7.2c0.1,0.1,0.2,0,0.3,0
					c0.1-0.1,0-0.2,0-0.3C8.4,11.2,6.2,8.6,5.1,6.2z"/>
				<path class="st5" d="M17.2,16c-0.1,0-0.2,0-0.2,0.1s0,0.2,0.1,0.2c0.3,0.1,0.7,0.2,1,0.3c0.1,0,0.2,0,0.2-0.1s0-0.2-0.1-0.2
					C17.9,16.2,17.5,16.1,17.2,16z"/>
				<path class="st5" d="M19,16.4c-0.1,0-0.2,0.1-0.2,0.2s0.1,0.2,0.2,0.2c0.8,0.1,1.7,0.2,2.4,0.1c0.1,0,0.2-0.1,0.2-0.2
					s-0.1-0.2-0.2-0.2C20.6,16.6,19.8,16.5,19,16.4z"/>
			</g>
		</g>
	</g>
</g>
<g id="Layer_2">
</g>
</svg>
