<?xml version="1.0" encoding="utf-8"?>
<!-- Generator: Adobe Illustrator 26.1.0, SVG Export Plug-In . SVG Version: 6.00 Build 0)  -->
<svg version="1.1" xmlns="http://www.w3.org/2000/svg" xmlns:xlink="http://www.w3.org/1999/xlink" x="0px" y="0px"
	 viewBox="0 0 24 24" style="enable-background:new 0 0 24 24;" xml:space="preserve">
<style type="text/css">
	.st0{fill:#6f7580;}
</style>
<g id="Layer_1">
	<g>
		<g>
			<g>
				<path class="st0" d="M10,5.8C10,5.8,10,5.8,10,5.8l8.5,5.7c0,0,0,0,0,0.1c-0.7,1-3.1,0.5-5.5-1.1C10.7,8.9,9.3,6.8,10,5.8z"/>
				<path class="st0" d="M22.9,14.5C22.9,14.6,22.9,14.6,22.9,14.5c-0.7,1.1-2.3,1.3-4.3,0.9c-0.6-0.1-1.2-0.3-1.8-0.5
					c-1.6-0.6-3.3-1.5-4.9-2.6c-1.8-1.2-3.3-2.6-4.4-3.9C5.6,6.2,4.8,4.1,5.7,2.8l0,0L5,2.3L0.4,9l0,0l7.8,5.4L19,21.8l0,0l4.6-6.8
					L22.9,14.5z M4.4,4.5c0.1-0.1,0.2,0,0.2,0.1c0.1,0.3,0.1,0.5,0.1,0.7c0.1,0.1,0,0.2-0.1,0.2c-0.1,0.1-0.2,0-0.2-0.1
					c0-0.2-0.1-0.4-0.2-0.7C4.2,4.6,4.3,4.6,4.4,4.5z M5.6,7.9C5.3,7.3,5,6.8,4.8,6.3c0-0.1,0-0.1,0.1-0.2C5,6,5.1,6.1,5.1,6.2
					c0.3,0.6,0.6,1.2,1,1.8c1.2,1.9,3.1,3.7,5.4,5.2c0,0.1,0.1,0.2,0,0.3c-0.1,0-0.2,0.1-0.3,0C8.8,11.9,6.9,9.9,5.6,7.9z
					 M18.1,16.6c-0.1,0-0.1,0-0.2-0.1c-0.3-0.1-0.6-0.2-0.8-0.2c-0.1,0-0.1-0.1-0.1-0.2c0-0.1,0.1-0.1,0.2-0.1
					c0.2,0.1,0.4,0.1,0.6,0.2c0.1,0,0.2,0.1,0.3,0.1c0,0,0.1,0,0.1,0c0.1,0,0.1,0.1,0.1,0.2S18.2,16.6,18.1,16.6L18.1,16.6z
					 M21.4,16.9c-0.7,0.1-1.6,0-2.4-0.1c-0.1,0-0.2-0.1-0.2-0.2c0-0.1,0.1-0.2,0.2-0.2c0.8,0.1,1.6,0.2,2.4,0.1
					c0.1,0,0.2,0.1,0.2,0.2C21.6,16.8,21.5,16.9,21.4,16.9z"/>
				<path class="st0" d="M18.5,11.5C18.5,11.6,18.5,11.6,18.5,11.5c-0.7,1.1-3.1,0.6-5.5-1c-2.3-1.6-3.7-3.7-3-4.7c0,0,0,0,0,0
					c0.7-0.9,3.1-0.4,5.5,1.2C17.8,8.5,19.2,10.5,18.5,11.5z"/>
				<path class="st0" d="M17.1,4.5C12,0.9,6.6,0,5,2.3C4.1,3.6,4.7,5.8,6.4,8.1c1.2,1.6,3,3.3,5.1,4.7c2,1.5,4.2,2.5,6,3
					c0.3,0.1,0.5,0.2,0.8,0.2c2.4,0.5,4.4,0.2,5.3-1C25.1,12.7,22.3,7.9,17.1,4.5z M22.9,14.6c-0.7,1-2.3,1.2-4.2,0.8
					c-0.6-0.1-1.2-0.3-1.8-0.5c-1.6-0.6-3.3-1.5-4.9-2.6c-1.8-1.2-3.3-2.6-4.4-3.9C5.6,6.2,4.8,4.1,5.7,2.8l0,0c1.4-2,6.3-1,11,2.3
					c2.9,2.1,5.1,4.5,6,6.5C23.3,12.7,23.4,13.8,22.9,14.6C22.9,14.6,22.9,14.6,22.9,14.6z"/>
				<path class="st0" d="M19,21.7C19,21.7,19,21.7,19,21.7c-1.7,2.3-7,1.4-12.1-2.2c-1-0.7-1.9-1.4-2.6-2.1C0.9,14.3-0.7,11,0.4,9
					c0,0,0-0.1,0.1-0.1c0.8-1.2,2.8-1.5,5.1-1c1.2,2,3.2,4,5.6,5.6c0.1,0.1,0.2,0,0.3,0c0.1-0.1,0-0.2,0-0.3C9.2,11.7,7.3,9.8,6.1,8
					c0.1,0,0.2,0,0.3,0.1c0.4,0.1,0.7,0.2,1.1,0.3c1.1,1.3,2.6,2.7,4.4,3.9c1.7,1.2,3.4,2.1,4.9,2.6c0.2,0.3,0.5,0.6,0.7,0.9
					c0.1,0.1,0.2,0.3,0.3,0.4c-0.2-0.1-0.4-0.1-0.6-0.2c-0.1,0-0.2,0-0.2,0.1c0,0.1,0,0.2,0.1,0.2c0.2,0.1,0.6,0.2,0.8,0.2
					c0.1,0,0.1,0,0.2,0.1h0C19.4,18.6,19.8,20.5,19,21.7z"/>
				<path class="st0" d="M23.6,11.7c-0.3-0.1-0.6-0.1-0.9-0.2c0.6,1.2,0.7,2.2,0.2,3c0,0,0,0,0,0.1c-0.7,1-2.3,1.2-4.2,0.8
					c-0.1,0.2-0.2,0.4-0.3,0.6c-0.1,0.1-0.1,0.2-0.2,0.3c0,0,0.1,0,0.1,0c0.1,0,0.1,0.1,0.1,0.2s-0.1,0.1-0.2,0.1h0
					c-0.1,0-0.1,0-0.2-0.1c-0.3,0.4-0.6,0.6-0.9,0.9c-0.1,0.1-0.2,0.1-0.3,0.2c-1.1,0.9-2.9,0.4-4.2-1.3s-2.1-2.4-2.8-2.4
					c-0.4-0.1-0.9,0-1.5,0.5c-0.4,0.3-1,0.8-1.6,1.5c-0.8,0.9-1.7,1.3-2.3,1.5c-0.1,0-0.1,0-0.2,0c0.9,0.8,1.8,1.5,2.8,2.2
					c3.2,2.2,6.6,3.4,9,3.4c1.4,0,2.5-0.4,3.1-1.2l4.6-6.8C24.1,14.1,24.1,13,23.6,11.7z M21.4,16.9c-0.7,0.1-1.6,0-2.4-0.1
					c-0.1,0-0.2-0.1-0.2-0.2c0-0.1,0.1-0.2,0.2-0.2c0.8,0.1,1.6,0.2,2.4,0.1c0.1,0,0.2,0.1,0.2,0.2C21.6,16.8,21.5,16.9,21.4,16.9z"
					/>
			</g>
		</g>
	</g>
</g>
<g id="Layer_2">
</g>
</svg>
