<?xml version="1.0" encoding="utf-8"?>
<!-- Generator: Adobe Illustrator 26.1.0, SVG Export Plug-In . SVG Version: 6.00 Build 0)  -->
<svg version="1.1" id="Layer_1" xmlns="http://www.w3.org/2000/svg" xmlns:xlink="http://www.w3.org/1999/xlink" x="0px" y="0px"
	 viewBox="0 0 400 400" style="enable-background:new 0 0 400 400;" xml:space="preserve">
<style type="text/css">
	.st0{fill:#6f7580;}
</style>
<path class="st0" d="M200,0C89.5,0,0,89.5,0,200s89.5,200,200,200s200-89.5,200-200S310.5,0,200,0z M184.4,315.1
	c-32.6-4.2-62.6-23.4-80.8-50.7c-20.5-30.1-25.6-70-13.2-104.2c6.8-18.4,17.9-35.5,33-48.1c3.8,31.6,17.3,62.1,39.5,85.1
	c26.6,27.7,64.5,44.6,103.1,44c15.3,0.5,30.3-3.1,45.2-5.9C296.5,288.3,238.3,323.6,184.4,315.1z M315.3,214.2
	c-8.8-3.7-15.9-10.3-23.3-16c-14.3-11.9-28.9-25.6-34.3-44c-30.7-11.1-62.8-18.7-91.8-33.9c-6.8-4-15.4-8.2-17.2-16.6
	c-0.7-7.3,7-11.3,12.5-14.2c23.4-8.8,49.8-8.8,73.6-1.6c31.1,9.6,57.3,33.1,71,62.5c3.8,8.4,7.4,17.1,7.8,26.4l1.2,0.6
	C316.3,189.5,317.5,202,315.3,214.2z"/>
</svg>
