<?xml version="1.0" encoding="utf-8"?>
<!-- Generator: Adobe Illustrator 26.1.0, SVG Export Plug-In . SVG Version: 6.00 Build 0)  -->
<svg version="1.1" id="Layer_1" xmlns="http://www.w3.org/2000/svg" xmlns:xlink="http://www.w3.org/1999/xlink" x="0px" y="0px"
	 viewBox="0 0 400 400" style="enable-background:new 0 0 400 400;" xml:space="preserve">
<style type="text/css">
	.st0{fill:#172852;}
	.st1{fill:#FFD83D;}
	.st2{fill:#FF6F03;}
</style>
<g>
	<circle class="st0" cx="200" cy="200" r="200"/>
	<g>
		<path class="st1" d="M161.1,89.4c23.4-8.8,49.8-8.8,73.6-1.6c31.1,9.6,57.3,33.1,71,62.5c3.8,8.4,7.4,17.1,7.8,26.4
			c-17.5-10.1-36.6-16.7-55.8-22.7c-30.7-11.1-62.8-18.7-91.8-33.9c-6.8-4-15.4-8.2-17.2-16.6C147.9,96.3,155.6,92.2,161.1,89.4"/>
		<path class="st1" d="M90.4,160.2c6.8-18.4,17.9-35.5,33-48.1c3.8,31.6,17.3,62.1,39.5,85.1c26.6,27.7,64.5,44.6,103.1,44
			c15.3,0.5,30.3-3.1,45.2-5.9c-14.7,53.1-72.9,88.4-126.9,79.9c-32.6-4.2-62.6-23.4-80.8-50.7C83.2,234.3,78,194.4,90.4,160.2z"/>
	</g>
	<path class="st2" d="M257.7,154.1c19.2,6,38.3,12.5,55.8,22.7l1.2,0.6c1.6,12.2,2.8,24.6,0.6,36.8c-8.8-3.7-15.9-10.3-23.3-16
		C277.6,186.2,263,172.6,257.7,154.1"/>
</g>
</svg>
