<?xml version="1.0" encoding="utf-8"?>
<!-- Generator: Adobe Illustrator 26.1.0, SVG Export Plug-In . SVG Version: 6.00 Build 0)  -->
<svg version="1.1" id="Layer_1" xmlns="http://www.w3.org/2000/svg" xmlns:xlink="http://www.w3.org/1999/xlink" x="0px" y="0px"
	 viewBox="0 0 256 256" style="enable-background:new 0 0 256 256;" xml:space="preserve">
<style type="text/css">
	.st0{fill:#FFFFFF;}
</style>
<g>
	<path class="st0" d="M256,186.1c-133.8,17.5-229.4,38.5-230.8-47.7c0,0,2.9-33.4,43.9-35.5c0,0,1.4-29.7,32.7-33
		c16.8-1.8,36,15.5,38,33.8c0,0,41.4-7.7,43.2,32.7c0.6,14.1-2.5,38-42.5,37c0,0-23.1-3.1-26.3-38.9c-6.5,69.2,93.5,65.2,95,2.3
		c0.6-27.2-16.8-55.1-56-49.9c-21.5-54-78.7-50.9-100-0.8C22.9,86-0.3,109.4,0,140C1.2,238.4,138.2,208.8,256,186.1z"/>
</g>
</svg>
