<?xml version="1.0" encoding="utf-8"?>
<!-- Generator: Adobe Illustrator 26.1.0, SVG Export Plug-In . SVG Version: 6.00 Build 0)  -->
<svg version="1.1" id="GRT" xmlns="http://www.w3.org/2000/svg" xmlns:xlink="http://www.w3.org/1999/xlink" x="0px" y="0px"
	 viewBox="0 0 96 96" style="enable-background:new 0 0 96 96;" xml:space="preserve">
<style type="text/css">
	.st0{fill:#6f7580;}
</style>
<ellipse transform="matrix(0.9239 -0.3827 0.3827 0.9239 -12.2426 21.2523)" class="st0" cx="47.3" cy="41.4" rx="12.8" ry="12.8"/>
<path class="st0" d="M48,0C21.5,0,0,21.5,0,48s21.5,48,48,48s48-21.5,48-48S74.5,0,48,0z M28.1,41.4c0-10.6,8.6-19.2,19.2-19.2
	c10.6,0,19.2,8.6,19.2,19.2c0,10.6-8.6,19.2-19.2,19.2C36.7,60.6,28.1,52,28.1,41.4z M65.6,66.1L52.8,78.9c-1.3,1.3-3.3,1.3-4.5,0
	c-1.3-1.3-1.3-3.3,0-4.5l12.8-12.8c1.2-1.3,3.3-1.3,4.5,0C66.9,62.9,66.9,64.9,65.6,66.1z M69.8,28.6c-1.8,0-3.2-1.4-3.2-3.2
	c0-1.8,1.4-3.2,3.2-3.2c1.7,0,3.2,1.4,3.2,3.2C73,27.2,71.6,28.6,69.8,28.6z"/>
</svg>
