<?xml version="1.0" encoding="utf-8"?>
<!-- Generator: Adobe Illustrator 26.1.0, SVG Export Plug-In . SVG Version: 6.00 Build 0)  -->
<svg version="1.1" id="Layer_1" xmlns="http://www.w3.org/2000/svg" xmlns:xlink="http://www.w3.org/1999/xlink" x="0px" y="0px"
	 viewBox="0 0 256 256" style="enable-background:new 0 0 256 256;" xml:space="preserve">
<style type="text/css">
	.st0{fill:#5E464D;}
	.st1{fill:#FFFFFF;}
	.st2{fill:#3FE0C5;}
</style>
<g>
	<ellipse class="st0" cx="127.7" cy="128" rx="125" ry="126.4"/>
	<path class="st1" d="M88.4,240.1c5.1,1.7,22.3,7.3,23,1.9c0.4-3-8.7-6.1-20.9-12.6c-17.4-9.2-33.4-21-47.3-35
		c-20.3-19.9-32-47.1-32.6-75.6c-1-38.2,13.9-69.2,38.5-89.1C19,52.9,1,88.5,0,126.5c-0.7,27.7,7,51,21.5,72.2
		c4.5,5.8,9.8,11,15.7,15.4C51.2,224.6,71.6,234.4,88.4,240.1"/>
	<path class="st1" d="M254.4,99c-7.7-36.4-31.8-61.9-64.1-80c24.7,17.5,59.3,54.8,38.9,87.7c-17.3,26.4-59.4,21.2-82.5,8.7
		c-27.4-14.9-61.6-48.3-27.8-80.9c21.9-21.1,91.6,2.6,79.3,34.2c-7.2,18.4-35,14.3-47.5,5.3c-9.2-6.6-17-18-12.9-29.8
		c1.3-3.8,1.1-9.6-4.2-5.3c-3.9,3.2-6,8.5-6.7,13.5c-5.8,41.2,67.6,73.2,89.4,33.3c11.3-20.7-7-50.7-30.1-63.1
		c-17.3-9.3-35.4-15.8-57.5-14.2C93.3,10.8,63.7,33,60,69.1c-3.7,35.9,20.3,68.2,48.5,87.5c29.7,20.3,69.6,33.7,106.2,21.6
		C247.4,167.3,261,129.7,254.4,99"/>
	<path class="st2" d="M208.3,71.1c3.5-23.6-17.8-39.8-37.6-47.2c-23.2-8.7-54-4.9-70.9,14.4c-12.4,14.1-11.6,34.7-5.2,51.3
		c9.7,25.1,31.5,43.2,56.8,51.1c18,5.6,39.8,8,58.1,2.1c26.6-8.6,35.3-36.4,29.8-61.8c-1.2-5.5-3-10.9-5.4-15.9
		c-3.4-7.1-13.7-21.4,0.5-3.9c1.5,1.9,2.9,4,4.1,6.1c2.9,4.8,5.3,10,6.9,15.4c7.7,23.8,1.7,51.5-19.8,65.8
		c-16.5,11-37.4,12.3-56.5,9.5c-25.6-3.7-49.8-16.1-66.6-36c-15.3-18.2-25.8-44.2-19.5-68.1c4.6-17.4,18.8-30.5,35.7-35.9
		c21.5-6.9,45.1-3.7,64.4,7.6c9.7,5.6,18.6,13.4,23.5,23.7c2.2,4.6,3.4,9.6,3.5,14.8c0,2.1-0.1,4.1-0.5,6.2
		C209.7,70.8,208.1,72.9,208.3,71.1"/>
</g>
</svg>
