<?xml version="1.0" encoding="utf-8"?>
<!-- Generator: Adobe Illustrator 26.1.0, SVG Export Plug-In . SVG Version: 6.00 Build 0)  -->
<svg version="1.1" id="Layer_1" xmlns="http://www.w3.org/2000/svg" xmlns:xlink="http://www.w3.org/1999/xlink" x="0px" y="0px"
	 viewBox="0 0 256 256" style="enable-background:new 0 0 256 256;" xml:space="preserve">
<style type="text/css">
	.st0{fill:#6f7580;}
</style>
<g>
	<path class="st0" d="M252.3,138.3c-5.2,65-59,116.1-124.6,116.1c-37.5,0-71.1-16.7-94-43.1c1.1,1,2.3,1.9,3.5,2.8
		c14,10.5,34.4,20.3,51.2,26c5.1,1.7,22.3,7.3,23,1.9c0.4-3-8.7-6.1-20.9-12.6c-17.4-9.2-33.4-21-47.3-35
		c-20.3-19.9-32-47.1-32.6-75.6C9.7,83.5,22.3,54.4,43.7,34.4c0.1-0.1,0.2-0.2,0.3-0.3c1.7-1.5,3.4-3,5.1-4.4
		C70.6,12.1,97.9,1.6,127.7,1.6c26.6,0,51.2,8.4,71.5,22.7c-2.9-1.8-5.8-3.6-8.9-5.3c24.7,17.5,59.3,54.8,38.9,87.7
		c-17.3,26.4-59.4,21.2-82.5,8.7c-27.4-14.9-61.6-48.3-27.8-80.9c21.9-21.1,91.6,2.6,79.3,34.2c-7.2,18.4-35,14.3-47.5,5.3
		c-9.2-6.6-17-18-12.9-29.8c1.3-3.8,1.1-9.6-4.2-5.3c-3.9,3.2-6,8.5-6.7,13.5c-5.8,41.2,67.6,73.2,89.4,33.3
		c11.3-20.7-7-50.7-30.1-63.1c-17.3-9.3-35.4-15.8-57.5-14.2C93.3,10.8,63.7,33,60,69.1c-3.7,35.9,20.3,68.2,48.5,87.5
		c29.7,20.3,69.6,33.7,106.2,21.6C233.9,171.8,246.5,156.2,252.3,138.3z"/>
	<path class="st0" d="M225.6,148.5c-16.5,11-37.4,12.3-56.5,9.5c-25.6-3.7-49.8-16.1-66.6-36C87.2,103.8,76.7,77.8,83,53.9
		c4.6-17.4,18.8-30.5,35.7-35.9c21.5-6.9,45.1-3.7,64.4,7.6c9.7,5.6,18.6,13.4,23.5,23.7c2.2,4.6,3.4,9.6,3.5,14.8
		c0,2.1-0.1,4.1-0.5,6.2c0.1,0.5-1.5,2.6-1.3,0.8c3.5-23.6-17.8-39.8-37.6-47.2c-23.2-8.7-54-4.9-70.9,14.4
		C87.4,52.4,88.2,73,94.6,89.6c9.7,25.1,31.5,43.2,56.8,51.1c18,5.6,39.8,8,58.1,2.1c26.6-8.6,35.3-36.4,29.8-61.8
		c-1.2-5.5-3-10.9-5.4-15.9c-3.2-6.6-12.3-19.5-2.1-7c0,0,0,0,0,0c0.8,0.9,1.6,1.9,2.6,3.1c1.5,1.9,2.9,4,4.1,6.1
		c2.9,4.8,5.3,10,6.9,15.4c1.1,3.4,1.9,6.8,2.4,10.3c0,0,0,0,0,0C251.1,114.1,244.1,136.2,225.6,148.5z"/>
</g>
</svg>
