<?xml version="1.0" encoding="utf-8"?>
<!-- Generator: Adobe Illustrator 28.0.0, SVG Export Plug-In . SVG Version: 6.00 Build 0)  -->
<svg version="1.1" id="Layer_1" xmlns="http://www.w3.org/2000/svg" xmlns:xlink="http://www.w3.org/1999/xlink" x="0px" y="0px"
	 viewBox="0 0 128 128" style="enable-background:new 0 0 128 128;" xml:space="preserve">
<style type="text/css">
	.st0{fill:#019733;}
</style>
<path class="st0" d="M121.5,63.9h-0.1l-20.7-20.7l20.6-21.2v-8.6l-3.1-3.1H78.9l-3.2,2.9v5L64.1,6.6V6.5L64,6.6l-0.1-0.1v0.1
	l-6.2,6.2l-2.6-2.6H16.2l-3.1,3.3v9l3,3h3.5V51l-13,13H6.5L6.6,64l-0.1,0.1h0.1l13,13v31l4.3,2.5h11.1l8.9-9.1l20,20v0.1l0.1-0.1
	l0.1,0.1v-0.1l12-12h2.3c0.5,0,1-0.3,1.2-0.9l0.7-2c0.1-0.4,0.1-0.8-0.2-1.1l7-7l-2.9,9.4c-0.2,0.7,0.2,1.4,0.8,1.6
	c0.1,0,0.2,0.1,0.4,0.1h8.7c0.5,0,1-0.3,1.2-0.8l0.8-1.9c0.1-0.3,0.1-0.7,0-1c-0.1-0.3-0.4-0.6-0.7-0.7c-0.1-0.1-0.3-0.1-0.5-0.1
	h-0.4l4-12.7h5.9l-4.9,15.4c-0.2,0.7,0.2,1.4,0.8,1.6c0.1,0,0.2,0.1,0.4,0.1h9.6c0.5,0,1-0.3,1.2-0.8l0.8-2.1
	c0.2-0.7-0.1-1.4-0.8-1.6c-0.1-0.1-0.3-0.1-0.4-0.1h-0.7l5.4-17.6c0.1-0.4,0.1-0.8-0.2-1.2l-1.8-2.4l0,0c-0.2-0.3-0.6-0.5-1-0.5
	h-6.9c-0.3,0-0.7,0.1-0.9,0.4l-1.9,2.1h-3l-0.2-0.2l21.3-21.3h0.1V63.9L121.5,63.9z M53.6,107.8l7.6-21.6h-2.4l1.4-1.5h7.9
	l-7.5,21.8h3l-0.4,1.2H53.6z M71.3,71.8l0.7,0.7l-1.3,4.4L69.7,78h-4.6l-0.9-0.9l1.5-4.2l1.4-1.2C67.1,71.8,71.3,71.8,71.3,71.8z
	 M33.3,106.3h-8.2l-1.3-0.7V21.3h-5.9l-0.5-0.5v-5.6l0.7-0.7h35.3l1,1v5.3l-0.7,0.8h-5.2v41.6l42.2-41.6h-10L80,20.7v-5.6l0.6-0.5
	h35.9l0.6,0.6v5.1L68.7,70h-1.8c-0.1,0-0.1,0-0.2,0l-0.1,0c-0.2,0-0.4,0.1-0.6,0.3l-1.6,1.4l0,0c-0.2,0.1-0.3,0.3-0.3,0.5l-1.4,4
	C62.6,76.2,33.3,106.3,33.3,106.3z M104.1,87.4l2.3-2.5h6.4l1.5,2l-6.1,19.7h2.4l-0.4,1h-8.5l5.4-17.1h-9.7l-5.2,16.2h2l-0.3,0.8
	h-7.7l5.3-17h-10l-5.1,16h2.1l-0.3,1h-8l7.3-21.4h-2.8l0.4-1.3h7.9l2.5,2.6h4.3l2.4-2.7h5.1l2.3,2.6
	C99.5,87.4,104.1,87.4,104.1,87.4z"/>
</svg>
