<?xml version="1.0" encoding="utf-8"?>
<!-- Generator: Adobe Illustrator 28.0.0, SVG Export Plug-In . SVG Version: 6.00 Build 0)  -->
<svg version="1.1" id="Layer_1" xmlns="http://www.w3.org/2000/svg" xmlns:xlink="http://www.w3.org/1999/xlink" x="0px" y="0px"
	 viewBox="0 0 128 128" style="enable-background:new 0 0 128 128;" xml:space="preserve">
<style type="text/css">
	.st0{fill:#007ACC;}
</style>
<path class="st0" d="M117.9,18.5L94,7c-2.8-1.3-6.1-0.8-8.2,1.4L40,50.1L20.1,35c-1.9-1.4-4.5-1.3-6.2,0.3l-6.4,5.8
	c-2,1.8-2.1,4.9-0.3,6.8c0.1,0.1,0.2,0.2,0.3,0.3L24.8,64L7.5,79.8c-2,1.8-2.1,4.9-0.3,6.8c0.1,0.1,0.2,0.2,0.3,0.3l6.4,5.8
	c1.7,1.6,4.3,1.7,6.2,0.3L40,77.9l45.8,41.8c2.2,2.2,5.5,2.7,8.2,1.4l23.9-11.5c2.5-1.2,4.1-3.8,4.1-6.5V25
	C122.1,22.2,120.5,19.7,117.9,18.5z M93.1,90.4L58.3,64l34.7-26.4V90.4z"/>
</svg>
