<?xml version="1.0" encoding="UTF-8"?><svg id="uuid-c5576c49-07f1-4bca-9f46-4d5b876a8978" xmlns="http://www.w3.org/2000/svg" viewBox="0 0 128 128"><path d="m127.5,18.95l-60.05,107.38c-1.24,2.22-4.43,2.23-5.68.02L.52,18.96c-1.37-2.4.68-5.32,3.41-4.83l60.12,10.75c.38.07.78.07,1.16,0l58.86-10.73c2.72-.49,4.78,2.39,3.43,4.8Z" style="fill:#6f7580;"/><path d="m92.68.03l-44.44,8.71c-.73.14-1.27.76-1.32,1.5l-2.73,46.17c-.06,1.09.93,1.93,2,1.69l12.37-2.86c1.16-.27,2.2.75,1.97,1.92l-3.68,18c-.25,1.21.89,2.25,2.07,1.89l7.64-2.32c1.18-.36,2.32.68,2.07,1.89l-5.84,28.27c-.37,1.77,1.99,2.73,2.97,1.22l.66-1.01,36.21-72.27c.61-1.21-.44-2.59-1.77-2.33l-12.74,2.46c-1.2.23-2.22-.88-1.88-2.05l8.31-28.82c.34-1.17-.68-2.29-1.88-2.05Z" style="fill:#838a96;"/></svg>