<?xml version="1.0" encoding="utf-8"?>
<!-- Generator: Adobe Illustrator 26.1.0, SVG Export Plug-In . SVG Version: 6.00 Build 0)  -->
<svg version="1.1" id="Layer_1" xmlns="http://www.w3.org/2000/svg" xmlns:xlink="http://www.w3.org/1999/xlink" x="0px" y="0px"
	 viewBox="0 0 42 42" style="enable-background:new 0 0 42 42;" xml:space="preserve">
<style type="text/css">
	.st0{fill:#6f7580;}
</style>
<g>
	<path class="st0" d="M14.3,9.2c0,0-1.5,0.9-1.5,2.6c0,1.7,0,8.5,0,8.5s0,1.7-1.5,0.9s-1.5-2.6-1.5-2.6s0-6.8,0-8.5
		c0-0.1,0-0.2,0-0.3c0.2-1.5,1.5-2.2,1.5-2.2l-3-1.7l0,0c-0.1,0-1.5,0.9-1.5,2.6c0,1.7,0,8.5,0,8.5s0,1.7-1.5,0.9
		C4,16.8,4,15.1,4,15.1s0-6.8,0-8.5S5.4,4,5.4,4l-3-1.7c0,0-1.5,0.9-1.5,2.6c0,1.7,0,8.5,0,8.5s0,5.1,4.4,7.7c1.4,0.8,2.3,0.8,3,0.6
		c0.7,1,1.6,2.1,3,2.9c4.4,2.6,4.4-2.6,4.4-2.6s0-6.8,0-8.5s1.5-2.6,1.5-2.6c-0.5-0.6-0.9-1-1.2-1.2C15.8,9.5,15.2,9.3,14.3,9.2z"/>
	<path class="st0" d="M30.6,23.7c0-5.1,4.4-2.6,4.4-2.6l0,0l5.9,3.4V28L35,24.5c0,0,0,0,0,0l0,0c-0.3-0.1-1.4-0.6-1.4,0.9
		c0,1.7,1.5,2.6,1.5,2.6l0,0l3,1.7c0,0,3,1.7,3,6.8S36.6,39,36.6,39l0,0l-5.9-3.4v-3.4l5.9,3.4c0,0,1.5,0.9,1.5-0.9
		c0-1.7-1.5-2.6-1.5-2.6l0,0l-1.5-0.9C35,31.3,30.6,28.7,30.6,23.7z M26.2,16c0.9,0.1,1.5,0.2,1.8,0.4c0.3,0.2,0.7,0.6,1.2,1.3
		c0,0-1.5,0.9-1.5,2.6l0,0v8.6c0,0.3-0.1,5-4.4,2.5s-4.4-7.4-4.4-7.7v0l3,1.7l0,0l0,0c0,0.1,0,1.7,1.5,2.6c1.4,0.8,1.5-0.7,1.5-0.8
		v-8.5C24.7,16.8,26.2,16,26.2,16z M18.8,16.9l3,1.7V22l-3-1.7V16.9z"/>
	<path class="st0" d="M35.1,9.2c-1.4-0.8-2.6-1.2-3.6-1.3c-0.3-0.6-0.9-1.3-2.3-2.1c-4.4-2.5-8.9,0-8.9,0l-5.9,3.4l3,1.7l5.9-3.4
		c0,0,1.5-0.9,3,0s0,1.7,0,1.7l-5.9,3.4l0,0l0,0l3,1.7l5.9-3.4c0.1,0,1.5-0.8,3,0c1.5,0.9,0,1.7,0,1.7L26.2,16l3,1.7l7.4-4.3
		C36.5,13.4,39.5,11.7,35.1,9.2z"/>
</g>
</svg>
