<?xml version="1.0" encoding="utf-8"?>
<!-- Generator: Adobe Illustrator 26.1.0, SVG Export Plug-In . SVG Version: 6.00 Build 0)  -->
<svg version="1.1" id="Layer_1" xmlns="http://www.w3.org/2000/svg" xmlns:xlink="http://www.w3.org/1999/xlink" x="0px" y="0px"
	 viewBox="0 0 256 240" style="enable-background:new 0 0 256 240;" xml:space="preserve">
<style type="text/css">
	.st0{fill:#FFFFFF;}
</style>
<g>
	<path class="st0" d="M85.4,43.8c0,0-9.5,5.5-9.5,16.4c0,11,0,54.7,0,54.7s0,11-9.5,5.5s-9.5-16.4-9.5-16.4s0-43.7,0-54.7
		c0-0.7,0-1.3,0.1-2c1-9.6,9.4-14.4,9.4-14.4l-19-10.9c0,0,0,0,0,0c-0.6,0.3-9.5,5.8-9.5,16.4c0,11,0,54.7,0,54.7s0,11-9.5,5.5
		C19,93,19,82,19,82s0-43.7,0-54.7S28.4,11,28.4,11L9.5,0C9.5,0,0,5.5,0,16.4c0,11,0,54.7,0,54.7s0,32.8,28.4,49.3
		c8.7,5,14.8,5.4,19,3.6c4.2,6.7,10.2,13.3,19,18.3c28.4,16.4,28.4-16.4,28.4-16.4s0-43.7,0-54.7c0-11,9.5-16.4,9.5-16.4
		c-2.9-3.7-5.5-6.2-7.8-7.5C94.6,46.1,90.9,45,85.4,43.8z"/>
	<path class="st0" d="M189.6,136.8c0-32.4,28.4-16.4,28.4-16.4l0,0l37.9,21.9v21.9l-37.9-21.9c0,0-0.1-0.1-0.3-0.2l-0.1-0.1
		c-1.9-0.9-9-3.8-9,5.7c0,10.9,9.5,16.4,9.5,16.4l0,0l19,10.9c0,0,19,11,19,43.8s-28.4,16.4-28.4,16.4l0,0l-37.9-21.9v-21.9
		l37.9,21.9c0,0,9.5,5.5,9.5-5.5c0-10.9-9.5-16.4-9.5-16.4l0,0l-9.5-5.5C217.5,185.7,189.6,168.9,189.6,136.8z M161.2,87.6
		c5.7,0.7,9.5,1.6,11.5,2.7c2.2,1.3,4.7,4,7.4,8.2c0,0-9.5,5.5-9.5,16.4l0,0l0,54.8c0,1.8-0.9,32.3-28.4,16.3s-28.4-47.3-28.4-49.2
		l0-0.1l19,11l0,0l0,0c0,0.7,0.3,11.1,9.5,16.4c9.2,5.3,9.5-4.8,9.5-5.4l0-54.7C151.7,93,161.2,87.6,161.2,87.6z M113.8,93.2
		l19,10.9V126l-19-10.9V93.2z"/>
	<path class="st0" d="M218.1,43.8c-8.7-5.1-16.6-7.5-23.2-8.5c-1.7-3.8-6-8.3-14.7-13.2c-28.4-16.2-56.9-0.2-56.9-0.2L85.4,43.8
		l19,10.9l37.9-21.9c0,0,9.5-5.5,19,0c9.5,5.5,0,11,0,11l-37.9,21.9l0,0l0,0l19,10.9l37.9-21.9c0.6-0.3,9.7-5.3,18.9,0
		c9.5,5.5,0,10.9,0,10.9l-37.9,21.9l19,11l47.4-27.4C227.6,71.1,246.5,60.2,218.1,43.8z"/>
</g>
</svg>
