<?xml version="1.0" encoding="utf-8"?>
<!-- Generator: Adobe Illustrator 28.0.0, SVG Export Plug-In . SVG Version: 6.00 Build 0)  -->
<svg version="1.1" id="Layer_1" xmlns="http://www.w3.org/2000/svg" xmlns:xlink="http://www.w3.org/1999/xlink" x="0px" y="0px"
	 viewBox="0 0 128 128" style="enable-background:new 0 0 128 128;" xml:space="preserve">
<style type="text/css">
	.st0{fill:#9BA1AB;}
</style>
<path class="st0" d="M5.4,41.5l10.4,45.7h3.9c3.6,0,6.7-2.5,7.4-6L33.8,50c0.1-0.4,0.4-0.7,0.8-0.7c0.4,0,0.7,0.3,0.8,0.7l6.7,31.2
	c0.7,3.5,3.8,6,7.4,6h4l10.4-45.7h-2.8c-3.1,0-5.7,2.1-6.4,5.1l-6.2,27.3l-5.4-25.5c-1-4.7-5.6-7.6-10.3-6.6c-0.2,0-0.3,0.1-0.5,0.1
	c-3.1,0.9-5.5,3.5-6.2,6.7l-5.4,25.2l-6.2-27.2c-0.7-3-3.3-5.1-6.4-5.1H5.4z M74.3,41.5c-2.6,0-4.7,2.1-4.7,4.7v41h3.1
	c2.6,0,4.7-2.1,4.7-4.7V41.5L74.3,41.5L74.3,41.5z M83.1,41.5l15.5,22.9L83.1,87.2h6.5c1.8,0,3.5-0.9,4.5-2.4l8.6-12.7
	c0.2-0.3,0.6-0.3,0.8-0.1c0.1,0,0.1,0.1,0.1,0.1l8.6,12.7c1,1.5,2.7,2.4,4.5,2.4h6.5L108,64.4l15.5-22.9H117c-1.8,0-3.5,0.9-4.5,2.4
	l-8.7,12.9c-0.2,0.3-0.6,0.3-0.8,0.1c-0.1,0-0.1-0.1-0.1-0.1l-8.7-12.9c-1-1.5-2.7-2.4-4.5-2.4C89.6,41.5,83.1,41.5,83.1,41.5z"/>
</svg>
