<?xml version="1.0" encoding="utf-8"?>
<!-- Generator: Adobe Illustrator 28.0.0, SVG Export Plug-In . SVG Version: 6.00 Build 0)  -->
<svg version="1.1" id="Layer_1" xmlns="http://www.w3.org/2000/svg" xmlns:xlink="http://www.w3.org/1999/xlink" x="0px" y="0px"
	 viewBox="0 0 128 128" style="enable-background:new 0 0 128 128;" xml:space="preserve">
<style type="text/css">
	.st0{fill:#9BA1AB;}
</style>
<path class="st0" d="M111.6,38c4.2,7.7,6.6,16.6,6.6,26c0,20-10.8,37.5-27,46.9L107.8,63c3.1-7.7,4.1-13.9,4.1-19.4
	C112,41.5,111.8,39.6,111.6,38 M71.5,38.5c3.3-0.2,6.2-0.5,6.2-0.5c2.9-0.4,2.6-4.7-0.3-4.5c0,0-8.8,0.7-14.5,0.7
	c-5.4,0-14.3-0.8-14.3-0.8c-2.9-0.2-3.3,4.3-0.4,4.5c0,0,2.7,0.3,5.7,0.5l8.4,23.2L50.3,97L30.6,38.4c3.3-0.2,6.2-0.5,6.2-0.5
	c2.9-0.4,2.6-4.7-0.3-4.5c0,0-8.8,0.7-14.5,0.7c-1,0-2.2,0-3.5-0.1C28.4,19.5,45.1,9.8,64,9.8c14.1,0,27,5.4,36.6,14.2
	c-0.2,0-0.5,0-0.7,0c-5.3,0-9.1,4.6-9.1,9.6c0,4.5,2.6,8.3,5.3,12.7c2.1,3.6,4.5,8.3,4.5,15c0,4.6-1.8,10-4.1,17.5l-5.4,18
	L71.5,38.5C71.5,38.4,71.5,38.5,71.5,38.5z M64,118.2c-5.3,0-10.5-0.8-15.3-2.2L65,68.7l16.7,45.7c0.1,0.3,0.3,0.5,0.4,0.7
	C76.4,117.2,70.3,118.2,64,118.2 M9.7,64c0-7.9,1.7-15.3,4.7-22.1l25.9,70.9C22.2,104,9.8,85.5,9.7,64 M64,3.7
	C30.7,3.7,3.7,30.7,3.7,64s27.1,60.3,60.3,60.3s60.3-27.1,60.3-60.3S97.3,3.7,64,3.7"/>
</svg>
