<?xml version="1.0" encoding="utf-8"?>
<!-- Generator: Adobe Illustrator 28.0.0, SVG Export Plug-In . SVG Version: 6.00 Build 0)  -->
<svg version="1.1" id="Layer_1" xmlns="http://www.w3.org/2000/svg" xmlns:xlink="http://www.w3.org/1999/xlink" x="0px" y="0px"
	 viewBox="0 0 128 128" style="enable-background:new 0 0 128 128;" xml:space="preserve">
<style type="text/css">
	.st0{fill:#6F7580;}
</style>
<path class="st0" d="M99.7,30.3c2.3-1,3.9-1.3,5.5-1c2.6,0.6,3.9,2.6,4.8,3.5c1,1.9,4.5,3.9,6.1,4.2c1.3,0.3,3.5-3.2,5.2-6.5
	c1.6-2.9,2.6-6.8,2.3-7.7c-0.3-1-4.8-2.9-5.8-2.9c-0.6,0-1.9,0.6-4.2,0.3c-2.3-0.3-4.5-2.9-5.8-4.8c-2.3-3.2-5.5-5.2-8.4-6.8
	C96.1,7.1,92.6,6.1,89,5.4c-5.2-1.3-10.3-2.3-15.5-1.6c-2.9,0.3-6.5,0.6-9,1.6c-0.3,0-1,1-0.3,1c0.6,0,2.9,0.3,2.9,0.3
	S64.2,7.4,64.2,8s0.3,0.6,0.6,0.6c0.3,0,7.4-0.3,10.3,0c3.2,0.6,6.8,2.3,9,6.1c3.9,7.1,2.3,13.9,1.3,16.1
	c-4.8,10.6-43.2,76.1-45.2,80.7c-1.9,4.5-2.6,7.4,2.9,10.3c5.5,2.9,8.4,1.6,10-0.3C55.1,119,88.4,35.8,99.7,30.3z M81.6,73.8h7.7
	c5.2,0,6.1,2.6,6.1,3.5c0.3,2.6-1,5.8-6.1,5.8h-4.8l3.9,6.5c2.3,3.9,1.3,5.8,0,7.1c-1.9,1.9-6.1,1.9-8.4-2.3l-4.5-7.7
	c-3.2,7.1-6.5,14.8-10.3,23.9h20c9.7,0,17.7-8.1,17.7-17.7V36.4c-0.3-0.6-1-0.3-1.3,0C99.7,38.7,94.2,46.4,81.6,73.8z M32.6,113.9
	h-1.6c-11.6,0-21-9.4-21-21V38.7c0-11.6,9.4-21,21-21h46.8c-1-1-4.8-2.6-8.7-2.3c-1.6,0-4.8,0.6-6.8-0.6c-1.9-1.6-1.6-2.6-4.5-2.6
	H29c-13.2,0-23.9,10.6-23.9,23.9v58.7c0,13.2,10.6,23.9,22.3,23.6C30.6,118.4,31.6,115.8,32.6,113.9z M106.4,38.3v54.5
	c0,11.6-9.4,21-21,21H63.9c0,0-1.9,5.2,4.2,5.2h19.4c13.2,0,23.9-10.6,23.9-23.9V47.7C111.6,43.2,107.7,40.3,106.4,38.3z M13.5,38.7
	v54.2c0,9.7,8.1,17.7,17.7,17.7h2.9c0-0.3,3.9-7.1,12.3-21.3c1-1.9,2.3-3.9,3.5-6.1H26.4c-2.9,0-4.5-1.9-4.8-3.5
	c-0.6-2.6,1-5.8,4.5-5.8H38l15.2-26.5c0,0-3.5-6.5-4.5-8.1c-1.3-2.3-0.6-4.5,0.6-5.8c1.9-1.9,5.2-2.9,8.4,2.3l1.3,1.9l1.3-1.9
	c2.9-4.2,4.8-3.9,6.5-3.5c2.6,0.6,4.2,3.5,1.9,8.1l-20,33.6h6.8c2.3-3.9,4.5-7.7,6.8-11.9c-0.3-1.6-0.6-3.5-0.3-5.2
	c0.3-2.6,1.6-4.8,3.2-6.8l1.9,3.2C73.2,42.5,77.7,33.5,79,30c0.6-1.9,1.6-5.8,0.6-9H31.3C21.3,20.9,13.5,29,13.5,38.7z M27.4,92.6
	c0-0.3,3.9-7.1,3.9-7.1c6.1-1.6,9,2.3,9.4,2.6c0,0-4.2,7.4-5.5,8.7c-1.3,1.3-2.9,1.6-4.5,1.3C28,97.4,26.4,94.8,27.4,92.6z"/>
</svg>
