<?xml version="1.0" encoding="utf-8"?>
<!-- Generator: Adobe Illustrator 28.0.0, SVG Export Plug-In . SVG Version: 6.00 Build 0)  -->
<svg version="1.1" id="Layer_1" xmlns="http://www.w3.org/2000/svg" xmlns:xlink="http://www.w3.org/1999/xlink" x="0px" y="0px"
	 viewBox="0 0 128 128" style="enable-background:new 0 0 128 128;" xml:space="preserve">
<style type="text/css">
	.st0{fill:#147EFB;}
</style>
<path class="st0" d="M99.8,30.6c2.3-1,3.9-1.3,5.5-1c2.6,0.6,3.9,2.6,4.8,3.5c1,1.9,4.5,3.9,6.1,4.2c1.3,0.3,3.5-3.2,5.2-6.5
	c1.6-2.9,2.6-6.8,2.3-7.7c-0.3-1-4.8-2.9-5.8-2.9c-0.6,0-1.9,0.6-4.2,0.3c-2.3-0.3-4.5-2.9-5.8-4.8c-2.3-3.2-5.5-5.2-8.4-6.8
	c-3.2-1.6-6.8-2.6-10.3-3.2C84,4.5,78.8,3.5,73.6,4.1c-2.9,0.3-6.5,0.6-9,1.6c-0.3,0-1,1-0.3,1S67.2,7,67.2,7s-2.9,0.6-2.9,1.3
	S64.6,9,64.9,9c0.3,0,7.4-0.3,10.3,0c3.2,0.6,6.8,2.3,9,6.1c3.9,7.1,2.3,13.9,1.3,16.1c-4.8,10.6-43.2,76.1-45.2,80.7
	c-1.9,4.5-2.6,7.4,2.9,10.3c5.5,2.9,8.4,1.6,10-0.3C55.2,119.3,88.5,36.1,99.8,30.6z M81.7,74.1h7.7c5.2,0,6.1,2.6,6.1,3.5
	c0.3,2.6-1,5.8-6.1,5.8h-4.8l3.9,6.5c2.3,3.9,1.3,5.8,0,7.1c-1.9,1.9-6.1,1.9-8.4-2.3l-4.5-7.7c-3.2,7.1-6.5,14.8-10.3,23.9h20
	c9.7,0,17.7-8.1,17.7-17.7V36.7c-0.3-0.6-1-0.3-1.3,0C99.8,39,94.3,46.7,81.7,74.1z M32.7,114.2H31c-11.6,0-21-9.4-21-21V39
	c0-11.6,9.4-21,21-21h46.8c-1-1-4.8-2.6-8.7-2.3c-1.6,0-4.8,0.6-6.8-0.6c-1.9-1.6-1.6-2.6-4.5-2.6H29.1c-13.2,0-23.9,10.6-23.9,23.9
	v58.7c0,13.2,10.6,23.9,22.3,23.6C30.7,118.7,31.7,116.1,32.7,114.2z M106.5,38.7v54.5c0,11.6-9.4,21-21,21H64c0,0-1.9,5.2,4.2,5.2
	h19.4c13.2,0,23.9-10.6,23.9-23.9V48C111.7,43.5,107.8,40.6,106.5,38.7z M13.6,39v54.2c0,9.7,8.1,17.7,17.7,17.7h2.9
	c0-0.3,3.9-7.1,12.3-21.3c1-1.9,2.3-3.9,3.5-6.1H26.5c-2.9,0-4.5-1.9-4.8-3.5c-0.6-2.6,1-5.8,4.5-5.8h11.9l15.2-26.5
	c0,0-3.5-6.5-4.5-8.1c-1.3-2.3-0.6-4.5,0.6-5.8c1.9-1.9,5.2-2.9,8.4,2.3l1.3,1.9l1.3-1.9c2.9-4.2,4.8-3.9,6.5-3.5
	c2.6,0.6,4.2,3.5,1.9,8.1l-20,33.6h6.8c2.3-3.9,4.5-7.7,6.8-11.9C62,60.6,61.7,58.7,62,57c0.3-2.6,1.6-4.8,3.2-6.8l1.9,3.2
	c6.1-10.6,10.6-19.7,11.9-23.2c0.6-1.9,1.6-5.8,0.6-9H31.4C21.4,21.2,13.6,29.3,13.6,39z M27.5,92.9c0-0.3,3.9-7.1,3.9-7.1
	c6.1-1.6,9,2.3,9.4,2.6c0,0-4.2,7.4-5.5,8.7s-2.9,1.6-4.5,1.3C28.1,97.7,26.5,95.1,27.5,92.9z"/>
</svg>
