<?xml version="1.0" encoding="UTF-8" standalone="no"?>
<svg
   inkscape:version="1.1.2 (0a00cf5339, 2022-02-04)"
   sodipodi:docname="yocto.svg"
   version="1.1"
   id="svg2"
   xml:space="preserve"
   width="125.02575"
   height="125.02575"
   viewBox="0 0 125.02575 125.02575"
   xmlns:inkscape="http://www.inkscape.org/namespaces/inkscape"
   xmlns:sodipodi="http://sodipodi.sourceforge.net/DTD/sodipodi-0.dtd"
   xmlns="http://www.w3.org/2000/svg"
   xmlns:svg="http://www.w3.org/2000/svg"
   xmlns:rdf="http://www.w3.org/1999/02/22-rdf-syntax-ns#"
   xmlns:cc="http://creativecommons.org/ns#"
   xmlns:dc="http://purl.org/dc/elements/1.1/"><sodipodi:namedview
     inkscape:current-layer="g12"
     inkscape:window-maximized="1"
     inkscape:window-y="27"
     inkscape:window-x="70"
     inkscape:cy="42.712043"
     inkscape:cx="73.042393"
     inkscape:zoom="5.2093036"
     showgrid="false"
     id="namedview27"
     inkscape:window-height="1376"
     inkscape:window-width="3370"
     inkscape:pageshadow="2"
     inkscape:pageopacity="0"
     guidetolerance="10"
     gridtolerance="10"
     objecttolerance="10"
     borderopacity="1"
     bordercolor="#666666"
     pagecolor="#ffffff"
     inkscape:pagecheckerboard="true"
     fit-margin-top="0"
     fit-margin-left="0"
     fit-margin-right="0"
     fit-margin-bottom="0" /><metadata
     id="metadata8"><rdf:RDF><cc:Work
         rdf:about=""><dc:format>image/svg+xml</dc:format><dc:type
           rdf:resource="http://purl.org/dc/dcmitype/StillImage" /></cc:Work></rdf:RDF></metadata><defs
     id="defs6" /><g
     id="g10"
     transform="matrix(0.33333177,0,0,-0.33333177,0,54.635077)"><g
       id="g12"
       transform="scale(0.1)"><path
         inkscape:connector-curvature="0"
         d="M 796.738,393.53542 676.184,461.83538 433.375,-30.172483 174.371,461.83538 52.2461,393.53542 360.098,-184.82049 c -2.223,-5.47699 -9.274,-20.625 -21.157,-45.704 -12.011,-23.90599 -24.429,-47.792 -37.488,-71.718 -22.859,-41.27399 -46.105,-74.83999 -70.004,-100.96099 -23.906,-27.16 -48.336,-48.84001 -73.406,-65.172 -24.945,-16.32801 -50.938,-28.731 -78.1055,-37.48101 C 53.8125,-514.48449 27.168,-521.54348 0,-527.02448 l 55.5117,-115.73 c 17.375,2.23 40.6211,7.71899 70.0113,16.33199 30.43,7.57801 63.477,22.328 99.395,44.02001 35.785,21.67899 72.227,52.636 109.059,92.85899 38.14,40.23 73.406,93.391 105.925,159.609 l 356.836,723.46991"
         style="fill:#9ba1ab;fill-opacity:1;fill-rule:nonzero;stroke:none"
         id="path16" /><path
         inkscape:connector-curvature="0"
         d="m 1455.8,33.440518 c 0,-38.0070006 -6.52,-73.281001 -19.59,-105.928997 -13.07,-32.520001 -30.96,-60.868001 -53.68,-84.637011 -21.81,-22.852 -47.8,-41.26999 -78.23,-55.508 -29.4,-12.92999 -61.39,-19.453 -96.14,-19.453 -34.74,0 -67.39,6.52301 -97.69,19.453 -30.43,14.23801 -57.08,32.656 -79.94,55.508 -21.68,23.76901 -39.046,52.11701 -52.112,84.637011 -13.059,32.647996 -19.59,67.9219964 -19.59,105.928997 0,38.005001 6.531,73.264982 19.59,105.894982 13.066,32.54998 30.432,60.76998 52.112,84.67996 22.86,23.9 49.51,42.43 79.94,55.36 30.3,14.25998 62.95,21.30998 97.69,21.30998 34.75,0 66.74,-7.05 96.14,-21.30998 30.43,-12.93 56.42,-31.46 78.23,-55.36 22.72,-23.90998 40.61,-52.12998 53.68,-84.67996 13.07,-32.63 19.59,-67.889981 19.59,-105.894982 m 151.51,0 c 0,56.425001 -10.32,109.184982 -30.95,158.034962 -19.59,48.84998 -47.28,91.17996 -83.07,127.07996 -35.92,35.79998 -78.23,63.47998 -127.08,83.07996 -48.85,20.61 -101.62,30.95 -158.05,30.95 -56.42,0 -109.2,-10.34 -158.04,-30.95 -48.84,-19.59998 -91.292,-47.27998 -127.085,-83.07996 -35.789,-35.9 -64.129,-78.22998 -84.765,-127.07996 C 817.637,142.6255 807.324,89.865519 807.324,33.440518 c 0,-56.425001 10.313,-109.198997 30.946,-158.047008 20.636,-47.804 48.976,-89.589 84.765,-125.39 35.793,-35.91799 78.245,-64.12099 127.085,-84.77 48.84,-19.59 101.62,-29.386 158.04,-29.386 56.43,0 109.2,9.796 158.05,29.386 48.85,20.64901 91.16,48.85201 127.08,84.77 35.79,35.801 63.48,77.586 83.07,125.39 20.63,48.848011 30.95,101.622007 30.95,158.047008"
         style="fill:#9ba1ab;fill-opacity:1;fill-rule:nonzero;stroke:none"
         id="path18" /><path
         inkscape:connector-curvature="0"
         d="m 3599.29,33.440518 c 0,-38.0070006 -6.54,-73.281001 -19.6,-105.928997 -13.07,-32.520001 -30.95,-60.868001 -53.82,-84.637011 -21.68,-22.852 -47.67,-41.26999 -78.1,-55.508 -29.39,-12.92999 -61.39,-19.453 -96.13,-19.453 -34.75,0 -67.4,6.52301 -97.83,19.453 -30.3,14.23801 -56.94,32.656 -79.8,55.508 -21.69,23.76901 -39.06,52.11701 -52.12,84.637011 -13.06,32.647996 -19.6,67.9219964 -19.6,105.928997 0,38.005001 6.54,73.264982 19.6,105.894982 13.06,32.54998 30.43,60.76998 52.12,84.67996 22.86,23.9 49.5,42.43 79.8,55.36 30.43,14.25998 63.08,21.30998 97.83,21.30998 34.74,0 66.74,-7.05 96.13,-21.30998 30.43,-12.93 56.42,-31.46 78.1,-55.36 22.87,-23.90998 40.75,-52.12998 53.82,-84.67996 13.06,-32.63 19.6,-67.889981 19.6,-105.894982 m 151.5,0 c 0,56.425001 -10.32,109.184982 -30.96,158.034962 -19.59,48.84998 -47.28,91.17996 -83.06,127.07996 -35.92,35.79998 -78.23,63.47998 -127.09,83.07996 -48.85,20.61 -101.61,30.95 -158.04,30.95 -56.56,0 -109.19,-10.34 -158.05,-30.95 -48.84,-19.59998 -91.3,-47.27998 -127.08,-83.07996 -35.79,-35.9 -64.13,-78.22998 -84.77,-127.07996 -20.63,-48.84998 -30.95,-101.609961 -30.95,-158.034962 0,-56.425001 10.32,-109.198997 30.95,-158.047008 20.64,-47.804 48.98,-89.589 84.77,-125.39 35.78,-35.91799 78.24,-64.12099 127.08,-84.77 48.86,-19.59 101.49,-29.386 158.05,-29.386 56.43,0 109.19,9.796 158.04,29.386 48.86,20.64901 91.17,48.85201 127.09,84.77 35.78,35.801 63.47,77.586 83.06,125.39 20.64,48.848011 30.96,101.622007 30.96,158.047008"
         style="fill:#9ba1ab;fill-opacity:1;fill-rule:nonzero;stroke:none"
         id="path20" /><path
         inkscape:connector-curvature="0"
         d="M 2676.51,679.05532 2531.4,597.56534 V 419.3754 h -392.37 c -283.29,0 -454,-138.01996 -454,-389.469882 0,-390.531008 406.85,-464.198998 696.16,-324.570008 l -60.99,118.34 c -228.97,-100.039 -482.49,-57.461 -482.49,208.847008 0,171.892962 89.48,265.932922 297.8,265.932922 h 395.89 v -474.77993 c 0,-209.899 240.45,-214.59 389.48,-128.535 l -57.34,113.26101 c -95.87,-48.59301 -187.03,-54.86301 -187.03,38.26199 v 451.79193 h 198.53 V 419.3754 h -198.53 v 259.67992 0"
         style="fill:#9ba1ab;fill-opacity:1;fill-rule:nonzero;stroke:none"
         id="path22" /><path
         inkscape:connector-curvature="0"
         d="m 1037.58,-726.34449 h 36.32 c 18.29,0.141 36.18,-12.92999 36.18,-31.469 0,-31.089 -35.01,-35.79999 -35.01,-35.79999 l -37.49,-0.25 z m -52.365,44.41 v -274.15983 h 52.365 l 0.66,115.60983 c 93.38,-5.879 128.26,26.64 128.26,83.96 0,51.46901 -46.11,74.59 -90.39,74.59 h -90.895 v 0"
         style="fill:#9ba1ab;fill-opacity:1;fill-rule:nonzero;stroke:none"
         id="path24" /><path
         inkscape:connector-curvature="0"
         d="m 1986.62,-819.19549 c 0,-13.34 -2.49,-25.879 -7.45,-37.49999 -4.58,-11.227 -11.1,-21.1488 -19.6,-29.6488 -8.49,-8.4805 -18.41,-15.1407 -29.78,-20.1211 -11.23,-4.5703 -23.5,-6.9102 -36.57,-6.9102 -13.19,0 -25.47,2.3399 -36.7,6.9102 -11.36,4.9804 -21.29,11.6406 -29.78,20.1211 -8.22,8.5 -14.76,18.4218 -19.59,29.6488 -4.96,11.62099 -7.44,24.15999 -7.44,37.49999 0,13.32 2.48,25.72201 7.44,37.089 4.83,11.481 11.37,21.54301 19.59,30.043 8.49,8.469 18.42,15.02001 29.78,19.71901 11.23,4.82799 23.51,7.30899 36.7,7.30899 13.07,0 25.34,-2.481 36.57,-7.30899 11.37,-4.699 21.29,-11.25001 29.78,-19.71901 8.5,-8.49999 15.02,-18.562 19.6,-30.043 4.96,-11.36699 7.45,-23.769 7.45,-37.089 m 53.16,0 c 0,19.58901 -3.8,37.871 -11.5,54.83901 -7.45,17.24999 -17.9,32.133 -31.35,44.67199 -13.06,12.68001 -28.61,22.602 -46.63,29.782 -17.76,7.468 -36.96,11.23801 -57.47,11.23801 -20.63,0 -39.96,-3.77001 -57.99,-11.23801 -17.76,-7.18 -33.17,-17.10199 -46.24,-29.782 -13.19,-12.53899 -23.5,-27.422 -31.34,-44.67199 -7.46,-16.96801 -11.11,-35.25 -11.11,-54.83901 0,-19.868 3.65,-38.27799 11.11,-55.25819 7.84,-16.9922 18.15,-31.8711 31.34,-44.6602 13.07,-12.6797 28.48,-22.60154 46.24,-29.78904 18.03,-7.1914 37.36,-10.8398 57.99,-10.8398 20.51,0 39.71,3.6484 57.47,10.8398 18.02,7.1875 33.57,17.10934 46.63,29.78904 13.45,12.7891 23.9,27.668 31.35,44.6602 7.7,16.9802 11.5,35.39019 11.5,55.25819"
         style="fill:#9ba1ab;fill-opacity:1;fill-rule:nonzero;stroke:none"
         id="path26" /><path
         inkscape:connector-curvature="0"
         d="m 2253.58,-682.43449 v -207.81999 c 0,-8.3594 -6.14,-17.6289 -16.32,-17.8906 l -16.32,-0.6602 0.91,-50.93744 15.28,-0.25 c 51.2,-0.7813 68.95,47.39844 68.95,69.87884 v 207.26939"
         style="fill:#9ba1ab;fill-opacity:1;fill-rule:nonzero;stroke:none"
         id="path28" /><path
         inkscape:connector-curvature="0"
         d="m 2699.76,-681.79349 h -174.77 v -273.24223 h 175.55 l -0.78,44.00004 H 2577.5 v 71.33219 h 102.28 v 44.00001 H 2577.5 v 69.10899 h 121.47 l 0.79,44.801"
         style="fill:#9ba1ab;fill-opacity:1;fill-rule:nonzero;stroke:none"
         id="path30" /><path
         inkscape:connector-curvature="0"
         d="m 3102.69,-747.36349 c -89.46,49.109 -177.63,19.32 -177.63,-70.661 0,-72.49949 69.62,-128.26123 184.16,-68.31979 l 16.59,-44.7891 c -109.98,-60.46094 -254.69,-17.38284 -254.69,113.10889 0,118.2 128.39,179.731 253.12,114.94201 l -21.55,-44.28101"
         style="fill:#9ba1ab;fill-opacity:1;fill-rule:nonzero;stroke:none"
         id="path32" /><path
         inkscape:connector-curvature="0"
         d="m 3521.83,-681.79349 0.12,-44.801 h -87.24 v -229.21863 h -52.51 v 229.21863 h -83.71 l 1.17,44.801 h 222.17"
         style="fill:#9ba1ab;fill-opacity:1;fill-rule:nonzero;stroke:none"
         id="path34" /><path
         inkscape:connector-curvature="0"
         d="m 1426.42,-726.34449 h 36.31 c 18.29,0.141 36.18,-12.92999 36.18,-31.469 0,-31.089 -35,-35.79999 -35,-35.79999 l -37.49,-0.25 z m -52.25,44.41 v -274.15983 h 52.25 v 117.94883 h 34.62 l 60.59,-117.94883 h 59.56 l -72.23,132.19184 c 28.61,12.78899 43.5,35.26899 43.5,67.37799 0,53.55901 -46.89,74.59 -98.49,74.59 h -79.8 v 0"
         style="fill:#9ba1ab;fill-opacity:1;fill-rule:nonzero;stroke:none"
         id="path36" /></g></g></svg>
